<svg width="115" height="31" viewBox="0 0 115 31" fill="none" xmlns="http://www.w3.org/2000/svg">
<g clip-path="url(#clip0_154_151)">
<path fill-rule="evenodd" clip-rule="evenodd" d="M39.3418 5.21094H114.999V26.9591H96.9178V25.4621H113.477V6.7079H39.3418V5.21094Z" fill="url(#paint0_linear_154_151)"/>
<path d="M10.2203 18.9072V30.8249H8.00764L2.74301 23.3304H2.63752V30.8249H0.0830078V18.9072H2.32962L7.56063 26.4021H7.66612V18.9072H10.2203ZM15.8321 30.9997C14.9156 30.9997 14.1244 30.8087 13.4523 30.421C12.7831 30.0333 12.2695 29.4956 11.9085 28.8045C11.5478 28.1137 11.3672 27.3114 11.3672 26.3937C11.3672 25.4656 11.5478 24.6572 11.9085 23.9664C12.2695 23.2756 12.7831 22.7378 13.4523 22.3501C14.1244 21.9621 14.9156 21.7712 15.8321 21.7712C16.7538 21.7712 17.5509 21.9621 18.2198 22.3501C18.889 22.7378 19.4055 23.2756 19.7665 23.9664C20.1275 24.6572 20.3078 25.4653 20.3078 26.3937C20.3078 27.3111 20.1275 28.1137 19.7665 28.8045C19.4055 29.4956 18.889 30.0333 18.2198 30.421C17.5509 30.8087 16.7538 30.9997 15.8321 30.9997ZM15.8485 29.0641C16.2649 29.0641 16.615 28.9497 16.8982 28.7176C17.1813 28.4855 17.3923 28.1662 17.5367 27.762C17.6811 27.3551 17.7533 26.8965 17.7533 26.3775C17.7533 25.8559 17.6811 25.3949 17.5367 24.9933C17.3923 24.5946 17.1813 24.2808 16.8982 24.0513C16.615 23.8221 16.2652 23.7074 15.8485 23.7074C15.4269 23.7074 15.0715 23.8221 14.788 24.0513C14.5019 24.2808 14.2883 24.5949 14.1439 24.9933C14.0021 25.3946 13.9299 25.8559 13.9299 26.3775C13.9299 26.8965 14.0021 27.3551 14.1439 27.762C14.2883 28.1659 14.5019 28.4855 14.788 28.7176C15.0712 28.9497 15.4266 29.0641 15.8485 29.0641ZM29.59 21.8837L26.4164 30.8253H23.5701L20.4051 21.8837H23.0651L24.9751 28.289H25.0753L26.9524 21.8837H29.59ZM32.6802 30.9948C32.1056 30.9919 31.589 30.8937 31.1311 30.6943C30.6729 30.4924 30.3146 30.1948 30.0538 29.8012C29.793 29.4054 29.6622 28.9166 29.6622 28.3296C29.6622 27.8274 29.7568 27.4096 29.9397 27.0764C30.123 26.7435 30.3756 26.4728 30.695 26.2656C31.0174 26.0582 31.381 25.8997 31.7862 25.793C32.1943 25.6864 32.6248 25.6128 33.0804 25.569C33.6052 25.5227 34.0298 25.4734 34.3492 25.4244C34.6687 25.3781 34.9044 25.3045 35.0517 25.206C35.2017 25.1074 35.2769 24.9654 35.2769 24.7774V24.7392C35.2769 24.3706 35.1576 24.084 34.9215 23.8821C34.6855 23.6801 34.3552 23.579 33.9273 23.579C33.4747 23.579 33.1167 23.6746 32.8473 23.8711C32.581 24.0649 32.4029 24.3106 32.3143 24.6111L29.9819 24.4254C30.1013 23.8821 30.3343 23.4127 30.6818 23.0137C31.0286 22.6179 31.476 22.3096 32.0258 22.0937C32.5783 21.8781 33.2169 21.7715 33.9415 21.7715C34.4468 21.7715 34.9301 21.8289 35.3906 21.9465C35.8518 22.0636 36.2626 22.2441 36.6236 22.4872C36.9845 22.7304 37.2703 23.0412 37.4813 23.4263C37.6923 23.8114 37.7978 24.2672 37.7978 24.794V30.8253H35.3989V29.5776H35.3323C35.1879 29.8586 34.9908 30.1073 34.7465 30.3173C34.5048 30.5277 34.2105 30.6943 33.8689 30.8142C33.5277 30.9342 33.1305 30.9919 32.6805 30.9948H32.6802ZM33.4048 29.2829C33.7743 29.2829 34.102 29.2093 34.3852 29.0618C34.671 28.9143 34.8932 28.7179 35.0514 28.4693C35.2126 28.2206 35.2931 27.9422 35.2931 27.6336V26.6806C35.2153 26.7298 35.1098 26.7765 34.971 26.817C34.8322 26.8608 34.6796 26.899 34.5101 26.9289C34.3433 26.9619 34.1742 26.9888 34.0074 27.0138C33.8379 27.0384 33.688 27.0598 33.5521 27.0819C33.2521 27.1253 32.994 27.1911 32.7692 27.2867C32.547 27.3795 32.3749 27.5049 32.2526 27.6608C32.1336 27.819 32.0723 28.0155 32.0723 28.2505C32.0723 28.5863 32.1943 28.8401 32.4442 29.0174C32.6944 29.1925 33.0131 29.2823 33.4048 29.2823V29.2829ZM44.0949 21.884V23.7541H38.6196V21.884H44.0949ZM39.8634 19.7543H42.379V28.0735C42.379 28.374 42.4456 28.5925 42.5814 28.7344C42.7176 28.8761 42.9342 28.9445 43.2312 28.9445C43.3314 28.9445 43.4395 28.939 43.5589 28.9225C43.6782 28.9062 43.7811 28.8868 43.8671 28.8654L44.2643 30.7219C43.9897 30.801 43.7231 30.8609 43.4649 30.8966C43.2065 30.9345 42.954 30.954 42.7041 30.954C41.7988 30.954 41.0993 30.73 40.6048 30.2849C40.1107 29.8398 39.8634 29.2119 39.8634 28.4009V19.7543ZM49.2455 31C48.3125 31 47.5072 30.8146 46.8301 30.4405C46.1523 30.0693 45.6331 29.5367 45.2721 28.8459C44.9115 28.1552 44.7308 27.3389 44.7308 26.3943C44.7308 25.4773 44.9115 24.6718 45.2721 23.978C45.6331 23.2847 46.1414 22.744 46.7994 22.3534C47.46 21.9657 48.2347 21.7718 49.1235 21.7718C49.7261 21.7718 50.2869 21.8649 50.8061 22.0558C51.3279 22.2441 51.7835 22.5255 52.1748 22.9022C52.5638 23.2788 52.8691 23.7511 53.0856 24.3191C53.3022 24.887 53.4107 25.5505 53.4107 26.3152V26.9869H45.7307V25.4578H52.1893L51.0203 25.8591C51.0203 25.406 50.9482 25.0102 50.8067 24.674C50.6679 24.3385 50.457 24.0789 50.1764 23.8934C49.8989 23.7106 49.5517 23.6176 49.1406 23.6176C48.7273 23.6176 48.3798 23.7132 48.094 23.899C47.8108 24.0844 47.5916 24.3385 47.4386 24.6578C47.289 24.9774 47.2112 25.346 47.2112 25.7638V26.8423C47.2112 27.3282 47.2998 27.7432 47.4719 28.0871C47.647 28.431 47.8883 28.6936 48.1991 28.879C48.513 29.0618 48.8713 29.1545 49.2791 29.1545C49.5596 29.1545 49.8151 29.1137 50.0429 29.0346C50.2707 28.9526 50.4675 28.8356 50.6317 28.6826C50.7982 28.527 50.9201 28.3412 51.0035 28.1227L53.3306 28.2732C53.2169 28.8246 52.9779 29.3024 52.6172 29.7092C52.2562 30.1186 51.7924 30.4353 51.2234 30.6619C50.6541 30.8888 49.9935 31.0003 49.2465 31.0003L49.2455 31ZM58.5748 31C57.6474 31 56.8503 30.8065 56.1838 30.4133C55.5175 30.0226 55.0039 29.4794 54.6459 28.7886C54.2876 28.0975 54.1099 27.3004 54.1099 26.394C54.1099 25.477 54.2905 24.6714 54.6512 23.9777C55.0122 23.2843 55.5258 22.7437 56.1923 22.353C56.8586 21.9653 57.6527 21.7715 58.5748 21.7715C59.366 21.7715 60.0602 21.9109 60.6543 22.1945C61.2486 22.4759 61.7181 22.8746 62.0649 23.3852C62.412 23.8986 62.6009 24.5019 62.6338 25.1927H60.26C60.2158 24.8951 60.1238 24.6329 59.9824 24.4092C59.841 24.1852 59.6547 24.0131 59.4217 23.8902C59.1883 23.7673 58.9163 23.7074 58.6081 23.7074C58.2164 23.7074 57.8779 23.8085 57.5865 24.0134C57.2977 24.2208 57.0729 24.521 56.9117 24.9171C56.7534 25.3159 56.6727 25.7963 56.6727 26.3616C56.6727 26.9266 56.7534 27.4128 56.9117 27.8167C57.0729 28.2232 57.2977 28.5318 57.5865 28.7448C57.8779 28.9578 58.2164 29.0644 58.6081 29.0644C59.0412 29.0644 59.4078 28.9309 59.7048 28.6634C60.0048 28.3931 60.1878 28.0216 60.26 27.5464H62.6338C62.5976 28.2291 62.409 28.8297 62.0734 29.3484C61.7375 29.87 61.2737 30.2739 60.6823 30.5659C60.0909 30.8554 59.3884 31 58.5748 31ZM66.2377 25.6569V30.8253H63.725V18.9075H66.1572V23.4753H66.271C66.4763 22.9456 66.807 22.5307 67.2678 22.2276C67.7261 21.9216 68.298 21.7715 68.9867 21.7715C69.6166 21.7715 70.1665 21.9054 70.6389 22.1754C71.111 22.4428 71.4776 22.8279 71.741 23.3304C72.0047 23.8299 72.1356 24.4335 72.1356 25.1376V30.8249H69.6143V25.5775C69.6143 25.0286 69.47 24.5998 69.1868 24.2886C68.901 23.98 68.5008 23.8244 67.9872 23.8244C67.6404 23.8244 67.3348 23.8983 67.0763 24.0455C66.8156 24.193 66.6098 24.4004 66.4599 24.6734C66.3128 24.9463 66.2377 25.274 66.2377 25.6562V25.6569ZM76.1307 25.6569V30.8253H73.618V21.8837H76.0891V23.4753H76.1811C76.3865 22.9456 76.7142 22.5307 77.1638 22.2276C77.6138 21.9216 78.1772 21.7715 78.855 21.7715C79.4849 21.7715 80.0348 21.9054 80.5042 22.1783C80.9737 22.4513 81.3373 22.8364 81.598 23.3385C81.8565 23.838 81.987 24.439 81.987 25.1376V30.8249H79.4741V25.5775C79.4741 25.0338 79.3297 24.6053 79.0439 24.2941C78.7551 23.9829 78.3608 23.8244 77.8554 23.8244C77.5195 23.8244 77.2225 23.8983 76.9614 24.0455C76.7007 24.193 76.4976 24.4004 76.3506 24.6734C76.2032 24.9463 76.131 25.274 76.131 25.6562L76.1307 25.6569ZM87.5596 31C86.6431 31 85.8519 30.8091 85.1798 30.4214C84.5106 30.0337 83.997 29.4959 83.636 28.8048C83.2753 28.114 83.0947 27.3117 83.0947 26.394C83.0947 25.4659 83.2753 24.6575 83.636 23.9667C83.997 23.2759 84.5106 22.7381 85.1798 22.3504C85.8519 21.9624 86.6431 21.7715 87.5596 21.7715C88.4813 21.7715 89.2784 21.9624 89.9473 22.3504C90.6165 22.7381 91.1331 23.2759 91.494 23.9667C91.855 24.6575 92.0353 25.4656 92.0353 26.394C92.0353 27.3114 91.855 28.114 91.494 28.8048C91.1331 29.4959 90.6165 30.0337 89.9473 30.4214C89.2784 30.8091 88.4813 31 87.5596 31ZM87.5761 29.0644C87.9924 29.0644 88.3425 28.95 88.6257 28.7179C88.9089 28.4858 89.1198 28.1665 89.2642 27.7623C89.4086 27.3555 89.4808 26.8968 89.4808 26.3778C89.4808 25.8562 89.4086 25.3953 89.2642 24.9936C89.1198 24.5949 88.9089 24.2811 88.6257 24.0516C88.3425 23.8225 87.9927 23.7077 87.5761 23.7077C87.1544 23.7077 86.799 23.8225 86.5155 24.0516C86.2294 24.2811 86.0158 24.5952 85.8714 24.9936C85.7296 25.3949 85.6574 25.8562 85.6574 26.3778C85.6574 26.8968 85.7296 27.3555 85.8714 27.7623C86.0158 28.1662 86.2294 28.4858 86.5155 28.7179C86.7987 28.95 87.1541 29.0644 87.5761 29.0644Z" fill="white"/>
<path d="M4.29511 11.9177H1.13831V9.75817H4.18137C4.94783 9.75817 5.58637 9.62721 6.10558 9.36204C6.62479 9.09753 7.01379 8.68488 7.27719 8.12246C7.54091 7.56037 7.67179 6.83684 7.67179 5.9493C7.67179 5.07018 7.54124 4.34925 7.27719 3.78975C7.01379 3.23025 6.62479 2.81759 6.10558 2.55567C5.58637 2.29083 4.95079 2.15955 4.18994 2.15955H1.09117V0H4.33697C5.55605 0 6.60534 0.237609 7.48553 0.715419C8.36275 1.19291 9.03756 1.87591 9.50963 2.76313C9.98202 3.65068 10.2177 4.71263 10.2177 5.9493C10.2177 7.19439 9.97873 8.25893 9.50699 9.14907C9.03195 10.0392 8.35187 10.7245 7.46905 11.2023C6.58326 11.6801 5.52802 11.9177 4.29544 11.9177H4.29511ZM2.55451 0V11.9177H0V0H2.55451ZM14.1219 0V11.9177H11.5673V0H14.1219ZM15.6821 11.9177V0H23.851V2.07786H18.237V4.87925H23.4264V6.91853H18.237V9.83726H23.8679V11.9177H15.6825H15.6821ZM25.2086 11.9177V10.4295L31.2614 2.07786H25.1944V0H34.4657V1.49632L28.4155 9.83694H34.4825V11.9174H25.2086V11.9177Z" fill="white"/>
</g>
<defs>
<linearGradient id="paint0_linear_154_151" x1="67.0017" y1="-1.79577" x2="86.8227" y2="34.2495" gradientUnits="userSpaceOnUse">
<stop stop-color="#D02527"/>
<stop offset="0.227451" stop-color="#CA2C58"/>
<stop offset="0.368627" stop-color="#C33389"/>
<stop offset="0.521569" stop-color="#A337C1"/>
<stop offset="1" stop-color="#833CFA"/>
</linearGradient>
<clipPath id="clip0_154_151">
<rect width="115" height="31" fill="white"/>
</clipPath>
</defs>
</svg>
