<svg width="291" height="301" viewBox="0 0 291 301" fill="none" xmlns="http://www.w3.org/2000/svg">
<g opacity="0.2">
<path d="M69.0022 227.266C71.9412 228.242 74.6916 229.228 77.5024 230.431C77.5553 230.459 77.5982 230.502 77.6252 230.555C77.6522 230.607 77.6618 230.668 77.6528 230.726C77.6437 230.785 77.6164 230.839 77.5747 230.882C77.5331 230.924 77.4791 230.952 77.4206 230.962C75.8165 231.131 74.1952 230.925 72.6844 230.36C71.1735 229.796 69.8146 228.888 68.7146 227.708C68.6761 227.663 68.6532 227.607 68.6494 227.547C68.6456 227.488 68.6611 227.429 68.6934 227.38C68.7258 227.33 68.7733 227.292 68.829 227.272C68.8846 227.251 68.9454 227.249 69.0022 227.266Z" fill="#002D40"/>
<path d="M286.276 112.492C295.877 101.575 253.843 108.979 238.091 98.8726C238.091 98.8726 237.68 98.5458 237.356 98.8733C237.031 99.2007 237.397 99.5978 237.397 99.5978C245.838 108.657 259.655 110.76 271.48 112.355C216.248 129.911 179.956 94.0397 128.37 54.6446C117.721 46.5127 113.923 54.4981 114.214 61.852C116.941 79.0431 129.305 95.268 136.742 110.767C146.4 129.63 160.282 150.289 167.547 170.26C169.998 177 167.079 180.629 160.176 176.031C147.073 167.319 132.681 154.633 120.211 144.977C113.172 139.44 106.312 133.29 98.4145 128.699C92.8571 124.98 86.3906 128.277 88.4594 135.203C95.7186 154.659 136.607 201.117 131.278 224.834C124.36 255.525 72.2321 244.922 53.0637 230.064C52.9407 229.969 52.7852 229.926 52.6309 229.945C52.4766 229.964 52.3359 230.042 52.2391 230.164C52.1015 230.337 52.0383 230.557 52.0633 230.777C52.0882 230.996 52.1994 231.197 52.3723 231.334C75.931 251.847 140.697 260.093 137.834 217.786C136.297 195.271 111.299 167.216 100.123 143.143C99.5188 141.842 97.7878 137.675 102.19 141.508C120.897 157.83 139.371 174.764 160.481 188.091C180.146 199.756 183.205 181.568 176.833 166.577C166.609 137.948 146.694 106.783 134.268 78.8086C132.291 74.3617 133.069 72.2871 137.601 75.7436C181.597 109.345 225.215 136.704 270.307 116.84C262.217 125.308 255.91 137.61 258.255 149.568C258.255 149.568 258.29 150.086 258.715 150.127C259.141 150.167 259.251 149.68 259.251 149.68C264.934 134.443 278.633 121.187 286.276 112.492ZM96.1302 132.748C96.1663 132.595 96.1352 132.634 96.1302 132.748V132.748ZM170.85 181C170.984 180.979 170.963 181.005 170.85 181V181Z" fill="#002D40"/>
<path d="M82.5209 232.072C96.4653 233.532 114.179 232.424 122.419 219.658C122.434 219.626 122.46 219.601 122.493 219.588C122.525 219.574 122.562 219.573 122.595 219.585C122.628 219.597 122.656 219.62 122.672 219.651C122.689 219.682 122.693 219.718 122.685 219.753C119.544 236.278 95.2942 239.861 82.4332 232.343C82.3972 232.331 82.3674 232.305 82.3502 232.272C82.3331 232.238 82.33 232.199 82.3416 232.163C82.3532 232.127 82.3787 232.098 82.4123 232.08C82.4459 232.063 82.485 232.06 82.5209 232.072Z" fill="#002D40"/>
<path d="M128.61 117.805C127.689 117.172 126.918 116.345 126.351 115.382C125.783 114.419 125.433 113.344 125.325 112.232C125.318 112.117 125.343 112.002 125.397 111.899C125.451 111.797 125.532 111.712 125.632 111.653C125.731 111.595 125.845 111.565 125.961 111.567C126.077 111.569 126.189 111.604 126.287 111.666C127.207 112.3 127.978 113.127 128.545 114.089C129.113 115.052 129.463 116.127 129.571 117.239C129.578 117.354 129.554 117.47 129.499 117.572C129.445 117.674 129.364 117.759 129.264 117.818C129.165 117.876 129.051 117.906 128.935 117.904C128.819 117.902 128.707 117.867 128.61 117.805Z" fill="#002D40"/>
<path d="M121.922 105.363C110.605 94.1646 95.9037 71.7257 105.749 56.8093C105.789 56.7599 105.843 56.725 105.905 56.7102C105.966 56.6955 106.031 56.7017 106.088 56.7278C106.146 56.754 106.193 56.7986 106.222 56.8546C106.251 56.9106 106.261 56.9748 106.25 57.0369C101.945 73.2852 115.351 90.595 122.379 105.002C122.427 105.063 122.449 105.14 122.44 105.217C122.431 105.293 122.392 105.363 122.331 105.411C122.27 105.459 122.193 105.48 122.117 105.471C122.04 105.462 121.97 105.423 121.922 105.363Z" fill="#002D40"/>
<path d="M209.264 102.242C215.851 105.389 222.909 107.438 230.159 108.306C230.211 108.311 230.259 108.335 230.294 108.373C230.33 108.411 230.349 108.462 230.349 108.514C230.349 108.566 230.33 108.616 230.294 108.655C230.259 108.693 230.21 108.717 230.158 108.721C222.788 110.117 214.633 107.589 209.079 102.595C208.861 102.453 209.05 102.135 209.264 102.242Z" fill="#002D40"/>
</g>
</svg>
