<svg width="260" height="162" viewBox="0 0 260 162" fill="none" xmlns="http://www.w3.org/2000/svg">
<g opacity="0.2">
<path d="M7.25214 121.266C20.168 123.497 33.3079 119.546 45.496 114.94C45.5762 114.912 45.6614 114.9 45.7462 114.907C45.831 114.913 45.9136 114.937 45.9887 114.977C46.0638 115.016 46.1299 115.071 46.1827 115.138C46.2356 115.205 46.274 115.281 46.2957 115.364C46.3576 115.606 46.3397 115.863 46.2446 116.095C46.1496 116.326 45.9824 116.522 45.7679 116.651C36.7266 122.163 26.6592 125.779 16.1773 127.28C68.5687 143.059 139.842 147.473 175.903 98.4889C160.156 96.0177 143.969 90.8993 132.5 79.175C125.629 72.593 120.921 64.0779 119.001 54.7588C114.202 32.03 130.909 8.60549 154.133 8.5655C196.28 8.49353 210.715 60.7329 191.418 95.9857C213.715 98.4729 236.379 98.0091 258.708 95.8178C258.829 95.8041 258.95 95.8384 259.046 95.9132C259.142 95.988 259.204 96.0972 259.22 96.2176C259.235 96.3153 259.23 96.415 259.206 96.5109C259.183 96.6067 259.14 96.697 259.082 96.7764C259.023 96.8559 258.949 96.923 258.864 96.974C258.78 97.0249 258.686 97.0587 258.588 97.0734C235.668 100.504 212.411 101.92 189.25 100.112C155.261 158.438 73.0712 157.382 19.1044 131.622C27.3898 135.581 31.8443 149.033 31.6844 156.095C31.6978 156.323 31.6217 156.547 31.4725 156.721C31.3232 156.894 31.1124 157.002 30.8846 157.022C30.6756 157.025 30.47 156.97 30.2896 156.864C30.1093 156.759 29.9611 156.606 29.861 156.423C23.6949 145.162 15.4256 136.869 3.80524 128.12C-0.961243 124.529 -2.6727 119.554 7.25214 121.266ZM184.5 81.9902C195.8 55.2867 180.773 15.2834 152.774 17.4747C136.547 18.7383 124.383 33.3176 125.774 49.5365C126.601 58.9594 130.671 67.8037 137.291 74.5605C148.015 86.0529 163.642 91.1793 178.79 94.0823C181.074 90.2427 182.986 86.1935 184.5 81.9902Z" fill="#002D40"/>
<path d="M178.982 1.19176C181.738 2.86756 184.636 4.29666 187.643 5.4624C187.775 5.51327 187.919 5.51927 188.055 5.47946C188.19 5.43964 188.308 5.35626 188.391 5.24225C188.474 5.12824 188.517 4.98999 188.513 4.84902C188.51 4.70805 188.46 4.57225 188.371 4.46271C187.241 3.14607 185.857 2.07185 184.301 1.30488C182.745 0.537905 181.05 0.0940484 179.318 0.000118735C179.176 -0.00260706 179.038 0.0416665 178.924 0.126006C178.81 0.210346 178.728 0.330007 178.69 0.46623C178.651 0.602454 178.659 0.74756 178.712 0.878843C178.765 1.01013 178.86 1.12018 178.982 1.19176Z" fill="#002D40"/>
<path d="M194.657 10.6369C205.054 22.7051 212.748 38.2361 213.923 55.6146C213.923 55.9745 214.459 55.9425 214.547 55.6146C218.914 38.5161 209.037 18.8263 195.057 10.1891C194.996 10.1593 194.927 10.1502 194.86 10.1633C194.794 10.1764 194.733 10.2109 194.688 10.2616C194.642 10.3123 194.615 10.3764 194.609 10.4442C194.604 10.5119 194.621 10.5796 194.657 10.6369Z" fill="#002D40"/>
<path d="M91.7457 159.021C84.7781 159.655 77.7538 159.142 70.9523 157.502C70.9049 157.495 70.8567 157.505 70.8159 157.53C70.775 157.555 70.744 157.593 70.7281 157.639C70.7121 157.684 70.7121 157.733 70.7282 157.778C70.7443 157.823 70.7754 157.861 70.8164 157.886C76.9824 161.597 85.1638 162.045 91.8497 159.429C91.8931 159.407 91.9277 159.371 91.9478 159.326C91.9678 159.281 91.9722 159.231 91.9601 159.184C91.948 159.137 91.9203 159.095 91.8813 159.065C91.8424 159.036 91.7946 159.02 91.7457 159.021Z" fill="#002D40"/>
</g>
</svg>
