<svg width="132" height="116" viewBox="0 0 132 116" fill="none" xmlns="http://www.w3.org/2000/svg">
<ellipse cx="29.1874" cy="59.2644" rx="4.34164" ry="3.45183" transform="rotate(180 29.1874 59.2644)" fill="#11D7FF"/>
<ellipse cx="2.60498" cy="1.72591" rx="2.60498" ry="1.72591" transform="matrix(1 0 0 -1 76.9453 42.0052)" fill="#11D7FF"/>
<ellipse cx="55.2371" cy="5.76104" rx="6.07829" ry="5.17774" transform="rotate(180 55.2371 5.76104)" fill="#F2CB10"/>
<path d="M41.3304 90.0073C53.1785 103.265 68.8822 106.149 83.9745 102.462C73.0269 97.543 60.4464 89.7801 56.3884 73.311C52.5987 57.9309 39.1776 63.2327 37.0716 65.5085C34.9656 67.7844 29.0568 76.2735 41.3304 90.0073Z" fill="#11D7FF"/>
<path d="M35.9132 8.8926C47.4223 10.9388 64.8495 22.4321 70.2812 36.9037C60.0267 30.682 46.4878 24.7206 30.5078 30.6608C15.5845 36.2083 12.4364 22.2003 13.1431 19.1891L13.15 19.1596C13.8659 16.1084 16.374 5.41865 35.9132 8.8926Z" fill="#11D7FF"/>
<path d="M53.2421 39.6984C62.4751 47.1542 64.9143 58.197 62.9496 69.3206C59.309 61.852 53.7178 53.4363 42.5981 51.8256C32.2138 50.3213 35.3103 40.2697 36.7594 38.5782C38.2085 36.8868 43.6777 31.975 53.2421 39.6984Z" fill="#F2CB10"/>
<path d="M7.91065 43.2633C14.1091 45.2971 20.0993 44.8103 24.8777 40.5251C21.3726 40.2793 14.6362 39.3206 10.7061 34.6378C7.03586 30.2647 3.09302 34.7513 2.69306 35.9379C2.2931 37.1245 1.48971 41.1565 7.91065 43.2633Z" fill="#F2CB10"/>
<path d="M92.8502 13.771C104.37 26.0248 105.871 39.9692 101.259 52.3608C97.4862 42.1848 91.1731 30.161 76.0462 24.0988C61.9196 18.4375 67.9173 7.73445 70.2119 6.28072C72.5066 4.82698 80.9166 1.07737 92.8502 13.771Z" fill="#11D7FF"/>
<path fill-rule="evenodd" clip-rule="evenodd" d="M131.467 105.206C118.74 107.187 90.3423 106.284 78.5653 86.8282C66.7884 67.3728 72.2091 53.9023 79.1894 50.6741C86.1698 47.4459 96.8235 47.2505 102.212 67.2086C107.6 87.1667 123.96 100.856 131.467 105.206ZM86.4972 69.62C90.8133 69.62 94.3122 66.9155 94.3122 63.5793C94.3122 60.2431 90.8133 57.5386 86.4972 57.5386C82.1812 57.5386 78.6823 60.2431 78.6823 63.5793C78.6823 66.9155 82.1812 69.62 86.4972 69.62Z" fill="#11D7FF"/>
</svg>
