<svg width="262" height="183" viewBox="0 0 262 183" fill="none" xmlns="http://www.w3.org/2000/svg">
<path d="M57.321 126.61C57.9371 126.38 58.4066 126.39 58.7295 126.64C59.0738 126.884 59.2965 127.263 59.3974 127.779C59.5415 128.353 59.6854 128.854 59.8293 129.284C60.146 130.373 60.3116 131.047 60.3263 131.305C60.3625 131.627 60.3234 131.867 60.2089 132.025C60.0944 132.183 59.8831 132.302 59.5749 132.381C59.2811 132.431 59.0481 132.414 58.876 132.328C58.7039 132.242 58.5747 132.07 58.4883 131.812C58.3373 131.361 58.1681 130.712 57.9807 129.867C57.9159 129.673 57.8331 129.354 57.7323 128.91C57.7178 128.796 57.6638 128.598 57.5703 128.319L56.7534 128.557C56.1516 128.758 55.3276 129.082 54.2817 129.527C53.336 129.915 52.6804 130.171 52.315 130.293C51.6702 130.509 51.1828 130.552 50.8529 130.424C50.5446 130.288 50.2754 129.948 50.0453 129.403C49.5349 128.164 48.8052 126.269 47.856 123.718C47.7409 123.374 47.5467 122.865 47.2736 122.192C46.9789 121.526 46.7165 120.849 46.4863 120.161C46.3856 119.86 46.2488 119.38 46.076 118.721C45.8888 118.018 45.7376 117.495 45.6225 117.151C45.3995 116.485 45.0293 115.521 44.5117 114.261L43.9941 113.035C43.5916 112.118 43.3149 111.434 43.1638 110.983L43.0667 110.693C42.9444 110.327 42.9046 110.03 42.9474 109.8C42.947 109.514 43.0866 109.324 43.366 109.23C43.5165 109.18 43.6455 109.172 43.753 109.208C44.3983 109.351 44.8073 109.68 44.9799 110.196C45.1669 110.755 45.4977 111.6 45.9721 112.732C46.0727 112.961 46.1949 113.255 46.3387 113.613C46.4753 113.95 46.6263 114.366 46.7918 114.86L47.3528 116.537L48.4642 119.857C49.2627 122.243 50.0322 124.4 50.7728 126.327C50.9022 126.643 51.2364 127.391 51.7754 128.573L54.5802 127.419C54.4365 127.133 54.3359 126.904 54.2783 126.732C54.149 126.488 53.9622 126.073 53.7178 125.485L52.9193 123.099L51.3116 118.295C51.067 117.564 50.6715 116.454 50.1249 114.963L48.906 111.643C48.4313 110.224 48.0967 109.153 47.9023 108.429C47.6793 107.763 47.8472 107.336 48.4061 107.149C48.5136 107.113 48.682 107.081 48.9113 107.052C49.2556 107.223 49.4852 107.481 49.6003 107.825C49.7298 108.212 49.8954 108.778 50.0969 109.523C50.1977 109.896 50.3668 110.437 50.6042 111.146L51.3162 113.167C51.5392 113.833 51.7372 114.531 51.9101 115.262C51.9677 115.506 52.0792 115.875 52.2447 116.369C52.4461 116.971 52.7912 117.86 53.28 119.035C53.7113 120.038 54.0132 120.797 54.1859 121.313C54.6103 122.581 55.3329 124.455 56.3537 126.934L57.321 126.61ZM63.0882 127.19C62.8088 127.283 62.5184 127.273 62.2173 127.158C61.9376 127.037 61.7402 126.84 61.6252 126.568L61.3447 125.729L61.1289 125.084C61.0426 124.898 60.9564 124.676 60.87 124.418C60.719 123.967 60.4565 123.29 60.0827 122.387L59.3277 120.345C58.9752 119.292 58.4823 117.712 57.8491 115.605C57.3092 113.707 56.8271 112.123 56.4027 110.855C56.302 110.554 56.1187 110.113 55.8528 109.533C55.5797 108.931 55.3964 108.491 55.3028 108.211C54.7921 106.685 54.9881 105.771 55.8909 105.469C56.6003 105.231 57.4638 105.098 58.4816 105.068C59.5209 105.031 60.1053 105.206 60.2348 105.593C60.3067 105.808 60.2783 106.044 60.1496 106.302C60.0352 106.532 59.867 106.744 59.645 106.937C58.6343 106.917 57.7456 106.975 56.9788 107.113C57.1082 107.428 57.2736 107.886 57.475 108.488C57.7628 109.348 58.011 110.125 58.2197 110.82C58.5005 111.874 58.7272 112.658 58.8998 113.174L59.1692 113.658L59.6743 113.453C59.8391 113.374 60.0504 113.291 60.3083 113.205C61.3401 112.86 61.9567 112.988 62.1581 113.59C62.2372 113.826 62.2088 114.063 62.0729 114.299C61.9298 114.515 61.7078 114.673 61.4069 114.773C61.02 114.903 60.7119 114.982 60.4825 115.011L59.6765 115.281C59.9065 115.825 60.2013 116.635 60.561 117.709C60.9207 118.784 61.2336 119.755 61.4999 120.622C61.8742 121.955 62.1692 122.944 62.385 123.589C62.7879 124.792 63.0108 125.387 63.0538 125.373L64.107 124.984C64.4652 124.84 64.9023 124.682 65.4181 124.51C66.2349 124.236 66.7297 124.357 66.9023 124.873C67.003 125.174 66.9388 125.447 66.7097 125.691C66.5094 125.949 66.2157 126.143 65.8288 126.272L63.0882 127.19ZM70.6391 124.985C70.4671 125.043 70.2987 125.039 70.1337 124.975C69.9688 124.911 69.8253 124.803 69.7033 124.653C69.6674 124.617 69.6351 124.556 69.6063 124.47C69.5128 124.191 69.5877 123.915 69.8311 123.642C70.3467 123.183 70.6686 122.645 70.7969 122.028C70.9394 121.383 70.9565 120.684 70.8481 119.932C70.5301 117.696 69.9574 115.342 69.1302 112.87C68.8209 111.946 68.5763 111.251 68.3966 110.785C67.0304 107.203 66.0454 104.688 65.4416 103.241L65.3985 103.112C65.3337 102.918 65.3264 102.753 65.3764 102.617C65.4264 102.481 65.5517 102.355 65.7522 102.24C67.0416 101.522 68.0947 101.026 68.9115 100.753C69.3414 100.609 69.6674 100.512 69.8895 100.461C70.3911 100.317 70.8176 100.342 71.1691 100.535C71.5205 100.728 71.779 101.072 71.9444 101.566L72.5486 103.264C73.0951 104.755 73.4942 105.876 73.746 106.628L74.2317 108.187C74.9942 110.465 76.0441 113.317 77.3814 116.741C77.9925 118.282 78.4741 119.471 78.8264 120.309C78.9773 120.689 79.0064 120.99 78.9135 121.212C78.842 121.427 78.6523 121.61 78.3443 121.761C77.6493 122.042 77.1617 121.834 76.8813 121.139C76.7372 120.494 76.5608 119.86 76.3522 119.237C76.1436 118.614 75.9602 118.101 75.802 117.7L74.5397 114.035C73.9426 112.251 73.299 110.435 72.6087 108.586C72.0477 107.053 71.4941 105.613 70.9477 104.266C70.4014 102.919 70.0349 102.11 69.8482 101.838C69.7264 101.902 69.4757 102.046 69.0961 102.269C68.7164 102.491 68.1827 102.754 67.495 103.055C67.7614 104.066 67.9665 104.786 68.1104 105.216C68.2759 105.71 68.452 106.129 68.6387 106.473C68.876 107.039 69.2031 107.874 69.6201 108.977L69.8575 109.686C71.0228 113.169 71.7783 115.533 72.1238 116.78C72.1959 117.138 72.2643 117.414 72.3291 117.608C72.5452 118.539 72.6894 119.256 72.7617 119.757C72.928 120.969 72.6609 122.349 71.9603 123.898C71.7744 124.342 71.3555 124.698 70.7036 124.964L70.6391 124.985ZM84.877 119.898C84.5976 119.991 84.3073 119.981 84.0061 119.867C83.7264 119.745 83.529 119.548 83.414 119.276L83.1335 118.438L82.9177 117.793C82.8315 117.606 82.7452 117.384 82.6589 117.126C82.5078 116.675 82.2454 115.998 81.8716 115.095L81.1165 113.053C80.764 112 80.2711 110.42 79.6379 108.314C79.098 106.415 78.6159 104.831 78.1915 103.563C78.0908 103.262 77.9075 102.822 77.6416 102.241C77.3685 101.639 77.1852 101.199 77.0917 100.919C76.5809 99.3933 76.777 98.4791 77.6797 98.177C78.3891 97.9396 79.2526 97.806 80.2704 97.7761C81.3097 97.739 81.8941 97.914 82.0236 98.3009C82.0955 98.5158 82.0671 98.7524 81.9384 99.0106C81.824 99.2401 81.6558 99.4517 81.4339 99.6455C80.4232 99.6252 79.5344 99.6836 78.7676 99.8207C78.897 100.136 79.0624 100.595 79.2638 101.196C79.5516 102.056 79.7998 102.834 80.0085 103.529C80.2893 104.582 80.516 105.367 80.6887 105.882L80.958 106.366L81.4631 106.161C81.6279 106.082 81.8392 105.999 82.0972 105.913C83.1289 105.568 83.7455 105.696 83.9469 106.298C84.0261 106.534 83.9977 106.771 83.8618 107.008C83.7187 107.223 83.4966 107.381 83.1957 107.481C82.8088 107.611 82.5007 107.69 82.2713 107.719L81.4653 107.989C81.6953 108.533 81.9901 109.343 82.3498 110.418C82.7095 111.492 83.0224 112.463 83.2887 113.33C83.663 114.663 83.9581 115.652 84.1739 116.297C84.5767 117.5 84.7996 118.095 84.8426 118.081L85.8958 117.692C86.254 117.549 86.6911 117.39 87.207 117.218C88.0238 116.944 88.5185 117.066 88.6911 117.582C88.7918 117.883 88.7276 118.155 88.4986 118.399C88.2982 118.657 88.0045 118.851 87.6176 118.981L84.877 119.898ZM94.0073 116.735C93.8138 116.799 93.5987 116.764 93.362 116.628C93.1468 116.485 93.0499 116.302 93.0711 116.08C93.0708 115.865 93.1134 115.492 93.1988 114.962C93.4983 113.642 93.4426 112.012 93.0317 110.07C93.01 109.934 92.8701 109.801 92.6119 109.672C92.368 109.515 92.2066 109.39 92.1276 109.297L91.4604 108.803C90.8004 108.331 90.2336 107.887 89.7601 107.472C89.3008 107.028 88.7947 106.408 88.2419 105.613C88.0121 105.284 87.8074 104.922 87.6277 104.528C87.4409 104.113 87.3294 103.851 87.2935 103.744L86.9808 103.024C86.837 102.666 86.6969 102.354 86.5604 102.089C86.4167 101.802 86.3017 101.566 86.2155 101.38C85.6048 100.198 85.1664 99.2091 84.9002 98.4138C84.7995 98.1129 84.7348 97.8836 84.7059 97.7259C84.6195 97.3963 84.5224 97.1061 84.4146 96.8554C84.3282 96.5974 84.2563 96.3825 84.1988 96.2105C84.0764 95.7734 84.1549 95.5081 84.4344 95.4146C84.4988 95.393 84.6243 95.375 84.8106 95.3604C85.685 95.3307 86.2338 95.649 86.4568 96.3153C86.5143 96.4873 86.6007 96.8169 86.716 97.3042L87.0616 98.6585C87.2631 99.2604 87.4249 99.7082 87.5471 100.002C88.3161 101.728 89.0994 103.426 89.897 105.095C90.1198 105.547 90.4177 105.937 90.7908 106.266C91.1782 106.567 91.5441 106.803 91.8883 106.975C92.2469 107.118 92.4477 107.182 92.4906 107.167C92.4901 106.737 92.479 106.454 92.4574 106.318C91.9461 104.362 91.5502 102.929 91.2696 102.019C91.0393 101.259 90.6328 100.009 90.0502 98.2679L88.7877 94.4955C88.7517 94.3164 88.7551 94.1838 88.798 94.0977C88.8552 93.9829 88.9805 93.8932 89.174 93.8285C89.6039 93.6846 90.0125 93.7271 90.3998 93.956C90.78 94.1634 91.0097 94.4929 91.0891 94.9444C91.1973 95.4818 91.3952 96.1804 91.683 97.0402C91.8556 97.5561 91.9851 97.9072 92.0713 98.0935C92.1575 98.2797 92.2582 98.5448 92.3733 98.8887C92.5531 99.4261 92.7655 100.204 93.0104 101.221C93.0895 101.458 93.1939 101.841 93.3236 102.371C93.4964 103.03 93.7198 104.055 93.9938 105.445L94.2209 106.553C94.5236 107.885 94.798 109.562 95.0441 111.583C95.1165 112.228 95.1353 112.927 95.1003 113.68C95.0582 114.411 94.9694 115.11 94.834 115.777C94.8199 115.949 94.7269 116.135 94.5551 116.336C94.3834 116.537 94.2007 116.67 94.0073 116.735ZM105.547 113.016C105.074 113.175 104.543 113.268 103.956 113.298C103.397 113.342 102.949 113.324 102.612 113.246C100.862 112.803 99.2969 110.519 97.9157 106.392L97.6244 105.521L97.2899 104.522L97.031 103.748C96.7432 102.888 96.4986 102.121 96.2971 101.448C96.0884 100.753 95.8832 99.9968 95.6816 99.1799C95.4655 98.32 95.3356 97.6105 95.292 97.0515C95.2411 96.471 95.2546 95.7972 95.3326 95.0301C95.3819 94.3204 95.5317 93.7325 95.782 93.2663C96.0538 92.7929 96.4511 92.3373 96.9739 91.8994C97.4321 91.4831 98.0589 91.1419 98.8542 90.8757C99.1766 90.7678 99.449 90.7604 99.6713 90.8533C99.8936 90.9462 100.044 91.1109 100.123 91.3473C100.195 91.5623 100.185 91.7809 100.092 92.0032C100.021 92.2183 99.8917 92.369 99.7055 92.4552L98.1901 92.9624C97.7602 93.1062 97.4739 93.5008 97.3313 94.1461C97.1887 94.7914 97.1968 95.5655 97.3556 96.4684C97.6085 98.1526 97.9004 99.489 98.2313 100.478L98.2852 100.639L99.2566 103.756C99.5229 104.695 99.8503 105.744 100.239 106.905C100.512 107.722 100.767 108.377 101.004 108.872C101.371 109.609 101.769 110.193 102.2 110.623C102.652 111.117 103.233 111.388 103.943 111.438C104.308 111.459 104.685 111.405 105.071 111.275C105.308 111.196 105.516 111.031 105.694 110.78C105.974 110.686 106.221 110.675 106.436 110.747C106.666 110.789 106.82 110.929 106.899 111.165C107.18 112.004 106.729 112.621 105.547 113.016ZM111.713 109.877L111.26 108.63C111.116 108.272 110.969 107.867 110.818 107.416L110.483 106.309C110.34 106.094 109.391 103.794 107.637 99.4097C105.882 95.0251 104.772 92.2059 104.304 90.9521C103.043 91.3263 102.205 91.4635 101.789 91.3636C101.495 91.2708 101.312 91.1169 101.24 90.902C101.182 90.73 101.24 90.5436 101.411 90.3427C101.597 90.1131 101.809 89.9587 102.045 89.8796C102.647 89.6782 103.392 89.4766 104.281 89.2748C105.134 89.109 105.882 88.9181 106.527 88.7023L106.785 88.616L107.043 88.5297C107.709 88.3067 108.129 88.4531 108.302 88.969C108.388 89.2269 108.352 89.4779 108.195 89.7218C108.03 89.9442 107.808 90.1021 107.529 90.1956C107.335 90.2604 107.045 90.3216 106.658 90.3794L105.97 90.4663L105.992 90.6383L106.014 90.8103C106.654 92.7233 107.858 95.7145 109.626 99.7837C111.286 103.602 112.48 106.597 113.206 108.768C113.293 109.026 113.25 109.291 113.078 109.564C112.928 109.829 112.713 110.009 112.434 110.102L111.713 109.877ZM119.115 108.225C118.454 107.179 117.786 105.646 117.109 103.625L116.214 100.734C115.969 99.8601 115.67 98.8964 115.318 97.8431C115.088 97.5853 114.934 97.3382 114.854 97.1018L114.822 97.0051C114.9 96.5247 114.699 95.5645 114.217 94.1243L113.752 92.6304C113.616 92.1503 113.45 91.6201 113.256 91.0397C112.832 89.7715 112.411 88.8008 111.995 88.1275C111.958 87.805 111.98 87.5111 112.058 87.2458C112.129 86.959 112.273 86.7796 112.487 86.7077L113.906 86.2329C114.508 86.0315 115.081 85.995 115.626 86.1233C116.164 86.2302 116.634 86.4913 117.036 86.9065C117.761 87.644 118.324 88.6145 118.727 89.8182C119.015 90.678 119.231 91.3587 119.375 91.8603C119.54 92.4981 119.624 93.1036 119.624 93.6771C119.653 93.9781 119.636 94.2469 119.571 94.4835C119.521 94.6914 119.432 94.9603 119.304 95.2902C119.125 95.7563 118.746 96.2657 118.166 96.8183C117.937 97.0623 117.618 97.3243 117.21 97.6043L118.364 101.054L119.119 103.096L119.518 104.074C120.007 105.249 120.392 106.256 120.672 107.094C120.759 107.352 120.723 107.603 120.566 107.847C120.415 108.112 120.201 108.292 119.921 108.385L119.115 108.225ZM116.8 96.2716C118.003 95.6537 118.029 93.6252 116.878 90.186C116.67 89.5627 116.476 89.0898 116.296 88.7675C116.145 88.5311 115.991 88.3557 115.833 88.2412C115.668 88.1052 115.46 88.0194 115.209 87.9839C114.93 87.934 114.65 87.9559 114.371 88.0494C114.363 88.0279 114.242 88.0567 114.005 88.1358L114.62 89.9737C115.045 91.2419 115.433 92.3668 115.785 93.3483C116.159 94.4661 116.415 95.1933 116.551 95.53L116.778 96.2071L116.8 96.2716ZM129.021 105.125C128.742 105.218 128.452 105.208 128.15 105.093C127.871 104.972 127.673 104.775 127.558 104.503L127.278 103.664L127.062 103.02C126.976 102.833 126.89 102.611 126.803 102.353C126.652 101.902 126.39 101.225 126.016 100.322L125.261 98.2802C124.908 97.2269 124.416 95.647 123.782 93.5404C123.242 91.6416 122.76 90.0581 122.336 88.7899C122.235 88.4889 122.052 88.0483 121.786 87.468C121.513 86.8663 121.33 86.4257 121.236 86.1462C120.725 84.6201 120.921 83.706 121.824 83.4038C122.533 83.1665 123.397 83.0328 124.415 83.0029C125.454 82.9659 126.039 83.1408 126.168 83.5277C126.24 83.7426 126.212 83.9792 126.083 84.2374C125.968 84.4669 125.8 84.6786 125.578 84.8724C124.568 84.8521 123.679 84.9105 122.912 85.0476C123.041 85.3628 123.207 85.8213 123.408 86.4232C123.696 87.283 123.944 88.0604 124.153 88.7554C124.434 89.8088 124.66 90.5934 124.833 91.1093L125.102 91.5928L125.608 91.3879C125.772 91.3088 125.984 91.2262 126.242 91.1398C127.273 90.7946 127.89 90.9228 128.091 91.5247C128.17 91.7611 128.142 91.9977 128.006 92.2344C127.863 92.4496 127.641 92.6076 127.34 92.7083C126.953 92.8378 126.645 92.917 126.416 92.9459L125.61 93.2157C125.84 93.7602 126.135 94.5698 126.494 95.6445C126.854 96.7193 127.167 97.6901 127.433 98.5571C127.807 99.8899 128.102 100.879 128.318 101.524C128.721 102.727 128.944 103.322 128.987 103.308L130.04 102.919C130.398 102.775 130.835 102.617 131.351 102.445C132.168 102.171 132.663 102.293 132.836 102.808C132.936 103.109 132.872 103.382 132.643 103.626C132.443 103.884 132.149 104.078 131.762 104.207L129.021 105.125ZM150.115 99.4636C149.449 99.6866 148.893 99.1318 148.447 97.7991L147.756 95.7356L147.066 93.672C146.706 92.5973 146.16 91.2146 145.427 89.5238C144.6 87.6253 144.064 86.3107 143.82 85.5798L143.215 83.5592C143.064 82.9645 142.866 82.3017 142.622 81.5709C142.629 81.8791 142.771 83.4809 143.047 86.3764C143.294 89.1859 143.455 91.8091 143.529 94.2461C143.596 96.5899 143.426 97.8301 143.017 97.9668C142.609 98.1035 142.236 98.0968 141.899 97.9466C141.576 97.7678 141.343 97.4635 141.199 97.0336C140.883 96.0878 139.823 94.2075 138.021 91.3927C136.24 88.5707 134.71 86.286 133.432 84.5385L134.458 88.2467C135.315 91.378 136.053 93.9754 136.672 96.039C137.29 98.031 137.722 99.3923 137.967 100.123C138.024 100.295 138.089 100.453 138.161 100.596L138.312 101.047C138.434 101.413 138.449 101.707 138.356 101.929C138.27 102.173 138.023 102.363 137.615 102.5C137.4 102.572 137.167 102.554 136.916 102.447C136.672 102.361 136.518 102.221 136.453 102.028C135.719 99.8355 134.78 96.4929 133.635 92C132.49 87.5071 131.55 84.1645 130.817 81.972C130.623 81.8217 130.49 81.6391 130.418 81.4241C130.332 81.1662 130.385 80.9331 130.579 80.725C130.786 80.4883 131.062 80.3123 131.406 80.1972C131.685 80.1037 132.539 80.9413 133.968 82.7101C135.396 84.4788 136.915 86.5163 138.523 88.8224C140.131 91.1285 141.234 92.8153 141.83 93.8826C141.808 93.2446 141.768 92.6605 141.71 92.1302L141.644 91.2916C141.325 88.0521 141.103 85.1028 140.978 82.4437C140.89 80.8239 140.899 79.5301 141.005 78.5623C141.09 77.53 141.294 76.9599 141.616 76.852C141.917 76.7513 142.215 76.7474 142.509 76.8402C142.817 76.9044 143.014 77.0654 143.1 77.3233C143.618 78.871 144.46 81.1709 145.625 84.223C146.739 87.0529 147.562 89.2632 148.095 90.8539L148.634 92.5735L149.142 94.3039C149.228 94.5619 149.39 94.938 149.627 95.4323L150.101 96.5284C150.187 96.7147 150.248 96.8615 150.284 96.969C150.342 97.0693 150.374 97.1302 150.381 97.1517C150.582 97.3951 150.705 97.5814 150.748 97.7103C150.87 98.0757 150.87 98.4341 150.749 98.7855C150.628 99.1369 150.416 99.3629 150.115 99.4636ZM154.646 96.8719C154.474 96.9295 154.305 96.9261 154.14 96.8618C153.975 96.7975 153.832 96.6901 153.71 96.5397C153.674 96.5039 153.642 96.443 153.613 96.3571C153.519 96.0776 153.594 95.8016 153.838 95.5289C154.353 95.0696 154.675 94.5316 154.803 93.915C154.946 93.2697 154.963 92.5708 154.855 91.8183C154.537 89.5824 153.964 87.2284 153.137 84.7565C152.827 83.8322 152.583 83.1372 152.403 82.6715C151.037 79.0892 150.052 76.5745 149.448 75.1273L149.405 74.9983C149.34 74.8049 149.333 74.64 149.383 74.5038C149.433 74.3675 149.558 74.242 149.759 74.127C151.048 73.4087 152.101 72.9129 152.918 72.6395C153.348 72.4957 153.674 72.3985 153.896 72.3481C154.398 72.2041 154.824 72.2287 155.176 72.4218C155.527 72.6149 155.786 72.9587 155.951 73.4531L156.555 75.1511C157.102 76.6414 157.501 77.7627 157.753 78.515L158.238 80.0734C159.001 82.3519 160.051 85.2034 161.388 88.6281C161.999 90.1684 162.481 91.3577 162.833 92.1959C162.984 92.5756 163.013 92.8766 162.92 93.099C162.849 93.3141 162.659 93.4971 162.351 93.648C161.656 93.9283 161.168 93.7211 160.888 93.0261C160.744 92.3812 160.567 91.747 160.359 91.1237C160.15 90.5003 159.967 89.9881 159.809 89.5868L158.546 85.922C157.949 84.1379 157.306 82.3216 156.615 80.4732C156.054 78.9399 155.501 77.4998 154.954 76.1529C154.408 74.806 154.041 73.9965 153.855 73.7243C153.733 73.789 153.482 73.9326 153.103 74.1553C152.723 74.378 152.189 74.6402 151.502 74.9421C151.768 75.9524 151.973 76.6726 152.117 77.1025C152.282 77.5968 152.459 78.0159 152.645 78.3598C152.883 78.9258 153.21 79.7604 153.627 80.8638L153.864 81.5731C155.029 85.0553 155.785 87.4198 156.13 88.6666C156.203 89.0249 156.271 89.3008 156.336 89.4942C156.552 90.4258 156.696 91.1424 156.768 91.644C156.935 92.8552 156.667 94.2353 155.967 95.7844C155.781 96.229 155.362 96.5844 154.71 96.8503L154.646 96.8719ZM168.884 91.7844C168.604 91.8779 168.314 91.8675 168.013 91.7532C167.733 91.6317 167.536 91.4348 167.421 91.1626L167.14 90.3243L166.924 89.6794C166.838 89.4932 166.752 89.2711 166.665 89.0131C166.514 88.5617 166.252 87.8847 165.878 86.982L165.123 84.94C164.771 83.8868 164.278 82.3069 163.644 80.2003C163.105 78.3014 162.623 76.7179 162.198 75.4497C162.097 75.1488 161.914 74.7082 161.648 74.1279C161.375 73.5261 161.192 73.0855 161.098 72.8061C160.588 71.28 160.784 70.3658 161.686 70.0637C162.396 69.8263 163.259 69.6927 164.277 69.6628C165.316 69.6257 165.901 69.8007 166.03 70.1876C166.102 70.4025 166.074 70.6391 165.945 70.8973C165.831 71.1268 165.662 71.3384 165.44 71.5322C164.43 71.5119 163.541 71.5703 162.774 71.7074C162.904 72.0227 163.069 72.4812 163.27 73.0831C163.558 73.9429 163.806 74.7203 164.015 75.4153C164.296 76.4686 164.523 77.2533 164.695 77.7691L164.965 78.2526L165.47 78.0478C165.634 77.9687 165.846 77.886 166.104 77.7997C167.136 77.4544 167.752 77.5827 167.954 78.1846C168.033 78.421 168.004 78.6576 167.868 78.8943C167.725 79.1095 167.503 79.2675 167.202 79.3682C166.815 79.4976 166.507 79.5769 166.278 79.6058L165.472 79.8756C165.702 80.42 165.997 81.2296 166.356 82.3044C166.716 83.3791 167.029 84.35 167.295 85.217C167.67 86.5498 167.965 87.5386 168.18 88.1834C168.583 89.3872 168.806 89.9818 168.849 89.9674L169.902 89.5791C170.261 89.4353 170.698 89.2771 171.214 89.1045C172.03 88.8311 172.525 88.9524 172.698 89.4683C172.798 89.7692 172.734 90.0417 172.505 90.2856C172.305 90.5439 172.011 90.7378 171.624 90.8673L168.884 91.7844ZM182.097 86.8962C181.367 87.1408 180.408 85.4898 179.221 81.9431L178.638 80.0945L178.174 78.6006L178.142 78.5038L178.034 78.1814C177.998 78.0022 177.94 77.7944 177.861 77.558C177.847 77.515 177.796 77.4721 177.71 77.4292C177.624 77.3863 177.574 77.3433 177.56 77.3003L177.549 77.2681C177.456 77.347 177.269 77.4333 176.99 77.5268C176.711 77.6203 176.352 77.6924 175.915 77.7431C175.779 77.7648 175.417 77.8261 174.829 77.9272L176.07 81.635C176.257 82.1939 176.584 83.0644 177.052 84.2466C177.512 85.4072 177.839 86.2777 178.033 86.8581C178.141 87.1805 178.149 87.4887 178.056 87.7827C177.963 88.0767 177.777 88.2704 177.497 88.3639C177.089 88.5006 176.666 88.2001 176.228 87.4623C175.782 86.7031 175.34 85.6678 174.902 84.3566L174.092 81.7234C173.869 80.9854 173.621 80.208 173.347 79.3912L173.164 78.8431L173.013 78.3917C172.898 78.0477 172.812 77.8256 172.754 77.7254L172.7 77.5641L172.171 75.6617C171.898 74.8449 171.459 73.6412 170.855 72.0507C170.251 70.4602 169.812 69.2565 169.539 68.4397C169.453 68.1817 169.463 67.9273 169.57 67.6763C169.678 67.4253 169.86 67.2566 170.118 67.1703C170.806 66.9401 171.366 67.4698 171.797 68.7595L173.071 72.7792C173.431 73.9973 173.859 75.3479 174.355 76.8311C174.713 76.8306 175.312 76.6901 176.15 76.4096L177.343 76.0104C177.343 75.867 177.321 75.7308 177.278 75.6019C176.933 74.5701 176.358 73.0656 175.552 71.0882C174.769 69.247 174.179 67.7353 173.784 66.5531C173.705 66.3166 173.726 66.0944 173.847 65.8864C173.983 65.6497 174.18 65.4882 174.438 65.4018C174.589 65.3515 174.822 65.3333 175.137 65.3473L175.47 65.3791C176.492 68.4314 177.962 72.4687 179.882 77.4911L182.902 85.5513C183.003 85.8522 182.964 86.1282 182.785 86.3793C182.628 86.6232 182.398 86.7955 182.097 86.8962ZM192.771 83.3241C192.041 83.5687 191.082 81.9176 189.895 78.371L189.312 76.5224L188.848 75.0284L188.816 74.9317L188.708 74.6093C188.672 74.4301 188.614 74.2223 188.535 73.9859C188.521 73.9429 188.47 73.8999 188.384 73.857C188.298 73.8141 188.248 73.7712 188.234 73.7282L188.223 73.696C188.13 73.7749 187.943 73.8612 187.664 73.9547C187.385 74.0482 187.026 74.1203 186.589 74.171C186.453 74.1926 186.091 74.254 185.503 74.3551L186.744 78.0629C186.931 78.6218 187.258 79.4923 187.726 80.6744C188.186 81.8351 188.513 82.7056 188.707 83.2859C188.815 83.6084 188.823 83.9166 188.73 84.2106C188.637 84.5046 188.451 84.6983 188.171 84.7918C187.763 84.9285 187.34 84.628 186.902 83.8902C186.456 83.1309 186.014 82.0957 185.576 80.7845L184.766 78.1513C184.543 77.4133 184.295 76.6359 184.021 75.8191L183.838 75.2709L183.687 74.8195C183.572 74.4756 183.486 74.2535 183.428 74.1532L183.374 73.992L182.845 72.0896C182.572 71.2728 182.133 70.0691 181.529 68.4786C180.925 66.888 180.486 65.6844 180.213 64.8676C180.127 64.6096 180.137 64.3551 180.244 64.1041C180.352 63.8531 180.534 63.6845 180.792 63.5982C181.48 63.368 182.04 63.8977 182.471 65.1874L183.745 69.2071C184.105 70.4252 184.533 71.7758 185.029 73.2589C185.387 73.2585 185.986 73.118 186.824 72.8375L188.017 72.4383C188.017 72.2949 187.995 72.1587 187.952 72.0298C187.607 70.998 187.032 69.4934 186.226 67.5161C185.443 65.6749 184.853 64.1632 184.458 62.9809C184.379 62.7445 184.4 62.5223 184.521 62.3143C184.657 62.0776 184.854 61.916 185.112 61.8297C185.263 61.7794 185.496 61.7612 185.811 61.7751L186.144 61.807C187.166 64.8593 188.636 68.8966 190.556 73.919L193.576 81.9792C193.677 82.2801 193.638 82.5561 193.459 82.8072C193.302 83.0511 193.072 83.2234 192.771 83.3241ZM206.52 79.0817C205.896 79.2903 205.506 79.1582 205.347 78.6853C205.311 78.5778 205.236 78.3521 205.121 78.0082C205.006 77.6643 204.919 77.3347 204.861 77.0194C204.688 76.2168 204.426 75.2889 204.073 74.2356C203.735 73.2253 203.235 71.8748 202.574 70.184C202.207 69.2311 201.664 67.7516 200.945 65.7454L199.532 61.8442L199.047 60.5008L198.205 58.0935C198.09 57.7495 198.219 57.4913 198.591 57.3189C198.971 57.1679 199.329 57.1675 199.666 57.3176C200.004 57.4677 200.233 57.7255 200.355 58.0909C200.535 58.6283 200.798 59.4845 201.143 60.6596L203.82 68.9783C203.892 69.2649 204.007 69.6447 204.165 70.1176C204.345 70.5833 204.51 71.0418 204.661 71.4932L205.309 73.4278L205.697 74.5885C206.107 75.957 206.539 77.0675 206.991 77.92C207.135 78.2065 207.157 78.4502 207.057 78.651C206.978 78.8446 206.799 78.9882 206.52 79.0817ZM198.943 81.6174C198.642 81.7181 198.359 81.765 198.094 81.7582C197.828 81.7513 197.649 81.5724 197.555 81.2212C197.433 80.7125 197.26 80.0891 197.037 79.3511C196.814 78.613 196.656 78.1043 196.562 77.8249C196.152 76.5997 195.753 75.2992 195.364 73.9234C195.234 73.3931 194.982 72.5691 194.608 71.4514C194.4 70.8281 194.141 70.0901 193.832 69.2375C193.522 68.3849 193.285 67.7472 193.12 67.3245C192.976 66.9663 192.811 66.5436 192.624 66.0564C192.437 65.5692 192.243 65.0247 192.041 64.4228C191.754 63.7064 191.541 63.144 191.405 62.7356L191.092 61.908C191.056 61.8006 190.984 61.5856 190.876 61.2632C190.761 60.9193 190.725 60.6326 190.768 60.4032C190.832 60.1666 191.014 59.9979 191.315 59.8972C191.595 59.8037 191.871 59.8428 192.143 60.0145C192.409 60.1647 192.592 60.3903 192.693 60.6912C192.772 60.9276 192.926 61.3181 193.156 61.8626C193.53 62.837 193.814 63.6143 194.008 64.1947C194.246 64.904 194.426 65.6206 194.549 66.3444C194.549 66.4878 194.599 66.7099 194.7 67.0108C194.786 67.2688 194.93 67.627 195.131 68.0855C195.325 68.0924 195.737 68.1099 196.368 68.1378C196.991 68.1442 197.554 68.2188 198.056 68.3616C198.551 68.4828 198.974 68.6758 199.325 68.9406C200.452 69.8783 201.159 70.777 201.447 71.6368C201.893 72.9695 202.292 74.485 202.646 76.1834C202.862 77.1866 202.791 78.011 202.434 78.6565C202.076 79.3021 201.46 79.9622 200.587 80.637C200.357 80.8093 200.071 80.9889 199.727 81.1757C199.383 81.3624 199.122 81.5097 198.943 81.6174ZM199.005 79.6605C199.277 79.6172 199.478 79.5739 199.607 79.5308C200.037 79.3869 200.341 79.1178 200.52 78.7233C201.028 77.7407 201.112 76.7443 200.774 75.734C200.486 74.7309 200.209 73.8316 199.943 73.0363C199.468 71.6177 199.055 70.7401 198.704 70.4036C198.395 69.9811 197.961 69.6841 197.402 69.5128C196.842 69.3414 196.251 69.2884 195.627 69.3536C195.988 70.9301 196.484 72.6641 197.117 74.5557C197.657 76.1678 198.286 77.8694 199.005 79.6605ZM211.349 77.2148C211.091 77.3011 210.843 77.3121 210.607 77.2479C210.37 77.1837 210.212 77.0333 210.133 76.7969C209.903 76.109 209.734 75.3172 209.625 74.4214C209.531 73.4968 209.458 72.3859 209.406 71.0886L209.308 69.7232C209.206 68.4188 209.007 67.3259 208.712 66.4446C208.504 65.8213 207.71 64.3779 206.331 62.1145C204.974 59.8439 204.119 58.5762 203.768 58.3114L203.649 57.9568C203.369 57.8353 203.172 57.6025 203.057 57.2586C202.992 57.0652 203.038 56.8823 203.196 56.7101C203.346 56.5164 203.55 56.3764 203.808 56.2901C204.066 56.2037 204.342 56.3145 204.636 56.6224C205.16 57.1163 205.853 58.1154 206.715 59.6197C207.132 60.2929 207.455 60.866 207.685 61.3388L208.31 62.4562C208.31 62.4562 208.266 62.1839 208.18 61.6392L208.061 60.962C207.974 60.4174 207.913 60.0555 207.877 59.8763C207.768 59.2672 207.624 58.6939 207.444 58.1565L207.25 57.5762L207.088 57.0925C206.887 56.4907 206.829 55.9962 206.915 55.609C207.022 55.2147 207.329 54.8487 207.838 54.5112L208.677 55.0908C208.606 55.3776 208.574 55.711 208.582 56.0909C208.611 56.4636 208.669 56.7789 208.755 57.0368C208.784 57.1945 208.884 57.5312 209.057 58.0471L209.176 58.4018C209.148 59.1759 209.282 60.4696 209.578 62.2827C209.867 64.0743 210.141 65.357 210.4 66.1308C210.623 66.7972 211.047 67.5995 211.672 68.5377C212.311 69.4473 213.222 70.7077 214.407 72.3191C215.182 73.3503 215.66 74.1346 215.84 74.672C215.912 74.8869 215.89 75.1092 215.776 75.3387C215.654 75.5467 215.475 75.6903 215.239 75.7694C214.874 75.8917 214.422 75.6127 213.883 74.9324C213.388 74.381 212.878 73.6434 212.354 72.7193C211.693 71.6019 211.273 70.8462 211.093 70.4522L210.684 69.7646L211.192 72.2476C211.459 73.473 211.618 74.5193 211.669 75.3866L211.788 75.7412C212.054 76.5366 211.907 77.0277 211.349 77.2148Z" fill="#0B263B"/>
<path opacity="0.5" fill-rule="evenodd" clip-rule="evenodd" d="M110.483 39.1306C112.423 38.4385 114.348 37.7736 116.252 37.1386L116.885 39.036C114.994 39.6663 113.083 40.3267 111.155 41.0143L110.483 39.1306ZM122.056 35.2779C124.04 34.6682 125.994 34.0959 127.911 33.5644L128.445 35.4917C126.547 36.018 124.611 36.585 122.643 37.1896L122.056 35.2779ZM99.0927 43.4345C100.991 42.6789 102.885 41.9434 104.77 41.2306L105.478 43.1013C103.603 43.8099 101.72 44.5412 99.8325 45.2927L99.0927 43.4345ZM133.825 32.0284C135.874 31.5343 137.87 31.0954 139.802 30.7166L140.186 32.6792C138.285 33.0519 136.318 33.4846 134.294 33.9727L133.825 32.0284ZM87.8501 48.1238C89.7134 47.3116 91.5821 46.5144 93.4515 45.7345L94.2216 47.5802C92.362 48.3561 90.503 49.1492 88.6493 49.9572L87.8501 48.1238ZM76.7627 53.1624C78.5908 52.2971 80.4338 51.4423 82.2868 50.6002L83.1143 52.421C81.2706 53.2588 79.437 54.1093 77.6182 54.9701L76.7627 53.1624ZM145.834 29.7051C146.875 29.5633 147.891 29.4436 148.881 29.3472C149.862 29.2518 150.865 29.1498 151.889 29.0427L152.097 31.0319C151.069 31.1393 150.061 31.2418 149.075 31.3378C148.112 31.4315 147.121 31.5481 146.104 31.6868L145.834 29.7051ZM65.8383 58.548C67.6292 57.6282 69.4456 56.7144 71.2825 55.8091L72.1666 57.6031C70.3395 58.5036 68.5329 59.4124 66.7521 60.3271L65.8383 58.548ZM158.911 28.2801C160.556 28.0983 162.236 27.9126 163.944 27.7281L164.158 29.7165C162.454 29.9007 160.777 30.0861 159.133 30.2678C158.796 30.3049 158.461 30.342 158.128 30.3788L157.909 28.3909C158.241 28.3541 158.575 28.3172 158.911 28.2801ZM55.1082 64.3051C56.8487 63.3279 58.6286 62.3517 60.442 61.3794L61.3871 63.142C59.5847 64.1085 57.8161 65.0785 56.0873 66.0491L55.1082 64.3051ZM169.996 27.0973C171.992 26.8989 174.013 26.7093 176.049 26.5358L176.219 28.5285C174.194 28.7011 172.182 28.8898 170.193 29.0875L169.996 27.0973ZM44.6093 70.5158C46.2868 69.4656 48.0248 68.4097 49.8159 67.3516L50.8332 69.0736C49.0559 70.1235 47.3326 71.1705 45.6705 72.211L44.6093 70.5158ZM182.123 26.0754C184.15 25.9427 186.182 25.8326 188.209 25.7523L188.288 27.7508C186.281 27.8303 184.266 27.9394 182.253 28.0711L182.123 26.0754ZM34.478 77.3376C36.0483 76.187 37.7182 75.019 39.4764 73.8391L40.5909 75.4998C38.853 76.6661 37.2058 77.8183 35.6601 78.9509L34.478 77.3376ZM194.311 25.6074C196.366 25.5939 198.405 25.6192 200.416 25.6908L200.345 27.6895C198.365 27.619 196.354 27.5941 194.325 27.6074L194.311 25.6074ZM27.3095 83.0992C28.0428 82.4392 28.82 81.7698 29.6385 81.0924L30.9137 82.6331C30.1145 83.2946 29.3584 83.9459 28.6476 84.5857C27.8758 85.2805 27.1478 85.9788 26.4619 86.68L25.0322 85.2814C25.7486 84.5491 26.5071 83.8215 27.3095 83.0992ZM206.535 26.0683C208.613 26.2557 210.648 26.5053 212.627 26.8267L212.307 28.8009C210.38 28.4879 208.391 28.2439 206.355 28.0602L206.535 26.0683ZM17.6951 95.5318C18.5758 93.7105 19.6526 91.8976 20.9505 90.1022L22.5713 91.2739C21.3406 92.9764 20.3243 94.6887 19.4956 96.4024L17.6951 95.5318ZM218.654 28.0863C220.705 28.6225 222.672 29.2607 224.536 30.0149L223.785 31.8688C222.011 31.1508 220.127 30.5386 218.148 30.0213L218.654 28.0863ZM14.4507 107.744C14.5997 105.675 14.9314 103.583 15.4876 101.483L17.421 101.995C16.8987 103.967 16.5861 105.935 16.4456 107.887L14.4507 107.744ZM230.101 32.8296C231.905 33.9615 233.556 35.2567 235.023 36.7345L233.604 38.1437C232.254 36.784 230.725 35.5823 229.038 34.5237L230.101 32.8296ZM15.5334 120.282C15.0755 118.266 14.7241 116.188 14.5289 114.068L16.5205 113.885C16.7065 115.906 17.0424 117.896 17.4837 119.839L15.5334 120.282ZM238.851 41.7436C239.862 43.5028 240.677 45.4331 241.276 47.5466L239.352 48.0923C238.796 46.1307 238.043 44.3523 237.117 42.7399L238.851 41.7436ZM19.4198 132.151C18.6665 130.308 17.9177 128.354 17.2364 126.311L19.1336 125.679C19.7972 127.668 20.5292 129.579 21.2712 131.394L19.4198 132.151ZM242.357 53.7118C242.438 54.7226 242.479 55.7658 242.479 56.8424C242.479 57.8545 242.492 58.8201 242.513 59.7472L240.513 59.7918C240.492 58.8532 240.479 57.8725 240.479 56.8424C240.479 55.8164 240.44 54.8261 240.364 53.8705L242.357 53.7118ZM23.0711 140.657C22.7025 139.777 22.2942 138.84 21.859 137.846L23.6912 137.044C24.1262 138.038 24.5404 138.988 24.9159 139.885C25.3099 140.825 25.7295 141.741 26.1741 142.632L24.3846 143.525C23.9198 142.594 23.4819 141.638 23.0711 140.657ZM242.688 65.5749C242.738 67.6388 242.735 69.5809 242.557 71.516L240.565 71.3327C240.733 69.513 240.737 67.6615 240.688 65.6232L242.688 65.5749ZM241.374 77.4333C240.821 79.1726 240.059 80.9869 239.021 82.9585L237.251 82.0263C238.241 80.1467 238.955 78.4417 239.467 76.8281L241.374 77.4333ZM31.5975 153.866C30.1505 152.353 28.8157 150.717 27.5975 148.963L29.2403 147.822C30.4002 149.493 31.6691 151.048 33.0426 152.483L31.5975 153.866ZM235.958 88.0414C234.961 89.53 233.822 91.1152 232.522 92.8199L230.932 91.6072C232.211 89.9296 233.326 88.3778 234.296 86.9284L235.958 88.0414ZM41.6767 161.461C39.791 160.465 38.0074 159.334 36.3309 158.072L37.5337 156.474C39.1241 157.671 40.8177 158.745 42.6105 159.692L41.6767 161.461ZM228.87 97.4129C227.703 98.8278 226.44 100.319 225.073 101.895L223.562 100.584C224.92 99.0191 226.172 97.541 227.326 96.1407L228.87 97.4129ZM53.5536 165.651C51.4456 165.219 49.4173 164.661 47.4728 163.98L48.1333 162.093C49.9901 162.742 51.9319 163.277 53.9555 163.692L53.5536 165.651ZM221.209 106.267C219.965 107.652 218.65 109.096 217.261 110.604L215.79 109.249C217.174 107.746 218.484 106.308 219.721 104.931L221.209 106.267ZM213.295 114.866C212.634 115.571 211.957 116.288 211.266 117.019C210.636 117.685 209.843 118.372 208.913 119.076L207.706 117.481C208.579 116.82 209.282 116.207 209.813 115.645C210.503 114.916 211.177 114.2 211.837 113.497L213.295 114.866ZM62.9207 166.722C61.8591 166.689 60.8128 166.629 59.7824 166.542L59.951 164.549C60.9454 164.633 61.9564 164.691 62.9835 164.723C63.8285 164.75 64.7936 164.731 65.873 164.666L65.9929 166.662C64.8689 166.73 63.841 166.751 62.9207 166.722ZM78.0425 165.007C75.924 165.404 73.9352 165.738 72.0957 166.003L71.81 164.024C73.6173 163.763 75.5783 163.434 77.6748 163.041L78.0425 165.007ZM203.748 122.424C202.132 123.357 200.325 124.325 198.353 125.32L197.452 123.534C199.398 122.552 201.171 121.603 202.749 120.692L203.748 122.424ZM89.9117 162.471C87.8747 162.951 85.9031 163.396 84.007 163.804L83.5866 161.848C85.4688 161.444 87.4277 161.001 89.4533 160.524L89.9117 162.471ZM192.917 127.942C191.164 128.755 189.319 129.582 187.395 130.419L186.597 128.585C188.508 127.753 190.339 126.933 192.076 126.128L192.917 127.942ZM101.624 159.531C99.6344 160.058 97.6824 160.562 95.7747 161.042L95.2868 159.102C97.1859 158.625 99.1298 158.122 101.111 157.597L101.624 159.531ZM181.817 132.784C179.999 133.536 178.126 134.295 176.206 135.057L175.468 133.198C177.38 132.439 179.243 131.684 181.052 130.936L181.817 132.784ZM113.272 156.311C111.311 156.874 109.37 157.421 107.456 157.951L106.923 156.023C108.83 155.495 110.765 154.95 112.72 154.389L113.272 156.311ZM170.571 137.253C168.719 137.963 166.832 138.674 164.917 139.384L164.222 137.508C166.13 136.801 168.011 136.092 169.856 135.386L170.571 137.253ZM124.857 152.875C122.918 153.468 120.988 154.049 119.072 154.618L118.503 152.7C120.414 152.134 122.338 151.554 124.272 150.963L124.857 152.875ZM159.244 141.456C157.366 142.132 155.468 142.805 153.553 143.475L152.893 141.588C154.801 140.919 156.695 140.248 158.567 139.574L159.244 141.456ZM136.382 149.251C134.463 149.871 132.543 150.483 130.627 151.086L130.027 149.178C131.938 148.577 133.853 147.966 135.767 147.347L136.382 149.251ZM147.846 145.446C145.946 146.093 144.037 146.735 142.122 147.371L141.492 145.473C143.402 144.839 145.307 144.198 147.201 143.553L147.846 145.446Z" fill="#11D7FF"/>
</svg>
