<svg width="242" height="97" viewBox="0 0 242 97" fill="none" xmlns="http://www.w3.org/2000/svg">
<path d="M24.6994 61.9542C24.6088 61.9316 24.4614 61.9089 24.2574 61.8862C24.0534 61.8636 23.8834 61.8069 23.7474 61.7162C23.4074 61.4896 23.2714 61.1042 23.3394 60.5602L23.3734 59.8122C23.4641 58.5882 23.5094 57.6702 23.5094 57.0582C23.5094 53.4996 23.4754 49.9182 23.4074 46.3142C23.4074 44.4556 23.3508 42.4836 23.2374 40.3982C23.2148 40.0356 23.2941 39.7296 23.4754 39.4802C23.6794 39.2309 23.9288 39.1062 24.2234 39.1062C24.4954 39.1062 24.7674 39.2309 25.0394 39.4802C25.3341 39.7296 25.4701 40.0242 25.4474 40.3642C25.2888 41.0442 25.2094 42.4042 25.2094 44.4442V47.1642C25.2094 47.6629 25.2321 48.4562 25.2774 49.5442C25.3454 49.4536 25.5608 49.0342 25.9234 48.2862C25.9688 48.1956 26.0481 48.0596 26.1614 47.8782C26.2748 47.6742 26.3541 47.4702 26.3994 47.2662C27.1474 44.9996 27.7594 43.2542 28.2354 42.0302C28.4394 41.3729 28.7114 40.8176 29.0514 40.3642C29.3914 39.8882 29.8561 39.5596 30.4454 39.3782C30.6494 39.3102 30.9214 39.3329 31.2614 39.4462C31.6241 39.5596 31.8621 39.6956 31.9754 39.8542C32.1114 40.0129 32.1794 40.2056 32.1794 40.4322C32.1794 40.6589 32.1001 40.8629 31.9414 41.0442C31.8054 41.2256 31.6241 41.3389 31.3974 41.3842C30.8308 41.4749 30.3888 41.6789 30.0714 41.9962C29.7541 42.3136 29.5161 42.6536 29.3574 43.0162C29.2214 43.3562 29.0514 43.8776 28.8474 44.5802L27.4874 47.9122C27.4194 48.0709 27.3174 48.3429 27.1814 48.7282C27.0681 49.1136 26.9548 49.4082 26.8414 49.6122C26.7961 49.6802 26.7281 49.7482 26.6374 49.8162C26.5468 49.8842 26.4674 49.9522 26.3994 50.0202C26.5581 49.9069 26.7621 49.9409 27.0114 50.1222C27.2834 50.3036 27.5554 50.5529 27.8274 50.8702C28.0088 51.2329 28.1334 51.6296 28.2014 52.0602C28.2921 52.4909 28.3488 52.7402 28.3714 52.8082C28.4168 53.1709 28.4621 53.4429 28.5074 53.6242C28.7794 54.3496 28.9721 55.0182 29.0854 55.6302C29.1988 56.2196 29.2781 56.9222 29.3234 57.7382C29.3914 58.5542 29.6181 59.2682 30.0034 59.8802C30.1168 59.9029 30.2414 59.9256 30.3774 59.9482C30.5361 59.9709 30.7061 59.9936 30.8874 60.0162C31.2501 60.0389 31.4881 60.2656 31.6014 60.6962C31.6241 60.7416 31.6354 60.8209 31.6354 60.9342C31.6354 61.1836 31.5221 61.4216 31.2954 61.6482C30.9554 61.9882 30.5248 62.1582 30.0034 62.1582C29.6181 62.1582 29.2441 62.0562 28.8814 61.8522C28.5414 61.6482 28.2921 61.3762 28.1334 61.0362C27.9974 60.8096 27.8841 60.5036 27.7934 60.1182C27.6348 59.1436 27.4988 58.1576 27.3854 57.1602C27.2948 55.7776 27.1928 54.7349 27.0794 54.0322C26.9888 53.3069 26.7734 52.6156 26.4334 51.9582C26.3428 51.7996 26.2521 51.6862 26.1614 51.6182C26.0708 51.5276 25.9461 51.4822 25.7874 51.4822C25.6514 51.4822 25.4814 51.5162 25.2774 51.5842C25.2321 53.2162 25.2094 54.8029 25.2094 56.3442C25.2094 57.3189 25.2548 58.8036 25.3454 60.7982C25.3681 61.0476 25.3228 61.2516 25.2094 61.4102C25.1188 61.5462 24.9488 61.7276 24.6994 61.9542ZM38.4065 62.5322C37.8172 62.5322 37.2732 62.3396 36.7745 61.9542C36.2758 61.5916 35.8678 61.0929 35.5505 60.4582C34.8932 59.0756 34.4852 57.5682 34.3265 55.9362C34.1225 54.3949 34.0205 52.9102 34.0205 51.4822C34.0205 51.2102 34.0318 50.9836 34.0545 50.8022V50.1902C34.0545 50.0769 34.0432 50.0202 34.0205 50.0202V49.4082L34.0545 47.0282C34.0772 46.3029 34.1678 45.1469 34.3265 43.5602C34.4398 42.4722 34.7005 41.4182 35.1085 40.3982C35.2672 39.9449 35.4712 39.6049 35.7205 39.3782C35.9698 39.1289 36.2532 39.0042 36.5705 39.0042C37.4772 39.0042 38.2932 39.1742 39.0185 39.5142C39.7438 39.8316 40.3558 40.2849 40.8545 40.8742C41.3078 41.4409 41.6932 42.1436 42.0105 42.9822C42.3278 43.7982 42.5545 44.6709 42.6905 45.6002C42.8265 46.5522 42.8945 47.5609 42.8945 48.6262V48.8982C42.8945 49.6009 42.9058 50.2356 42.9285 50.8022L42.9625 52.7402C42.9625 59.2682 41.4438 62.5322 38.4065 62.5322ZM38.2705 61.1042C38.6785 61.1042 39.0525 60.9456 39.3925 60.6282C39.7325 60.2882 39.9932 59.8349 40.1745 59.2682C40.6052 58.1122 40.8658 56.8656 40.9565 55.5282C41.0698 54.3722 41.1265 53.3749 41.1265 52.5362C41.1265 51.5162 41.0472 50.1789 40.8885 48.5242C40.7525 46.7789 40.6845 45.4756 40.6845 44.6142V44.0022C40.6392 43.1409 40.3445 42.3929 39.8005 41.7582C39.2792 41.1236 38.6332 40.8062 37.8625 40.8062C37.0918 40.8062 36.5818 41.2482 36.3325 42.1322C36.1058 42.8349 35.9925 43.7416 35.9925 44.8522C35.9925 45.2829 36.0038 45.6456 36.0265 45.9402V46.8582L35.9585 48.4222C35.9132 48.8982 35.8905 49.4196 35.8905 49.9862C35.8905 51.2102 35.9245 52.4229 35.9925 53.6242C36.0832 55.3242 36.3098 56.9789 36.6725 58.5882C37.0352 60.2656 37.5678 61.1042 38.2705 61.1042ZM60.3824 63.6542C59.6798 63.6542 59.3284 62.9516 59.3284 61.5462V59.3702V57.1942C59.3284 56.0609 59.2491 54.5762 59.0904 52.7402C58.9091 50.6776 58.8184 49.2609 58.8184 48.4902L58.8864 46.3822C58.9318 45.7702 58.9544 45.0789 58.9544 44.3082C58.8638 44.6029 58.4898 46.1669 57.8324 49.0002C57.1751 51.7429 56.4951 54.2816 55.7924 56.6162C55.1124 58.8602 54.5571 59.9822 54.1264 59.9822C53.6958 59.9822 53.3444 59.8576 53.0724 59.6082C52.8231 59.3362 52.6984 58.9736 52.6984 58.5202C52.6984 57.5229 52.2904 55.4036 51.4744 52.1622C50.6811 48.9209 49.9558 46.2689 49.2984 44.2062L49.0944 48.0482C48.9131 51.2896 48.7884 53.9869 48.7204 56.1402C48.6751 58.2256 48.6524 59.6536 48.6524 60.4242C48.6524 60.6056 48.6638 60.7756 48.6864 60.9342V61.4102C48.6864 61.7956 48.6071 62.0789 48.4484 62.2602C48.2898 62.4642 47.9951 62.5662 47.5644 62.5662C47.3378 62.5662 47.1224 62.4756 46.9184 62.2942C46.7144 62.1356 46.6124 61.9542 46.6124 61.7502C46.6124 59.4382 46.7824 55.9702 47.1224 51.3462C47.4624 46.7222 47.6324 43.2542 47.6324 40.9422C47.4964 40.7382 47.4284 40.5229 47.4284 40.2962C47.4284 40.0242 47.5531 39.8202 47.8024 39.6842C48.0744 39.5256 48.3918 39.4462 48.7544 39.4462C49.0491 39.4462 49.5931 40.5116 50.3864 42.6422C51.1798 44.7729 51.9731 47.1869 52.7664 49.8842C53.5598 52.5816 54.0698 54.5309 54.2964 55.7322C54.4778 55.1202 54.6251 54.5536 54.7384 54.0322L54.9424 53.2162C55.6678 50.0429 56.3931 47.1756 57.1184 44.6142C57.5491 43.0502 57.9684 41.8262 58.3764 40.9422C58.7844 39.9902 59.1584 39.5142 59.4984 39.5142C59.8158 39.5142 60.0991 39.6049 60.3484 39.7862C60.6204 39.9449 60.7564 40.1602 60.7564 40.4322C60.7564 42.0642 60.8244 44.5122 60.9604 47.7762C61.1191 50.8136 61.1984 53.1709 61.1984 54.8482L61.1644 56.6502L61.0964 58.4522C61.0964 58.7242 61.1304 59.1322 61.1984 59.6762L61.3004 60.8662C61.3231 61.0702 61.3344 61.2289 61.3344 61.3422C61.3571 61.4556 61.3684 61.5236 61.3684 61.5462C61.4818 61.8409 61.5384 62.0562 61.5384 62.1922C61.5384 62.5776 61.4251 62.9176 61.1984 63.2122C60.9718 63.5069 60.6998 63.6542 60.3824 63.6542ZM79.441 63.6542C78.7384 63.6542 78.387 62.9516 78.387 61.5462V59.3702V57.1942C78.387 56.0609 78.3077 54.5762 78.149 52.7402C77.9677 50.6776 77.877 49.2609 77.877 48.4902L77.945 46.3822C77.9904 45.7702 78.013 45.0789 78.013 44.3082C77.9224 44.6029 77.5484 46.1669 76.891 49.0002C76.2337 51.7429 75.5537 54.2816 74.851 56.6162C74.171 58.8602 73.6157 59.9822 73.185 59.9822C72.7544 59.9822 72.403 59.8576 72.131 59.6082C71.8817 59.3362 71.757 58.9736 71.757 58.5202C71.757 57.5229 71.349 55.4036 70.533 52.1622C69.7397 48.9209 69.0144 46.2689 68.357 44.2062L68.153 48.0482C67.9717 51.2896 67.847 53.9869 67.779 56.1402C67.7337 58.2256 67.711 59.6536 67.711 60.4242C67.711 60.6056 67.7224 60.7756 67.745 60.9342V61.4102C67.745 61.7956 67.6657 62.0789 67.507 62.2602C67.3484 62.4642 67.0537 62.5662 66.623 62.5662C66.3964 62.5662 66.181 62.4756 65.977 62.2942C65.773 62.1356 65.671 61.9542 65.671 61.7502C65.671 59.4382 65.841 55.9702 66.181 51.3462C66.521 46.7222 66.691 43.2542 66.691 40.9422C66.555 40.7382 66.487 40.5229 66.487 40.2962C66.487 40.0242 66.6117 39.8202 66.861 39.6842C67.133 39.5256 67.4504 39.4462 67.813 39.4462C68.1077 39.4462 68.6517 40.5116 69.445 42.6422C70.2384 44.7729 71.0317 47.1869 71.825 49.8842C72.6184 52.5816 73.1284 54.5309 73.355 55.7322C73.5364 55.1202 73.6837 54.5536 73.797 54.0322L74.001 53.2162C74.7264 50.0429 75.4517 47.1756 76.177 44.6142C76.6077 43.0502 77.027 41.8262 77.435 40.9422C77.843 39.9902 78.217 39.5142 78.557 39.5142C78.8744 39.5142 79.1577 39.6049 79.407 39.7862C79.679 39.9449 79.815 40.1602 79.815 40.4322C79.815 42.0642 79.883 44.5122 80.019 47.7762C80.1777 50.8136 80.257 53.1709 80.257 54.8482L80.223 56.6502L80.155 58.4522C80.155 58.7242 80.189 59.1322 80.257 59.6762L80.359 60.8662C80.3817 61.0702 80.393 61.2289 80.393 61.3422C80.4157 61.4556 80.427 61.5236 80.427 61.5462C80.5404 61.8409 80.597 62.0562 80.597 62.1922C80.597 62.5776 80.4837 62.9176 80.257 63.2122C80.0304 63.5069 79.7584 63.6542 79.441 63.6542ZM86.3616 62.2262C86.1576 62.2262 85.965 62.1242 85.7836 61.9202C85.625 61.7162 85.591 61.5122 85.6816 61.3082C85.7496 61.1042 85.9083 60.7642 86.1576 60.2882C86.8603 59.1322 87.325 57.5682 87.5516 55.5962C87.5743 55.4602 87.4836 55.2902 87.2796 55.0862C87.0983 54.8596 86.985 54.6896 86.9396 54.5762L86.4636 53.8962C85.9876 53.2389 85.591 52.6382 85.2736 52.0942C84.979 51.5276 84.6956 50.7796 84.4236 49.8502C84.3103 49.4649 84.231 49.0569 84.1856 48.6262C84.1403 48.1729 84.1176 47.8896 84.1176 47.7762L84.0496 46.9942C84.027 46.6089 83.993 46.2689 83.9476 45.9742C83.9023 45.6569 83.8683 45.3962 83.8456 45.1922C83.6416 43.8776 83.5396 42.8009 83.5396 41.9622C83.5396 41.6449 83.551 41.4069 83.5736 41.2482C83.5963 40.9082 83.5963 40.6022 83.5736 40.3302C83.5736 40.0582 83.5736 39.8316 83.5736 39.6502C83.5963 39.1969 83.755 38.9702 84.0496 38.9702C84.1176 38.9702 84.2423 38.9929 84.4236 39.0382C85.2623 39.2876 85.6816 39.7636 85.6816 40.4662C85.6816 40.6476 85.659 40.9876 85.6136 41.4862L85.5116 42.8802C85.5116 43.5149 85.523 43.9909 85.5456 44.3082C85.727 46.1896 85.931 48.0482 86.1576 49.8842C86.2256 50.3829 86.3843 50.8476 86.6336 51.2782C86.9056 51.6862 87.1776 52.0262 87.4496 52.2982C87.7443 52.5476 87.9143 52.6722 87.9596 52.6722C88.0956 52.2642 88.175 51.9922 88.1976 51.8562C88.3336 49.8389 88.413 48.3542 88.4356 47.4022C88.4583 46.6089 88.4696 45.2942 88.4696 43.4582V39.4802C88.4923 39.2989 88.5376 39.1742 88.6056 39.1062C88.6963 39.0156 88.8436 38.9702 89.0476 38.9702C89.501 38.9702 89.875 39.1402 90.1696 39.4802C90.4643 39.7976 90.5776 40.1829 90.5096 40.6362C90.4416 41.1802 90.4076 41.9056 90.4076 42.8122C90.4076 43.3562 90.419 43.7302 90.4416 43.9342C90.4643 44.1382 90.4756 44.4216 90.4756 44.7842C90.4756 45.3509 90.4303 46.1556 90.3396 47.1982C90.3396 47.4476 90.317 47.8442 90.2716 48.3882C90.2263 49.0682 90.113 50.1109 89.9316 51.5162L89.7956 52.6382C89.6596 53.9982 89.3876 55.6756 88.9796 57.6702C88.8436 58.3049 88.6396 58.9736 88.3676 59.6762C88.0956 60.3562 87.7896 60.9909 87.4496 61.5802C87.3816 61.7389 87.2343 61.8862 87.0076 62.0222C86.781 62.1582 86.5656 62.2262 86.3616 62.2262ZM99.9125 61.8862C99.1418 61.8862 98.7565 60.0162 98.7565 56.2762L98.7905 54.3382L98.8245 52.7742V52.6722V52.3322C98.8472 52.1509 98.8585 51.9356 98.8585 51.6862C98.8585 51.6409 98.8245 51.5842 98.7565 51.5162C98.6885 51.4482 98.6545 51.3916 98.6545 51.3462V51.3122C98.5412 51.3576 98.3372 51.3802 98.0425 51.3802C97.7478 51.3802 97.3852 51.3349 96.9545 51.2442C96.8185 51.2216 96.4558 51.1649 95.8665 51.0742V54.9842C95.8665 55.5736 95.9005 56.5029 95.9685 57.7722C96.0365 59.0189 96.0705 59.9482 96.0705 60.5602C96.0705 60.9002 95.9798 61.1949 95.7985 61.4442C95.6172 61.6936 95.3792 61.8182 95.0845 61.8182C94.6538 61.8182 94.3478 61.3989 94.1665 60.5602C93.9852 59.6989 93.8945 58.5769 93.8945 57.1942L93.9625 54.4402C93.9852 53.6696 93.9965 52.8536 93.9965 51.9922V51.4142V50.9382C93.9965 50.5756 93.9852 50.3376 93.9625 50.2242V50.0542L94.0645 48.0822C94.0645 47.2209 94.0305 45.9402 93.9625 44.2402C93.8945 42.5402 93.8605 41.2596 93.8605 40.3982C93.8605 40.1262 93.9512 39.8882 94.1325 39.6842C94.3138 39.4802 94.5405 39.3782 94.8125 39.3782C95.5378 39.3782 95.9005 40.0582 95.9005 41.4182L95.8325 45.6342C95.7872 46.9036 95.7645 48.3202 95.7645 49.8842C96.1045 49.9976 96.7165 50.0542 97.6005 50.0542H98.8585C98.9038 49.9182 98.9265 49.7822 98.9265 49.6462C98.9265 48.5582 98.8585 46.9489 98.7225 44.8182C98.5638 42.8236 98.4845 41.2029 98.4845 39.9562C98.4845 39.7069 98.5752 39.5029 98.7565 39.3442C98.9605 39.1629 99.1985 39.0722 99.4705 39.0722C99.6292 39.0722 99.8558 39.1289 100.15 39.2422L100.456 39.3782C100.456 42.5969 100.57 46.8922 100.796 52.2642L101.102 60.8662C101.102 61.1836 100.978 61.4329 100.728 61.6142C100.502 61.7956 100.23 61.8862 99.9125 61.8862ZM106.272 61.8182C105.978 61.7276 105.819 61.5349 105.796 61.2402V60.7302C105.751 59.7782 105.706 58.3502 105.66 56.4462C105.57 54.7916 105.513 53.5222 105.49 52.6382C105.422 51.2556 105.343 49.1816 105.252 46.4162C105.23 45.9402 105.207 45.2829 105.184 44.4442C105.162 43.6056 105.15 42.9709 105.15 42.5402C105.128 42.2909 105.116 41.9396 105.116 41.4862C105.116 40.9649 105.139 40.5796 105.184 40.3302C105.275 39.6276 105.66 39.2989 106.34 39.3442C106.975 39.3442 107.315 39.7069 107.36 40.4322V40.8402L107.326 49.4082V53.4542V55.4942C107.326 55.8116 107.349 56.1856 107.394 56.6162C107.44 57.0242 107.474 57.3189 107.496 57.5002C107.61 56.8429 107.791 56.1742 108.04 55.4942C108.312 54.7916 108.482 54.3609 108.55 54.2022C108.89 53.3862 109.14 52.7176 109.298 52.1962C109.842 50.4509 110.545 48.3089 111.406 45.7702C111.588 45.2489 111.792 44.6142 112.018 43.8662C112.63 41.9396 113.05 40.6929 113.276 40.1262C113.48 39.5822 113.786 39.2422 114.194 39.1062C114.398 39.0382 114.602 39.0042 114.806 39.0042C115.124 39.0042 115.452 39.1062 115.792 39.3102V40.9422C115.792 42.6422 115.826 44.3989 115.894 46.2122C115.917 46.5976 115.928 47.1756 115.928 47.9462V48.9322C115.928 49.1362 115.917 49.4082 115.894 49.7482C115.894 50.0882 115.906 50.4849 115.928 50.9382L116.03 60.1182C116.03 60.4582 115.951 60.8322 115.792 61.2402C115.724 61.4216 115.611 61.5689 115.452 61.6822C115.294 61.7729 115.124 61.8182 114.942 61.8182C114.308 61.8182 113.99 61.5236 113.99 60.9342C113.99 60.2542 114.024 59.5969 114.092 58.9622C114.138 58.1009 114.16 57.4436 114.16 56.9902C114.115 52.5022 114.058 49.1476 113.99 46.9262C113.99 46.5862 113.945 46.0309 113.854 45.2602L113.752 44.0362C113.548 44.2629 113.435 44.4102 113.412 44.4782L112.868 46.1442C112.506 47.3229 112.222 48.1956 112.018 48.7622L109.06 56.9902L107.53 61.1722C107.349 61.6482 107.077 61.8862 106.714 61.8862C106.646 61.8862 106.499 61.8636 106.272 61.8182ZM121.52 61.9542C121.429 61.9316 121.282 61.9089 121.078 61.8862C120.874 61.8636 120.704 61.8069 120.568 61.7162C120.228 61.4896 120.092 61.1042 120.16 60.5602L120.194 59.8122C120.284 58.5882 120.33 57.6702 120.33 57.0582C120.33 53.4996 120.296 49.9182 120.228 46.3142C120.228 44.4556 120.171 42.4836 120.058 40.3982C120.035 40.0356 120.114 39.7296 120.296 39.4802C120.5 39.2309 120.749 39.1062 121.044 39.1062C121.316 39.1062 121.588 39.2309 121.86 39.4802C122.154 39.7296 122.29 40.0242 122.268 40.3642C122.109 41.0442 122.03 42.4042 122.03 44.4442V47.1642C122.03 47.6629 122.052 48.4562 122.098 49.5442C122.166 49.4536 122.381 49.0342 122.744 48.2862C122.789 48.1956 122.868 48.0596 122.982 47.8782C123.095 47.6742 123.174 47.4702 123.22 47.2662C123.968 44.9996 124.58 43.2542 125.056 42.0302C125.26 41.3729 125.532 40.8176 125.872 40.3642C126.212 39.8882 126.676 39.5596 127.266 39.3782C127.47 39.3102 127.742 39.3329 128.082 39.4462C128.444 39.5596 128.682 39.6956 128.796 39.8542C128.932 40.0129 129 40.2056 129 40.4322C129 40.6589 128.92 40.8629 128.762 41.0442C128.626 41.2256 128.444 41.3389 128.218 41.3842C127.651 41.4749 127.209 41.6789 126.892 41.9962C126.574 42.3136 126.336 42.6536 126.178 43.0162C126.042 43.3562 125.872 43.8776 125.668 44.5802L124.308 47.9122C124.24 48.0709 124.138 48.3429 124.002 48.7282C123.888 49.1136 123.775 49.4082 123.662 49.6122C123.616 49.6802 123.548 49.7482 123.458 49.8162C123.367 49.8842 123.288 49.9522 123.22 50.0202C123.378 49.9069 123.582 49.9409 123.832 50.1222C124.104 50.3036 124.376 50.5529 124.648 50.8702C124.829 51.2329 124.954 51.6296 125.022 52.0602C125.112 52.4909 125.169 52.7402 125.192 52.8082C125.237 53.1709 125.282 53.4429 125.328 53.6242C125.6 54.3496 125.792 55.0182 125.906 55.6302C126.019 56.2196 126.098 56.9222 126.144 57.7382C126.212 58.5542 126.438 59.2682 126.824 59.8802C126.937 59.9029 127.062 59.9256 127.198 59.9482C127.356 59.9709 127.526 59.9936 127.708 60.0162C128.07 60.0389 128.308 60.2656 128.422 60.6962C128.444 60.7416 128.456 60.8209 128.456 60.9342C128.456 61.1836 128.342 61.4216 128.116 61.6482C127.776 61.9882 127.345 62.1582 126.824 62.1582C126.438 62.1582 126.064 62.0562 125.702 61.8522C125.362 61.6482 125.112 61.3762 124.954 61.0362C124.818 60.8096 124.704 60.5036 124.614 60.1182C124.455 59.1436 124.319 58.1576 124.206 57.1602C124.115 55.7776 124.013 54.7349 123.9 54.0322C123.809 53.3069 123.594 52.6156 123.254 51.9582C123.163 51.7996 123.072 51.6862 122.982 51.6182C122.891 51.5276 122.766 51.4822 122.608 51.4822C122.472 51.4822 122.302 51.5162 122.098 51.5842C122.052 53.2162 122.03 54.8029 122.03 56.3442C122.03 57.3189 122.075 58.8036 122.166 60.7982C122.188 61.0476 122.143 61.2516 122.03 61.4102C121.939 61.5462 121.769 61.7276 121.52 61.9542ZM138.611 62.1922C138.09 62.1922 137.704 62.1129 137.455 61.9542C137.206 61.7956 137.081 61.5009 137.081 61.0702C137.081 60.3902 136.968 59.2342 136.741 57.6022L136.605 56.8882L133.239 56.3782C133.103 56.8996 132.91 57.9536 132.661 59.5402C132.525 60.6509 132.31 61.3876 132.015 61.7502C131.856 61.9542 131.63 62.0562 131.335 62.0562C131.063 62.0562 130.814 61.9769 130.587 61.8182C130.36 61.6369 130.247 61.4216 130.247 61.1722L130.315 61.0022L130.349 60.8662C131.845 55.0409 132.978 49.2949 133.749 43.6282C133.749 43.5376 133.76 43.3902 133.783 43.1862C133.806 42.9596 133.828 42.6422 133.851 42.2342C133.919 41.3956 133.987 40.7269 134.055 40.2282C134.146 39.7296 134.282 39.3556 134.463 39.1062H135.619C135.936 39.1062 136.208 39.1856 136.435 39.3442C136.662 39.4802 136.775 39.6842 136.775 39.9562C136.775 41.6789 137.013 44.2402 137.489 47.6402C137.942 51.1309 138.169 53.5789 138.169 54.9842C138.169 55.1202 138.226 55.4716 138.339 56.0382C138.452 56.5596 138.509 56.8996 138.509 57.0582C138.509 57.2169 138.622 57.8969 138.849 59.0982C139.053 60.1862 139.155 60.8889 139.155 61.2062V61.2402C139.155 61.7389 138.974 62.0562 138.611 62.1922ZM136.367 55.6642C136.299 55.3242 136.265 54.9049 136.265 54.4062C136.265 52.3662 136.084 49.7596 135.721 46.5862L135.381 43.0502C134.406 48.3769 133.738 52.4002 133.375 55.1202C133.715 55.3469 134.712 55.5282 136.367 55.6642ZM143.399 61.8862C142.674 61.9316 142.334 61.5689 142.379 60.7982L142.413 58.4522C142.436 57.9536 142.447 57.1829 142.447 56.1402V53.6242C142.447 52.5136 142.436 51.6749 142.413 51.1082C142.39 50.3829 142.379 49.3062 142.379 47.8782V44.6822V43.8322C142.379 43.2202 142.356 42.7102 142.311 42.3022C142.288 41.8942 142.209 41.4636 142.073 41.0102C142.028 40.8289 142.005 40.6929 142.005 40.6022C142.005 40.2169 142.141 39.8769 142.413 39.5822C142.708 39.2876 143.07 39.1289 143.501 39.1062C144.113 39.0836 144.702 39.0496 145.269 39.0042C145.858 38.9589 146.425 38.8796 146.969 38.7662C147.173 38.6756 147.4 38.7322 147.649 38.9362C147.898 39.1176 148.046 39.3216 148.091 39.5482C148.136 39.7296 148.091 39.9109 147.955 40.0922C147.819 40.2509 147.638 40.3642 147.411 40.4322C146.935 40.5682 145.904 40.7269 144.317 40.9082L144.011 49.3062C145.054 49.4196 145.858 49.7142 146.425 50.1902C146.992 50.6662 147.377 51.4936 147.581 52.6722C147.83 53.6016 147.955 54.5989 147.955 55.6642C147.955 56.3442 147.887 57.0469 147.751 57.7722C147.434 59.2456 146.674 60.3336 145.473 61.0362C145.337 61.1269 145.133 61.2516 144.861 61.4102C144.612 61.5689 144.362 61.6936 144.113 61.7842C143.886 61.8522 143.648 61.8862 143.399 61.8862ZM144.079 60.0502C144.532 59.9142 144.94 59.6422 145.303 59.2342C145.666 58.8262 145.904 58.3842 146.017 57.9082C146.221 57.0242 146.323 56.1629 146.323 55.3242C146.323 54.4402 146.221 53.5789 146.017 52.7402C145.881 52.1962 145.666 51.7769 145.371 51.4822C145.099 51.1649 144.668 50.9949 144.079 50.9722V60.0502ZM152.867 62.3282C152.573 62.3282 152.301 62.2262 152.051 62.0222C151.825 61.8182 151.7 61.5689 151.677 61.2742V60.3902V59.7102C151.655 59.5062 151.643 59.2682 151.643 58.9962C151.643 58.5202 151.609 57.7949 151.541 56.8202L151.473 54.6442C151.473 53.5336 151.507 51.8789 151.575 49.6802C151.666 47.7082 151.711 46.0536 151.711 44.7162C151.711 44.3989 151.677 43.9229 151.609 43.2882C151.541 42.6309 151.507 42.1549 151.507 41.8602C151.507 40.2509 151.983 39.4462 152.935 39.4462C153.683 39.4462 154.545 39.5936 155.519 39.8882C156.517 40.1829 157.015 40.5342 157.015 40.9422C157.015 41.1689 156.913 41.3842 156.709 41.5882C156.528 41.7696 156.301 41.9169 156.029 42.0302C155.077 41.6902 154.216 41.4636 153.445 41.3502C153.468 41.6902 153.479 42.1776 153.479 42.8122C153.479 43.7189 153.468 44.5349 153.445 45.2602C153.377 46.3482 153.343 47.1642 153.343 47.7082L153.445 48.2522L153.989 48.2182C154.171 48.1956 154.397 48.1842 154.669 48.1842C155.757 48.1842 156.301 48.5016 156.301 49.1362C156.301 49.3856 156.199 49.6009 155.995 49.7822C155.791 49.9409 155.531 50.0202 155.213 50.0202C154.805 50.0202 154.488 49.9976 154.261 49.9522H153.411C153.457 50.5416 153.479 51.4029 153.479 52.5362C153.479 53.6696 153.468 54.6896 153.445 55.5962C153.377 56.9789 153.343 58.0102 153.343 58.6902C153.343 59.9596 153.366 60.5942 153.411 60.5942L154.533 60.5602C154.919 60.5376 155.383 60.5262 155.927 60.5262C156.789 60.5262 157.219 60.7982 157.219 61.3422C157.219 61.6596 157.072 61.8976 156.777 62.0562C156.505 62.2376 156.165 62.3282 155.757 62.3282H152.867ZM160.728 62.6342C160.546 62.6342 160.388 62.5776 160.252 62.4642C160.116 62.3509 160.014 62.2036 159.946 62.0222C159.923 61.9769 159.912 61.9089 159.912 61.8182C159.912 61.5236 160.07 61.2856 160.388 61.1042C161.022 60.8322 161.498 60.4242 161.816 59.8802C162.156 59.3136 162.394 58.6562 162.53 57.9082C162.938 55.6869 163.142 53.2729 163.142 50.6662C163.142 49.6916 163.13 48.9549 163.108 48.4562C162.949 44.6256 162.813 41.9282 162.7 40.3642V40.2282C162.7 40.0242 162.745 39.8656 162.836 39.7522C162.926 39.6389 163.085 39.5596 163.312 39.5142C164.762 39.2422 165.918 39.1062 166.78 39.1062C167.233 39.1062 167.573 39.1176 167.8 39.1402C168.321 39.1629 168.718 39.3216 168.99 39.6162C169.262 39.9109 169.398 40.3189 169.398 40.8402L169.432 42.6422C169.477 44.2289 169.5 45.4189 169.5 46.2122L169.466 47.8442C169.466 50.2469 169.556 53.2842 169.738 56.9562C169.828 58.6109 169.908 59.8916 169.976 60.7982C169.998 61.2062 169.93 61.5009 169.772 61.6822C169.636 61.8636 169.398 61.9769 169.058 62.0222C168.31 62.0676 167.913 61.7162 167.868 60.9682C167.936 60.3109 167.97 59.6536 167.97 58.9962C167.97 58.3389 167.958 57.7949 167.936 57.3642L167.902 53.4882C167.902 51.6069 167.868 49.6802 167.8 47.7082C167.754 46.0762 167.686 44.5349 167.596 43.0842C167.505 41.6336 167.414 40.7496 167.324 40.4322C167.188 40.4549 166.904 40.5116 166.474 40.6022C166.043 40.6929 165.454 40.7722 164.706 40.8402C164.638 41.8829 164.604 42.6309 164.604 43.0842C164.604 43.6056 164.638 44.0589 164.706 44.4442C164.751 45.0562 164.796 45.9516 164.842 47.1302V47.8782C164.842 51.5502 164.808 54.0322 164.74 55.3242C164.694 55.6869 164.672 55.9702 164.672 56.1742C164.581 57.1262 164.49 57.8516 164.4 58.3502C164.173 59.5516 163.482 60.7756 162.326 62.0222C162.008 62.3849 161.498 62.5889 160.796 62.6342H160.728ZM174.994 61.7502C174.541 61.7276 174.28 61.4896 174.212 61.0362L174.314 52.5362V49.9182V44.8862C174.314 42.6649 174.325 40.9989 174.348 39.8882C174.348 39.7522 174.416 39.6276 174.552 39.5142C174.711 39.4009 174.903 39.3442 175.13 39.3442C175.311 39.3442 175.493 39.4009 175.674 39.5142C175.855 39.6276 175.991 39.7749 176.082 39.9562C176.286 40.3189 176.388 40.8516 176.388 41.5542C176.388 42.0529 176.309 42.8349 176.15 43.9002C176.082 44.3762 176.037 44.8976 176.014 45.4642C175.991 46.0309 175.98 46.4049 175.98 46.5862C175.935 46.9036 175.878 47.4136 175.81 48.1162C175.765 48.8189 175.765 49.1589 175.81 49.1362C176.15 49.0909 176.569 49.1702 177.068 49.3742C177.453 49.5102 177.68 49.5782 177.748 49.5782C178.745 49.7596 179.505 50.3602 180.026 51.3802C180.57 52.3776 180.887 53.4089 180.978 54.4742C181.001 54.7236 181.012 55.0862 181.012 55.5622C181.012 56.6956 180.91 57.6702 180.706 58.4862C180.479 60.0729 179.527 61.1609 177.85 61.7502C177.578 61.8409 177.227 61.8862 176.796 61.8862C176.479 61.8862 176.127 61.8749 175.742 61.8522C175.379 61.8069 175.13 61.7729 174.994 61.7502ZM176.116 60.3902C176.365 60.4582 176.592 60.4922 176.796 60.4922C177.249 60.4922 177.635 60.3676 177.952 60.1182C178.269 59.8462 178.473 59.4949 178.564 59.0642C178.677 58.5429 178.802 57.7609 178.938 56.7182C178.983 56.2196 179.029 55.8229 179.074 55.5282C179.097 55.3922 179.108 55.1882 179.108 54.9162C179.108 53.9642 178.927 53.0916 178.564 52.2982C178.201 51.4822 177.68 51.0289 177 50.9382C176.524 50.8476 176.173 50.7909 175.946 50.7682L176.116 60.3902ZM190.192 61.8862C189.421 61.8862 189.036 60.0162 189.036 56.2762L189.07 54.3382L189.104 52.7742V52.6722V52.3322C189.126 52.1509 189.138 51.9356 189.138 51.6862C189.138 51.6409 189.104 51.5842 189.036 51.5162C188.968 51.4482 188.934 51.3916 188.934 51.3462V51.3122C188.82 51.3576 188.616 51.3802 188.322 51.3802C188.027 51.3802 187.664 51.3349 187.234 51.2442C187.098 51.2216 186.735 51.1649 186.146 51.0742V54.9842C186.146 55.5736 186.18 56.5029 186.248 57.7722C186.316 59.0189 186.35 59.9482 186.35 60.5602C186.35 60.9002 186.259 61.1949 186.078 61.4442C185.896 61.6936 185.658 61.8182 185.364 61.8182C184.933 61.8182 184.627 61.3989 184.446 60.5602C184.264 59.6989 184.174 58.5769 184.174 57.1942L184.242 54.4402C184.264 53.6696 184.276 52.8536 184.276 51.9922V51.4142V50.9382C184.276 50.5756 184.264 50.3376 184.242 50.2242V50.0542L184.344 48.0822C184.344 47.2209 184.31 45.9402 184.242 44.2402C184.174 42.5402 184.14 41.2596 184.14 40.3982C184.14 40.1262 184.23 39.8882 184.412 39.6842C184.593 39.4802 184.82 39.3782 185.092 39.3782C185.817 39.3782 186.18 40.0582 186.18 41.4182L186.112 45.6342C186.066 46.9036 186.044 48.3202 186.044 49.8842C186.384 49.9976 186.996 50.0542 187.88 50.0542H189.138C189.183 49.9182 189.206 49.7822 189.206 49.6462C189.206 48.5582 189.138 46.9489 189.002 44.8182C188.843 42.8236 188.764 41.2029 188.764 39.9562C188.764 39.7069 188.854 39.5029 189.036 39.3442C189.24 39.1629 189.478 39.0722 189.75 39.0722C189.908 39.0722 190.135 39.1289 190.43 39.2422L190.736 39.3782C190.736 42.5969 190.849 46.8922 191.076 52.2642L191.382 60.8662C191.382 61.1836 191.257 61.4329 191.008 61.6142C190.781 61.7956 190.509 61.8862 190.192 61.8862ZM204.576 62.2262C203.918 62.2262 203.59 61.9769 203.59 61.4782C203.59 61.3649 203.59 61.1269 203.59 60.7642C203.59 60.4016 203.612 60.0616 203.658 59.7442C203.748 58.9282 203.794 57.9649 203.794 56.8542C203.794 55.7889 203.748 54.3496 203.658 52.5362C203.612 51.5162 203.567 49.9409 203.522 47.8102L203.42 43.6622L203.386 42.2342L203.352 39.6842C203.352 39.3216 203.556 39.1176 203.964 39.0722C204.372 39.0496 204.712 39.1629 204.984 39.4122C205.256 39.6616 205.392 39.9789 205.392 40.3642C205.392 40.9309 205.369 41.8262 205.324 43.0502L205.222 51.7882C205.199 52.0829 205.188 52.4796 205.188 52.9782C205.21 53.4769 205.222 53.9642 205.222 54.4402V56.4802V57.7042C205.176 59.1322 205.233 60.3222 205.392 61.2742C205.437 61.5916 205.38 61.8296 205.222 61.9882C205.086 62.1469 204.87 62.2262 204.576 62.2262ZM196.586 62.2262C196.268 62.2262 195.985 62.1809 195.736 62.0902C195.486 61.9996 195.373 61.7729 195.396 61.4102C195.441 60.8889 195.475 60.2429 195.498 59.4722C195.52 58.7016 195.532 58.1689 195.532 57.8742C195.532 56.5822 195.566 55.2222 195.634 53.7942C195.679 53.2502 195.702 52.3889 195.702 51.2102C195.702 50.5529 195.69 49.7709 195.668 48.8642C195.645 47.9576 195.622 47.2776 195.6 46.8242C195.577 46.4389 195.554 45.9856 195.532 45.4642C195.509 44.9429 195.498 44.3649 195.498 43.7302C195.452 42.9596 195.43 42.3589 195.43 41.9282L195.396 41.0442C195.396 40.9309 195.396 40.7042 195.396 40.3642C195.396 40.0016 195.452 39.7182 195.566 39.5142C195.702 39.3102 195.928 39.2082 196.246 39.2082C196.54 39.2082 196.79 39.3329 196.994 39.5822C197.198 39.8089 197.3 40.0809 197.3 40.3982C197.3 40.6476 197.322 41.0669 197.368 41.6562C197.413 42.6989 197.436 43.5262 197.436 44.1382C197.436 44.8862 197.379 45.6229 197.266 46.3482C197.22 46.4842 197.198 46.7109 197.198 47.0282C197.198 47.3002 197.22 47.6856 197.266 48.1842C197.447 48.2522 197.832 48.3996 198.422 48.6262C199.011 48.8302 199.521 49.0796 199.952 49.3742C200.382 49.6462 200.722 49.9636 200.972 50.3262C201.742 51.5729 202.128 52.6496 202.128 53.5562C202.128 54.9616 202.026 56.5256 201.822 58.2482C201.708 59.2682 201.38 60.0276 200.836 60.5262C200.292 61.0249 199.498 61.4556 198.456 61.8182C198.184 61.9089 197.855 61.9882 197.47 62.0562C197.084 62.1242 196.79 62.1809 196.586 62.2262ZM197.266 60.3902C197.538 60.4356 197.742 60.4582 197.878 60.4582C198.331 60.4582 198.705 60.2996 199 59.9822C199.793 59.2116 200.19 58.2936 200.19 57.2282C200.235 56.1856 200.258 55.2449 200.258 54.4062C200.258 52.9102 200.144 51.9469 199.918 51.5162C199.759 51.0176 199.442 50.5982 198.966 50.2582C198.49 49.9182 197.946 49.6802 197.334 49.5442C197.175 51.1536 197.096 52.9556 197.096 54.9502C197.096 56.6502 197.152 58.4636 197.266 60.3902ZM209.747 61.9882C209.475 61.9882 209.237 61.9202 209.033 61.7842C208.829 61.6482 208.727 61.4556 208.727 61.2062C208.727 60.4809 208.818 59.6762 208.999 58.7922C209.203 57.8856 209.487 56.8089 209.849 55.5622L210.189 54.2362C210.507 52.9669 210.665 51.8676 210.665 50.9382C210.665 50.2809 210.371 48.6602 209.781 46.0762C209.215 43.4922 208.807 42.0189 208.557 41.6562V41.2822C208.331 41.0782 208.217 40.7949 208.217 40.4322C208.217 40.2282 208.319 40.0696 208.523 39.9562C208.727 39.8202 208.965 39.7522 209.237 39.7522C209.509 39.7522 209.736 39.9449 209.917 40.3302C210.257 40.9649 210.597 42.1322 210.937 43.8322C211.119 44.6029 211.243 45.2489 211.311 45.7702L211.549 47.0282C211.549 47.0282 211.595 46.7562 211.685 46.2122L211.787 45.5322C211.878 44.9882 211.935 44.6256 211.957 44.4442C212.048 43.8322 212.093 43.2429 212.093 42.6762V42.0642V41.5542C212.093 40.9196 212.195 40.4322 212.399 40.0922C212.626 39.7522 213.034 39.5029 213.623 39.3442L214.235 40.1602C214.077 40.4096 213.941 40.7156 213.827 41.0782C213.737 41.4409 213.691 41.7582 213.691 42.0302C213.669 42.1889 213.657 42.5402 213.657 43.0842V43.4582C213.385 44.1836 213.102 45.4529 212.807 47.2662C212.513 49.0569 212.365 50.3602 212.365 51.1762C212.365 51.8789 212.513 52.7742 212.807 53.8622C213.125 54.9276 213.589 56.4122 214.201 58.3162C214.609 59.5402 214.813 60.4356 214.813 61.0022C214.813 61.2289 214.723 61.4329 214.541 61.6142C214.36 61.7729 214.145 61.8522 213.895 61.8522C213.51 61.8522 213.17 61.4442 212.875 60.6282C212.581 59.9482 212.331 59.0869 212.127 58.0442C211.855 56.7749 211.697 55.9249 211.651 55.4942L211.481 54.7122L211.175 57.2282C211.039 58.4749 210.858 59.5176 210.631 60.3562V60.7302C210.631 61.5689 210.337 61.9882 209.747 61.9882Z" fill="#0B263B"/>
<path opacity="0.5" d="M160.772 7.47872C128.14 -0.0210662 58.4815 -1.02141 30.8692 10.9786C3.25695 22.9787 0.997816 40.8786 2.0019 54.4786C3.257 71.4786 13.2981 84.4788 30.8692 90.9788C53.5371 99.3642 166.42 93.4788 186.502 90.9788C206.584 88.4788 235.451 76.4786 239.844 57.4786C244.236 38.4786 193.405 14.9785 160.772 7.47872Z" stroke="#11D7FF" stroke-width="2" stroke-dasharray="6 6"/>
</svg>
