<svg width="138" height="106" viewBox="0 0 138 106" fill="none" xmlns="http://www.w3.org/2000/svg">
<path fill-rule="evenodd" clip-rule="evenodd" d="M81.0959 3.47144L85.7311 3.95808C88.8832 4.28812 91.7926 5.80692 93.8653 8.20652L97.1026 11.9515C97.8352 12.7986 98.6792 13.5449 99.6115 14.1671L103.497 16.7622C106.123 18.5154 107.985 21.1988 108.71 24.2711L109.858 29.1439C110.112 30.2181 110.506 31.2544 111.032 32.2245L113.274 36.3616C114.771 39.1227 115.169 42.3464 114.393 45.3882L113.147 50.2693C112.876 51.3299 112.746 52.4219 112.759 53.5171L112.821 58.2438C112.861 61.3855 111.716 64.4273 109.61 66.7596L106.239 70.4972C105.504 71.3107 104.879 72.2178 104.382 73.1964L102.234 77.4185C101.753 78.3645 101.157 79.2379 100.464 80.021C101.093 79.9253 101.723 79.8465 102.352 79.7834C103.423 79.6752 104.395 79.9758 105.198 80.6611L114.234 79.7824C115.228 79.6857 116.174 79.9768 116.915 80.537L119.445 80.0357C120.67 79.7918 121.829 80.1124 122.755 80.9491C123.681 81.7857 124.117 82.9062 124 84.1485C123.968 84.488 123.943 84.8275 123.925 85.1691C124.146 85.229 124.365 85.2952 124.583 85.3688C124.578 84.7886 124.572 84.2084 124.567 83.6282C124.556 82.5257 124.96 81.5734 125.76 80.8145C126.559 80.0556 127.532 79.7025 128.633 79.7719L133.724 80.0903C134.829 80.1597 135.754 80.6348 136.453 81.4946C137.152 82.3533 137.429 83.355 137.272 84.4512L135.644 95.8249C135.631 95.9237 135.613 96.0204 135.592 96.115C135.845 96.5974 136.033 97.1124 136.154 97.6464C136.356 98.5408 136.344 99.4616 136.118 100.35C135.924 101.115 135.596 101.831 135.14 102.475C134.669 103.142 134.077 103.709 133.386 104.144C132.757 104.539 132.072 104.818 131.35 104.99C130.428 105.211 129.479 105.211 128.558 104.985C127.87 104.816 127.217 104.544 126.611 104.176C126.178 103.913 125.784 103.599 125.436 103.239C124.659 103.604 123.835 103.882 122.984 104.088C120.535 104.683 117.819 104.7 115.316 104.537C114.523 104.485 113.821 104.224 113.233 103.764C113.005 103.86 112.764 103.937 112.512 103.991L107.539 105.039C106.411 105.276 105.341 105.035 104.434 104.341C103.793 104.717 103.068 104.882 102.28 104.83L97.8016 104.537C97.4968 104.517 97.2056 104.466 96.9303 104.385C96.8987 104.426 96.8672 104.466 96.8357 104.507C95.5786 106.141 93.2526 106.485 91.5761 105.285C91.0316 104.896 90.4725 104.511 89.8965 104.165L86.0222 104.713C85.0731 104.847 84.1902 104.654 83.4208 104.149L79.8735 104.923C78.6815 105.183 77.5464 104.905 76.6088 104.125C75.8552 103.498 75.398 102.685 75.2687 101.757C74.7421 102.507 73.9444 103.06 72.9837 103.28L69.0296 104.182C67.8955 104.441 66.8171 104.211 65.8858 103.515C65.8049 103.454 65.7271 103.392 65.6525 103.326C64.8757 103.467 64.0717 103.669 63.3002 103.839C62.7315 103.964 62.1461 104.102 61.5922 104.286C60.4823 104.657 59.3692 104.529 58.3854 103.92L57.185 104.475C55.8786 105.079 54.4018 104.883 53.3139 104.084C53.0102 104.22 52.6854 104.32 52.3417 104.373L47.9177 105.073C46.8677 105.239 45.8902 105.003 45.0588 104.384C44.1297 104.733 43.067 104.719 42.099 104.269L37.7181 102.231C37.1537 103.374 36.0322 104.21 34.6763 104.349L30.1378 104.815C28.9795 104.933 27.9348 104.574 27.096 103.767C26.9972 103.672 26.9047 103.574 26.8185 103.474C26.2552 103.547 25.6939 103.63 25.1368 103.718C23.3742 103.995 21.622 104.33 19.8804 104.72C19.6019 104.782 19.3265 104.816 19.0553 104.819C18.7106 104.902 18.3479 104.937 17.9769 104.918C15.7529 104.805 13.5246 104.786 11.2984 104.834C9.08591 104.881 6.87551 105.013 4.67562 105.252C2.5966 105.478 0.715174 103.983 0.463968 101.907L0.0277838 98.3012C-0.187686 96.5165 0.870732 94.8621 2.48623 94.2567C3.42484 90.8344 4.13327 87.328 4.70505 83.8374C4.98253 82.1452 6.2827 80.886 7.98123 80.6621L14.3812 79.8192C15.4712 79.6752 16.4623 79.9589 17.3105 80.6569C17.4451 80.7672 17.5702 80.8828 17.6847 81.0037C17.9086 80.9343 18.1419 80.8828 18.3826 80.8545L27.5753 79.7477C28.5412 79.631 29.4693 79.8875 30.2124 80.4036C32.2389 79.9737 34.3915 79.6731 36.4033 79.7929C36.4873 79.7981 36.5725 79.8034 36.6566 79.8097C36.0396 79.0845 35.5035 78.2846 35.0631 77.4238L32.7855 72.9788C32.2852 72.0034 31.6577 71.0963 30.9198 70.2838L27.7151 66.7543C25.6003 64.4252 24.4442 61.3823 24.4778 58.2365L24.5314 53.2764C24.543 52.1718 24.4084 51.0703 24.1299 49.9992L22.9327 45.4039C22.1381 42.3527 22.5291 39.1133 24.0279 36.3384L26.376 31.987C26.9037 31.0085 27.2999 29.9637 27.5501 28.88L28.6169 24.2816C29.3306 21.203 31.1868 18.5102 33.8092 16.7475L37.9021 13.9958C38.8354 13.3694 39.6784 12.62 40.4099 11.7675L43.4549 8.21913C45.5213 5.81217 48.4265 4.28181 51.5797 3.94232L56.4651 3.41468C57.5855 3.29275 58.6839 3.02158 59.7307 2.60535L64.0706 0.880546C67.0157 -0.289296 70.2961 -0.2935 73.2444 0.867934L77.826 2.67157C78.8739 3.08569 79.9744 3.35372 81.0959 3.47144Z" fill="white"/>
<path fill-rule="evenodd" clip-rule="evenodd" d="M68.6489 8.81826C47.8398 8.81826 30.9112 25.7468 30.9112 46.5559C30.9112 60.8127 38.8584 73.2468 50.5537 79.6647L49.0328 79.1255C48.543 78.952 48.051 78.8774 47.5676 78.8984C37.0159 71.9971 30.0294 60.078 30.0294 46.5559C30.0294 25.2612 47.3542 7.93641 68.6489 7.93641C89.9446 7.93641 107.268 25.2612 107.268 46.5559C107.268 60.9199 99.3843 73.477 87.7174 80.1303C87.2812 80.1997 86.864 80.2711 86.5245 80.3195L85.0834 80.5234C97.6816 74.403 106.387 61.478 106.387 46.5559C106.387 25.7468 89.457 8.81826 68.6489 8.81826ZM128.511 95.0818C128.528 95.0997 128.511 93.2592 128.452 89.5542C128.433 87.8094 128.415 85.8187 128.393 83.5904L133.484 83.9089L131.856 95.2825C129.606 95.1469 128.492 95.0818 128.511 95.0818ZM18.4876 97.4015L18.3446 99.2629L18.1691 101.096C15.841 100.979 13.5244 100.95 11.2152 101.008C8.91021 101.049 6.58944 101.195 4.26237 101.448L3.82617 97.8409L5.48687 97.6359C6.66722 93.8163 7.66784 89.4218 8.48137 84.4555L14.8813 83.6125C15.1746 88.2088 15.841 92.7579 16.8899 97.2543L18.4876 97.4015ZM12.322 97.247C12.0508 95.8911 11.6924 93.5966 11.2446 90.3646C10.779 93.0175 10.4017 95.3414 10.1126 97.3353L12.322 97.247ZM25.9943 87.9702C25.144 88.069 24.3378 88.1647 23.5821 88.2635C23.5233 88.7659 23.4833 89.1474 23.4654 89.3997L23.4066 90.5033L25.3269 90.2132L27.2483 89.8947L27.4206 91.4966L27.6256 93.0942C26.3832 93.2887 25.5686 93.4169 25.1808 93.4758C24.5207 93.5714 23.9311 93.6702 23.4066 93.7658L23.3477 95.9205L25.9397 95.5432L28.498 95.1617L28.787 97.288L29.0508 99.4133C27.7128 99.491 26.2108 99.6666 24.5428 99.9377C22.8747 100.191 21.0427 100.539 19.0446 100.987C19.0226 100.073 19.0047 98.7132 18.9858 96.9106L18.928 92.8052C18.887 89.2126 18.8576 86.4966 18.8397 84.6531L23.436 84.1002L28.0323 83.5463L28.3214 85.6432L28.6146 87.7684C27.7023 87.8273 26.8299 87.8935 25.9943 87.9702ZM29.9527 92.8346C30.0073 88.1395 29.9127 85.3499 29.6594 84.4555C32.3575 83.7954 34.5269 83.5137 36.176 83.6125C37.8042 83.7081 39.036 84.1664 39.8716 84.9799C40.086 85.1859 40.2752 85.413 40.4402 85.6631L44.0612 84.0119C44.3723 84.3051 44.9546 84.9831 45.8091 86.0499C46.5638 86.999 47.1766 87.6591 47.6422 88.0291L47.7557 82.7327L52.352 84.3598C52.2385 85.3131 52.1387 86.6112 52.0619 88.2603C52.3152 88.0659 52.6631 87.6591 53.1109 87.04C53.5755 86.38 53.9055 85.9616 54.1 85.7861C53.5355 86.2917 54.1073 85.7672 55.8153 84.2169L59.7116 86.0499L55.0859 90.7346L60.1773 98.8783L55.5809 101L51.857 93.6996L51.6552 98.3832C51.6152 99.1789 51.6447 99.9157 51.7435 100.594L47.3195 101.294L47.495 93.934L43.7122 100.8L39.2042 98.7027L44.614 90.5285L40.929 86.6753C41.1266 87.2597 41.2296 87.9261 41.238 88.6745C41.2569 89.9715 40.9563 91.1371 40.3362 92.164C39.8128 93.0364 39.076 93.7732 38.1268 94.3734C37.0011 95.0923 35.6526 95.58 34.0834 95.8291C34.0245 96.918 34.0907 98.4862 34.2852 100.542L29.7477 101.008C29.8433 99.4942 29.9127 96.7709 29.9527 92.8346ZM33.9667 91.7867C34.9747 91.7678 35.7987 91.4566 36.4367 90.8554C36.9023 90.4077 37.184 89.8475 37.2839 89.1695C37.4373 88.2751 37.1367 87.6843 36.3821 87.3953C35.7588 87.142 34.9158 87.1903 33.849 87.5382L33.9667 91.7867ZM64.9491 83.8542C64.6201 85.4634 64.3773 87.0579 64.2239 88.6482C64.0662 90.2174 64.0484 91.8445 64.165 93.5273C64.5907 91.8003 65.2098 89.9788 66.0275 88.0585C66.8221 86.1561 67.3361 84.9652 67.5663 84.4807L72.1626 83.8101C71.9324 86.7394 71.8441 89.55 71.903 92.2481C71.9608 94.9819 72.0386 97.4162 72.1332 99.5488L68.1791 100.451C68.0025 97.5991 67.8595 94.8285 67.7429 92.1304C67.2005 93.1793 66.6466 94.3923 66.0853 95.7671C65.5209 97.1629 65.173 98.4242 65.0374 99.5488C64.7074 99.6077 63.8539 99.7948 62.4749 100.103C61.6614 100.278 60.9656 100.462 60.3822 100.657C60.2067 97.885 60.111 95.1911 60.0932 92.5739C60.0711 89.9568 59.9576 87.3144 59.7411 84.6383L64.9491 83.8542ZM78.9105 85.2658C86.1429 84.2358 89.7817 83.7229 89.8185 83.7229C89.7439 84.4239 89.808 89.7087 90.0098 99.5751C91.661 98.0069 92.9749 96.4103 93.9492 94.7885C92.9013 94.3807 92.0983 93.7511 91.5339 92.8966C90.4492 91.2107 90.5848 89.5426 91.9448 87.8935C92.894 86.7132 94.3381 85.7535 96.2774 85.0167C98.081 84.3157 100.233 83.8437 102.735 83.5904C102.464 88.0512 102.395 93.8573 102.53 101.012L98.0516 100.719C98.246 99.0916 98.3227 97.5697 98.2859 96.1549L97.7026 96.1844C96.5191 98.3359 95.2221 100.33 93.8031 102.173C92.9896 101.591 92.2339 101.096 91.5339 100.689C90.899 100.329 90.3935 99.9977 90.0119 99.7044L90.0245 100.282L85.486 100.924L85.5417 87.9702C85.0572 88.0291 84.3908 88.1174 83.5363 88.2341C83.284 91.8634 83.3019 95.847 83.5951 100.194L79.0576 101.184C79.1123 99.4942 79.0871 96.8476 78.9694 93.2372C78.8706 89.7486 78.8527 87.0873 78.9105 85.2658ZM98.5466 88.418C97.3841 88.707 96.559 89.077 96.0755 89.5248C95.5878 89.9683 95.4449 90.4928 95.6393 91.093C95.7928 91.8708 96.7241 92.2376 98.4289 92.2008L98.5466 88.418ZM115.388 87.9818C113.391 88.0764 111.957 88.1647 111.085 88.2414C110.927 90.0818 111.144 94.0843 111.723 100.246L106.749 101.294L106.72 88.6198C106.449 88.6377 105.865 88.707 104.975 88.8248C104.161 88.9194 103.483 88.9971 102.937 89.0549L103.26 84.694L114.604 83.5904L115.388 87.9818ZM116.088 92.4867C116.107 90.4119 116.059 87.7947 115.942 84.631L120.19 83.788C120.055 85.2217 120.025 86.8046 120.102 88.5315C121.598 88.5094 122.906 88.7512 124.031 89.2567C124.98 89.6824 125.717 90.2836 126.241 91.0604C126.879 91.9727 127.183 93.0763 127.143 94.3776C127.124 96.0046 126.667 97.3248 125.776 98.3327C124.94 99.3039 123.708 99.9819 122.081 100.371C120.432 100.778 118.262 100.894 115.565 100.719C115.893 98.8972 116.07 96.1518 116.088 92.4867ZM119.754 96.877C120.82 97.0315 121.664 96.9254 122.286 96.5585C123.042 96.1297 123.342 95.4812 123.188 94.6088C123.089 93.9487 122.806 93.4432 122.342 93.0942C121.704 92.6107 120.879 92.4457 119.871 92.6002L119.754 96.877ZM129.47 101.268C129.159 101.192 128.869 101.071 128.598 100.906C128.327 100.741 128.107 100.528 127.942 100.268C127.777 100.004 127.663 99.7212 127.594 99.4206C127.528 99.12 127.532 98.8057 127.609 98.4788C127.668 98.1677 127.792 97.8892 127.986 97.6474C128.181 97.4057 128.408 97.2039 128.671 97.0389C128.932 96.8739 129.228 96.7561 129.558 96.6868C129.888 96.6205 130.207 96.6058 130.519 96.6468C130.867 96.7235 131.171 96.8518 131.435 97.0389C131.695 97.2218 131.908 97.4341 132.073 97.6758C132.238 97.9186 132.355 98.1898 132.421 98.4904C132.491 98.791 132.487 99.099 132.41 99.4069C132.329 99.7181 132.201 100.004 132.014 100.268C131.831 100.528 131.607 100.741 131.347 100.906C131.084 101.071 130.79 101.192 130.46 101.268C130.13 101.349 129.8 101.349 129.47 101.268ZM60.3927 22.8038C60.4873 22.8038 60.583 22.787 60.6765 22.7513C61.0917 22.5947 61.2988 22.1322 61.1421 21.717L59.4772 17.3225C59.3206 16.9084 58.8561 16.6992 58.443 16.8568C58.0278 17.0135 57.8197 17.477 57.9774 17.8922L59.6423 22.2856C59.7621 22.6062 60.0679 22.8038 60.3927 22.8038ZM65.5104 22.067C65.5472 22.067 65.5861 22.0649 65.6239 22.0597C66.0633 21.9966 66.3681 21.5909 66.3061 21.1515L65.2644 13.8371C65.2024 13.3978 64.7946 13.0835 64.3574 13.156C63.918 13.217 63.6132 13.6238 63.6752 14.0631L64.7168 21.3775C64.7736 21.778 65.1173 22.067 65.5104 22.067ZM70.7878 22.0712C71.1862 22.0712 71.5309 21.7769 71.5824 21.3712L72.5273 14.0473C72.5852 13.609 72.2751 13.2065 71.8347 13.1497C71.4027 13.093 70.9938 13.402 70.936 13.8434L69.9911 21.1662C69.9343 21.6045 70.2444 22.0082 70.6838 22.0649C70.7185 22.0691 70.7531 22.0712 70.7878 22.0712ZM76.7884 22.4359C77.0984 22.4359 77.3928 22.2562 77.5241 21.9545L79.2805 17.9279C79.4571 17.5211 79.271 17.0492 78.8653 16.8716C78.4606 16.6929 77.9856 16.88 77.8079 17.2867L76.0526 21.3123C75.8761 21.7191 76.0611 22.1921 76.4678 22.3697C76.5729 22.4149 76.6812 22.4359 76.7884 22.4359ZM95.323 50.4691L95.2673 50.4155C94.4338 49.6124 93.3858 49.1153 92.2391 48.9786C90.8055 48.8084 89.4044 49.2183 88.305 50.1127L94.3518 37.3843C95.4502 35.0698 94.4653 32.3034 92.1508 31.204L92.092 31.1756C91.6348 30.9591 91.1502 30.8182 90.6499 30.7594C90.3609 30.7247 90.0729 30.7173 89.7901 30.7362C90.8181 28.4449 89.8269 25.7321 87.5471 24.6495L87.4893 24.6211C86.6065 24.2028 85.6226 24.0693 84.6304 24.2501C83.1253 24.5244 81.8861 25.6028 81.2292 26.985L80.9391 27.5956C80.4861 26.9545 79.8733 26.4363 79.1449 26.0905L79.086 26.0621C78.2073 25.6449 77.2256 25.5124 76.2355 25.6901C74.7314 25.9612 73.4901 27.0323 72.8343 28.4123L69.5885 35.2453C68.9642 36.2197 69.1976 39.6651 70.0258 37.6754L74.2038 28.879C74.8092 27.6062 76.1462 26.9156 77.4737 27.0733C77.81 27.1132 78.1464 27.2089 78.469 27.3613L78.5279 27.3896C80.1245 28.1485 80.3221 29.9311 79.5643 31.5277C79.5643 31.5277 76.533 39.5747 76.5677 39.7366L76.6276 40.0235L82.6071 27.438C83.2115 26.1641 84.5484 25.4735 85.8759 25.6312C86.2123 25.6711 86.5486 25.7668 86.8713 25.9192L86.9302 25.9476C88.5278 26.7064 89.2068 28.6162 88.4479 30.2139L78.9914 51.2952L88.2808 33.9925C88.8852 32.7196 89.1532 32.0291 90.4796 32.1867C90.817 32.2267 91.1523 32.3213 91.4761 32.4747L91.5339 32.5031C93.1315 33.2609 93.8115 35.1697 93.0527 36.7662C93.0527 36.7652 83.7475 56.6283 83.8779 56.7187L88.8631 51.5485C89.7271 50.654 90.9221 50.2704 92.0689 50.407C92.8687 50.5016 93.6444 50.8485 94.2688 51.4508L94.3245 51.5044C95.8443 52.9696 95.8885 55.3902 94.4222 56.91L81.2302 70.5918C79.2426 73.2069 75.6175 75.0189 72.8069 75.988C72.8069 75.988 78.8569 76.049 82.3223 71.5294L95.4586 57.9064C97.4756 55.8159 97.4146 52.4861 95.323 50.4691ZM44.1495 47.0194L44.0339 47.0079C43.3496 46.9501 42.6727 47.1046 42.0768 47.4535C41.2443 47.9423 40.6978 48.6633 40.4749 49.5231C40.25 50.3818 40.374 51.2773 40.8249 52.0446L50.4412 68.4371C52.6505 73.476 57.0714 76.8226 62.291 77.4427C63.9201 77.634 65.6029 77.5594 67.2615 77.2115C81.7768 74.1665 79.0019 57.2695 78.2977 53.9124L78.2893 53.8745L75.3768 39.9857C75.1382 38.8484 74.2028 37.9918 73.0497 37.8562C72.7281 37.8341 72.4338 37.8404 72.1763 37.894C71.4059 38.0559 70.7994 38.47 70.4042 39.0765C70.009 39.6798 69.8734 40.403 70.0216 41.1093L72.1878 51.4413L70.6186 51.2626L66.1368 29.8901C65.8982 28.7529 64.9628 27.8962 63.8098 27.7596C63.4944 27.7354 63.1938 27.7449 62.9353 27.7985C61.4133 28.118 60.4737 29.5548 60.7816 31.0127L64.9113 50.7024L63.3599 50.6141L58.3064 26.5183C58.0678 25.381 57.1334 24.5244 55.9793 24.3878C55.6177 24.3647 55.3623 24.3731 55.1037 24.4277C53.5828 24.7462 52.6442 26.182 52.9501 27.6429L57.8197 50.859L57.331 50.9589C57.1712 50.9925 57.0114 51.0272 56.8559 51.065L56.3577 51.1848L52.2932 31.8104C52.0546 30.6732 51.1212 29.8166 49.9672 29.681C49.6087 29.6442 49.3502 29.6652 49.0927 29.7199C48.3212 29.8817 47.7147 30.2969 47.3206 30.9013C46.9243 31.5056 46.7898 32.2277 46.938 32.934L51.4786 54.5798L50.7786 55.715L46.6279 48.6391C46.0971 47.7342 45.1932 47.1435 44.1495 47.0194ZM71.8473 6.8496C71.8347 6.8496 71.8231 6.84855 71.8116 6.8475C70.9539 6.78023 70.0752 6.73924 69.1997 6.72768C68.9569 6.72452 68.7614 6.52482 68.7656 6.28097C68.7687 6.03922 68.9653 5.84583 69.206 5.84583C69.207 5.84583 69.2102 5.84583 69.2123 5.84583C70.1057 5.85844 71.0033 5.89943 71.8809 5.9688C72.1237 5.98772 72.3056 6.20004 72.2856 6.44283C72.2677 6.67407 72.0743 6.8496 71.8473 6.8496ZM63.9285 6.9978C63.7078 6.9978 63.5165 6.83278 63.4902 6.60785C63.4629 6.36611 63.6363 6.14749 63.8781 6.11911C64.762 6.0161 65.6565 5.94042 66.5404 5.89627C66.8179 5.87 66.9914 6.07286 67.0019 6.31461C67.0145 6.5574 66.8274 6.76551 66.5846 6.77707C65.7206 6.82017 64.844 6.89374 63.98 6.9957C63.9622 6.9978 63.9454 6.9978 63.9285 6.9978ZM77.0764 7.60742C77.0459 7.60742 77.0133 7.60427 76.9828 7.59796C76.1409 7.41718 75.2748 7.26372 74.4109 7.13864C74.1702 7.10291 74.002 6.87903 74.0377 6.63833C74.0735 6.39658 74.3005 6.23472 74.537 6.2652C75.4209 6.39448 76.3049 6.55215 77.1678 6.73503C77.4054 6.78654 77.5567 7.02092 77.5063 7.25952C77.4632 7.46553 77.2792 7.60742 77.0764 7.60742ZM58.7331 7.95322C58.5365 7.95322 58.3568 7.82079 58.3064 7.62109C58.2464 7.3846 58.3894 7.146 58.6248 7.08609C59.4899 6.86641 60.3686 6.67512 61.2367 6.51536C61.4785 6.47752 61.7055 6.62887 61.7497 6.86852C61.7938 7.10816 61.6351 7.33835 61.3955 7.38354C60.5462 7.5391 59.6875 7.72619 58.8413 7.93956C58.8046 7.94902 58.7688 7.95322 58.7331 7.95322ZM82.1594 9.04634C82.11 9.04634 82.0595 9.03898 82.0112 9.02111C81.1892 8.72787 80.3505 8.46089 79.5212 8.2265C79.2857 8.15924 79.1501 7.91644 79.2164 7.68205C79.2826 7.44766 79.5264 7.31207 79.7608 7.37829C80.6101 7.61793 81.4657 7.89121 82.3065 8.19077C82.5356 8.2717 82.6555 8.525 82.5735 8.75414C82.5104 8.93387 82.3401 9.04634 82.1594 9.04634ZM53.7079 9.58554C53.5334 9.58554 53.3684 9.48043 53.299 9.30805C53.2087 9.08313 53.318 8.82666 53.545 8.73627C54.3722 8.40518 55.2183 8.09932 56.0592 7.82605C56.2915 7.75037 56.5406 7.8786 56.6141 8.10878C56.6888 8.34107 56.5626 8.59017 56.3314 8.66375C55.5084 8.93177 54.6823 9.23028 53.8719 9.55401C53.8183 9.57503 53.7626 9.58554 53.7079 9.58554ZM87.0153 11.1464C86.947 11.1464 86.8776 11.1306 86.8135 11.098C86.041 10.7018 85.2443 10.3255 84.4465 9.97969C84.2237 9.88404 84.1207 9.62338 84.2174 9.40055C84.313 9.17667 84.5726 9.07156 84.7965 9.17142C85.6121 9.52353 86.4257 9.90717 87.2161 10.3129C87.4326 10.4253 87.5188 10.6902 87.4074 10.9078C87.3296 11.0591 87.174 11.1464 87.0153 11.1464ZM48.9476 11.8643C48.7931 11.8643 48.6438 11.7833 48.564 11.6393C48.4441 11.427 48.5188 11.159 48.7311 11.0402C49.5057 10.604 50.3024 10.1899 51.1002 9.80837C51.3188 9.70326 51.5827 9.79575 51.6878 10.0165C51.7929 10.2351 51.7004 10.4989 51.4807 10.604C50.7008 10.9772 49.9209 11.3818 49.1631 11.8075C49.0948 11.8464 49.0201 11.8643 48.9476 11.8643ZM91.5528 13.8644C91.4655 13.8644 91.3773 13.8403 91.3016 13.7867C90.5816 13.2885 89.8406 12.8123 89.1017 12.3677C88.8925 12.2426 88.8242 11.9725 88.9503 11.7644C89.0765 11.5542 89.3487 11.4869 89.5547 11.6131C90.3115 12.0661 91.0672 12.5538 91.8019 13.0614C92.0037 13.2002 92.0531 13.4745 91.9144 13.6753C91.8292 13.7993 91.6905 13.8655 91.5528 13.8644ZM44.5226 14.7473C44.3891 14.7473 44.2567 14.6864 44.1705 14.5708C44.0244 14.3763 44.0643 14.0999 44.2588 13.9538C44.9662 13.423 45.7029 12.909 46.4471 12.4224C46.6531 12.291 46.9243 12.3467 47.0567 12.5506C47.1902 12.7545 47.1335 13.0278 46.9296 13.1613C46.2001 13.6364 45.4791 14.1409 44.7864 14.6601C44.7086 14.719 44.6151 14.7473 44.5226 14.7473ZM95.6908 17.1533C95.5857 17.1533 95.4785 17.1144 95.3945 17.0387C94.7501 16.4543 94.0796 15.8857 93.4016 15.3454C93.2103 15.1941 93.1777 14.9176 93.3291 14.7274C93.4826 14.534 93.76 14.5046 93.9482 14.6559C94.6429 15.2067 95.3293 15.79 95.9873 16.386C96.167 16.5489 96.1807 16.8274 96.0167 17.0082C95.9305 17.1039 95.8107 17.1533 95.6908 17.1533ZM40.5107 18.1833C40.3961 18.1833 40.2815 18.1392 40.1953 18.0509C40.0251 17.8764 40.0282 17.5979 40.2027 17.4286C40.8291 16.8148 41.4934 16.2083 42.1745 15.625C42.3563 15.4673 42.637 15.4884 42.7946 15.6723C42.9544 15.8562 42.9323 16.1348 42.7473 16.2935C42.081 16.8642 41.4325 17.4581 40.8186 18.0582C40.7324 18.1434 40.621 18.1844 40.5107 18.1833ZM99.3643 20.9497C99.2393 20.9497 99.1152 20.8972 99.0269 20.7942C98.4678 20.132 97.8771 19.4814 97.2717 18.857C97.1035 18.6826 97.1077 18.404 97.2822 18.2338C97.4577 18.0645 97.7362 18.0698 97.9055 18.2443C98.5245 18.8812 99.1279 19.5476 99.7007 20.2245C99.8584 20.4095 99.8352 20.6891 99.6492 20.8457C99.5672 20.9161 99.4653 20.9497 99.3643 20.9497ZM36.9791 22.1164C36.8834 22.1164 36.7878 22.0859 36.7068 22.0218C36.5155 21.8705 36.4819 21.594 36.6322 21.4027C37.1861 20.7006 37.7653 20.0122 38.3539 19.3573C38.5168 19.1755 38.7964 19.1618 38.9761 19.3237C39.1579 19.4856 39.1727 19.7652 39.0097 19.946C38.4327 20.5882 37.8662 21.2619 37.3249 21.9482C37.2387 22.0597 37.1094 22.1164 36.9791 22.1164ZM102.512 25.1908C102.367 25.1908 102.226 25.1204 102.142 24.989C101.677 24.2659 101.175 23.5427 100.654 22.8417C100.509 22.6462 100.551 22.3697 100.747 22.2247C100.942 22.0807 101.218 22.1217 101.362 22.3161C101.895 23.0329 102.406 23.7719 102.882 24.5118C103.015 24.7168 102.956 24.989 102.751 25.1214C102.678 25.1698 102.594 25.1918 102.512 25.1908ZM33.9898 26.4763C33.9131 26.4763 33.8353 26.4573 33.7649 26.4153C33.5557 26.2913 33.4864 26.0211 33.6104 25.812C34.0634 25.05 34.5458 24.2911 35.0504 23.5564C35.187 23.3577 35.4624 23.3062 35.6631 23.4439C35.8628 23.5806 35.9143 23.8549 35.7766 24.0567C35.2837 24.7735 34.8107 25.5156 34.3682 26.2608C34.2862 26.3995 34.1391 26.4773 33.9898 26.4763ZM105.079 29.805C104.914 29.805 104.754 29.7136 104.68 29.5538C104.312 28.7718 103.909 27.9919 103.488 27.2299C103.368 27.0176 103.445 26.7495 103.658 26.6308C103.869 26.513 104.138 26.5877 104.256 26.801C104.69 27.5799 105.1 28.3787 105.477 29.1775C105.581 29.3972 105.487 29.6599 105.267 29.764C105.206 29.7924 105.142 29.806 105.079 29.805ZM31.5965 31.1935C31.5387 31.1935 31.4788 31.183 31.4231 31.1577C31.1992 31.0621 31.0952 30.8035 31.1908 30.5796C31.5408 29.763 31.9213 28.9473 32.3228 28.1548C32.4332 27.9372 32.698 27.8532 32.9167 27.9614C33.1321 28.0707 33.2194 28.3377 33.109 28.5553C32.7159 29.3289 32.3428 30.1277 32.0012 30.9254C31.9308 31.0936 31.7679 31.1935 31.5965 31.1935ZM107.016 34.7188C106.828 34.7188 106.655 34.6 106.595 34.4108C106.33 33.5826 106.033 32.7543 105.717 31.9492C105.627 31.7222 105.738 31.4657 105.964 31.3774C106.192 31.287 106.448 31.3995 106.536 31.6244C106.861 32.4495 107.162 33.2956 107.436 34.1428C107.509 34.374 107.381 34.6221 107.15 34.6977C107.104 34.7103 107.059 34.7188 107.016 34.7188ZM29.8444 36.184C29.8055 36.184 29.7666 36.1776 29.7267 36.1671C29.4923 36.102 29.3546 35.8592 29.4198 35.6248C29.6573 34.7682 29.9274 33.9105 30.2207 33.0749C30.3006 32.8457 30.5539 32.7238 30.782 32.8058C31.0111 32.8857 31.133 33.1379 31.0521 33.3671C30.7651 34.1838 30.5013 35.0225 30.269 35.8602C30.2144 36.0557 30.0378 36.184 29.8444 36.184ZM108.288 39.8459C108.079 39.8459 107.893 39.6956 107.854 39.4833C107.701 38.6287 107.516 37.7679 107.308 36.926C107.249 36.6906 107.393 36.452 107.63 36.3931C107.869 36.3311 108.106 36.4793 108.164 36.7147C108.377 37.5735 108.564 38.4543 108.722 39.3266C108.765 39.5673 108.605 39.7954 108.367 39.8385C108.34 39.8427 108.312 39.8459 108.288 39.8459ZM28.7702 41.3552C28.7492 41.3552 28.7282 41.3531 28.7082 41.351C28.4664 41.3174 28.2993 41.0946 28.333 40.8539C28.4559 39.972 28.6104 39.087 28.7912 38.2199C28.8417 37.9823 29.0708 37.8247 29.3126 37.8793C29.5512 37.9298 29.7046 38.1621 29.6542 38.4007C29.4776 39.2478 29.3262 40.115 29.2064 40.9768C29.1738 41.1965 28.9857 41.3552 28.7702 41.3552ZM108.875 45.0949C108.642 45.0949 108.447 44.911 108.436 44.6756C108.395 43.8063 108.326 42.9308 108.229 42.0689C108.203 41.8272 108.376 41.6096 108.618 41.5823C108.857 41.5518 109.078 41.7284 109.106 41.9711C109.204 42.8509 109.275 43.7464 109.316 44.6335C109.329 44.8774 109.139 45.0834 108.897 45.0949C108.889 45.0949 108.883 45.0949 108.875 45.0949ZM28.3782 46.6242H28.376C28.1311 46.6221 27.9356 46.4224 27.9377 46.1796C27.9451 45.2946 27.9829 44.397 28.0481 43.5099C28.066 43.2671 28.2751 43.08 28.52 43.1032C28.7628 43.121 28.9447 43.3333 28.9268 43.5761C28.8627 44.4422 28.827 45.3209 28.8185 46.187C28.8164 46.4287 28.6199 46.6242 28.3782 46.6242ZM108.837 49.6387C108.826 49.6387 108.817 49.6387 108.807 49.6387C108.564 49.6229 108.379 49.4127 108.395 49.1699C108.451 48.3102 108.479 47.4304 108.479 46.5559C108.48 46.3131 108.678 46.1155 108.921 46.1155C109.165 46.1155 109.361 46.3131 109.361 46.5559C109.361 47.4483 109.333 48.348 109.275 49.2267C109.26 49.459 109.066 49.6387 108.837 49.6387ZM28.6714 51.8996C28.4517 51.8996 28.2615 51.7356 28.2342 51.5117C28.128 50.6372 28.0481 49.7417 27.9998 48.8504C27.9861 48.6076 28.1721 48.3995 28.4149 48.3858C28.6556 48.3722 28.8669 48.5593 28.8785 48.8021C28.9268 49.6744 29.0056 50.55 29.1086 51.4056C29.1381 51.6473 28.9667 51.867 28.725 51.8964C28.7071 51.8985 28.6893 51.8996 28.6714 51.8996ZM108.15 54.8773C108.121 54.8773 108.092 54.8751 108.063 54.8688C107.825 54.8215 107.67 54.5893 107.717 54.3507C107.886 53.5046 108.028 52.6364 108.141 51.7713C108.173 51.5296 108.397 51.3551 108.635 51.3909C108.877 51.4224 109.047 51.6442 109.015 51.8848C108.901 52.7699 108.754 53.658 108.582 54.522C108.541 54.7322 108.356 54.8773 108.15 54.8773ZM29.6521 57.0908C29.4555 57.0908 29.2768 56.9594 29.2253 56.7608C29.0056 55.9062 28.8091 55.0276 28.643 54.152C28.5978 53.9134 28.7555 53.6822 28.9941 53.637C29.2295 53.5928 29.4639 53.7484 29.5091 53.9891C29.671 54.8457 29.8633 55.7034 30.0798 56.54C30.1397 56.7755 29.9989 57.0162 29.7624 57.0782C29.7256 57.0866 29.6878 57.0908 29.6521 57.0908ZM106.782 59.9802C106.734 59.9802 106.686 59.9728 106.64 59.9571C106.409 59.8783 106.286 59.6281 106.363 59.3979C106.644 58.5781 106.899 57.7362 107.124 56.8974C107.187 56.6609 107.432 56.5274 107.664 56.5842C107.9 56.6483 108.039 56.889 107.977 57.1245C107.746 57.9832 107.484 58.844 107.199 59.6817C107.136 59.8646 106.965 59.9802 106.782 59.9802ZM31.3085 62.1097C31.1351 62.1097 30.969 62.0056 30.8997 61.8343C30.5686 61.0145 30.2575 60.1704 29.9789 59.3254C29.9022 59.0931 30.0273 58.845 30.2575 58.7683C30.494 58.6905 30.7389 58.8177 30.8156 59.049C31.0889 59.8751 31.3926 60.7023 31.7174 61.5032C31.8089 61.7281 31.6995 61.9857 31.4736 62.0771C31.4199 62.0992 31.3642 62.1097 31.3085 62.1097ZM104.75 64.8645C104.683 64.8645 104.618 64.8498 104.555 64.8193C104.337 64.7111 104.247 64.4462 104.355 64.2297C104.741 63.4498 105.105 62.6489 105.44 61.8459C105.534 61.622 105.791 61.519 106.017 61.6083C106.242 61.7029 106.347 61.9604 106.254 62.1853C105.913 63.0062 105.539 63.825 105.145 64.6196C105.067 64.7752 104.911 64.8656 104.75 64.8645ZM33.6072 66.8595C33.4538 66.8595 33.3056 66.7796 33.2236 66.6366C32.7853 65.8673 32.3691 65.0716 31.9823 64.2738C31.8761 64.0542 31.9686 63.7903 32.1872 63.6842C32.4069 63.5791 32.6718 63.6705 32.7758 63.8891C33.1532 64.6701 33.5631 65.4479 33.9898 66.2015C34.1107 66.4128 34.0371 66.6808 33.8248 66.8017C33.7565 66.8416 33.6808 66.8595 33.6072 66.8595ZM102.093 69.4388C102.009 69.4388 101.923 69.4146 101.847 69.3642C101.645 69.2275 101.592 68.9543 101.727 68.7514C102.215 68.0272 102.682 67.2809 103.115 66.5336C103.237 66.3224 103.508 66.252 103.718 66.3728C103.929 66.4948 104 66.7659 103.878 66.9761C103.433 67.7403 102.957 68.5033 102.459 69.2433C102.375 69.3705 102.235 69.4388 102.093 69.4388ZM36.5103 71.2708C36.3789 71.2708 36.2454 71.2109 36.1592 71.0963C35.6221 70.3858 35.1029 69.6522 34.6173 68.9133C34.4849 68.7115 34.5406 68.4382 34.7445 68.3036C34.9442 68.1702 35.2196 68.2259 35.3541 68.4298C35.8292 69.1508 36.3358 69.8697 36.8624 70.5645C37.0095 70.7579 36.9706 71.0354 36.7773 71.1815C36.6974 71.2414 36.6038 71.2708 36.5103 71.2708ZM98.8651 73.6242C98.76 73.6242 98.657 73.5884 98.5729 73.5148C98.39 73.353 98.3721 73.0755 98.533 72.8926C99.1089 72.2378 99.6702 71.5599 100.199 70.8746C100.348 70.6801 100.627 70.6475 100.816 70.7947C101.009 70.9429 101.044 71.2204 100.896 71.4127C100.357 72.1127 99.7837 72.8075 99.1951 73.4749C99.1079 73.5737 98.986 73.6252 98.8651 73.6242ZM39.9673 75.267C39.8537 75.267 39.7402 75.2228 39.653 75.1367C39.0287 74.5008 38.418 73.8417 37.8399 73.1732C37.6812 72.9883 37.7001 72.7097 37.8851 72.551C38.069 72.3933 38.3465 72.4112 38.5063 72.5962C39.0728 73.2489 39.6688 73.8964 40.2815 74.5165C40.4529 74.6899 40.4508 74.9685 40.2773 75.1409C40.1911 75.2249 40.0797 75.267 39.9673 75.267ZM95.117 77.3502C94.994 77.3502 94.8721 77.2998 94.7838 77.1999C94.6251 77.016 94.6429 76.7374 94.8269 76.5777C95.4806 76.0059 96.125 75.4068 96.7398 74.794C96.9133 74.6227 97.1918 74.6227 97.3631 74.7961C97.5344 74.9685 97.5344 75.2481 97.3621 75.4194C96.7335 76.0437 96.0745 76.6586 95.4071 77.2419C95.324 77.3134 95.22 77.3502 95.117 77.3502ZM43.9151 78.7807C43.8215 78.7807 43.7248 78.7513 43.6439 78.6882C42.945 78.1417 42.2533 77.5667 41.5901 76.976C41.4083 76.8142 41.3925 76.5356 41.5544 76.3549C41.7152 76.172 41.9958 76.1551 42.1766 76.3191C42.8251 76.8961 43.502 77.4585 44.1863 77.9924C44.3776 78.1417 44.4133 78.4202 44.263 78.6115C44.1758 78.7229 44.0465 78.7807 43.9151 78.7807ZM90.5091 79.9537C90.5406 79.8728 90.5974 79.8003 90.6741 79.7488C91.4014 79.2642 92.1172 78.7544 92.8025 78.23C92.9959 78.0818 93.2723 78.1185 93.4216 78.313C93.5677 78.5064 93.532 78.7828 93.3375 78.931C92.7394 79.3882 92.1172 79.836 91.4866 80.2648C91.1807 80.1166 90.8538 80.0126 90.5091 79.9537Z" fill="#08ABC8"/>
</svg>
