<svg width="218" height="157" viewBox="0 0 218 157" fill="none" xmlns="http://www.w3.org/2000/svg">
<path d="M52.3577 108.891C51.7893 109.046 51.2137 109.004 50.6311 108.763C50.0544 108.545 49.5294 108.172 49.0559 107.643C48.0572 106.483 47.2662 105.136 46.6828 103.604C46.0795 102.171 45.5896 100.766 45.2131 99.3883C45.1413 99.1259 45.0925 98.9043 45.0666 98.7234L44.9052 98.133C44.8753 98.0237 44.8494 97.972 44.8275 97.978L44.6662 97.3877L44.0713 95.083C43.9019 94.3773 43.6846 93.2383 43.4192 91.666C43.2416 90.5866 43.2151 89.5012 43.3397 88.4097C43.3732 87.9306 43.4803 87.5488 43.6611 87.2644C43.8358 86.9582 44.0762 86.7632 44.3823 86.6795C45.2569 86.4404 46.0889 86.3892 46.8782 86.5259C47.6615 86.6407 48.3714 86.9166 49.0078 87.3536C49.5945 87.7807 50.1515 88.3569 50.6788 89.0822C51.2001 89.7856 51.6488 90.5676 52.0251 91.4282C52.4073 92.3106 52.7389 93.2656 53.0198 94.2933L53.0916 94.5556C53.2769 95.2334 53.4552 95.8427 53.6265 96.3833L54.1703 98.2437C55.8917 104.541 55.2876 108.09 52.3577 108.891ZM51.85 107.549C52.2435 107.441 52.5625 107.19 52.8067 106.794C53.0451 106.376 53.1769 105.87 53.2024 105.276C53.313 104.047 53.2357 102.776 52.9705 101.462C52.775 100.317 52.5667 99.3401 52.3455 98.5311C52.0765 97.5472 51.6473 96.2781 51.0579 94.7239C50.4665 93.0762 50.0572 91.8369 49.8301 91.0061L49.6687 90.4157C49.3978 89.5968 48.9164 88.953 48.2242 88.4843C47.554 88.0095 46.8472 87.8738 46.1038 88.077C45.3604 88.2802 44.985 88.8411 44.9776 89.7595C44.9443 90.4971 45.074 91.4016 45.3669 92.4729C45.4805 92.8883 45.5871 93.2352 45.6866 93.5135L45.9287 94.399L46.2755 95.9255C46.3573 96.3966 46.473 96.9055 46.6224 97.4521C46.9452 98.6328 47.2977 99.7936 47.6801 100.934C48.2159 102.55 48.8709 104.087 49.6451 105.543C50.4372 107.066 51.1722 107.734 51.85 107.549ZM61.8616 105.059L61.4792 103.789C61.3557 103.423 61.2312 103.01 61.1057 102.551L60.8336 101.427C60.7023 101.205 59.8838 98.8554 58.3781 94.3793C56.8725 89.9033 55.9215 87.0262 55.5251 85.7482C54.245 86.0511 53.4002 86.1411 52.9906 86.0181C52.7022 85.9089 52.5282 85.745 52.4684 85.5264C52.4206 85.3515 52.4881 85.1685 52.6709 84.9776C52.8695 84.7588 53.0891 84.6165 53.3296 84.5507C53.9418 84.3834 54.6972 84.2239 55.5957 84.0722C56.4564 83.9544 57.2147 83.8059 57.8707 83.6265L58.133 83.5548L58.3954 83.4831C59.0732 83.2978 59.4838 83.4675 59.6273 83.9923C59.699 84.2546 59.6494 84.5032 59.4786 84.7379C59.3018 84.9507 59.0713 85.0959 58.7871 85.1736C58.5903 85.2274 58.2971 85.2723 57.9075 85.3084L57.2157 85.3565L57.2277 85.5294L57.2397 85.7024C57.7717 87.6483 58.8063 90.7023 60.3436 94.8642C61.7872 98.7697 62.8109 101.827 63.4146 104.035C63.4864 104.297 63.4289 104.56 63.2421 104.822C63.0773 105.079 62.8528 105.246 62.5685 105.324L61.8616 105.059ZM69.6005 103.86C69.1195 103.991 68.7676 103.864 68.5447 103.478C68.3855 103.24 68.2402 102.88 68.1087 102.399C67.8516 101.459 67.5786 100.288 67.2895 98.8869C67.0401 97.5452 66.775 96.3605 66.4941 95.3329C66.1773 94.1741 65.7349 92.4269 65.1669 90.0913L63.8159 84.8915C63.7621 84.6948 63.6486 84.4086 63.4754 84.0329L63.1529 83.2399L63.1081 83.0759C62.9706 82.5731 62.9455 82.1804 63.0328 81.8981C63.1201 81.6157 63.3715 81.4178 63.7869 81.3042C64.3554 81.1488 65.0233 81.1424 65.7908 81.2851C66.5582 81.4278 67.1637 81.7087 67.6073 82.1279C68.5283 83.0041 69.204 84.2293 69.6343 85.8035C69.9571 86.9842 70.1307 88.0059 70.155 88.8687C70.1735 89.7096 70.0348 90.5347 69.7391 91.344C70.4848 91.7511 71.0786 92.3759 71.5205 93.2186C71.9782 94.0334 72.3894 95.1076 72.754 96.4414C73.1186 97.7751 73.2058 98.9967 73.0156 100.106C72.7957 101.365 72.2397 102.339 71.3475 103.029C70.7951 103.415 70.2127 103.692 69.6005 103.86ZM67.2161 91.0115C68.3471 90.6788 68.5539 89.2006 67.8366 86.5769C67.0656 83.7564 66.2139 82.4031 65.2816 82.517C65.1786 83.0856 65.3811 84.2992 65.8891 86.1576L67.2161 91.0115ZM69.996 101.954C70.6538 101.609 71.0868 101.045 71.2951 100.259C71.5034 99.4738 71.488 98.6438 71.2489 97.7693C70.9978 96.851 70.722 96.0569 70.4214 95.3872C70.1845 94.8645 69.9417 94.4491 69.6931 94.1411C69.4603 93.8053 69.1818 93.5172 68.8576 93.2769C68.5055 93.0206 68.1456 92.9075 67.7779 92.9376C68.0311 94.2077 68.4387 95.8705 69.0005 97.9257C69.0364 98.0569 69.1281 98.4783 69.2757 99.1899L69.5149 100.323C69.5269 100.367 69.5467 100.396 69.5746 100.412L69.5925 100.478L69.996 101.954ZM79.5371 101.249C79.2529 101.327 78.9636 101.3 78.6693 101.169C78.3969 101.032 78.2109 100.824 78.1113 100.546L77.8782 99.6932L77.6989 99.0373C77.6232 98.8465 77.5495 98.6199 77.4778 98.3575C77.3523 97.8984 77.1282 97.2077 76.8056 96.2854L76.1662 94.2044C75.8733 93.133 75.4697 91.528 74.9555 89.3892C74.523 87.4631 74.1304 85.855 73.7777 84.565C73.694 84.2589 73.5357 83.8088 73.3028 83.2145C73.0638 82.5983 72.9055 82.1482 72.8278 81.8639C72.4034 80.3116 72.6504 79.4098 73.5687 79.1588C74.2902 78.9616 75.1599 78.8765 76.1778 78.9038C77.2175 78.925 77.7912 79.1324 77.8988 79.5259C77.9585 79.7446 77.9169 79.9792 77.7739 80.2298C77.6468 80.4525 77.4671 80.6544 77.2346 80.8354C76.2266 80.7585 75.336 80.767 74.5627 80.8609C74.6742 81.1829 74.8137 81.65 74.981 82.2622C75.2201 83.1368 75.4244 83.9269 75.5938 84.6325C75.8151 85.6999 75.9975 86.496 76.1409 87.0208L76.3828 87.5186L76.8986 87.3424C77.0675 87.2727 77.2832 87.202 77.5455 87.1303C78.595 86.8433 79.2034 87.006 79.3708 87.6182C79.4366 87.8587 79.395 88.0933 79.246 88.322C79.0911 88.5289 78.8605 88.6741 78.5544 88.7578C78.1609 88.8654 77.8488 88.9272 77.6182 88.9433L76.7983 89.1674C76.9974 89.7239 77.2464 90.5488 77.5453 91.642C77.8441 92.7352 78.1022 93.7221 78.3194 94.6027C78.6184 95.9543 78.8576 96.9581 79.0369 97.6141C79.3716 98.8385 79.5609 99.4447 79.6046 99.4327L80.6779 99.1041C81.0436 98.9806 81.4889 98.8471 82.0136 98.7037C82.8445 98.4765 83.3316 98.6253 83.4751 99.1501C83.5587 99.4562 83.4794 99.7246 83.237 99.9554C83.0224 100.202 82.7184 100.379 82.3248 100.487L79.5371 101.249ZM88.9252 97.6601L88.5427 96.39C88.4192 96.0243 88.2947 95.6119 88.1692 95.1527L87.8972 94.0287C87.7658 93.8061 86.9473 91.4568 85.4417 86.9807C83.9361 82.5047 82.985 79.6276 82.5887 78.3496C81.3086 78.6525 80.4637 78.7425 80.0541 78.6195C79.7658 78.5103 79.5917 78.3464 79.532 78.1278C79.4842 77.9529 79.5516 77.7699 79.7344 77.579C79.9331 77.3602 80.1527 77.2179 80.3932 77.1521C81.0054 76.9848 81.7607 76.8253 82.6592 76.6736C83.5199 76.5558 84.2783 76.4073 84.9342 76.2279L85.1966 76.1562L85.459 76.0845C86.1367 75.8992 86.5474 76.0689 86.6908 76.5937C86.7626 76.856 86.713 77.1046 86.5422 77.3393C86.3654 77.5521 86.1349 77.6973 85.8506 77.7751C85.6538 77.8288 85.3606 77.8738 84.971 77.9098L84.2792 77.9579L84.2912 78.1309L84.3033 78.3038C84.8353 80.2497 85.8699 83.3037 87.4071 87.4656C88.8508 91.3711 89.8745 94.4281 90.4782 96.6364C90.5499 96.8987 90.4924 97.1612 90.3057 97.4237C90.1409 97.6803 89.9163 97.8474 89.6321 97.9251L88.9252 97.6601ZM100.144 95.6507C99.6626 95.7822 99.1278 95.8461 98.5394 95.8425C97.9788 95.8548 97.5325 95.8123 97.2004 95.7151C95.4785 95.1754 94.0437 92.8066 92.896 88.6086L92.654 87.7231L92.376 86.7064L92.1608 85.9193C91.9218 85.0447 91.7205 84.2656 91.5571 83.5818C91.3877 82.8761 91.2252 82.1099 91.0696 81.283C90.9021 80.4123 90.8122 79.6967 90.7999 79.1361C90.7817 78.5536 90.833 77.8816 90.9538 77.1202C91.0428 76.4144 91.2253 75.8357 91.5014 75.3843C91.7993 74.9269 92.2215 74.4942 92.768 74.0864C93.2488 73.6964 93.8937 73.3909 94.7027 73.1697C95.0307 73.0801 95.3031 73.0879 95.5198 73.1931C95.7366 73.2983 95.8778 73.4712 95.9436 73.7117C96.0033 73.9303 95.9806 74.148 95.8754 74.3648C95.792 74.5756 95.6549 74.7188 95.4641 74.7944L93.9227 75.2158C93.4854 75.3354 93.1775 75.7133 92.999 76.3496C92.8204 76.9858 92.7851 77.7592 92.893 78.6696C93.0511 80.3653 93.2676 81.716 93.5426 82.7218L93.5874 82.8857L94.3825 86.0521C94.5958 87.0043 94.8638 88.0707 95.1866 89.2513C95.4137 90.0822 95.6318 90.751 95.8409 91.2578C96.1654 92.0151 96.5306 92.6202 96.9364 93.0732C97.3601 93.5918 97.9249 93.8956 98.6307 93.9847C98.9945 94.0262 99.3732 93.9932 99.7668 93.8856C100.007 93.8198 100.224 93.6666 100.417 93.426C100.701 93.3482 100.948 93.3511 101.159 93.4344C101.386 93.49 101.532 93.638 101.598 93.8785C101.831 94.7312 101.346 95.3219 100.144 95.6507ZM106.476 92.862L106.094 91.5919C105.971 91.2262 105.846 90.8137 105.72 90.3546L105.448 89.2305C105.317 89.008 104.499 86.6586 102.993 82.1826C101.487 77.7065 100.536 74.8295 100.14 73.5514C98.8598 73.8544 98.015 73.9444 97.6054 73.8213C97.3171 73.7122 97.143 73.5483 97.0833 73.3296C97.0354 73.1547 97.1029 72.9718 97.2857 72.7808C97.4844 72.562 97.704 72.4197 97.9445 72.354C98.5567 72.1866 99.312 72.0271 100.21 71.8755C101.071 71.7577 101.83 71.6091 102.485 71.4298L102.748 71.3581L103.01 71.2864C103.688 71.1011 104.099 71.2708 104.242 71.7955C104.314 72.0579 104.264 72.3064 104.093 72.5411C103.917 72.7539 103.686 72.8992 103.402 72.9769C103.205 73.0307 102.912 73.0756 102.522 73.1116L101.83 73.1598L101.843 73.3327L101.855 73.5057C102.387 75.4516 103.421 78.5055 104.958 82.6675C106.402 86.573 107.426 89.6299 108.029 91.8382C108.101 92.1006 108.044 92.363 107.857 92.6256C107.692 92.8821 107.468 93.0493 107.183 93.127L106.476 92.862ZM114.215 91.6628C113.734 91.7943 113.382 91.6673 113.16 91.2817C113 91.0433 112.855 90.6835 112.723 90.2025C112.466 89.2623 112.193 88.0916 111.904 86.6902C111.655 85.3485 111.39 84.1638 111.109 83.1361C110.792 81.9773 110.35 80.2302 109.782 77.8946L108.431 72.6948C108.377 72.498 108.263 72.2118 108.09 71.8362L107.768 71.0432L107.723 70.8792C107.585 70.3763 107.56 69.9837 107.648 69.7014C107.735 69.419 107.986 69.2211 108.402 69.1075C108.97 68.9521 109.638 68.9457 110.406 69.0884C111.173 69.2311 111.779 69.512 112.222 69.9312C113.143 70.8073 113.819 72.0325 114.249 73.6068C114.572 74.7874 114.745 75.8092 114.77 76.6719C114.788 77.5128 114.65 78.338 114.354 79.1472C115.1 79.5543 115.693 80.1792 116.135 81.0218C116.593 81.8366 117.004 82.9109 117.369 84.2446C117.733 85.5784 117.821 86.7999 117.63 87.9094C117.411 89.1679 116.855 90.1423 115.962 90.8327C115.41 91.2187 114.828 91.4954 114.215 91.6628ZM111.831 78.8148C112.962 78.4821 113.169 77.0039 112.451 74.3802C111.68 71.5597 110.829 70.2064 109.896 70.3203C109.793 70.8889 109.996 72.1024 110.504 73.9609L111.831 78.8148ZM114.611 89.757C115.269 89.4127 115.702 88.8479 115.91 88.0625C116.118 87.2771 116.103 86.4471 115.864 85.5725C115.613 84.6542 115.337 83.8602 115.036 83.1904C114.799 82.6677 114.557 82.2524 114.308 81.9444C114.075 81.6086 113.797 81.3205 113.472 81.0801C113.12 80.8239 112.76 80.7108 112.393 80.7408C112.646 82.011 113.054 83.6737 113.615 85.729C113.651 85.8602 113.743 86.2816 113.89 86.9932L114.13 88.1262C114.142 88.1699 114.162 88.1997 114.189 88.2156L114.207 88.2812L114.611 89.757ZM124.152 89.0521C123.868 89.1298 123.578 89.1031 123.284 88.9721C123.012 88.8351 122.826 88.6274 122.726 88.3492L122.493 87.4965L122.314 86.8405C122.238 86.6497 122.164 86.4232 122.093 86.1608C121.967 85.7016 121.743 85.0109 121.42 84.0887L120.781 82.0077C120.488 80.9363 120.085 79.3312 119.57 77.1925C119.138 75.2664 118.745 73.6583 118.393 72.3683C118.309 72.0622 118.151 71.612 117.918 71.0177C117.679 70.4016 117.52 69.9514 117.443 69.6672C117.018 68.1148 117.265 67.2131 118.184 66.9621C118.905 66.7648 119.775 66.6798 120.793 66.707C121.832 66.7283 122.406 66.9357 122.514 67.3292C122.573 67.5479 122.532 67.7825 122.389 68.033C122.262 68.2558 122.082 68.4577 121.849 68.6387C120.841 68.5618 119.951 68.5703 119.178 68.6642C119.289 68.9862 119.429 69.4533 119.596 70.0655C119.835 70.94 120.039 71.7302 120.209 72.4358C120.43 73.5032 120.612 74.2993 120.756 74.824L120.998 75.3219L121.513 75.1456C121.682 75.076 121.898 75.0052 122.16 74.9335C123.21 74.6466 123.818 74.8093 123.986 75.4215C124.051 75.662 124.01 75.8966 123.861 76.1253C123.706 76.3321 123.475 76.4774 123.169 76.5611C122.776 76.6687 122.464 76.7305 122.233 76.7465L121.413 76.9707C121.612 77.5272 121.861 78.3521 122.16 79.4453C122.459 80.5385 122.717 81.5254 122.934 82.4059C123.233 83.7576 123.472 84.7614 123.652 85.4173C123.986 86.6417 124.176 87.248 124.219 87.236L125.293 86.9073C125.658 86.7838 126.104 86.6504 126.628 86.5069C127.459 86.2798 127.946 86.4286 128.09 86.9533C128.174 87.2594 128.094 87.5279 127.852 87.7586C127.637 88.0053 127.333 88.1824 126.94 88.29L124.152 89.0521ZM137.619 84.9122C136.876 85.1155 136.011 83.4133 135.025 79.8056L134.546 77.9273L134.167 76.4097L134.14 76.3113L134.05 75.9833C134.024 75.8024 133.978 75.5917 133.913 75.3512C133.901 75.3075 133.853 75.2618 133.769 75.2141C133.686 75.1665 133.638 75.1208 133.626 75.077L133.617 75.0442C133.52 75.1179 133.329 75.1935 133.045 75.2712C132.761 75.3489 132.399 75.4008 131.959 75.4269C131.822 75.4409 131.457 75.4819 130.865 75.5499L131.896 79.3215C132.052 79.89 132.329 80.7774 132.73 81.9839C133.124 83.1685 133.402 84.056 133.563 84.6463C133.653 84.9743 133.643 85.2824 133.534 85.5708C133.425 85.8591 133.228 86.0421 132.944 86.1198C132.529 86.2334 132.123 85.9096 131.727 85.1484C131.325 84.3654 130.941 83.307 130.577 81.9733L129.916 79.2988C129.735 78.5495 129.531 77.7593 129.303 76.9285L129.151 76.371L129.025 75.9118C128.93 75.562 128.856 75.3354 128.804 75.232L128.76 75.0681L128.338 73.139C128.111 72.3081 127.74 71.0818 127.226 69.4599C126.712 67.838 126.342 66.6116 126.115 65.7807C126.043 65.5184 126.068 65.2649 126.189 65.0203C126.31 64.7757 126.502 64.6175 126.764 64.5458C127.464 64.3545 127.993 64.9148 128.352 66.2267L129.398 70.3114C129.689 71.5478 130.04 72.9203 130.453 74.4289C130.811 74.4486 131.416 74.3418 132.269 74.1087L133.482 73.777C133.49 73.6338 133.476 73.4967 133.44 73.3655C133.153 72.316 132.663 70.7816 131.97 68.7622C131.291 66.88 130.787 65.3376 130.459 64.135C130.393 63.8945 130.427 63.6738 130.56 63.473C130.709 63.2443 130.914 63.094 131.177 63.0223C131.33 62.9805 131.563 62.9754 131.877 63.007L132.208 63.0575C133.057 66.1622 134.299 70.2756 135.934 75.3977L138.498 83.6145C138.582 83.9206 138.527 84.194 138.334 84.4347C138.164 84.6694 137.925 84.8286 137.619 84.9122ZM148.476 81.944C147.733 82.1473 146.868 80.4451 145.882 76.8375L145.404 74.9591L145.024 73.4415L144.997 73.3431L144.908 73.0151C144.882 72.8342 144.836 72.6235 144.77 72.383C144.758 72.3393 144.71 72.2936 144.627 72.2459C144.543 72.1983 144.496 72.1526 144.484 72.1089L144.475 72.0761C144.377 72.1497 144.186 72.2253 143.902 72.303C143.618 72.3807 143.256 72.4326 142.817 72.4588C142.68 72.4728 142.315 72.5137 141.723 72.5817L142.754 76.3533C142.909 76.9218 143.187 77.8092 143.587 79.0157C143.982 80.2003 144.259 81.0878 144.421 81.6781C144.51 82.0061 144.501 82.3142 144.392 82.6026C144.282 82.8909 144.086 83.0739 143.801 83.1516C143.386 83.2652 142.98 82.9414 142.584 82.1802C142.182 81.3972 141.799 80.3388 141.434 79.0051L140.774 76.3306C140.592 75.5813 140.388 74.7912 140.161 73.9603L140.008 73.4028L139.883 72.9436C139.787 72.5938 139.714 72.3672 139.662 72.2639L139.617 72.0999L139.195 70.1708C138.968 69.3399 138.598 68.1136 138.084 66.4917C137.57 64.8698 137.199 63.6434 136.972 62.8126C136.901 62.5502 136.925 62.2967 137.046 62.0521C137.167 61.8075 137.359 61.6493 137.622 61.5776C138.321 61.3863 138.85 61.9466 139.209 63.2585L140.255 67.3432C140.546 68.5796 140.898 69.9521 141.31 71.4607C141.668 71.4804 142.273 71.3736 143.126 71.1405L144.34 70.8088C144.348 70.6656 144.334 70.5285 144.298 70.3973C144.011 69.3478 143.521 67.8134 142.828 65.794C142.149 63.9118 141.645 62.3694 141.316 61.1668C141.25 60.9263 141.284 60.7056 141.417 60.5048C141.566 60.2761 141.772 60.1258 142.034 60.0541C142.187 60.0123 142.421 60.0072 142.735 60.0388L143.066 60.0893C143.915 63.194 145.157 67.3074 146.792 72.4295L149.355 80.6463C149.439 80.9524 149.385 81.2258 149.192 81.4665C149.021 81.7012 148.783 81.8604 148.476 81.944ZM162.441 78.479C161.807 78.6523 161.424 78.4985 161.293 78.0174C161.263 77.9081 161.2 77.6785 161.104 77.3287C161.009 76.9789 160.941 76.6449 160.901 76.3269C160.773 75.5159 160.563 74.5747 160.27 73.5033C159.989 72.4757 159.566 71.0993 159 69.374C158.687 68.4021 158.228 66.8945 157.623 64.8512L156.43 60.8769L156.021 59.5084L155.316 57.0576C155.22 56.7078 155.363 56.4572 155.745 56.3059C156.132 56.1764 156.49 56.1961 156.818 56.3649C157.146 56.5337 157.361 56.8039 157.463 57.1756C157.612 57.7222 157.827 58.5918 158.106 59.7845L160.311 68.2401C160.367 68.5303 160.461 68.9159 160.593 69.3969C160.746 69.8719 160.885 70.339 161.011 70.7982L161.549 72.766L161.872 73.9467C162.204 75.3361 162.573 76.469 162.977 77.3455C163.104 77.6396 163.112 77.8841 163.001 78.079C162.912 78.2679 162.725 78.4013 162.441 78.479ZM154.734 80.5859C154.428 80.6696 154.142 80.7006 153.878 80.6789C153.614 80.6572 153.444 80.4684 153.371 80.1126C153.277 79.5978 153.139 78.9657 152.958 78.2163C152.777 77.467 152.647 76.9502 152.569 76.6659C152.229 75.4197 151.903 74.0988 151.592 72.7034C151.492 72.1667 151.287 71.3299 150.976 70.193C150.803 69.5589 150.586 68.8076 150.325 67.939C150.064 67.0704 149.862 66.4204 149.721 65.9891C149.598 65.6234 149.456 65.1921 149.297 64.6952C149.137 64.1983 148.974 63.6437 148.807 63.0315C148.56 62.3001 148.38 61.7267 148.266 61.3112L148 60.4675C147.97 60.3582 147.91 60.1395 147.821 59.8116C147.725 59.4617 147.705 59.1735 147.761 58.9468C147.838 58.7142 148.03 58.556 148.336 58.4723C148.62 58.3946 148.893 58.4491 149.156 58.6358C149.413 58.8007 149.583 59.0362 149.666 59.3423C149.732 59.5828 149.865 59.9813 150.064 60.5378C150.382 61.5316 150.622 62.3237 150.784 62.914C150.981 63.6356 151.121 64.3611 151.203 65.0906C151.195 65.2338 151.233 65.4584 151.316 65.7645C151.388 66.0269 151.511 66.3926 151.687 66.8616C151.88 66.8794 152.29 66.9199 152.918 66.9832C153.541 67.0245 154.098 67.1306 154.591 67.3012C155.079 67.45 155.49 67.6665 155.826 67.9505C156.899 68.9499 157.554 69.8868 157.793 70.7614C158.164 72.117 158.478 73.6525 158.735 75.368C158.895 76.3818 158.778 77.2009 158.385 77.8254C157.992 78.4498 157.34 79.0745 156.43 79.6993C156.191 79.8584 155.895 80.0216 155.542 80.1888C155.188 80.356 154.919 80.4884 154.734 80.5859ZM154.905 78.6356C155.18 78.6076 155.383 78.5757 155.514 78.5398C155.951 78.4203 156.27 78.1686 156.471 77.7848C157.033 76.8322 157.173 75.8421 156.892 74.8145C156.661 73.7967 156.435 72.8834 156.214 72.0744C155.819 70.6314 155.456 69.732 155.124 69.3764C154.839 68.9372 154.422 68.6164 153.873 68.4139C153.325 68.2115 152.737 68.1254 152.111 68.1556C152.382 69.7498 152.781 71.5089 153.307 73.433C153.755 75.0728 154.288 76.807 154.905 78.6356ZM167.367 76.8856C167.104 76.9573 166.857 76.9545 166.624 76.8771C166.392 76.7997 166.242 76.6408 166.177 76.4002C165.985 75.7006 165.861 74.9005 165.802 74C165.76 73.0716 165.75 71.9583 165.771 70.6601L165.749 69.2914C165.72 67.9833 165.583 66.8811 165.338 65.9846C165.165 65.3506 164.453 63.865 163.204 61.5278C161.976 59.1847 161.193 57.8711 160.857 57.5871L160.759 57.2263C160.486 57.0893 160.302 56.8459 160.207 56.496C160.153 56.2993 160.209 56.1193 160.376 55.9562C160.537 55.7712 160.749 55.6429 161.011 55.5711C161.274 55.4994 161.543 55.6255 161.82 55.9494C162.315 56.4719 162.951 57.5083 163.727 59.0584C164.105 59.754 164.396 60.3443 164.599 60.8292L165.16 61.9799C165.16 61.9799 165.132 61.7056 165.076 61.1569L164.995 60.4741C164.939 59.9255 164.898 59.5607 164.872 59.3798C164.798 58.7655 164.687 58.1851 164.537 57.6385L164.376 57.0482L164.241 56.5562C164.074 55.944 164.044 55.447 164.151 55.0653C164.28 54.6775 164.608 54.3294 165.134 54.021L165.94 54.6467C165.853 54.9291 165.802 55.2601 165.788 55.6398C165.797 56.0135 165.836 56.3316 165.908 56.594C165.928 56.753 166.01 57.0949 166.153 57.6196L166.252 57.9804C166.181 58.7518 166.242 60.0509 166.436 61.8778C166.624 63.6827 166.826 64.9788 167.041 65.7659C167.226 66.4437 167.604 67.2685 168.176 68.2403C168.763 69.1842 169.602 70.4938 170.695 72.169C171.411 73.2421 171.844 74.052 171.993 74.5986C172.053 74.8172 172.02 75.0379 171.892 75.2606C171.759 75.4615 171.573 75.5948 171.332 75.6606C170.96 75.7622 170.525 75.4583 170.025 74.7489C169.562 74.1706 169.094 73.4055 168.623 72.4536C168.025 71.3009 167.648 70.5228 167.491 70.1194L167.121 69.4099L167.489 71.9175C167.687 73.1559 167.787 74.2095 167.789 75.0782L167.888 75.439C168.109 76.248 167.935 76.7302 167.367 76.8856Z" fill="#0B263B"/>
<path opacity="0.5" d="M117.148 20.4072C98.3423 22.6771 46.4769 41.2364 27.6198 60.1534C8.76277 79.0705 12.1552 98.6711 16.9356 112.961C22.911 130.824 34.8336 142.473 50.9571 145.52C71.7574 149.45 161.442 118.182 176.973 111.07C192.504 103.957 219.474 83.4623 201.774 54.1472C179.523 17.2929 135.954 18.1373 117.148 20.4072Z" stroke="#11D7FF" stroke-width="2" stroke-dasharray="6 6"/>
</svg>
