<svg width="218" height="157" viewBox="0 0 218 157" fill="none" xmlns="http://www.w3.org/2000/svg">
<path d="M42.6882 110.794C42.3801 110.784 42.1762 110.64 42.0766 110.362L41.9421 109.87C41.6474 108.963 41.2271 107.598 40.6813 105.773C40.1575 104.201 39.7681 102.992 39.5131 102.145C39.0829 100.829 38.4594 98.8493 37.6428 96.2058C37.4954 95.7526 37.3002 95.1245 37.0571 94.3215C36.8141 93.5185 36.6358 92.9093 36.5223 92.4939C36.4346 92.2594 36.3311 91.9235 36.2115 91.4862C36.074 90.9833 35.9943 90.6056 35.9723 90.3532C35.8744 89.6514 36.1595 89.2328 36.8274 89.0972C37.4396 88.9299 37.8632 89.19 38.0982 89.8777L38.2057 90.2713L40.4323 98.545L41.4993 102.448L42.0372 104.416C42.1209 104.722 42.2414 105.076 42.3987 105.48C42.55 105.862 42.6605 106.137 42.7302 106.306C42.6662 105.642 42.6648 104.949 42.726 104.227C42.803 103.478 42.8535 103.018 42.8772 102.847C42.99 101.97 43.0542 101.259 43.0697 100.714C43.1342 98.8873 43.2472 96.6358 43.4086 93.9598C43.446 93.4091 43.4754 92.7432 43.4968 91.9619C43.5791 89.942 43.6548 88.6289 43.7241 88.0225C43.7774 87.444 43.9829 87.0353 44.3406 86.7965C44.5194 86.6771 44.7073 86.5905 44.904 86.5367C45.2101 86.4531 45.5541 86.4648 45.9358 86.5719L46.3662 88.1461C46.8145 89.786 47.3105 91.4715 47.8543 93.2027C47.9778 93.5684 48.1411 94.123 48.3443 94.8664L48.6044 95.8175C48.6581 96.0142 48.7189 96.2796 48.7867 96.6135C48.8764 96.9415 48.9919 97.3211 49.1333 97.7525L51.6525 106.581C51.7422 106.909 51.7643 107.29 51.7188 107.726C51.701 107.919 51.6306 108.091 51.5074 108.242C51.3783 108.371 51.2262 108.46 51.0513 108.507C50.4391 108.675 50.0553 108.474 49.8999 107.906C49.7206 107.25 49.58 106.607 49.4783 105.977C49.2949 105.134 49.1434 104.494 49.0238 104.056C47.7966 99.7393 46.8573 96.5183 46.206 94.3935C46.1163 94.0656 45.9261 93.5418 45.6354 92.8224L45.2143 91.6686C45.0773 91.941 45.0068 92.113 45.0029 92.1846L44.9175 93.9351C44.8784 95.1677 44.8353 96.0842 44.7879 96.6846L44.1044 105.401L43.7313 109.839C43.6819 110.346 43.4823 110.647 43.1325 110.743C43.0669 110.761 42.9188 110.778 42.6882 110.794ZM61.8414 105.628C61.098 105.831 60.2332 104.129 59.2469 100.521L58.7687 98.6431L58.389 97.1255L58.3621 97.0271L58.2725 96.6992C58.2465 96.5183 58.2007 96.3076 58.1349 96.0671C58.123 96.0233 58.0752 95.9776 57.9917 95.93C57.9082 95.8823 57.8604 95.8366 57.8485 95.7929L57.8395 95.7601C57.7421 95.8337 57.5513 95.9094 57.2671 95.9871C56.9829 96.0648 56.6211 96.1167 56.1818 96.1428C56.0446 96.1568 55.6798 96.1978 55.0874 96.2657L56.1185 100.037C56.2739 100.606 56.5518 101.493 56.9521 102.7C57.3464 103.884 57.6243 104.772 57.7857 105.362C57.8754 105.69 57.8656 105.998 57.7564 106.287C57.6473 106.575 57.4506 106.758 57.1663 106.836C56.7509 106.949 56.3452 106.625 55.9491 105.864C55.547 105.081 55.1637 104.023 54.7991 102.689L54.1385 100.015C53.9571 99.2653 53.7528 98.4752 53.5257 97.6444L53.3733 97.0868L53.2478 96.6277C53.1521 96.2778 53.0784 96.0512 53.0267 95.9479L52.9819 95.7839L52.5602 93.8548C52.3331 93.024 51.9626 91.7976 51.4487 90.1757C50.9348 88.5538 50.5643 87.3274 50.3372 86.4966C50.2654 86.2342 50.2901 85.9807 50.4112 85.7361C50.5324 85.4915 50.7241 85.3334 50.9865 85.2617C51.6861 85.0704 52.2153 85.6307 52.5739 86.9425L53.6201 91.0272C53.9111 92.2636 54.2628 93.6361 54.6752 95.1447C55.0331 95.1644 55.6384 95.0577 56.4911 94.8246L57.7046 94.4928C57.7124 94.3497 57.6984 94.2125 57.6626 94.0813C57.3757 93.0319 56.8857 91.4974 56.1926 89.478C55.5136 87.5958 55.0097 86.0534 54.6809 84.8509C54.6152 84.6104 54.6488 84.3897 54.7819 84.1888C54.9309 83.9601 55.1365 83.8099 55.3989 83.7382C55.552 83.6963 55.7856 83.6912 56.0997 83.7228L56.4307 83.7733C57.2795 86.8781 58.5215 90.9915 60.1567 96.1136L62.7203 104.33C62.804 104.636 62.7495 104.91 62.5568 105.151C62.3859 105.385 62.1475 105.544 61.8414 105.628ZM67.9582 103.885C67.65 103.876 67.4462 103.732 67.3466 103.453L67.2121 102.961C66.9174 102.055 66.4971 100.69 65.9512 98.8649C65.4274 97.2927 65.0381 96.0833 64.7831 95.2365C64.3529 93.9207 63.7294 91.9411 62.9128 89.2975C62.7654 88.8444 62.5702 88.2163 62.3271 87.4133C62.0841 86.6103 61.9058 86.001 61.7923 85.5856C61.7046 85.3511 61.6011 85.0152 61.4815 84.5779C61.344 84.075 61.2643 83.6973 61.2423 83.4449C61.1444 82.7432 61.4295 82.3245 62.0973 82.1889C62.7095 82.0216 63.1331 82.2817 63.3681 82.9695L63.4757 83.363L65.7023 91.6367L66.7693 95.5395L67.3072 97.5073C67.3909 97.8134 67.5114 98.1682 67.6687 98.5716C67.82 98.9532 67.9305 99.2285 68.0002 99.3975C67.9362 98.7335 67.9348 98.0407 67.996 97.319C68.073 96.5695 68.1235 96.1092 68.1472 95.9382C68.26 95.0615 68.3242 94.3507 68.3397 93.806C68.4042 91.979 68.5172 89.7275 68.6786 87.0516C68.716 86.5009 68.7454 85.8349 68.7668 85.0536C68.8491 83.0337 68.9248 81.7206 68.9941 81.1142C69.0474 80.5357 69.2529 80.127 69.6106 79.8882C69.7894 79.7689 69.9772 79.6823 70.174 79.6285C70.4801 79.5448 70.8241 79.5565 71.2058 79.6636L71.6362 81.2379C72.0845 82.8777 72.5805 84.5632 73.1243 86.2944C73.2478 86.6601 73.4111 87.2147 73.6143 87.9581L73.8743 88.9092C73.9281 89.106 73.9889 89.3713 74.0567 89.7053C74.1464 90.0332 74.2619 90.4129 74.4033 90.8442L76.9225 99.6724C77.0122 100 77.0343 100.382 76.9888 100.817C76.971 101.01 76.9006 101.182 76.7774 101.333C76.6483 101.463 76.4962 101.551 76.3213 101.599C75.7091 101.766 75.3253 101.566 75.1699 100.997C74.9906 100.341 74.85 99.6985 74.7483 99.0683C74.5649 98.2255 74.4134 97.5855 74.2938 97.1482C73.0666 92.831 72.1273 89.61 71.476 87.4852C71.3863 87.1573 71.1961 86.6336 70.9054 85.9141L70.4843 84.7603C70.3473 85.0327 70.2768 85.2047 70.2729 85.2763L70.1875 87.0268C70.1484 88.2594 70.1053 89.1759 70.0579 89.7763L69.3744 98.4931L69.0013 102.931C68.9519 103.437 68.7523 103.739 68.4025 103.834C68.3369 103.852 68.1888 103.869 67.9582 103.885ZM88.9289 96.2138C89.557 96.0186 90.0252 96.0551 90.3335 96.3233C90.6636 96.5855 90.8646 96.977 90.9365 97.4979C91.0482 98.0783 91.1638 98.5871 91.2834 99.0244C91.5385 100.13 91.6661 100.811 91.6663 101.07C91.6844 101.394 91.6319 101.631 91.5087 101.783C91.3855 101.934 91.1679 102.04 90.8558 102.102C90.5596 102.136 90.328 102.105 90.161 102.01C89.9939 101.915 89.8745 101.736 89.8028 101.474C89.6773 101.014 89.5447 100.357 89.405 99.5027C89.3512 99.3059 89.2864 98.9829 89.2106 98.5337C89.2026 98.4184 89.1597 98.2186 89.082 97.9344L88.2531 98.1257C87.6409 98.2931 86.8002 98.5699 85.7308 98.9562C84.7649 99.2908 84.0961 99.5089 83.7244 99.6105C83.0684 99.7898 82.5794 99.806 82.2572 99.6591C81.957 99.5062 81.7073 99.1515 81.5081 98.595C81.068 97.3289 80.4456 95.3959 79.6409 92.7961C79.5452 92.4463 79.3799 91.9275 79.1449 91.2398C78.888 90.5581 78.664 89.8674 78.4727 89.1677C78.389 88.8616 78.2794 88.3747 78.1438 87.7068C77.9962 86.9952 77.8747 86.4644 77.779 86.1146C77.5937 85.4368 77.278 84.4539 76.8319 83.166L76.3839 81.9138C76.0334 80.9757 75.7954 80.2771 75.6699 79.8179L75.5892 79.5227C75.4876 79.151 75.4646 78.8519 75.5201 78.6252C75.5358 78.3389 75.6858 78.1569 75.97 78.0792C76.1231 78.0374 76.2523 78.0373 76.3577 78.079C76.994 78.2575 77.3838 78.6092 77.5273 79.1339C77.6827 79.7024 77.9655 80.565 78.3757 81.7218C78.4634 81.9563 78.5689 82.2564 78.6924 82.6221C78.8099 82.966 78.9374 83.3893 79.0748 83.8922L79.5411 85.5976L80.4646 88.9757C81.128 91.4026 81.7755 93.599 82.4068 95.5647C82.5184 95.8867 82.8101 96.6529 83.282 97.8633L86.1471 96.8686C86.0197 96.5744 85.932 96.3399 85.8842 96.165C85.7688 95.9146 85.6055 95.4892 85.3944 94.889L84.7309 92.462L83.395 87.5754C83.1918 86.832 82.8591 85.701 82.397 84.1825L81.3661 80.7985C80.9716 79.3555 80.6976 78.2672 80.5441 77.5337C80.3588 76.8559 80.5504 76.4393 81.1189 76.2839C81.2282 76.254 81.3981 76.2311 81.6287 76.215C81.9628 76.4057 82.1777 76.6759 82.2733 77.0257C82.3809 77.4193 82.5145 77.9937 82.674 78.7491C82.7537 79.1268 82.8922 79.6764 83.0895 80.3979L83.6871 82.4551C83.8724 83.1329 84.0309 83.8415 84.1625 84.581C84.2064 84.8275 84.2971 85.2021 84.4346 85.705C84.602 86.3172 84.8967 87.2236 85.3189 88.4241C85.6933 89.4496 85.9522 90.2248 86.0956 90.7496C86.4483 92.0395 87.0647 93.9506 87.945 96.4828L88.9289 96.2138ZM94.0609 96.7495C93.7528 96.7397 93.5489 96.5957 93.4493 96.3174L93.3148 95.8255C93.0201 94.9192 92.5998 93.5536 92.054 91.729C91.5302 90.1568 91.1408 88.9473 90.8858 88.1006C90.4556 86.7848 89.8322 84.8052 89.0155 82.1616C88.8681 81.7084 88.6729 81.0803 88.4299 80.2773C88.1868 79.4743 88.0085 78.8651 87.895 78.4497C87.8074 78.2152 87.7038 77.8793 87.5842 77.442C87.4468 76.9391 87.367 76.5614 87.345 76.309C87.2472 75.6073 87.5322 75.1886 88.2001 75.053C88.8123 74.8857 89.2359 75.1458 89.4709 75.8335L89.5785 76.2271L91.8051 84.5008L92.872 88.4036L93.4099 90.3714C93.4936 90.6775 93.6141 91.0323 93.7714 91.4357C93.9227 91.8173 94.0332 92.0926 94.1029 92.2615C94.0389 91.5976 94.0375 90.9048 94.0987 90.1831C94.1758 89.4336 94.2262 88.9733 94.2499 88.8023C94.3627 87.9256 94.4269 87.2148 94.4425 86.6701C94.507 84.8431 94.6199 82.5916 94.7813 79.9157C94.8187 79.365 94.8481 78.699 94.8695 77.9177C94.9518 75.8978 95.0276 74.5847 95.0968 73.9783C95.1501 73.3998 95.3556 72.9911 95.7133 72.7523C95.8921 72.6329 96.08 72.5463 96.2767 72.4926C96.5828 72.4089 96.9268 72.4206 97.3085 72.5277L97.7389 74.1019C98.1872 75.7418 98.6832 77.4273 99.227 79.1585C99.3505 79.5242 99.5138 80.0788 99.7171 80.8222L99.9771 81.7733C100.031 81.97 100.092 82.2354 100.159 82.5694C100.249 82.8973 100.365 83.277 100.506 83.7083L103.025 92.5364C103.115 92.8644 103.137 93.2461 103.092 93.6815C103.074 93.8743 103.003 94.0463 102.88 94.1975C102.751 94.3268 102.599 94.4154 102.424 94.4632C101.812 94.6305 101.428 94.43 101.273 93.8615C101.093 93.2056 100.953 92.5625 100.851 91.9324C100.668 91.0896 100.516 90.4496 100.397 90.0123C99.1693 85.6951 98.23 82.4741 97.5787 80.3493C97.489 80.0214 97.2988 79.4976 97.0082 78.7782L96.587 77.6244C96.45 77.8968 96.3795 78.0688 96.3756 78.1404L96.2902 79.8909C96.2512 81.1235 96.208 82.04 96.1606 82.6404L95.4771 91.3572L95.104 95.7946C95.0546 96.3016 94.855 96.6029 94.5052 96.6985C94.4396 96.7164 94.2915 96.7334 94.0609 96.7495ZM113.984 91.6908C113.481 91.8283 113.088 91.8533 112.806 91.766C112.523 91.6787 112.325 91.4274 112.212 91.012C112.032 90.356 111.618 89.2708 110.969 87.7564L110.65 87.1035L107.268 87.4992C107.275 88.0379 107.367 89.1054 107.545 90.7017C107.706 91.8089 107.693 92.5763 107.504 93.0038C107.405 93.2424 107.213 93.4006 106.929 93.4783C106.667 93.55 106.405 93.5392 106.145 93.446C105.878 93.3308 105.712 93.153 105.647 92.9125L105.667 92.7306L105.664 92.5904C105.571 86.5768 105.149 80.7353 104.398 75.066C104.374 74.9785 104.346 74.8334 104.314 74.6307C104.277 74.406 104.215 74.094 104.129 73.6944C103.973 72.8675 103.863 72.2046 103.797 71.7056C103.753 71.2007 103.785 70.8041 103.895 70.5158L105.01 70.2109C105.316 70.1272 105.599 70.132 105.859 70.2253C106.114 70.2967 106.277 70.4636 106.349 70.726C106.803 72.3877 107.708 74.7956 109.064 77.9497C110.422 81.1973 111.286 83.4989 111.656 84.8545C111.692 84.9857 111.84 85.3096 112.098 85.8263C112.345 86.2993 112.489 86.6123 112.531 86.7654C112.573 86.9184 112.862 87.5445 113.397 88.6435C113.881 89.6392 114.165 90.2901 114.248 90.5962L114.257 90.629C114.389 91.11 114.297 91.464 113.984 91.6908ZM110.097 85.9856C109.942 85.6756 109.799 85.28 109.667 84.799C109.129 82.8312 108.267 80.3646 107.08 77.3993L105.82 74.0781C106.285 79.4732 106.7 83.5305 107.068 86.2498C107.456 86.3788 108.466 86.2907 110.097 85.9856ZM118.936 89.4558L118.553 88.1857C118.43 87.82 118.305 87.4075 118.18 86.9484L117.908 85.8243C117.776 85.6018 116.958 83.2525 115.452 78.7764C113.946 74.3003 112.995 71.4233 112.599 70.1452C111.319 70.4482 110.474 70.5382 110.065 70.4152C109.776 70.306 109.602 70.1421 109.542 69.9234C109.495 69.7485 109.562 69.5656 109.745 69.3746C109.943 69.1558 110.163 69.0136 110.404 68.9478C111.016 68.7804 111.771 68.6209 112.67 68.4693C113.53 68.3515 114.289 68.2029 114.945 68.0236L115.207 67.9519L115.469 67.8802C116.147 67.6949 116.558 67.8646 116.701 68.3893C116.773 68.6517 116.723 68.9002 116.553 69.1349C116.376 69.3478 116.145 69.493 115.861 69.5707C115.664 69.6245 115.371 69.6694 114.981 69.7054L114.29 69.7536L114.302 69.9265L114.314 70.0995C114.846 72.0454 115.88 75.0993 117.418 79.2613C118.861 83.1668 119.885 86.2237 120.489 88.432C120.56 88.6944 120.503 88.9569 120.316 89.2194C120.151 89.4759 119.927 89.6431 119.642 89.7208L118.936 89.4558ZM126.665 87.8361C126.357 87.8264 126.153 87.6824 126.054 87.4041L125.919 86.9122C125.624 86.0058 125.204 84.6403 124.658 82.8157C124.135 81.2435 123.745 80.034 123.49 79.1873C123.06 77.8715 122.437 75.8918 121.62 73.2483C121.472 72.7951 121.277 72.167 121.034 71.364C120.791 70.561 120.613 69.9518 120.499 69.5364C120.412 69.3018 120.308 68.9659 120.189 68.5286C120.051 68.0258 119.971 67.6481 119.949 67.3956C119.852 66.6939 120.137 66.2753 120.804 66.1397C121.417 65.9723 121.84 66.2325 122.075 66.9202L122.183 67.3138L124.409 75.5874L125.476 79.4902L126.014 81.458C126.098 81.7641 126.218 82.1189 126.376 82.5224C126.527 82.904 126.638 83.1793 126.707 83.3482C126.643 82.6842 126.642 81.9914 126.703 81.2697C126.78 80.5202 126.831 80.06 126.854 79.889C126.967 79.0122 127.031 78.3015 127.047 77.7567C127.111 75.9297 127.224 73.6783 127.386 71.0023C127.423 70.4516 127.453 69.7856 127.474 69.0043C127.556 66.9845 127.632 65.6713 127.701 65.065C127.754 64.4864 127.96 64.0778 128.318 63.839C128.497 63.7196 128.684 63.633 128.881 63.5792C129.187 63.4955 129.531 63.5073 129.913 63.6144L130.343 65.1886C130.792 66.8284 131.288 68.514 131.831 70.2452C131.955 70.6109 132.118 71.1654 132.321 71.9088L132.581 72.8599C132.635 73.0567 132.696 73.3221 132.764 73.656C132.853 73.984 132.969 74.3636 133.11 74.7949L135.63 83.6231C135.719 83.9511 135.741 84.3327 135.696 84.7681C135.678 84.961 135.608 85.133 135.484 85.2842C135.355 85.4135 135.203 85.502 135.028 85.5498C134.416 85.7172 134.032 85.5166 133.877 84.9482C133.698 84.2922 133.557 83.6492 133.455 83.0191C133.272 82.1763 133.12 81.5362 133.001 81.0989C131.774 76.7817 130.834 73.5608 130.183 71.436C130.093 71.108 129.903 70.5843 129.613 69.8648L129.191 68.711C129.054 68.9835 128.984 69.1555 128.98 69.2271L128.895 70.9775C128.856 72.2101 128.812 73.1266 128.765 73.727L128.081 82.4438L127.708 86.8813C127.659 87.3882 127.459 87.6895 127.11 87.7852C127.044 87.8031 126.896 87.8201 126.665 87.8361ZM141.087 84.3165C140.606 84.448 140.254 84.321 140.031 83.9355C139.872 83.697 139.727 83.3372 139.595 82.8562C139.338 81.9161 139.065 80.7453 138.776 79.3439C138.527 78.0022 138.262 76.8175 137.981 75.7899C137.664 74.6311 137.221 72.8839 136.653 70.5483L135.302 65.3485C135.249 65.1518 135.135 64.8656 134.962 64.4899L134.639 63.6969L134.595 63.5329C134.457 63.0301 134.432 62.6374 134.519 62.3551C134.607 62.0727 134.858 61.8748 135.273 61.7612C135.842 61.6058 136.51 61.5994 137.277 61.7421C138.045 61.8848 138.65 62.1657 139.094 62.5849C140.015 63.4611 140.69 64.6863 141.121 66.2605C141.444 67.4412 141.617 68.4629 141.642 69.3257C141.66 70.1666 141.521 70.9917 141.226 71.801C141.971 72.2081 142.565 72.8329 143.007 73.6756C143.465 74.4904 143.876 75.5646 144.24 76.8984C144.605 78.2321 144.692 79.4537 144.502 80.5631C144.282 81.8216 143.726 82.7961 142.834 83.4865C142.282 83.8725 141.699 84.1491 141.087 84.3165ZM138.703 71.4685C139.834 71.1358 140.04 69.6576 139.323 67.0339C138.552 64.2134 137.7 62.8601 136.768 62.974C136.665 63.5426 136.868 64.7562 137.376 66.6146L138.703 71.4685ZM141.482 82.4108C142.14 82.0664 142.573 81.5016 142.782 80.7162C142.99 79.9308 142.974 79.1008 142.735 78.2263C142.484 77.308 142.208 76.5139 141.908 75.8442C141.671 75.3215 141.428 74.9061 141.18 74.5981C140.947 74.2623 140.668 73.9742 140.344 73.7338C139.992 73.4776 139.632 73.3645 139.264 73.3946C139.518 74.6647 139.925 76.3274 140.487 78.3827C140.523 78.5139 140.615 78.9353 140.762 79.6469L141.001 80.7799C141.013 80.8236 141.033 80.8534 141.061 80.8693L141.079 80.9349L141.482 82.4108ZM155.171 80.1139C154.427 80.3171 153.562 78.6149 152.576 75.0073L152.098 73.1289L151.718 71.6113L151.691 71.5129L151.602 71.185C151.576 71.0041 151.53 70.7934 151.464 70.5529C151.452 70.5091 151.404 70.4634 151.321 70.4158C151.237 70.3681 151.19 70.3224 151.178 70.2787L151.169 70.2459C151.071 70.3195 150.881 70.3952 150.596 70.4729C150.312 70.5506 149.95 70.6025 149.511 70.6286C149.374 70.6426 149.009 70.6836 148.417 70.7515L149.448 74.5231C149.603 75.0916 149.881 75.9791 150.281 77.1855C150.676 78.3702 150.954 79.2576 151.115 79.848C151.205 80.1759 151.195 80.4841 151.086 80.7724C150.976 81.0607 150.78 81.2437 150.496 81.3214C150.08 81.435 149.674 81.1112 149.278 80.3501C148.876 79.567 148.493 78.5086 148.128 77.1749L147.468 74.5005C147.286 73.7511 147.082 72.961 146.855 72.1302L146.703 71.5726L146.577 71.1135C146.481 70.7636 146.408 70.537 146.356 70.4337L146.311 70.2697L145.889 68.3406C145.662 67.5098 145.292 66.2834 144.778 64.6615C144.264 63.0396 143.894 61.8132 143.666 60.9824C143.595 60.72 143.619 60.4665 143.74 60.2219C143.862 59.9773 144.053 59.8192 144.316 59.7475C145.015 59.5562 145.545 60.1165 145.903 61.4283L146.949 65.513C147.24 66.7494 147.592 68.1219 148.004 69.6305C148.362 69.6502 148.968 69.5435 149.82 69.3104L151.034 68.9786C151.042 68.8355 151.028 68.6983 150.992 68.5671C150.705 67.5176 150.215 65.9832 149.522 63.9638C148.843 62.0816 148.339 60.5392 148.01 59.3367C147.944 59.0962 147.978 58.8755 148.111 58.6746C148.26 58.4459 148.466 58.2957 148.728 58.224C148.881 58.1821 149.115 58.177 149.429 58.2086L149.76 58.2591C150.609 61.3639 151.851 65.4773 153.486 70.5993L156.05 78.8162C156.133 79.1223 156.079 79.3957 155.886 79.6363C155.715 79.871 155.477 80.0302 155.171 80.1139ZM169.135 76.6488C168.501 76.8221 168.118 76.6683 167.987 76.1873C167.957 76.078 167.894 75.8484 167.798 75.4986C167.703 75.1487 167.635 74.8148 167.595 74.4967C167.467 73.6857 167.257 72.7445 166.964 71.6732C166.683 70.6455 166.26 69.2691 165.694 67.5439C165.382 66.5719 164.922 65.0643 164.317 63.021L163.125 59.0467L162.715 57.6782L162.01 55.2275C161.914 54.8776 162.057 54.6271 162.439 54.4757C162.826 54.3463 163.184 54.3659 163.512 54.5347C163.841 54.7035 164.055 54.9737 164.157 55.3454C164.306 55.892 164.521 56.7617 164.8 57.9543L167.006 66.4099C167.061 66.7001 167.155 67.0857 167.287 67.5668C167.44 68.0418 167.579 68.5089 167.705 68.968L168.243 70.9358L168.566 72.1165C168.899 73.5059 169.267 74.6388 169.671 75.5153C169.798 75.8095 169.807 76.054 169.695 76.2489C169.606 76.4378 169.419 76.5711 169.135 76.6488ZM161.428 78.7558C161.122 78.8395 160.836 78.8704 160.572 78.8487C160.308 78.827 160.139 78.6383 160.065 78.2825C159.971 77.7676 159.833 77.1355 159.652 76.3862C159.471 75.6368 159.341 75.12 159.263 74.8358C158.923 73.5895 158.597 72.2687 158.286 70.8733C158.186 70.3366 157.981 69.4998 157.67 68.3628C157.497 67.7287 157.28 66.9774 157.019 66.1088C156.758 65.2402 156.557 64.5903 156.415 64.159C156.292 63.7932 156.15 63.3619 155.991 62.865C155.832 62.3681 155.668 61.8136 155.501 61.2014C155.254 60.4699 155.074 59.8965 154.96 59.4811L154.694 58.6373C154.664 58.528 154.605 58.3094 154.515 57.9814C154.419 57.6316 154.399 57.3433 154.455 57.1167C154.532 56.884 154.724 56.7259 155.03 56.6422C155.314 56.5645 155.588 56.619 155.85 56.8057C156.107 56.9705 156.277 57.206 156.36 57.5121C156.426 57.7526 156.559 58.1511 156.758 58.7077C157.076 59.7015 157.316 60.4935 157.478 61.0839C157.675 61.8054 157.815 62.5309 157.897 63.2605C157.889 63.4036 157.927 63.6282 158.01 63.9343C158.082 64.1967 158.206 64.5624 158.381 65.0315C158.574 65.0493 158.984 65.0898 159.612 65.153C160.235 65.1944 160.792 65.3004 161.286 65.4711C161.773 65.6199 162.184 65.8363 162.521 66.1204C163.593 67.1197 164.248 68.0566 164.487 68.9312C164.858 70.2868 165.172 71.8223 165.429 73.5378C165.589 74.5516 165.472 75.3707 165.079 75.9952C164.686 76.6197 164.034 77.2443 163.124 77.8691C162.886 78.0283 162.589 78.1915 162.236 78.3587C161.882 78.5259 161.613 78.6583 161.428 78.7558ZM161.6 76.8054C161.874 76.7774 162.077 76.7455 162.208 76.7097C162.645 76.5901 162.964 76.3384 163.165 75.9546C163.727 75.002 163.867 74.0119 163.586 72.9843C163.355 71.9666 163.129 71.0532 162.908 70.2443C162.513 68.8012 162.15 67.9019 161.818 67.5462C161.533 67.107 161.116 66.7862 160.568 66.5838C160.019 66.3813 159.431 66.2952 158.805 66.3254C159.076 67.9196 159.475 69.6788 160.001 71.6028C160.449 73.2427 160.982 74.9769 161.6 76.8054ZM174.061 75.0554C173.799 75.1272 173.551 75.1243 173.318 75.0469C173.086 74.9695 172.937 74.8106 172.871 74.5701C172.68 73.8704 172.555 73.0703 172.497 72.1698C172.454 71.2414 172.444 70.1282 172.465 68.83L172.443 67.4613C172.414 66.1532 172.278 65.0509 172.032 64.1545C171.859 63.5204 171.148 62.0348 169.898 59.6977C168.67 57.3546 167.888 56.041 167.551 55.7569L167.453 55.3961C167.18 55.2591 166.996 55.0157 166.901 54.6659C166.847 54.4691 166.903 54.2892 167.07 54.126C167.231 53.9411 167.443 53.8127 167.705 53.741C167.968 53.6692 168.237 53.7953 168.514 54.1192C169.009 54.6417 169.645 55.6781 170.421 57.2283C170.799 57.9238 171.09 58.5141 171.293 58.999L171.854 60.1498C171.854 60.1498 171.826 59.8754 171.77 59.3268L171.689 58.6439C171.633 58.0953 171.592 57.7305 171.566 57.5496C171.492 56.9354 171.381 56.355 171.231 55.8083L171.07 55.218L170.935 54.7261C170.768 54.1139 170.738 53.6169 170.845 53.2351C170.974 52.8474 171.302 52.4993 171.828 52.1908L172.634 52.8166C172.547 53.0989 172.496 53.4299 172.482 53.8096C172.491 54.1834 172.531 54.5014 172.602 54.7638C172.622 54.9228 172.704 55.2647 172.847 55.7895L172.946 56.1502C172.875 56.9216 172.936 58.2207 173.13 60.0476C173.318 61.8526 173.52 63.1486 173.735 63.9358C173.92 64.6135 174.299 65.4383 174.87 66.4101C175.457 67.3541 176.296 68.6637 177.389 70.3389C178.105 71.412 178.538 72.2218 178.688 72.7684C178.747 72.9871 178.714 73.2077 178.587 73.4305C178.454 73.6313 178.267 73.7647 178.026 73.8304C177.655 73.932 177.219 73.6281 176.72 72.9187C176.256 72.3405 175.788 71.5754 175.317 70.6234C174.72 69.4707 174.342 68.6927 174.185 68.2892L173.815 67.5797L174.183 70.0873C174.381 71.3257 174.481 72.3793 174.483 73.2481L174.582 73.6088C174.803 74.4178 174.629 74.9 174.061 75.0554Z" fill="#0B263B"/>
<path opacity="0.5" d="M117.148 20.4072C98.3423 22.6771 46.4769 41.2364 27.6198 60.1534C8.76277 79.0705 12.1552 98.6711 16.9356 112.961C22.911 130.824 34.8336 142.473 50.9571 145.52C71.7574 149.45 161.442 118.182 176.973 111.07C192.504 103.957 219.474 83.4623 201.774 54.1472C179.523 17.2929 135.954 18.1373 117.148 20.4072Z" stroke="#11D7FF" stroke-width="2" stroke-dasharray="6 6"/>
</svg>
