<svg width="162" height="129" viewBox="0 0 162 129" fill="none" xmlns="http://www.w3.org/2000/svg">
<path d="M47.6515 85.4694C47.4795 85.5269 47.3111 85.5236 47.1461 85.4593C46.9812 85.3949 46.8377 85.2876 46.7157 85.1372C46.6798 85.1014 46.6475 85.0405 46.6187 84.9545C46.5252 84.6751 46.6001 84.3991 46.8435 84.1264C47.359 83.667 47.6809 83.1291 47.8092 82.5125C47.9518 81.8672 47.9689 81.1683 47.8605 80.4158C47.5425 78.1798 46.9698 75.8259 46.1426 73.354C45.8333 72.4297 45.5887 71.7347 45.409 71.269C44.0428 67.6867 43.0578 65.172 42.454 63.7248L42.4108 63.5958C42.3461 63.4024 42.3387 63.2375 42.3888 63.1013C42.4388 62.965 42.5641 62.8394 42.7646 62.7245C44.054 62.0062 45.1071 61.5104 45.9239 61.237C46.3538 61.0931 46.6798 60.996 46.9019 60.9455C47.4035 60.8016 47.83 60.8262 48.1815 61.0193C48.5329 61.2124 48.7914 61.5561 48.9568 62.0505L49.5609 63.7486C50.1075 65.2388 50.5066 66.3601 50.7584 67.1125L51.2441 68.6709C52.0066 70.9494 53.0565 73.8009 54.3938 77.2255C55.0049 78.7659 55.4865 79.9552 55.8387 80.7934C55.9897 81.1731 56.0188 81.4741 55.9258 81.6964C55.8544 81.9116 55.6647 82.0946 55.3566 82.2455C54.6617 82.5258 54.174 82.3185 53.8937 81.6236C53.7495 80.9787 53.5732 80.3445 53.3646 79.7212C53.156 79.0978 52.9726 78.5855 52.8144 78.1843L51.5521 74.5195C50.955 72.7354 50.3113 70.9191 49.621 69.0706C49.0601 67.5374 48.5065 66.0973 47.9601 64.7504C47.4138 63.4035 47.0472 62.594 46.8606 62.3218C46.7388 62.3865 46.4881 62.5301 46.1084 62.7528C45.7288 62.9754 45.1951 63.2377 44.5074 63.5396C44.7738 64.5499 44.9789 65.27 45.1228 65.6999C45.2882 66.1943 45.4644 66.6134 45.6511 66.9573C45.8883 67.5232 46.2155 68.3579 46.6325 69.4613L46.8699 70.1706C48.0352 73.6528 48.7907 76.0173 49.1362 77.264C49.2083 77.6224 49.2767 77.8982 49.3415 78.0917C49.5576 79.0232 49.7018 79.7399 49.7741 80.2415C49.9404 81.4527 49.6733 82.8328 48.9726 84.3819C48.7868 84.8265 48.3679 85.1818 47.716 85.4478L47.6515 85.4694ZM61.2761 80.0493C60.9679 80.0569 60.7563 79.9245 60.6413 79.6523L60.4795 79.1686C60.1344 78.2802 59.6382 76.9405 58.9909 75.1493C58.3798 73.6089 57.9233 72.4232 57.6212 71.5921C57.118 70.3025 56.3845 68.3608 55.421 65.7672C55.2484 65.323 55.0183 64.7069 54.7306 63.9188C54.443 63.1306 54.2308 62.5324 54.0942 62.124C53.9935 61.8947 53.8713 61.5651 53.7274 61.1352C53.562 60.6409 53.4612 60.2683 53.425 60.0174C53.288 59.3223 53.5491 58.8883 54.2084 58.7155C54.8102 58.5141 55.2477 58.7501 55.5209 59.4236L55.6504 59.8105L58.3373 67.9464L59.6213 71.7832L60.2687 73.7178C60.3694 74.0187 60.5096 74.3662 60.6893 74.7602C60.8617 75.1327 60.9875 75.4013 61.0665 75.5661C60.9654 74.9068 60.9252 74.2151 60.9458 73.4912C60.9807 72.7385 61.0053 72.2761 61.0194 72.1041C61.0829 71.2224 61.1071 70.5092 61.0921 69.9644C61.0541 68.1367 61.0407 65.8824 61.0518 63.2016C61.0583 62.6497 61.0504 61.9831 61.0279 61.2018C60.9969 59.1805 60.9989 57.8652 61.034 57.2559C61.0548 56.6753 61.2371 56.2558 61.5808 55.9973C61.7527 55.8681 61.9354 55.7711 62.1288 55.7064C62.4298 55.6057 62.7738 55.5981 63.161 55.6836L63.6789 57.2313C64.2184 58.8434 64.8081 60.4985 65.4481 62.1965C65.5919 62.5547 65.7861 63.0992 66.0306 63.83L66.3435 64.7651C66.4083 64.9585 66.4839 65.2201 66.5703 65.5497C66.6782 65.8721 66.8148 66.2447 66.9802 66.6674L69.9902 75.3405C70.0981 75.6629 70.1416 76.0427 70.1206 76.48C70.1137 76.6735 70.0529 76.8492 69.9384 77.007C69.8167 77.1434 69.6699 77.2403 69.498 77.2979C68.8961 77.4993 68.5017 77.3206 68.3146 76.7617C68.0988 76.1168 67.9225 75.4827 67.7855 74.8593C67.5552 74.0281 67.3681 73.3975 67.2242 72.9676C65.7569 68.726 64.6385 65.5627 63.8691 63.4778C63.7612 63.1554 63.542 62.6431 63.2114 61.9411L62.7262 60.8127C62.6047 61.0924 62.544 61.2681 62.5441 61.3398L62.5569 63.0923C62.5871 64.3251 62.5953 65.2426 62.5817 65.8447L62.3878 74.5861L62.2641 79.0375C62.2432 79.5464 62.0608 79.8585 61.7169 79.9736C61.6524 79.9951 61.5055 80.0204 61.2761 80.0493ZM87.9821 75.5937C87.8245 75.6943 87.7027 75.7589 87.6167 75.7877C87.3588 75.874 87.1221 75.7739 86.9068 75.4875C86.7345 75.2583 86.5836 74.9503 86.4541 74.5634L85.7418 72.3279C85.6987 72.1989 85.6483 72.0843 85.5909 71.984C85.5334 71.8837 85.476 71.7834 85.4185 71.6831L81.7106 72.924C81.9256 72.8521 81.4457 73.1322 80.2709 73.7643C79.1104 74.3678 78.197 74.8169 77.5308 75.1116L76.123 75.7261L74.5649 76.4268C74.6296 76.6203 74.7087 76.8567 74.8022 77.1362C74.9173 77.4084 75.0288 77.7416 75.1367 78.1357L75.1907 78.2969C75.3058 78.6408 75.3061 78.9275 75.1917 79.157C75.0773 79.3865 74.9449 79.5265 74.7944 79.5768C74.7084 79.6056 74.5651 79.6058 74.3643 79.5773C73.8839 79.4274 73.5395 79.1124 73.331 78.6324L72.4466 76.3111C72.1231 75.4872 72.3267 74.9529 73.0576 74.7083C73.4588 74.5502 73.7452 74.3348 73.9169 74.0622C74.0887 73.7896 74.2674 73.3952 74.4531 72.8789C74.6317 72.3411 74.7206 71.7855 74.7199 71.212C74.7336 70.6099 74.7005 69.9039 74.6207 69.0941C74.5408 68.2125 74.4143 67.3704 74.2413 66.5679C74.0684 65.7653 73.8054 64.6223 73.4524 63.139C72.8905 60.8173 72.2283 58.5172 71.4658 56.2387L70.8294 54.4439C70.6927 54.0355 70.6994 53.6628 70.8495 53.3257C70.9925 52.9672 71.2681 52.7195 71.6765 52.5829C71.8055 52.5397 71.9058 52.5181 71.9775 52.518C73.0238 52.3591 73.8658 52.1968 74.5036 52.0312L74.6648 51.9772C74.9442 51.8837 75.0875 51.776 75.0945 51.6542C75.2016 51.3315 75.3949 51.1234 75.6743 51.0299C75.8678 50.9651 76.0541 50.9506 76.2334 50.9862C76.6205 51.0001 76.954 51.247 77.2342 51.7269L78.9181 57.2943C79.9179 60.2821 80.6768 62.5139 81.1947 63.9899C81.4536 64.7637 81.8707 65.9388 82.446 67.515L83.0717 69.2775C83.1293 69.4495 83.194 69.6071 83.2658 69.7504C83.3377 69.8937 83.4095 70.0369 83.4814 70.1802C83.9257 70.0793 84.2553 69.9929 84.4702 69.921C84.6422 69.8634 84.7676 69.8095 84.8464 69.7593C85.2977 69.5365 85.7564 69.5145 86.2225 69.6931C86.7029 69.8431 87.0187 70.1437 87.1697 70.5951C87.364 71.1755 87.6123 72.0604 87.9148 73.2499C88.0155 73.5509 88.1378 73.9879 88.2819 74.5612C88.39 75.027 88.29 75.3712 87.9821 75.5937ZM76.9806 73.5747C78.1484 73.0644 79.0618 72.6512 79.7208 72.335C80.3942 71.9902 81.0388 71.5952 81.6547 71.15C80.9993 68.4772 80.1752 65.6576 79.1825 62.6913C78.2618 59.94 77.1436 56.9559 75.8281 53.7391C75.262 53.9047 74.2015 54.1998 72.6466 54.6246L73.1215 56.1507C74.0573 59.5185 74.7664 62.03 75.2486 63.6852C75.9826 66.1644 76.3691 68.7121 76.4081 71.3283C76.4083 71.4717 76.4194 71.8264 76.4416 72.3927C76.4781 72.9302 76.4178 73.4285 76.2606 73.8874L76.9806 73.5747ZM91.0146 70.635C90.7352 70.7285 90.4449 70.7181 90.1437 70.6038C89.864 70.4822 89.6667 70.2854 89.5516 70.0131L89.2711 69.1748L89.0553 68.53C88.9691 68.3437 88.8828 68.1216 88.7965 67.8637C88.6454 67.4123 88.383 66.7352 88.0092 65.8325L87.2541 63.7906C86.9016 62.7373 86.4088 61.1574 85.7755 59.0508C85.2356 57.152 84.7535 55.5685 84.3291 54.3003C84.2284 53.9993 84.0451 53.5587 83.7792 52.9785C83.5061 52.3767 83.3228 51.9361 83.2293 51.6567C82.7185 50.1305 82.9146 49.2164 83.8174 48.9143C84.5267 48.6769 85.3903 48.5432 86.4081 48.5134C87.4473 48.4763 88.0317 48.6512 88.1612 49.0381C88.2331 49.2531 88.2048 49.4896 88.076 49.7478C87.9616 49.9773 87.7934 50.189 87.5715 50.3828C86.5608 50.3625 85.672 50.4209 84.9052 50.558C85.0346 50.8732 85.2 51.3318 85.4015 51.9336C85.6892 52.7934 85.9374 53.5708 86.1461 54.2659C86.4269 55.3192 86.6536 56.1038 86.8263 56.6197L87.0956 57.1032L87.6007 56.8983C87.7655 56.8193 87.9768 56.7366 88.2348 56.6503C89.2665 56.305 89.8831 56.4333 90.0845 57.0351C90.1637 57.2716 90.1353 57.5081 89.9994 57.7448C89.8563 57.96 89.6343 58.118 89.3333 58.2187C88.9464 58.3482 88.6383 58.4274 88.409 58.4564L87.6029 58.7261C87.8329 59.2706 88.1278 60.0802 88.4874 61.1549C88.8471 62.2297 89.1601 63.2006 89.4263 64.0676C89.8006 65.4003 90.0957 66.3891 90.3115 67.034C90.7143 68.2377 90.9372 68.8324 90.9802 68.818L92.0334 68.4297C92.3916 68.2859 92.8287 68.1277 93.3446 67.955C94.1614 67.6817 94.6561 67.8029 94.8287 68.3188C94.9294 68.6197 94.8653 68.8922 94.6362 69.1362C94.4358 69.3945 94.1421 69.5883 93.7552 69.7178L91.0146 70.635ZM99.3387 67.6342C98.678 66.5884 98.0096 65.0553 97.3334 63.0348L96.4376 60.1436C96.1928 59.2695 95.8942 58.3057 95.5417 57.2525C95.3121 56.9947 95.1577 56.7476 95.0785 56.5112L95.0462 56.4144C95.1244 55.9341 94.9226 54.9739 94.4406 53.5337L93.9765 52.0397C93.8398 51.5597 93.6743 51.0294 93.4801 50.4491C93.0556 49.1809 92.6352 48.2101 92.2186 47.5369C92.1824 47.2143 92.2036 46.9204 92.2821 46.6551C92.3534 46.3683 92.4966 46.189 92.7115 46.117L94.1302 45.6423C94.732 45.4409 95.3054 45.4043 95.8503 45.5327C96.3881 45.6396 96.8579 45.9007 97.2598 46.3159C97.9846 47.0533 98.5484 48.0239 98.9512 49.2276C99.239 50.0874 99.4548 50.7681 99.5988 51.2697C99.7644 51.9074 99.8475 52.513 99.8482 53.0864C99.8773 53.3874 99.8597 53.6563 99.7954 53.8929C99.7455 54.1008 99.6562 54.3697 99.5276 54.6996C99.349 55.1657 98.9697 55.6751 98.3897 56.2277C98.1606 56.4717 97.842 56.7337 97.4338 57.0137L98.5883 60.4636L99.3434 62.5056L99.7423 63.4835C100.231 64.6584 100.616 65.6651 100.896 66.5034C100.983 66.7613 100.947 67.0122 100.79 67.2561C100.64 67.5215 100.425 67.701 100.145 67.7945L99.3387 67.6342ZM97.0236 55.681C98.2271 55.0631 98.2533 53.0346 97.1024 49.5954C96.8938 48.972 96.6997 48.4992 96.5201 48.1768C96.3693 47.9405 96.215 47.7651 96.0571 47.6506C95.8921 47.5146 95.6842 47.4288 95.4332 47.3933C95.1536 47.3434 94.8741 47.3653 94.5947 47.4588C94.5875 47.4373 94.4657 47.4661 94.2292 47.5452L94.8443 49.383C95.2687 50.6512 95.6571 51.7761 96.0095 52.7577C96.3835 53.8754 96.6388 54.6027 96.7754 54.9394L97.002 55.6165L97.0236 55.681ZM111.599 63.9613C111.041 64.1483 110.464 64.1383 109.868 63.9311C109.28 63.7454 108.735 63.402 108.233 62.9009C107.171 61.7983 106.305 60.4984 105.637 59.0011C104.954 57.6042 104.387 56.2286 103.933 54.8744C103.847 54.6165 103.786 54.3979 103.75 54.2188L103.556 53.6384C103.52 53.531 103.491 53.4808 103.469 53.488L103.275 52.9076L102.552 50.6399C102.343 49.9449 102.062 48.8198 101.709 47.2648C101.472 46.1971 101.384 45.1149 101.448 44.0181C101.454 43.5379 101.54 43.1507 101.704 42.8566C101.861 42.5411 102.091 42.3329 102.392 42.2322C103.251 41.9445 104.079 41.8467 104.875 41.9389C105.663 42.0097 106.388 42.2454 107.048 42.646C107.657 43.0395 108.246 43.5835 108.813 44.2781C109.373 44.9513 109.865 45.7069 110.288 46.545C110.72 47.4046 111.104 48.3396 111.442 49.3498L111.529 49.6078C111.752 50.2741 111.964 50.8724 112.165 51.4026L112.812 53.2296C114.884 59.4201 114.48 62.9974 111.599 63.9613ZM111.017 62.6503C111.404 62.5208 111.708 62.2516 111.93 61.8428C112.145 61.4125 112.248 60.8999 112.24 60.3049C112.282 59.072 112.133 57.8071 111.795 56.5101C111.535 55.3779 111.273 54.4141 111.006 53.6188C110.683 52.6515 110.183 51.4085 109.508 49.8897C108.825 48.2778 108.347 47.0634 108.073 46.2466L107.879 45.6662C107.563 44.8638 107.046 44.248 106.329 43.8188C105.633 43.3824 104.919 43.2865 104.189 43.531C103.458 43.7756 103.114 44.3566 103.159 45.274C103.167 46.0123 103.347 46.9081 103.699 47.9613C103.836 48.3697 103.962 48.7101 104.077 48.9823L104.368 49.8528L104.8 51.3576C104.908 51.8234 105.052 52.3249 105.232 52.8623C105.62 54.023 106.037 55.1622 106.483 56.2799C107.109 57.8632 107.849 59.3604 108.703 60.7715C109.58 62.247 110.351 62.8733 111.017 62.6503ZM120.284 60.7324C119.811 60.8907 119.452 60.7836 119.208 60.4111C119.036 60.182 118.87 59.8309 118.712 59.358C118.403 58.4338 118.065 57.2801 117.697 55.8972C117.373 54.5715 117.042 53.4036 116.704 52.3933C116.323 51.2541 115.783 49.5344 115.085 47.2344L113.445 42.1185C113.38 41.9251 113.251 41.6457 113.057 41.2803L112.69 40.5066L112.636 40.3454C112.471 39.851 112.424 39.4605 112.495 39.1737C112.566 38.8869 112.806 38.6751 113.215 38.5384C113.774 38.3514 114.44 38.3076 115.214 38.407C115.989 38.5065 116.609 38.753 117.075 39.1467C118.044 39.9699 118.787 41.1552 119.305 42.7029C119.694 43.8636 119.924 44.874 119.997 45.734C120.062 46.5726 119.97 47.4042 119.72 48.2288C120.488 48.5934 121.116 49.184 121.604 50.0006C122.107 50.7884 122.577 51.838 123.016 53.1492C123.455 54.4604 123.611 55.6751 123.483 56.7935C123.334 58.0623 122.833 59.0664 121.981 59.8057C121.451 60.2221 120.885 60.531 120.284 60.7324ZM117.183 48.0383C118.293 47.6427 118.417 46.1552 117.554 43.5759C116.626 40.803 115.7 39.4996 114.775 39.6655C114.704 40.239 114.974 41.4393 115.586 43.2664L117.183 48.0383ZM120.572 58.8075C121.209 58.4268 121.61 57.8386 121.774 57.0428C121.938 56.247 121.876 55.4191 121.588 54.5593C121.286 53.6566 120.966 52.8792 120.628 52.2274C120.362 51.7188 120.097 51.3177 119.831 51.0241C119.58 50.7019 119.286 50.4298 118.949 50.208C118.583 49.9719 118.217 49.8792 117.852 49.9298C118.176 51.1838 118.676 52.821 119.352 54.8416C119.395 54.9705 119.51 55.3861 119.697 56.0883L120 57.2062C120.014 57.2492 120.036 57.2778 120.064 57.2921L120.086 57.3566L120.572 58.8075Z" fill="#0B263B"/>
<path opacity="0.5" d="M76.3117 103.568C96.2503 98.2101 132.904 73.2649 144.467 58.7423C156.03 44.2197 145.642 31.1342 141.16 24.0195C135.558 15.126 126.33 10.9524 114.882 12.4966C100.113 14.4888 37.1042 47.1702 30.1392 57.5231C12.1403 84.277 15.3841 84.9849 17.3646 96.845C21.4775 121.476 56.3732 108.925 76.3117 103.568Z" stroke="#11D7FF" stroke-width="2" stroke-dasharray="6 6"/>
</svg>
