<svg width="24" height="25" viewBox="0 0 24 25" fill="none" xmlns="http://www.w3.org/2000/svg">
<path d="M8.38965 18.99V8.82998C8.38965 8.42998 8.50965 8.03998 8.72965 7.70998L11.4596 3.64998C11.8896 2.99998 12.9596 2.53998 13.8696 2.87998C14.8496 3.20998 15.4996 4.30997 15.2896 5.28997L14.7696 8.55998C14.7296 8.85998 14.8096 9.12998 14.9796 9.33998C15.1496 9.52998 15.3996 9.64997 15.6696 9.64997H19.7796C20.5696 9.64997 21.2496 9.96997 21.6496 10.53C22.0296 11.07 22.0996 11.77 21.8496 12.48L19.3896 19.97C19.0796 21.21 17.7296 22.22 16.3896 22.22H12.4896C11.8196 22.22 10.8796 21.99 10.4496 21.56L9.16965 20.57C8.67965 20.2 8.38965 19.61 8.38965 18.99Z" fill="#002D40"/>
<path d="M5.21 6.88H4.18C2.63 6.88 2 7.48 2 8.96V19.02C2 20.5 2.63 21.1 4.18 21.1H5.21C6.76 21.1 7.39 20.5 7.39 19.02V8.96C7.39 7.48 6.76 6.88 5.21 6.88Z" fill="#002D40"/>
</svg>
