<svg width="18" height="12" viewBox="0 0 18 12" fill="none" xmlns="http://www.w3.org/2000/svg">
<path fill-rule="evenodd" clip-rule="evenodd" d="M0.304199 0.791922C0.443691 7.59215 3.84381 11.6723 9.80709 11.6723H9.81581H10.1558V7.78396C12.3441 8.00191 14.0006 9.60607 14.6632 11.6723H17.7581C17.4407 10.4982 16.878 9.40471 16.107 8.46397C15.3361 7.52324 14.3745 6.75662 13.2857 6.21467C14.2614 5.62049 15.1041 4.83149 15.7611 3.89695C16.4181 2.96241 16.8754 1.90242 17.1043 0.783203H14.297C13.6867 2.94533 11.8733 4.90693 10.1558 5.09002V0.791922H7.33982V8.32449C5.59618 7.88858 3.39918 5.77876 3.30328 0.791922H0.304199Z" fill="white"/>
</svg>
