<svg width="34" height="34" viewBox="0 0 34 34" fill="none" xmlns="http://www.w3.org/2000/svg">
<path fill-rule="evenodd" clip-rule="evenodd" d="M8.10283 8.10283C8.51776 7.68789 9.19049 7.68789 9.60543 8.10283L17 15.4974L24.3945 8.10283C24.8094 7.68789 25.4822 7.68789 25.8971 8.10283C26.312 8.51776 26.312 9.19049 25.8971 9.60543L18.5026 17L25.8971 24.3945C26.312 24.8094 26.312 25.4822 25.8971 25.8971C25.4822 26.312 24.8094 26.312 24.3945 25.8971L17 18.5026L9.60543 25.8971C9.19049 26.312 8.51776 26.312 8.10283 25.8971C7.68789 25.4822 7.68789 24.8094 8.10283 24.3945L15.4974 17L8.10283 9.60543C7.68789 9.19049 7.68789 8.51776 8.10283 8.10283Z" fill="#002D40"/>
</svg>
