<svg width="19" height="19" viewBox="0 0 19 19" fill="none" xmlns="http://www.w3.org/2000/svg">
<path d="M9.43704 0.43457H9.43247C4.39818 0.43457 0.304321 4.52957 0.304321 9.56501C0.304321 11.5623 0.948017 13.4135 2.04253 14.9166L0.904647 18.3085L4.41416 17.1866C5.85791 18.143 7.58014 18.6954 9.43704 18.6954C14.4713 18.6954 18.5652 14.5993 18.5652 9.56501C18.5652 4.53071 14.4713 0.43457 9.43704 0.43457ZM14.7498 13.3279C14.5295 13.9499 13.6553 14.4658 12.958 14.6164C12.4809 14.718 11.8577 14.799 9.76003 13.9294C7.07682 12.8177 5.34889 10.0911 5.21421 9.91424C5.08525 9.73734 4.12997 8.47049 4.12997 7.16028C4.12997 5.85006 4.79535 5.21207 5.06356 4.93816C5.28383 4.71332 5.64791 4.6106 5.99715 4.6106C6.11014 4.6106 6.21171 4.61631 6.30302 4.62087C6.57122 4.63229 6.7059 4.64827 6.8828 5.07169C7.10307 5.6024 7.63948 6.91261 7.7034 7.04729C7.76845 7.18196 7.83351 7.36457 7.7422 7.54147C7.6566 7.72408 7.58128 7.80511 7.4466 7.96033C7.31193 8.11555 7.1841 8.23424 7.04943 8.40087C6.92617 8.54582 6.78693 8.70104 6.94215 8.96924C7.09736 9.23174 7.63378 10.1071 8.42356 10.8102C9.44275 11.7175 10.269 12.0074 10.5646 12.1307C10.7849 12.222 11.0474 12.2003 11.2083 12.0291C11.4126 11.8088 11.6649 11.4436 11.9217 11.0841C12.1043 10.8261 12.3348 10.7942 12.5768 10.8855C12.8233 10.9711 14.1278 11.6159 14.396 11.7495C14.6642 11.8841 14.8411 11.948 14.9062 12.061C14.9701 12.174 14.9701 12.7047 14.7498 13.3279Z" fill="white"/>
</svg>
