<svg width="48" height="47" viewBox="0 0 48 47" xmlns="http://www.w3.org/2000/svg">
<path opacity="0.4" fill-rule="evenodd" clip-rule="evenodd" d="M35.5691 4.9165C33.321 4.9165 31.5166 6.72088 31.5166 8.96901C31.5166 11.1454 33.2029 12.9009 35.3313 13.0186C35.4813 13.0029 35.6373 13.0029 35.7873 13.0186C37.9135 12.9009 39.6042 11.1469 39.6216 8.96547C39.6197 6.736 37.8135 4.9165 35.5691 4.9165ZM29.5166 8.96901C29.5166 5.61631 32.2164 2.9165 35.5691 2.9165C38.9243 2.9165 41.6216 5.63841 41.6216 8.96901V8.97616H41.6216C41.5982 12.2498 39.0226 14.9034 35.7815 15.0208C35.7143 15.0233 35.6471 15.0189 35.5808 15.0079C35.5821 15.0081 35.5804 15.0078 35.5759 15.0074C35.5714 15.0071 35.5657 15.0068 35.5593 15.0068C35.5529 15.0068 35.5472 15.0071 35.5427 15.0074C35.5382 15.0078 35.5365 15.0081 35.5378 15.0079C35.4715 15.0189 35.4043 15.0233 35.3371 15.0208C32.0973 14.9035 29.5166 12.2494 29.5166 8.96901Z"/>
<path opacity="0.4" fill-rule="evenodd" clip-rule="evenodd" d="M33.4968 17.7958C36.3801 17.2907 39.6478 17.7793 41.9969 19.338L41.9986 19.3392C43.5878 20.3986 44.5149 21.8956 44.5149 23.52C44.5149 25.1441 43.5882 26.6408 41.9996 27.7002C39.6691 29.2607 36.4412 29.7482 33.5626 29.2649C33.0179 29.1735 32.6505 28.6578 32.742 28.1132C32.8334 27.5685 33.3491 27.2011 33.8937 27.2925C36.3806 27.71 39.0663 27.2577 40.8874 26.0379L40.8893 26.0367C42.0614 25.2553 42.5149 24.3239 42.5149 23.52C42.5149 22.7163 42.0617 21.7852 40.8903 21.0039C39.0485 19.7823 36.324 19.331 33.8419 19.7658C33.2979 19.8611 32.7797 19.4974 32.6844 18.9534C32.5891 18.4094 32.9528 17.8911 33.4968 17.7958Z"/>
<path opacity="0.4" fill-rule="evenodd" clip-rule="evenodd" d="M6.31008 8.96901C6.31008 5.63841 9.00737 2.9165 12.3626 2.9165C15.7153 2.9165 18.4151 5.61631 18.4151 8.96901C18.4151 12.2494 15.8345 14.9035 12.5946 15.0208C12.5274 15.0233 12.4602 15.0189 12.3939 15.0079L12.3944 15.008C12.3944 15.008 12.3925 15.0077 12.389 15.0074C12.3845 15.0071 12.3788 15.0068 12.3724 15.0068C12.366 15.0068 12.3603 15.0071 12.3558 15.0074C12.3512 15.0078 12.3495 15.0081 12.3509 15.0079C12.2846 15.0189 12.2173 15.0233 12.1501 15.0208C8.90905 14.9034 6.33349 12.2497 6.31011 8.97616L6.31006 8.96901H6.31008ZM8.31009 8.96545C8.3275 11.1469 10.0182 12.901 12.1443 13.0186C12.2944 13.0029 12.4504 13.0029 12.6005 13.0186C14.7289 12.9009 16.4151 11.1454 16.4151 8.96901C16.4151 6.72088 14.6107 4.9165 12.3626 4.9165C10.1182 4.9165 8.31201 6.736 8.31009 8.96545Z"/>
<path opacity="0.4" fill-rule="evenodd" clip-rule="evenodd" d="M14.0894 19.7658C11.6073 19.331 8.88296 19.7822 7.04121 21.0039C5.8698 21.7852 5.4165 22.7162 5.4165 23.52C5.4165 24.3239 5.87003 25.2553 7.04213 26.0367L7.04394 26.0379C8.86509 27.2577 11.5509 27.71 14.0377 27.2925C14.5824 27.2011 15.098 27.5685 15.1895 28.1132C15.2809 28.6578 14.9135 29.1735 14.3688 29.2649C11.4902 29.7482 8.26221 29.2607 5.93174 27.7001C4.34321 26.6407 3.4165 25.144 3.4165 23.52C3.4165 21.8956 4.3436 20.3986 5.93275 19.3392L5.93454 19.338L5.93454 19.338C8.28362 17.7793 11.5512 17.2907 14.4345 17.7958C14.9785 17.8911 15.3423 18.4094 15.247 18.9534C15.1517 19.4974 14.6334 19.8611 14.0894 19.7658Z"/>
<path fill-rule="evenodd" clip-rule="evenodd" d="M23.8237 19.5454C21.5756 19.5454 19.7712 21.3498 19.7712 23.5979C19.7712 25.7743 21.4575 27.5298 23.5859 27.6475C23.7374 27.6316 23.895 27.6318 24.0464 27.6479C26.1621 27.5468 27.8588 25.783 27.8762 23.5944C27.8744 21.365 26.0682 19.5454 23.8237 19.5454ZM17.7712 23.5979C17.7712 20.2452 20.4711 17.5454 23.8237 17.5454C27.1791 17.5454 29.8762 20.2674 29.8762 23.5979V23.605L29.8762 23.605C29.853 26.8722 27.2822 29.5557 24.029 29.65C23.9642 29.6519 23.8994 29.6474 23.8355 29.6368C23.8363 29.6369 23.8361 29.6369 23.8351 29.6367C23.8342 29.6366 23.8327 29.6365 23.8306 29.6363C23.8261 29.636 23.8204 29.6357 23.814 29.6357C23.8076 29.6357 23.8019 29.636 23.7974 29.6363C23.7928 29.6367 23.7911 29.637 23.7925 29.6368C23.7262 29.6478 23.6589 29.6522 23.5917 29.6498C20.3519 29.5324 17.7712 26.8783 17.7712 23.5979Z"/>
<path fill-rule="evenodd" clip-rule="evenodd" d="M24.0073 32.2622C26.2254 32.2622 28.4966 32.8158 30.2534 33.9871C31.8425 35.0465 32.7696 36.5435 32.7696 38.1678C32.7696 39.792 31.8428 41.2888 30.254 42.3483C28.4887 43.5286 26.2181 44.0882 23.9999 44.0882C21.7816 44.0882 19.5107 43.5285 17.7453 42.3479C16.1569 41.2885 15.2302 39.7918 15.2302 38.1678C15.2302 36.5434 16.1573 35.0465 17.7465 33.9871L17.7489 33.9855L17.7489 33.9855C19.5142 32.8159 21.7888 32.2622 24.0073 32.2622ZM18.8547 35.652C17.6834 36.4332 17.2302 37.3642 17.2302 38.1678C17.2302 38.9718 17.6838 39.9031 18.8559 40.6846L18.8571 40.6854C20.225 41.6002 22.0862 42.0882 23.9999 42.0882C25.9137 42.0882 27.7749 41.6002 29.1428 40.6854L29.144 40.6846C30.3161 39.9032 30.7696 38.9718 30.7696 38.1678C30.7696 37.3639 30.3161 36.4326 29.144 35.6512L29.144 35.6512C27.787 34.7465 25.9261 34.2622 24.0073 34.2622C22.0893 34.2622 20.2226 34.7461 18.8547 35.652Z"/>
</svg>
