<svg width="21" height="21" viewBox="0 0 21 21" xmlns="http://www.w3.org/2000/svg">
<path fill-rule="evenodd" clip-rule="evenodd" d="M10.5 3.375C7.28984 3.375 4.6875 5.97734 4.6875 9.1875C4.6875 12.0371 6.1838 14.3199 7.75529 15.9288C8.53631 16.7285 9.31946 17.3441 9.90735 17.7594C10.1411 17.9245 10.3429 18.0572 10.5 18.1565C10.6571 18.0572 10.8589 17.9245 11.0927 17.7594C11.6805 17.3441 12.4637 16.7285 13.2447 15.9288C14.8162 14.3199 16.3125 12.0371 16.3125 9.1875C16.3125 5.97734 13.7102 3.375 10.5 3.375ZM10.5 19.0312C10.1397 19.689 10.1395 19.6889 10.1392 19.6887L10.1385 19.6884L10.1366 19.6873L10.1312 19.6843L10.1132 19.6743C10.0982 19.6658 10.077 19.6538 10.0503 19.6383C9.99674 19.6073 9.92049 19.5622 9.82478 19.5032C9.63345 19.3854 9.36379 19.212 9.04187 18.9846C8.39929 18.5306 7.54182 17.857 6.68221 16.9769C4.97245 15.2264 3.1875 12.5873 3.1875 9.1875C3.1875 5.14892 6.46142 1.875 10.5 1.875C14.5386 1.875 17.8125 5.14892 17.8125 9.1875C17.8125 12.5873 16.0276 15.2264 14.3178 16.9769C13.4582 17.857 12.6007 18.5306 11.9581 18.9846C11.6362 19.212 11.3665 19.3854 11.1752 19.5032C11.0795 19.5622 11.0033 19.6073 10.9497 19.6383C10.923 19.6538 10.9018 19.6658 10.8868 19.6743L10.8688 19.6843L10.8634 19.6873L10.8615 19.6884L10.8608 19.6887C10.8605 19.6889 10.8603 19.689 10.5 19.0312ZM10.5 19.0312L10.8603 19.689C10.6358 19.812 10.3642 19.812 10.1397 19.689L10.5 19.0312ZM10.5 7.3125C9.46447 7.3125 8.625 8.15197 8.625 9.1875C8.625 10.223 9.46447 11.0625 10.5 11.0625C11.5355 11.0625 12.375 10.223 12.375 9.1875C12.375 8.15197 11.5355 7.3125 10.5 7.3125ZM7.125 9.1875C7.125 7.32354 8.63604 5.8125 10.5 5.8125C12.364 5.8125 13.875 7.32354 13.875 9.1875C13.875 11.0515 12.364 12.5625 10.5 12.5625C8.63604 12.5625 7.125 11.0515 7.125 9.1875Z"/>
</svg>
