<svg width="25" height="25" viewBox="0 0 25 25" xmlns="http://www.w3.org/2000/svg">
<path d="M15.3892 18.7197H6.59921C6.07921 18.7197 5.5892 18.6698 5.1492 18.5698C4.9192 18.5398 4.63921 18.4597 4.34921 18.3497C3.01921 17.8497 1.44922 16.6198 1.44922 13.5598V8.40973C1.44922 5.13973 3.32921 3.25977 6.59921 3.25977H15.3892C18.1492 3.25977 19.9292 4.57974 20.4092 6.97974C20.4992 7.41974 20.5392 7.88973 20.5392 8.40973V13.5598C20.5392 16.8498 18.6692 18.7197 15.3892 18.7197ZM6.60919 4.77979C4.14919 4.77979 2.9592 5.96975 2.9592 8.42975V13.5798C2.9592 15.3698 3.58921 16.4698 4.87921 16.9598C5.07921 17.0298 5.26922 17.0797 5.44922 17.1097C5.82922 17.1897 6.19919 17.2297 6.60919 17.2297H15.3992C17.8592 17.2297 19.0492 16.0398 19.0492 13.5798V8.42975C19.0492 8.00975 19.0192 7.63974 18.9492 7.29974C18.6092 5.59974 17.4492 4.77979 15.3992 4.77979H6.60919Z" />
<path d="M18.3911 21.7198H9.60107C8.75107 21.7198 7.99106 21.5998 7.34106 21.3498C5.87106 20.7998 4.91105 19.6398 4.58105 17.9798C4.53105 17.7298 4.61107 17.4698 4.79107 17.2998C4.97107 17.1198 5.23107 17.0498 5.48107 17.1098C5.81107 17.1798 6.18107 17.2198 6.60107 17.2198H15.3911C17.8511 17.2198 19.0411 16.0299 19.0411 13.5699V8.41984C19.0411 7.99984 19.0111 7.62984 18.9411 7.28984C18.8911 7.03984 18.9711 6.78985 19.1411 6.60985C19.3211 6.42985 19.5711 6.34983 19.8211 6.40983C22.2211 6.89983 23.5411 8.67984 23.5411 11.4198V16.5699C23.5411 19.8499 21.6711 21.7198 18.3911 21.7198ZM6.42107 18.7198C6.74107 19.2998 7.22107 19.7099 7.88107 19.9499C8.36107 20.1299 8.94105 20.2198 9.61105 20.2198H18.4011C20.8611 20.2198 22.051 19.0299 22.051 16.5699V11.4198C22.051 9.83984 21.561 8.78985 20.551 8.23985C20.551 8.29985 20.551 8.35984 20.551 8.41984V13.5699C20.551 16.8399 18.6711 18.7198 15.4011 18.7198H6.61105C6.54105 18.7198 6.48107 18.7198 6.42107 18.7198Z" />
<path d="M10.9994 14.3899C9.12939 14.3899 7.60938 12.8699 7.60938 10.9999C7.60938 9.12988 9.12939 7.60986 10.9994 7.60986C12.8694 7.60986 14.3894 9.12988 14.3894 10.9999C14.3894 12.8699 12.8694 14.3899 10.9994 14.3899ZM10.9994 9.10986C9.95939 9.10986 9.10938 9.95988 9.10938 10.9999C9.10938 12.0399 9.95939 12.8899 10.9994 12.8899C12.0394 12.8899 12.8894 12.0399 12.8894 10.9999C12.8894 9.95988 12.0394 9.10986 10.9994 9.10986Z" />
<path d="M5.28125 13.9498C4.87125 13.9498 4.53125 13.6098 4.53125 13.1998V8.7998C4.53125 8.3898 4.87125 8.0498 5.28125 8.0498C5.69125 8.0498 6.03125 8.3898 6.03125 8.7998V13.1998C6.03125 13.6098 5.70125 13.9498 5.28125 13.9498Z" />
<path d="M16.7109 13.9498C16.3009 13.9498 15.9609 13.6098 15.9609 13.1998V8.7998C15.9609 8.3898 16.3009 8.0498 16.7109 8.0498C17.1209 8.0498 17.4609 8.3898 17.4609 8.7998V13.1998C17.4609 13.6098 17.1309 13.9498 16.7109 13.9498Z" />
</svg>
