<svg width="17" height="16" viewBox="0 0 17 16" xmlns="http://www.w3.org/2000/svg">
<path d="M7.46596 0.557434C7.83277 -0.185811 8.89262 -0.185811 9.25943 0.557434L11.069 4.22392C11.2146 4.51906 11.4962 4.72363 11.8219 4.77096L15.8681 5.35891C16.6883 5.4781 17.0158 6.48607 16.4223 7.0646L13.4944 9.91857C13.2588 10.1483 13.1512 10.4793 13.2069 10.8037L13.898 14.8336C14.0381 15.6505 13.1807 16.2734 12.4471 15.8877L8.82804 13.9851C8.53671 13.8319 8.18868 13.8319 7.89736 13.9851L4.27832 15.8877C3.54469 16.2734 2.68726 15.6505 2.82737 14.8336L3.51854 10.8037C3.57418 10.4793 3.46663 10.1483 3.23095 9.91857L0.303081 7.0646C-0.290436 6.48607 0.0370742 5.4781 0.857294 5.35891L4.9035 4.77096C5.22921 4.72363 5.51078 4.51906 5.65644 4.22392L7.46596 0.557434Z"/>
</svg>
