<svg width="24" height="25" viewBox="0 0 24 25" fill="none" xmlns="http://www.w3.org/2000/svg">
<path d="M13.3 8.60995L14.62 11.2499C14.8 11.6099 15.28 11.9699 15.68 12.0299L18.07 12.43C19.6 12.6899 19.96 13.79 18.86 14.89L17 16.7599C16.69 17.07 16.51 17.68 16.61 18.12L17.14 20.4299C17.56 22.2499 16.59 22.9599 14.98 22.0099L12.74 20.6799C12.33 20.4399 11.67 20.4399 11.26 20.6799L9.00997 21.9999C7.39997 22.9499 6.42997 22.2399 6.84997 20.4199L7.37997 18.11C7.47997 17.6799 7.29997 17.0699 6.98997 16.7499L5.13997 14.8999C4.03997 13.7999 4.39997 12.6899 5.92997 12.4399L8.31997 12.0399C8.71997 11.9699 9.19997 11.6199 9.37997 11.2599L10.7 8.61995C11.41 7.17995 12.59 7.17995 13.3 8.60995Z" fill="#002D40"/>
<path d="M6 10.25C5.59 10.25 5.25 9.91 5.25 9.5V2.5C5.25 2.09 5.59 1.75 6 1.75C6.41 1.75 6.75 2.09 6.75 2.5V9.5C6.75 9.91 6.41 10.25 6 10.25Z" fill="#002D40"/>
<path d="M18 10.25C17.59 10.25 17.25 9.91 17.25 9.5V2.5C17.25 2.09 17.59 1.75 18 1.75C18.41 1.75 18.75 2.09 18.75 2.5V9.5C18.75 9.91 18.41 10.25 18 10.25Z" fill="#002D40"/>
<path d="M12 5.25C11.59 5.25 11.25 4.91 11.25 4.5V2.5C11.25 2.09 11.59 1.75 12 1.75C12.41 1.75 12.75 2.09 12.75 2.5V4.5C12.75 4.91 12.41 5.25 12 5.25Z" fill="#002D40"/>
</svg>
