<svg width="80" height="63" viewBox="0 0 80 63" fill="none" xmlns="http://www.w3.org/2000/svg">
<g filter="url(#filter0_b_203_11019)">
<path d="M70.0414 26.7349C69.2957 25.8612 68.3969 25.1331 67.4133 24.5428C65.256 23.2268 62.7228 22.6818 60.1967 22.9658C60.121 22.774 60.0066 22.576 59.9059 22.3905C59.8071 22.2019 59.6659 21.8012 59.5069 21.5362L59.0736 20.9157C58.8648 20.5571 58.6138 20.2369 58.3358 19.9194C58.3224 19.8711 58.2953 19.8103 58.2507 19.7433L58.1587 19.6881C57.4255 18.8219 56.5776 18.0797 55.6133 17.4607L55.4418 17.3578C55.0054 17.0958 54.5527 16.8644 54.0763 16.6655L53.8893 16.5532C53.3851 16.3333 52.8536 16.1627 52.308 16.0473C45.3498 14.46 39.4877 19.5289 37.9373 26.1041C37.2425 29.5227 37.3144 33.0453 38.1411 36.4017C39.4204 41.1556 41.1891 45.7369 43.4287 50.0918L43.6834 50.586L44.2144 50.5845C49.1078 50.4894 53.9639 49.8843 58.7234 48.7759C62.0882 47.9351 65.2384 46.3251 67.9128 44.0947C72.9565 39.616 74.6722 32.0586 70.0414 26.7349Z" fill="url(#paint0_linear_203_11019)"/>
</g>
<g opacity="0.5" filter="url(#filter1_f_203_11019)">
<path d="M59.8133 29.0862C59.3427 28.5349 58.7755 28.0754 58.1549 27.7029C56.7935 26.8724 55.1949 26.5285 53.6009 26.7077C53.5531 26.5867 53.4809 26.4618 53.4174 26.3447C53.355 26.2257 53.2659 25.9728 53.1656 25.8056L52.8922 25.414C52.7604 25.1878 52.602 24.9857 52.4265 24.7854C52.4181 24.7549 52.401 24.7165 52.3728 24.6742L52.3148 24.6394C51.8521 24.0927 51.317 23.6244 50.7086 23.2338L50.6004 23.1689C50.3249 23.0036 50.0393 22.8575 49.7387 22.732L49.6206 22.6611C49.3025 22.5224 48.9671 22.4147 48.6228 22.3419C44.2319 21.3403 40.5326 24.5389 39.5543 28.6882C39.1158 30.8454 39.1612 33.0683 39.6829 35.1863C40.4902 38.1862 41.6063 41.0772 43.0196 43.8253L43.1803 44.1372L43.5154 44.1363C46.6033 44.0763 49.6677 43.6944 52.6711 42.9949C54.7945 42.4644 56.7824 41.4484 58.47 40.0409C61.6528 37.2147 62.7355 32.4457 59.8133 29.0862Z" fill="#EE2965"/>
</g>
<g filter="url(#filter2_b_203_11019)">
<path d="M65.6703 10.7923C65.4892 10.6144 65.2772 10.4716 65.0492 10.3607C64.5487 10.1128 63.9805 10.042 63.4299 10.1535C63.4095 10.1127 63.3804 10.0714 63.3547 10.0325C63.3293 9.99286 63.2904 9.90739 63.2503 9.85213L63.1428 9.72393C63.0899 9.64903 63.0284 9.5834 62.9611 9.51891C62.9572 9.50853 62.95 9.49567 62.9389 9.48178L62.9176 9.47141C62.7394 9.29492 62.5383 9.14798 62.314 9.03041L62.2743 9.01108C62.1731 8.96187 62.0689 8.91971 61.9602 8.88514L61.9169 8.86406C61.8016 8.82543 61.6813 8.79818 61.5589 8.78335C59.9962 8.56887 58.804 9.79851 58.5902 11.2762C58.5035 12.0423 58.5877 12.8164 58.8348 13.5393C59.2086 14.5611 59.6869 15.5354 60.2644 16.4507L60.3301 16.5545L60.447 16.5439C61.5224 16.4281 62.5798 16.2006 63.6061 15.8643C64.3306 15.6139 64.9929 15.1984 65.5384 14.6555C66.5619 13.5716 66.7931 11.8745 65.6703 10.7923Z" fill="url(#paint1_linear_203_11019)"/>
</g>
<g filter="url(#filter3_b_203_11019)">
<mask id="path-4-outside-1_203_11019" maskUnits="userSpaceOnUse" x="-1.15588" y="-1.3182" width="64.2177" height="61.7732" fill="black">
<rect fill="white" x="-1.15588" y="-1.3182" width="64.2177" height="61.7732"/>
<path d="M41.1897 2.69883C39.5333 2.44444 37.8465 2.49679 36.1974 2.78219C32.56 3.38475 29.2425 5.19712 26.7228 7.91851C26.4564 7.77888 26.1413 7.66921 25.8533 7.56024C25.5644 7.44605 25.0265 7.13805 24.5983 6.99681L23.5283 6.72439C22.9558 6.52736 22.3734 6.41281 21.7637 6.32721C21.7029 6.2866 21.615 6.24528 21.5018 6.21372L21.3476 6.2404C19.7121 5.9824 18.0681 5.97081 16.413 6.2061L16.1255 6.25586C15.3937 6.3825 14.6732 6.55835 13.9573 6.7926L13.6437 6.84688C12.8773 7.08449 12.1275 7.40268 11.4148 7.7952C2.21602 12.6738 0.571856 23.8602 5.12628 32.6009C7.61714 37.0393 11.0539 40.8618 15.1662 43.7813C21.1102 47.8132 27.4305 51.1878 34.0551 53.8637L34.8074 54.1668L35.3925 53.6591C40.7072 48.8901 45.4944 43.5932 49.6953 37.8326C52.6108 33.6968 54.556 28.916 55.3843 23.9032C56.6867 14.1488 51.3789 4.16561 41.1897 2.69883Z"/>
</mask>
<path d="M41.1897 2.69883C39.5333 2.44444 37.8465 2.49679 36.1974 2.78219C32.56 3.38475 29.2425 5.19712 26.7228 7.91851C26.4564 7.77888 26.1413 7.66921 25.8533 7.56024C25.5644 7.44605 25.0265 7.13805 24.5983 6.99681L23.5283 6.72439C22.9558 6.52736 22.3734 6.41281 21.7637 6.32721C21.7029 6.2866 21.615 6.24528 21.5018 6.21372L21.3476 6.2404C19.7121 5.9824 18.0681 5.97081 16.413 6.2061L16.1255 6.25586C15.3937 6.3825 14.6732 6.55835 13.9573 6.7926L13.6437 6.84688C12.8773 7.08449 12.1275 7.40268 11.4148 7.7952C2.21602 12.6738 0.571856 23.8602 5.12628 32.6009C7.61714 37.0393 11.0539 40.8618 15.1662 43.7813C21.1102 47.8132 27.4305 51.1878 34.0551 53.8637L34.8074 54.1668L35.3925 53.6591C40.7072 48.8901 45.4944 43.5932 49.6953 37.8326C52.6108 33.6968 54.556 28.916 55.3843 23.9032C56.6867 14.1488 51.3789 4.16561 41.1897 2.69883Z" fill="#FF749F" fill-opacity="0.35"/>
<path d="M36.1974 2.78219L36.3608 3.76877L36.3679 3.76754L36.1974 2.78219ZM26.7228 7.91851L26.2587 8.80424C26.6588 9.01392 27.1497 8.92935 27.4566 8.59789L26.7228 7.91851ZM25.8533 7.56024L25.4858 8.49025C25.4903 8.49205 25.4949 8.49382 25.4995 8.49555L25.8533 7.56024ZM24.5983 6.99681L24.9116 6.04713C24.8896 6.0399 24.8674 6.03343 24.8451 6.02773L24.5983 6.99681ZM23.5283 6.72439L23.2029 7.66995C23.2288 7.67887 23.255 7.68671 23.2816 7.69347L23.5283 6.72439ZM21.7637 6.32721L21.2087 7.15904C21.3337 7.24244 21.4759 7.2966 21.6247 7.3175L21.7637 6.32721ZM21.5018 6.21372L21.7706 5.2505C21.6276 5.21062 21.4776 5.20305 21.3313 5.22836L21.5018 6.21372ZM21.3476 6.2404L21.1918 7.22819C21.3 7.24525 21.4102 7.24443 21.5182 7.22576L21.3476 6.2404ZM16.413 6.2061L16.2723 5.21606C16.2623 5.21747 16.2524 5.21904 16.2425 5.22075L16.413 6.2061ZM13.9573 6.7926L14.1278 7.77795C14.1754 7.76972 14.2224 7.75804 14.2683 7.74301L13.9573 6.7926ZM13.6437 6.84688L13.4732 5.86152C13.4307 5.86888 13.3887 5.87896 13.3476 5.89173L13.6437 6.84688ZM11.4148 7.7952L11.8833 8.67864C11.888 8.67617 11.8926 8.67367 11.8972 8.67113L11.4148 7.7952ZM5.12628 32.6009L4.23944 33.063C4.24423 33.0722 4.24915 33.0813 4.25422 33.0903L5.12628 32.6009ZM15.1662 43.7813L14.5873 44.5967C14.5931 44.6008 14.5989 44.6049 14.6048 44.6089L15.1662 43.7813ZM34.0551 53.8637L33.6806 54.7909L33.6813 54.7912L34.0551 53.8637ZM34.8074 54.1668L34.4336 55.0944C34.7818 55.2347 35.1793 55.1682 35.4628 54.9221L34.8074 54.1668ZM35.3925 53.6591L36.0479 54.4144C36.0521 54.4108 36.0563 54.4071 36.0604 54.4034L35.3925 53.6591ZM49.6953 37.8326L50.5033 38.4218C50.5064 38.4174 50.5095 38.4131 50.5126 38.4087L49.6953 37.8326ZM55.3843 23.9032L56.3709 24.0662C56.3726 24.056 56.3741 24.0458 56.3755 24.0355L55.3843 23.9032ZM41.3415 1.71042C39.5642 1.43747 37.7676 1.49557 36.0268 1.79684L36.3679 3.76754C37.9253 3.49801 39.5023 3.45142 41.0379 3.68724L41.3415 1.71042ZM36.0339 1.79563C32.1727 2.43529 28.656 4.35863 25.9891 7.23913L27.4566 8.59789C29.8289 6.03562 32.9474 4.33422 36.3608 3.76874L36.0339 1.79563ZM27.187 7.03277C26.8511 6.85672 26.4537 6.7182 26.2071 6.62493L25.4995 8.49555C25.829 8.62022 26.0617 8.70104 26.2587 8.80424L27.187 7.03277ZM26.2209 6.63024C26.1234 6.59173 25.9777 6.51689 25.7152 6.38929C25.4915 6.28055 25.1961 6.14098 24.9116 6.04713L24.2851 7.94649C24.4288 7.99387 24.6164 8.07893 24.8409 8.18805C25.0266 8.27831 25.2943 8.41456 25.4858 8.49025L26.2209 6.63024ZM24.8451 6.02773L23.775 5.7553L23.2816 7.69347L24.3516 7.9659L24.8451 6.02773ZM23.8537 5.77883C23.1972 5.55287 22.5453 5.42713 21.9028 5.33692L21.6247 7.3175C22.2015 7.39849 22.7145 7.50186 23.2029 7.66995L23.8537 5.77883ZM22.3188 5.49538C22.1554 5.38636 21.967 5.30532 21.7706 5.2505L21.2331 7.17693C21.2458 7.18048 21.2504 7.18274 21.2477 7.18153C21.2462 7.18087 21.2422 7.17905 21.236 7.17568C21.2299 7.17236 21.2206 7.16698 21.2087 7.15904L22.3188 5.49538ZM21.3313 5.22836L21.1771 5.25505L21.5182 7.22576L21.6724 7.19907L21.3313 5.22836ZM21.5035 5.25262C19.7689 4.97898 18.0249 4.9669 16.2723 5.21606L16.5538 7.19615C18.1113 6.97473 19.6554 6.98581 21.1918 7.22819L21.5035 5.25262ZM16.2425 5.22075L15.955 5.2705L16.2961 7.24121L16.5835 7.19146L16.2425 5.22075ZM15.955 5.2705C15.1782 5.40494 14.4105 5.59211 13.6463 5.84219L14.2683 7.74301C14.9358 7.52459 15.6093 7.36007 16.2961 7.24121L15.955 5.2705ZM13.7868 5.80725L13.4732 5.86152L13.8142 7.83223L14.1278 7.77795L13.7868 5.80725ZM13.3476 5.89173C12.5165 6.14938 11.7043 6.49411 10.9324 6.91926L11.8972 8.67113C12.5507 8.31125 13.238 8.01961 13.9398 7.80202L13.3476 5.89173ZM10.9463 6.91176C1.128 12.1189 -0.492502 23.9815 4.23944 33.063L6.01311 32.1388C1.63621 23.7388 3.30404 13.2287 11.8833 8.67864L10.9463 6.91176ZM4.25422 33.0903C6.81712 37.6571 10.3538 41.5911 14.5873 44.5967L15.7451 42.9659C11.754 40.1324 8.41717 36.4215 5.99833 32.1115L4.25422 33.0903ZM14.6048 44.6089C20.6071 48.6802 26.9899 52.0883 33.6806 54.7909L34.4296 52.9364C27.8711 50.2873 21.6134 46.9462 15.7275 42.9537L14.6048 44.6089ZM33.6813 54.7912L34.4336 55.0944L35.1812 53.2393L34.4289 52.9361L33.6813 54.7912ZM35.4628 54.9221L36.0479 54.4144L34.7371 52.9038L34.152 53.4116L35.4628 54.9221ZM36.0604 54.4034C41.4269 49.5878 46.2611 44.239 50.5033 38.4218L48.8873 37.2433C44.7277 42.9475 39.9874 48.1924 34.7246 52.9148L36.0604 54.4034ZM50.5126 38.4087C53.5161 34.1481 55.5183 29.2257 56.3709 24.0662L54.3976 23.7401C53.5936 28.6063 51.7054 33.2455 48.878 37.2564L50.5126 38.4087ZM56.3755 24.0355C57.7275 13.9098 52.2212 3.27656 41.3322 1.70903L41.0472 3.68863C50.5366 5.05467 55.6459 14.3878 54.3931 23.7708L56.3755 24.0355Z" fill="url(#paint2_linear_203_11019)" mask="url(#path-4-outside-1_203_11019)"/>
</g>
<g filter="url(#filter4_bd_203_11019)">
<path d="M48.1259 18.0496C48.2379 19.1635 47.472 20.1816 46.4054 20.3958C45.8209 20.4404 45.2273 20.2767 44.7845 19.8957C44.3417 19.5147 44.0614 18.9684 44.0075 18.3613L43.9935 18.2802C43.6773 16.4534 42.2707 14.9983 40.4869 14.661C39.3219 14.4615 38.5388 13.3588 38.7148 12.1978C38.9168 11.0323 39.9929 10.2512 41.1283 10.4342C44.7239 11.1309 47.5168 14.0635 48.0721 17.7386L48.1259 18.0496Z" fill="url(#paint3_linear_203_11019)"/>
<path d="M44.2067 18.3436L44.206 18.3353L44.2046 18.3272L44.1906 18.2461C43.8607 16.3398 42.3925 14.8178 40.5241 14.4645L40.5241 14.4644L40.5207 14.4638C39.4651 14.2831 38.7536 13.2837 38.9122 12.2299C39.0969 11.1706 40.0718 10.4682 41.0934 10.6312C44.603 11.3126 47.3316 14.1767 47.8743 17.7685L47.8742 17.7685L47.875 17.7727L47.9276 18.0765C48.025 19.0811 47.3353 19.9986 46.3779 20.1973C45.8428 20.2353 45.309 20.0831 44.915 19.7441C44.5126 19.3979 44.2562 18.9 44.2067 18.3436Z" stroke="url(#paint4_linear_203_11019)" stroke-width="0.4"/>
</g>
<defs>
<filter id="filter0_b_203_11019" x="24.4648" y="2.75391" width="61.2812" height="60.832" filterUnits="userSpaceOnUse" color-interpolation-filters="sRGB">
<feFlood flood-opacity="0" result="BackgroundImageFix"/>
<feGaussianBlur in="BackgroundImageFix" stdDeviation="6.5"/>
<feComposite in2="SourceAlpha" operator="in" result="effect1_backgroundBlur_203_11019"/>
<feBlend mode="normal" in="SourceGraphic" in2="effect1_backgroundBlur_203_11019" result="shape"/>
</filter>
<filter id="filter1_f_203_11019" x="21.2559" y="4.15674" width="58.2637" height="57.9805" filterUnits="userSpaceOnUse" color-interpolation-filters="sRGB">
<feFlood flood-opacity="0" result="BackgroundImageFix"/>
<feBlend mode="normal" in="SourceGraphic" in2="BackgroundImageFix" result="shape"/>
<feGaussianBlur stdDeviation="9" result="effect1_foregroundBlur_203_11019"/>
</filter>
<filter id="filter2_b_203_11019" x="45.5566" y="-4.24097" width="33.8574" height="33.7954" filterUnits="userSpaceOnUse" color-interpolation-filters="sRGB">
<feFlood flood-opacity="0" result="BackgroundImageFix"/>
<feGaussianBlur in="BackgroundImageFix" stdDeviation="6.5"/>
<feComposite in2="SourceAlpha" operator="in" result="effect1_backgroundBlur_203_11019"/>
<feBlend mode="normal" in="SourceGraphic" in2="effect1_backgroundBlur_203_11019" result="shape"/>
</filter>
<filter id="filter3_b_203_11019" x="-22.3164" y="-22.4651" width="102.893" height="101.632" filterUnits="userSpaceOnUse" color-interpolation-filters="sRGB">
<feFlood flood-opacity="0" result="BackgroundImageFix"/>
<feGaussianBlur in="BackgroundImageFix" stdDeviation="12"/>
<feComposite in2="SourceAlpha" operator="in" result="effect1_backgroundBlur_203_11019"/>
<feBlend mode="normal" in="SourceGraphic" in2="effect1_backgroundBlur_203_11019" result="shape"/>
</filter>
<filter id="filter4_bd_203_11019" x="23.6895" y="-4.59229" width="39.4473" height="39.9954" filterUnits="userSpaceOnUse" color-interpolation-filters="sRGB">
<feFlood flood-opacity="0" result="BackgroundImageFix"/>
<feGaussianBlur in="BackgroundImageFix" stdDeviation="7.5"/>
<feComposite in2="SourceAlpha" operator="in" result="effect1_backgroundBlur_203_11019"/>
<feColorMatrix in="SourceAlpha" type="matrix" values="0 0 0 0 0 0 0 0 0 0 0 0 0 0 0 0 0 0 127 0" result="hardAlpha"/>
<feOffset dx="5" dy="5"/>
<feGaussianBlur stdDeviation="5"/>
<feColorMatrix type="matrix" values="0 0 0 0 1 0 0 0 0 0.321569 0 0 0 0 0.54902 0 0 0 0.5 0"/>
<feBlend mode="normal" in2="effect1_backgroundBlur_203_11019" result="effect2_dropShadow_203_11019"/>
<feBlend mode="normal" in="SourceGraphic" in2="effect2_dropShadow_203_11019" result="shape"/>
</filter>
<linearGradient id="paint0_linear_203_11019" x1="53.6294" y1="39.1102" x2="18.5451" y2="36.7386" gradientUnits="userSpaceOnUse">
<stop stop-color="#FF759F"/>
<stop offset="1" stop-color="#FF196E"/>
</linearGradient>
<linearGradient id="paint1_linear_203_11019" x1="62.2972" y1="13.8352" x2="54.5272" y2="13.9936" gradientUnits="userSpaceOnUse">
<stop stop-color="#FF759F"/>
<stop offset="1" stop-color="#FF196E"/>
</linearGradient>
<linearGradient id="paint2_linear_203_11019" x1="9.32187" y1="13.3913" x2="47.6795" y2="48.7766" gradientUnits="userSpaceOnUse">
<stop stop-color="white" stop-opacity="0.25"/>
<stop offset="1" stop-color="white" stop-opacity="0"/>
</linearGradient>
<linearGradient id="paint3_linear_203_11019" x1="46.373" y1="11.3967" x2="37.2015" y2="13.2235" gradientUnits="userSpaceOnUse">
<stop stop-color="white"/>
<stop offset="1" stop-color="white" stop-opacity="0.2"/>
</linearGradient>
<linearGradient id="paint4_linear_203_11019" x1="39.8903" y1="11.8144" x2="48.002" y2="17.2855" gradientUnits="userSpaceOnUse">
<stop stop-color="white" stop-opacity="0.25"/>
<stop offset="1" stop-color="white" stop-opacity="0"/>
</linearGradient>
</defs>
</svg>
