<svg width="78" height="69" viewBox="0 0 78 69" fill="none" xmlns="http://www.w3.org/2000/svg">
<g filter="url(#filter0_b_203_10950)">
<path d="M48.5759 12.2047C45.9338 12.1777 43.3193 12.1236 40.7047 12.1236V11.6103C40.6772 7.55765 37.2921 4.23447 33.1363 4.20745H30.4117C29.5861 4.20745 28.898 3.55903 28.898 2.7485C28.898 1.64077 27.9898 0.722168 26.8339 0.722168C25.7055 0.722168 24.7698 1.64077 24.7698 2.7485C24.7698 5.77448 27.3018 8.26011 30.4117 8.26011H33.1363C35.0078 8.26011 36.5765 9.7731 36.5765 11.6373V12.0966C32.8336 12.0966 29.1457 12.1507 25.5404 12.2047C15.9629 12.2047 9 19.0131 9 28.4153V40.4922C9 49.8944 15.9629 56.7028 25.5129 56.7028C29.3384 56.7839 33.2189 56.8109 37.0719 56.8109C40.9249 56.8109 44.7504 56.7839 48.5759 56.7028C58.1258 56.7028 65.0887 49.8944 65.0887 40.4922V28.4153C65.0887 19.0131 58.1258 12.2047 48.5759 12.2047Z" fill="url(#paint0_linear_203_10950)"/>
</g>
<g opacity="0.5" filter="url(#filter1_f_203_10950)">
<path d="M45.8482 20.8567H27.8557C21.2989 20.8567 17.584 23.594 17.584 28.4253V41.6703C17.584 46.5016 21.2989 49.2389 27.8557 49.2389H45.8482C52.4049 49.2389 56.1028 46.5016 56.1028 41.6703V28.4253C56.1028 23.594 52.4049 20.8567 45.8482 20.8567Z" fill="#E31352"/>
</g>
<g filter="url(#filter2_b_203_10950)">
<mask id="path-3-outside-1_203_10950" maskUnits="userSpaceOnUse" x="18.8125" y="22.6982" width="58" height="46" fill="black">
<rect fill="white" x="18.8125" y="22.6982" width="58" height="46"/>
<path fill-rule="evenodd" clip-rule="evenodd" d="M56.137 23.7718C57.0065 23.7837 57.878 23.7956 58.7526 23.8046C68.1491 23.8046 75.0002 30.5036 75.0002 39.7546V51.6374C75.0002 60.8885 68.1491 67.5875 58.7526 67.5875C54.9886 67.6672 51.2245 67.6938 47.4334 67.6938C43.6423 67.6938 39.8241 67.6672 36.0601 67.5875C26.6636 67.5875 19.8125 60.8885 19.8125 51.6374V39.7546C19.8125 30.5036 26.6636 23.8046 36.0872 23.8046C39.6346 23.7514 43.2632 23.6982 46.946 23.6982C48.3 23.6982 49.6539 23.6982 51.0079 23.7248C52.715 23.7248 54.4221 23.7482 56.137 23.7718ZM44.2384 47.6773H41.3951V50.4952C41.3951 51.5851 40.4744 52.4889 39.3641 52.4889C38.2268 52.4889 37.3331 51.5851 37.3331 50.4952V47.6773H34.4627C33.3525 47.6773 32.4318 46.8001 32.4318 45.6836C32.4318 44.5937 33.3525 43.6898 34.4627 43.6898H37.3331V40.8986C37.3331 39.8086 38.2268 38.9048 39.3641 38.9048C40.4744 38.9048 41.3951 39.8086 41.3951 40.8986V43.6898H44.2384C45.3486 43.6898 46.2693 44.5937 46.2693 45.6836C46.2693 46.8001 45.3486 47.6773 44.2384 47.6773ZM55.7479 43.1858H56.0187C57.1289 43.1858 58.0496 42.3085 58.0496 41.192C58.0496 40.1021 57.1289 39.1983 56.0187 39.1983H55.7479C54.6106 39.1983 53.7169 40.1021 53.7169 41.192C53.7169 42.3085 54.6106 43.1858 55.7479 43.1858ZM60.3768 52.3298H60.6476C61.7579 52.3298 62.6786 51.4526 62.6786 50.3361C62.6786 49.2461 61.7579 48.3423 60.6476 48.3423H60.3768C59.2395 48.3423 58.3458 49.2461 58.3458 50.3361C58.3458 51.4526 59.2395 52.3298 60.3768 52.3298Z"/>
</mask>
<path fill-rule="evenodd" clip-rule="evenodd" d="M56.137 23.7718C57.0065 23.7837 57.878 23.7956 58.7526 23.8046C68.1491 23.8046 75.0002 30.5036 75.0002 39.7546V51.6374C75.0002 60.8885 68.1491 67.5875 58.7526 67.5875C54.9886 67.6672 51.2245 67.6938 47.4334 67.6938C43.6423 67.6938 39.8241 67.6672 36.0601 67.5875C26.6636 67.5875 19.8125 60.8885 19.8125 51.6374V39.7546C19.8125 30.5036 26.6636 23.8046 36.0872 23.8046C39.6346 23.7514 43.2632 23.6982 46.946 23.6982C48.3 23.6982 49.6539 23.6982 51.0079 23.7248C52.715 23.7248 54.4221 23.7482 56.137 23.7718ZM44.2384 47.6773H41.3951V50.4952C41.3951 51.5851 40.4744 52.4889 39.3641 52.4889C38.2268 52.4889 37.3331 51.5851 37.3331 50.4952V47.6773H34.4627C33.3525 47.6773 32.4318 46.8001 32.4318 45.6836C32.4318 44.5937 33.3525 43.6898 34.4627 43.6898H37.3331V40.8986C37.3331 39.8086 38.2268 38.9048 39.3641 38.9048C40.4744 38.9048 41.3951 39.8086 41.3951 40.8986V43.6898H44.2384C45.3486 43.6898 46.2693 44.5937 46.2693 45.6836C46.2693 46.8001 45.3486 47.6773 44.2384 47.6773ZM55.7479 43.1858H56.0187C57.1289 43.1858 58.0496 42.3085 58.0496 41.192C58.0496 40.1021 57.1289 39.1983 56.0187 39.1983H55.7479C54.6106 39.1983 53.7169 40.1021 53.7169 41.192C53.7169 42.3085 54.6106 43.1858 55.7479 43.1858ZM60.3768 52.3298H60.6476C61.7579 52.3298 62.6786 51.4526 62.6786 50.3361C62.6786 49.2461 61.7579 48.3423 60.6476 48.3423H60.3768C59.2395 48.3423 58.3458 49.2461 58.3458 50.3361C58.3458 51.4526 59.2395 52.3298 60.3768 52.3298Z" fill="#FF749F" fill-opacity="0.35"/>
<path d="M58.7526 23.8046L58.7424 24.8046H58.7526V23.8046ZM56.137 23.7718L56.1233 24.7717L56.137 23.7718ZM58.7526 67.5875V66.5875C58.7455 66.5875 58.7385 66.5876 58.7314 66.5877L58.7526 67.5875ZM36.0601 67.5875L36.0813 66.5877C36.0742 66.5876 36.0672 66.5875 36.0601 66.5875V67.5875ZM36.0872 23.8046V24.8046C36.0922 24.8046 36.0972 24.8045 36.1022 24.8045L36.0872 23.8046ZM51.0079 23.7248L50.9883 24.7246C50.9948 24.7248 51.0014 24.7248 51.0079 24.7248V23.7248ZM41.3951 47.6773V46.6773C40.8428 46.6773 40.3951 47.125 40.3951 47.6773H41.3951ZM37.3331 47.6773H38.3331C38.3331 47.125 37.8854 46.6773 37.3331 46.6773V47.6773ZM37.3331 43.6898V44.6898C37.8854 44.6898 38.3331 44.2421 38.3331 43.6898H37.3331ZM41.3951 43.6898H40.3951C40.3951 44.2421 40.8428 44.6898 41.3951 44.6898V43.6898ZM58.7628 22.8046C57.8903 22.7957 57.0205 22.7838 56.1508 22.7719L56.1233 24.7717C56.9925 24.7836 57.8658 24.7956 58.7424 24.8045L58.7628 22.8046ZM76.0002 39.7546C76.0002 29.9329 68.6828 22.8046 58.7526 22.8046V24.8046C67.6155 24.8046 74.0002 31.0743 74.0002 39.7546H76.0002ZM76.0002 51.6374V39.7546H74.0002V51.6374H76.0002ZM58.7526 68.5875C68.6828 68.5875 76.0002 61.4592 76.0002 51.6374H74.0002C74.0002 60.3177 67.6155 66.5875 58.7526 66.5875V68.5875ZM47.4334 68.6938C51.229 68.6938 55.0005 68.6672 58.7738 68.5872L58.7314 66.5877C54.9766 66.6673 51.2201 66.6938 47.4334 66.6938V68.6938ZM36.0389 68.5872C39.8123 68.6672 43.6379 68.6938 47.4334 68.6938V66.6938C43.6467 66.6938 39.836 66.6673 36.0813 66.5877L36.0389 68.5872ZM18.8125 51.6374C18.8125 61.4592 26.1299 68.5875 36.0601 68.5875V66.5875C27.1972 66.5875 20.8125 60.3177 20.8125 51.6374H18.8125ZM18.8125 39.7546V51.6374H20.8125V39.7546H18.8125ZM36.0872 22.8046C26.131 22.8046 18.8125 29.9318 18.8125 39.7546H20.8125C20.8125 31.0754 27.1961 24.8046 36.0872 24.8046V22.8046ZM46.946 22.6982C43.2546 22.6982 39.6188 22.7515 36.0722 22.8047L36.1022 24.8045C39.6504 24.7513 43.2718 24.6982 46.946 24.6982V22.6982ZM51.0275 22.725C49.6621 22.6982 48.2983 22.6982 46.946 22.6982V24.6982C48.3016 24.6982 49.6458 24.6983 50.9883 24.7246L51.0275 22.725ZM56.1508 22.7719C54.4369 22.7483 52.723 22.7248 51.0079 22.7248V24.7248C52.707 24.7248 54.4072 24.7481 56.1233 24.7717L56.1508 22.7719ZM41.3951 48.6773H44.2384V46.6773H41.3951V48.6773ZM42.3951 50.4952V47.6773H40.3951V50.4952H42.3951ZM39.3641 53.4889C41.0091 53.4889 42.3951 52.1547 42.3951 50.4952H40.3951C40.3951 51.0155 39.9396 51.4889 39.3641 51.4889V53.4889ZM36.3331 50.4952C36.3331 52.1461 37.6832 53.4889 39.3641 53.4889V51.4889C38.7703 51.4889 38.3331 51.0241 38.3331 50.4952H36.3331ZM36.3331 47.6773V50.4952H38.3331V47.6773H36.3331ZM34.4627 48.6773H37.3331V46.6773H34.4627V48.6773ZM31.4318 45.6836C31.4318 47.3783 32.8265 48.6773 34.4627 48.6773V46.6773C33.8785 46.6773 33.4318 46.2219 33.4318 45.6836H31.4318ZM34.4627 42.6898C32.8177 42.6898 31.4318 44.024 31.4318 45.6836H33.4318C33.4318 45.1633 33.8873 44.6898 34.4627 44.6898V42.6898ZM37.3331 42.6898H34.4627V44.6898H37.3331V42.6898ZM36.3331 40.8986V43.6898H38.3331V40.8986H36.3331ZM39.3641 37.9048C37.6832 37.9048 36.3331 39.2476 36.3331 40.8986H38.3331C38.3331 40.3696 38.7703 39.9048 39.3641 39.9048V37.9048ZM42.3951 40.8986C42.3951 39.239 41.0091 37.9048 39.3641 37.9048V39.9048C39.9396 39.9048 40.3951 40.3783 40.3951 40.8986H42.3951ZM42.3951 43.6898V40.8986H40.3951V43.6898H42.3951ZM44.2384 42.6898H41.3951V44.6898H44.2384V42.6898ZM47.2693 45.6836C47.2693 44.024 45.8834 42.6898 44.2384 42.6898V44.6898C44.8139 44.6898 45.2693 45.1633 45.2693 45.6836H47.2693ZM44.2384 48.6773C45.8746 48.6773 47.2693 47.3783 47.2693 45.6836H45.2693C45.2693 46.2219 44.8226 46.6773 44.2384 46.6773V48.6773ZM56.0187 42.1858H55.7479V44.1858H56.0187V42.1858ZM57.0496 41.192C57.0496 41.7303 56.603 42.1858 56.0187 42.1858V44.1858C57.6549 44.1858 59.0496 42.8867 59.0496 41.192H57.0496ZM56.0187 40.1983C56.5942 40.1983 57.0496 40.6717 57.0496 41.192H59.0496C59.0496 39.5325 57.6637 38.1983 56.0187 38.1983V40.1983ZM55.7479 40.1983H56.0187V38.1983H55.7479V40.1983ZM54.7169 41.192C54.7169 40.6631 55.1541 40.1983 55.7479 40.1983V38.1983C54.067 38.1983 52.7169 39.5411 52.7169 41.192H54.7169ZM55.7479 42.1858C55.1453 42.1858 54.7169 41.7389 54.7169 41.192H52.7169C52.7169 42.8782 54.0758 44.1858 55.7479 44.1858V42.1858ZM60.6476 51.3298H60.3768V53.3298H60.6476V51.3298ZM61.6786 50.3361C61.6786 50.8743 61.2319 51.3298 60.6476 51.3298V53.3298C62.2838 53.3298 63.6786 52.0308 63.6786 50.3361H61.6786ZM60.6476 49.3423C61.2231 49.3423 61.6786 49.8158 61.6786 50.3361H63.6786C63.6786 48.6765 62.2926 47.3423 60.6476 47.3423V49.3423ZM60.3768 49.3423H60.6476V47.3423H60.3768V49.3423ZM59.3458 50.3361C59.3458 49.8071 59.783 49.3423 60.3768 49.3423V47.3423C58.6959 47.3423 57.3458 48.6851 57.3458 50.3361H59.3458ZM60.3768 51.3298C59.7742 51.3298 59.3458 50.8829 59.3458 50.3361H57.3458C57.3458 52.0222 58.7047 53.3298 60.3768 53.3298V51.3298Z" fill="url(#paint1_linear_203_10950)" mask="url(#path-3-outside-1_203_10950)"/>
</g>
<g filter="url(#filter3_bd_203_10950)">
<mask id="path-5-inside-2_203_10950" fill="white">
<path fill-rule="evenodd" clip-rule="evenodd" d="M55.736 43.1999H56.0068C57.1171 43.1999 58.0378 42.3227 58.0378 41.2062C58.0378 40.1162 57.1171 39.2124 56.0068 39.2124H55.736C54.5987 39.2124 53.7051 40.1162 53.7051 41.2062C53.7051 42.3227 54.5987 43.1999 55.736 43.1999ZM60.3668 52.3452H60.6375C61.7478 52.3452 62.6685 51.468 62.6685 50.3515C62.6685 49.2615 61.7478 48.3577 60.6375 48.3577H60.3668C59.2294 48.3577 58.3358 49.2615 58.3358 50.3515C58.3358 51.468 59.2294 52.3452 60.3668 52.3452Z"/>
</mask>
<path fill-rule="evenodd" clip-rule="evenodd" d="M55.736 43.1999H56.0068C57.1171 43.1999 58.0378 42.3227 58.0378 41.2062C58.0378 40.1162 57.1171 39.2124 56.0068 39.2124H55.736C54.5987 39.2124 53.7051 40.1162 53.7051 41.2062C53.7051 42.3227 54.5987 43.1999 55.736 43.1999ZM60.3668 52.3452H60.6375C61.7478 52.3452 62.6685 51.468 62.6685 50.3515C62.6685 49.2615 61.7478 48.3577 60.6375 48.3577H60.3668C59.2294 48.3577 58.3358 49.2615 58.3358 50.3515C58.3358 51.468 59.2294 52.3452 60.3668 52.3452Z" fill="url(#paint2_linear_203_10950)"/>
<path d="M56.0068 42.7999H55.736V43.5999H56.0068V42.7999ZM57.6378 41.2062C57.6378 42.0914 56.9067 42.7999 56.0068 42.7999V43.5999C57.3275 43.5999 58.4378 42.5539 58.4378 41.2062H57.6378ZM56.0068 39.6124C56.9032 39.6124 57.6378 40.3441 57.6378 41.2062H58.4378C58.4378 39.8884 57.331 38.8124 56.0068 38.8124V39.6124ZM55.736 39.6124H56.0068V38.8124H55.736V39.6124ZM54.1051 41.2062C54.1051 40.3406 54.8161 39.6124 55.736 39.6124V38.8124C54.3813 38.8124 53.3051 39.8918 53.3051 41.2062H54.1051ZM55.736 42.7999C54.8126 42.7999 54.1051 42.0948 54.1051 41.2062H53.3051C53.3051 42.5505 54.3848 43.5999 55.736 43.5999V42.7999ZM60.6375 51.9452H60.3668V52.7452H60.6375V51.9452ZM62.2685 50.3515C62.2685 51.2367 61.5374 51.9452 60.6375 51.9452V52.7452C61.9582 52.7452 63.0685 51.6993 63.0685 50.3515H62.2685ZM60.6375 48.7577C61.5339 48.7577 62.2685 49.4894 62.2685 50.3515H63.0685C63.0685 49.0337 61.9617 47.9577 60.6375 47.9577V48.7577ZM60.3668 48.7577H60.6375V47.9577H60.3668V48.7577ZM58.7358 50.3515C58.7358 49.4859 59.4468 48.7577 60.3668 48.7577V47.9577C59.012 47.9577 57.9358 49.0371 57.9358 50.3515H58.7358ZM60.3668 51.9452C59.4433 51.9452 58.7358 51.2401 58.7358 50.3515H57.9358C57.9358 51.6958 59.0155 52.7452 60.3668 52.7452V51.9452Z" fill="url(#paint3_linear_203_10950)" mask="url(#path-5-inside-2_203_10950)"/>
</g>
<g filter="url(#filter4_bd_203_10950)">
<mask id="path-7-inside-3_203_10950" fill="white">
<path d="M44.2265 47.692H41.3832V50.5098C41.3832 51.5997 40.4625 52.5036 39.3522 52.5036C38.2149 52.5036 37.3213 51.5997 37.3213 50.5098V47.692H34.4509C33.3406 47.692 32.4199 46.8147 32.4199 45.6982C32.4199 44.6083 33.3406 43.7045 34.4509 43.7045H37.3213V40.9132C37.3213 39.8233 38.2149 38.9194 39.3522 38.9194C40.4625 38.9194 41.3832 39.8233 41.3832 40.9132V43.7045H44.2265C45.3368 43.7045 46.2575 44.6083 46.2575 45.6982C46.2575 46.8147 45.3368 47.692 44.2265 47.692Z"/>
</mask>
<path d="M44.2265 47.692H41.3832V50.5098C41.3832 51.5997 40.4625 52.5036 39.3522 52.5036C38.2149 52.5036 37.3213 51.5997 37.3213 50.5098V47.692H34.4509C33.3406 47.692 32.4199 46.8147 32.4199 45.6982C32.4199 44.6083 33.3406 43.7045 34.4509 43.7045H37.3213V40.9132C37.3213 39.8233 38.2149 38.9194 39.3522 38.9194C40.4625 38.9194 41.3832 39.8233 41.3832 40.9132V43.7045H44.2265C45.3368 43.7045 46.2575 44.6083 46.2575 45.6982C46.2575 46.8147 45.3368 47.692 44.2265 47.692Z" fill="url(#paint4_linear_203_10950)"/>
<path d="M41.3832 47.692V47.292H40.9832V47.692H41.3832ZM37.3213 47.692H37.7213V47.292H37.3213V47.692ZM37.3213 43.7045V44.1045H37.7213V43.7045H37.3213ZM41.3832 43.7045H40.9832V44.1045H41.3832V43.7045ZM44.2265 47.292H41.3832V48.092H44.2265V47.292ZM40.9832 47.692V50.5098H41.7832V47.692H40.9832ZM40.9832 50.5098C40.9832 51.3719 40.2486 52.1036 39.3522 52.1036V52.9036C40.6764 52.9036 41.7832 51.8276 41.7832 50.5098H40.9832ZM39.3522 52.1036C38.4323 52.1036 37.7213 51.3753 37.7213 50.5098H36.9213C36.9213 51.8241 37.9975 52.9036 39.3522 52.9036V52.1036ZM37.7213 50.5098V47.692H36.9213V50.5098H37.7213ZM37.3213 47.292H34.4509V48.092H37.3213V47.292ZM34.4509 47.292C33.551 47.292 32.8199 46.5834 32.8199 45.6982H32.0199C32.0199 47.046 33.1302 48.092 34.4509 48.092V47.292ZM32.8199 45.6982C32.8199 44.8361 33.5545 44.1045 34.4509 44.1045V43.3045C33.1267 43.3045 32.0199 44.3804 32.0199 45.6982H32.8199ZM34.4509 44.1045H37.3213V43.3045H34.4509V44.1045ZM37.7213 43.7045V40.9132H36.9213V43.7045H37.7213ZM37.7213 40.9132C37.7213 40.0477 38.4323 39.3194 39.3522 39.3194V38.5194C37.9975 38.5194 36.9213 39.5989 36.9213 40.9132H37.7213ZM39.3522 39.3194C40.2486 39.3194 40.9832 40.0511 40.9832 40.9132H41.7832C41.7832 39.5954 40.6764 38.5194 39.3522 38.5194V39.3194ZM40.9832 40.9132V43.7045H41.7832V40.9132H40.9832ZM41.3832 44.1045H44.2265V43.3045H41.3832V44.1045ZM44.2265 44.1045C45.1229 44.1045 45.8575 44.8361 45.8575 45.6982H46.6575C46.6575 44.3804 45.5507 43.3045 44.2265 43.3045V44.1045ZM45.8575 45.6982C45.8575 46.5834 45.1264 47.292 44.2265 47.292V48.092C45.5472 48.092 46.6575 47.046 46.6575 45.6982H45.8575Z" fill="url(#paint5_linear_203_10950)" mask="url(#path-7-inside-3_203_10950)"/>
</g>
<defs>
<filter id="filter0_b_203_10950" x="-4" y="-12.2778" width="82.0879" height="82.0886" filterUnits="userSpaceOnUse" color-interpolation-filters="sRGB">
<feFlood flood-opacity="0" result="BackgroundImageFix"/>
<feGaussianBlur in="BackgroundImageFix" stdDeviation="6.5"/>
<feComposite in2="SourceAlpha" operator="in" result="effect1_backgroundBlur_203_10950"/>
<feBlend mode="normal" in="SourceGraphic" in2="effect1_backgroundBlur_203_10950" result="shape"/>
</filter>
<filter id="filter1_f_203_10950" x="0.583984" y="3.85669" width="72.5195" height="62.3823" filterUnits="userSpaceOnUse" color-interpolation-filters="sRGB">
<feFlood flood-opacity="0" result="BackgroundImageFix"/>
<feBlend mode="normal" in="SourceGraphic" in2="BackgroundImageFix" result="shape"/>
<feGaussianBlur stdDeviation="8.5" result="effect1_foregroundBlur_203_10950"/>
</filter>
<filter id="filter2_b_203_10950" x="-5.1875" y="-1.30176" width="105.188" height="93.9956" filterUnits="userSpaceOnUse" color-interpolation-filters="sRGB">
<feFlood flood-opacity="0" result="BackgroundImageFix"/>
<feGaussianBlur in="BackgroundImageFix" stdDeviation="12"/>
<feComposite in2="SourceAlpha" operator="in" result="effect1_backgroundBlur_203_10950"/>
<feBlend mode="normal" in="SourceGraphic" in2="effect1_backgroundBlur_203_10950" result="shape"/>
</filter>
<filter id="filter3_bd_203_10950" x="38.7051" y="24.2124" width="38.9629" height="43.1328" filterUnits="userSpaceOnUse" color-interpolation-filters="sRGB">
<feFlood flood-opacity="0" result="BackgroundImageFix"/>
<feGaussianBlur in="BackgroundImageFix" stdDeviation="7.5"/>
<feComposite in2="SourceAlpha" operator="in" result="effect1_backgroundBlur_203_10950"/>
<feColorMatrix in="SourceAlpha" type="matrix" values="0 0 0 0 0 0 0 0 0 0 0 0 0 0 0 0 0 0 127 0" result="hardAlpha"/>
<feOffset dx="5" dy="5"/>
<feGaussianBlur stdDeviation="5"/>
<feColorMatrix type="matrix" values="0 0 0 0 1 0 0 0 0 0.321569 0 0 0 0 0.54902 0 0 0 0.5 0"/>
<feBlend mode="normal" in2="effect1_backgroundBlur_203_10950" result="effect2_dropShadow_203_10950"/>
<feBlend mode="normal" in="SourceGraphic" in2="effect2_dropShadow_203_10950" result="shape"/>
</filter>
<filter id="filter4_bd_203_10950" x="17.4199" y="23.9194" width="43.8379" height="43.5842" filterUnits="userSpaceOnUse" color-interpolation-filters="sRGB">
<feFlood flood-opacity="0" result="BackgroundImageFix"/>
<feGaussianBlur in="BackgroundImageFix" stdDeviation="7.5"/>
<feComposite in2="SourceAlpha" operator="in" result="effect1_backgroundBlur_203_10950"/>
<feColorMatrix in="SourceAlpha" type="matrix" values="0 0 0 0 0 0 0 0 0 0 0 0 0 0 0 0 0 0 127 0" result="hardAlpha"/>
<feOffset dx="5" dy="5"/>
<feGaussianBlur stdDeviation="5"/>
<feColorMatrix type="matrix" values="0 0 0 0 1 0 0 0 0 0.321569 0 0 0 0 0.54902 0 0 0 0.5 0"/>
<feBlend mode="normal" in2="effect1_backgroundBlur_203_10950" result="effect2_dropShadow_203_10950"/>
<feBlend mode="normal" in="SourceGraphic" in2="effect2_dropShadow_203_10950" result="shape"/>
</filter>
<linearGradient id="paint0_linear_203_10950" x1="41.1736" y1="32.5225" x2="-8.11099" y2="56.4857" gradientUnits="userSpaceOnUse">
<stop stop-color="#FF759F"/>
<stop offset="1" stop-color="#FF196E"/>
</linearGradient>
<linearGradient id="paint1_linear_203_10950" x1="28.5975" y1="28.8238" x2="54.7292" y2="69.4218" gradientUnits="userSpaceOnUse">
<stop stop-color="white" stop-opacity="0.25"/>
<stop offset="1" stop-color="white" stop-opacity="0"/>
</linearGradient>
<linearGradient id="paint2_linear_203_10950" x1="62.033" y1="41.5839" x2="52.0429" y2="41.8062" gradientUnits="userSpaceOnUse">
<stop stop-color="white"/>
<stop offset="1" stop-color="white" stop-opacity="0.2"/>
</linearGradient>
<linearGradient id="paint3_linear_203_10950" x1="55.1319" y1="40.7424" x2="63.5821" y2="47.8855" gradientUnits="userSpaceOnUse">
<stop stop-color="white" stop-opacity="0.25"/>
<stop offset="1" stop-color="white" stop-opacity="0"/>
</linearGradient>
<linearGradient id="paint4_linear_203_10950" x1="45.2764" y1="41.3725" x2="29.8633" y2="41.8844" gradientUnits="userSpaceOnUse">
<stop stop-color="white"/>
<stop offset="1" stop-color="white" stop-opacity="0.2"/>
</linearGradient>
<linearGradient id="paint5_linear_203_10950" x1="34.6226" y1="40.502" x2="43.2528" y2="51.39" gradientUnits="userSpaceOnUse">
<stop stop-color="white" stop-opacity="0.25"/>
<stop offset="1" stop-color="white" stop-opacity="0"/>
</linearGradient>
</defs>
</svg>
