<svg width="76" height="68" viewBox="0 0 76 68" fill="none" xmlns="http://www.w3.org/2000/svg">
<path d="M25.7182 19.4202C16.0187 19.4202 8 27.1761 8 36.7719C8 41.6073 9.75647 46.0965 12.6531 49.9015C15.8189 54.0986 19.7547 57.7554 24.21 60.6258C25.3228 61.3392 26.2378 61.2892 27.2517 60.6258C31.6818 57.7554 35.6175 54.0986 38.8107 49.9015C41.7052 46.0965 43.4638 41.6073 43.4638 36.7719C43.4638 27.1761 35.445 19.4202 25.7182 19.4202Z" fill="#4096FE"/>
<g opacity="0.5" filter="url(#filter0_f_203_10967)">
<path d="M25.7623 29.1609C20.5143 29.1609 16.1758 33.2985 16.1758 38.4176C16.1758 40.9972 17.1261 43.3921 18.6933 45.422C20.4062 47.661 22.5357 49.6119 24.9462 51.1432C25.5483 51.5238 26.0434 51.497 26.592 51.1432C28.9889 49.6119 31.1183 47.661 32.846 45.422C34.4121 43.3921 35.3635 40.9972 35.3635 38.4176C35.3635 33.2985 31.025 29.1609 25.7623 29.1609Z" fill="#004FFF"/>
</g>
<g filter="url(#filter1_b_203_10967)">
<path d="M47.6653 1C33.0936 1 21.0469 12.6519 21.0469 27.0679C21.0469 34.3323 23.6857 41.0764 28.0373 46.7927C32.7934 53.0981 38.7061 58.5918 45.3995 62.9041C47.0712 63.9759 48.4459 63.9007 49.9691 62.9041C56.6245 58.5918 62.5373 53.0981 67.3345 46.7927C71.6829 41.0764 74.3249 34.3323 74.3249 27.0679C74.3249 12.6519 62.2781 1 47.6653 1Z" fill="#3EA0FE" fill-opacity="0.35"/>
<path d="M45.1287 63.3244L45.1296 63.325C46.0226 63.8976 46.8793 64.1907 47.7463 64.1797C48.6121 64.1688 49.4282 63.8553 50.2418 63.3232C56.9456 58.9795 62.9006 53.4463 67.7324 47.0954L67.7324 47.0954C72.1366 41.3059 74.8249 34.4578 74.8249 27.0679C74.8249 12.3636 62.542 0.5 47.6653 0.5C32.8292 0.5 20.5469 12.3641 20.5469 27.0679C20.5469 34.4573 23.2316 41.3051 27.6387 47.0946C32.4302 53.4468 38.3863 58.9806 45.1287 63.3244Z" stroke="url(#paint0_linear_203_10967)" stroke-linecap="round" stroke-linejoin="round"/>
</g>
<g filter="url(#filter2_bd_203_10967)">
<mask id="path-5-inside-1_203_10967" fill="white">
<path d="M47.472 36.5051C42.64 36.5051 38.6992 32.7068 38.6992 27.8775C38.6992 23.0857 42.64 19.1025 47.472 19.1025C52.3071 19.1025 56.2858 23.0857 56.2858 27.8775C56.2858 32.7068 52.3071 36.5051 47.472 36.5051Z"/>
</mask>
<path d="M47.472 36.5051C42.64 36.5051 38.6992 32.7068 38.6992 27.8775C38.6992 23.0857 42.64 19.1025 47.472 19.1025C52.3071 19.1025 56.2858 23.0857 56.2858 27.8775C56.2858 32.7068 52.3071 36.5051 47.472 36.5051Z" fill="url(#paint1_linear_203_10967)"/>
<path d="M47.472 36.3051C42.7461 36.3051 38.8992 32.5921 38.8992 27.8775H38.4992C38.4992 32.8216 42.5339 36.7051 47.472 36.7051V36.3051ZM38.8992 27.8775C38.8992 23.1955 42.7511 19.3025 47.472 19.3025V18.9025C42.5289 18.9025 38.4992 22.9759 38.4992 27.8775H38.8992ZM47.472 19.3025C52.1971 19.3025 56.0858 23.1967 56.0858 27.8775H56.4858C56.4858 22.9748 52.417 18.9025 47.472 18.9025V19.3025ZM56.0858 27.8775C56.0858 32.5909 52.2022 36.3051 47.472 36.3051V36.7051C52.412 36.7051 56.4858 32.8227 56.4858 27.8775H56.0858Z" fill="url(#paint2_linear_203_10967)" fill-opacity="0.5" mask="url(#path-5-inside-1_203_10967)"/>
</g>
<defs>
<filter id="filter0_f_203_10967" x="0.175781" y="13.1609" width="51.1875" height="54.2578" filterUnits="userSpaceOnUse" color-interpolation-filters="sRGB">
<feFlood flood-opacity="0" result="BackgroundImageFix"/>
<feBlend mode="normal" in="SourceGraphic" in2="BackgroundImageFix" result="shape"/>
<feGaussianBlur stdDeviation="8" result="effect1_foregroundBlur_203_10967"/>
</filter>
<filter id="filter1_b_203_10967" x="-3.95312" y="-24" width="103.277" height="112.68" filterUnits="userSpaceOnUse" color-interpolation-filters="sRGB">
<feFlood flood-opacity="0" result="BackgroundImageFix"/>
<feGaussianBlur in="BackgroundImageFix" stdDeviation="12"/>
<feComposite in2="SourceAlpha" operator="in" result="effect1_backgroundBlur_203_10967"/>
<feBlend mode="normal" in="SourceGraphic" in2="effect1_backgroundBlur_203_10967" result="shape"/>
</filter>
<filter id="filter2_bd_203_10967" x="23.6992" y="4.10254" width="47.5859" height="47.4026" filterUnits="userSpaceOnUse" color-interpolation-filters="sRGB">
<feFlood flood-opacity="0" result="BackgroundImageFix"/>
<feGaussianBlur in="BackgroundImageFix" stdDeviation="7.5"/>
<feComposite in2="SourceAlpha" operator="in" result="effect1_backgroundBlur_203_10967"/>
<feColorMatrix in="SourceAlpha" type="matrix" values="0 0 0 0 0 0 0 0 0 0 0 0 0 0 0 0 0 0 127 0" result="hardAlpha"/>
<feOffset dx="5" dy="5"/>
<feGaussianBlur stdDeviation="5"/>
<feColorMatrix type="matrix" values="0 0 0 0 0.15375 0 0 0 0 0.522433 0 0 0 0 0.9 0 0 0 0.5 0"/>
<feBlend mode="normal" in2="effect1_backgroundBlur_203_10967" result="effect2_dropShadow_203_10967"/>
<feBlend mode="normal" in="SourceGraphic" in2="effect2_dropShadow_203_10967" result="shape"/>
</filter>
<linearGradient id="paint0_linear_203_10967" x1="29.5279" y1="8.3023" x2="70.3754" y2="51.3044" gradientUnits="userSpaceOnUse">
<stop stop-color="white" stop-opacity="0.25"/>
<stop offset="1" stop-color="white" stop-opacity="0"/>
</linearGradient>
<linearGradient id="paint1_linear_203_10967" x1="55.0389" y1="22.2451" x2="35.4496" y2="22.8906" gradientUnits="userSpaceOnUse">
<stop stop-color="white"/>
<stop offset="1" stop-color="white" stop-opacity="0.2"/>
</linearGradient>
<linearGradient id="paint2_linear_203_10967" x1="40.5937" y1="24.9403" x2="55.5271" y2="25.0236" gradientUnits="userSpaceOnUse">
<stop stop-color="white"/>
<stop offset="1" stop-color="white" stop-opacity="0"/>
</linearGradient>
</defs>
</svg>
