<svg width="73" height="68" viewBox="0 0 73 68" fill="none" xmlns="http://www.w3.org/2000/svg">
<g filter="url(#filter0_b_203_10975)">
<path d="M49.1131 33.6538C48.6661 32.9568 48.031 32.2598 47.2077 31.8183C46.549 31.4931 46.1256 30.9587 45.7492 30.3314C44.5495 28.3333 45.2552 25.7078 47.2547 24.5229C49.6071 23.1986 50.3598 20.2479 48.9955 17.9477L47.4194 15.2062C46.0785 12.906 43.1381 12.0928 40.8093 13.4404C38.7392 14.5556 36.0811 13.8121 34.8814 11.8373C34.505 11.1867 34.2933 10.4897 34.3403 9.79268C34.4109 8.88656 34.1286 8.02691 33.7052 7.32989C32.8348 5.88939 31.2588 4.91357 29.518 4.91357H26.2012C24.484 4.96004 22.908 5.88939 22.0376 7.32989C21.5906 8.02691 21.3319 8.88656 21.3789 9.79268C21.426 10.4897 21.2143 11.1867 20.8379 11.8373C19.6382 13.8121 16.98 14.5556 14.9335 13.4404C12.5812 12.0928 9.66425 12.906 8.29989 15.2062L6.72382 17.9477C5.38299 20.2479 6.13574 23.1986 8.46456 24.5229C10.4641 25.7078 11.1698 28.3333 9.99358 30.3314C9.59368 30.9587 9.17026 31.4931 8.5116 31.8183C7.71181 32.2598 7.0061 32.9568 6.62973 33.6538C5.75936 35.0943 5.80641 36.9065 6.67678 38.4167L8.29989 41.2048C9.17026 42.6918 10.7934 43.6211 12.4871 43.6211C13.2869 43.6211 14.2278 43.3888 14.9806 42.9241C15.5686 42.5291 16.2743 42.3897 17.0506 42.3897C19.3794 42.3897 21.3319 44.3181 21.3789 46.6183C21.3789 49.2902 23.5431 51.3812 26.2718 51.3812H29.471C32.1762 51.3812 34.3403 49.2902 34.3403 46.6183C34.4109 44.3181 36.3634 42.3897 38.6922 42.3897C39.4449 42.3897 40.1506 42.5291 40.7622 42.9241C41.515 43.3888 42.4324 43.6211 43.2557 43.6211C44.9259 43.6211 46.549 42.6918 47.4194 41.2048L49.066 38.4167C49.9129 36.8601 49.9834 35.0943 49.1131 33.6538Z" fill="url(#paint0_linear_203_10975)"/>
</g>
<g opacity="0.5" filter="url(#filter1_f_203_10975)">
<path d="M38.9704 31.1123C38.74 30.7536 38.4125 30.3948 37.9879 30.1676C37.6483 30.0002 37.43 29.7252 37.2359 29.4023C36.6173 28.3738 36.9812 27.0225 38.0122 26.4126C39.2251 25.731 39.6133 24.2122 38.9098 23.0283L38.0971 21.6172C37.4057 20.4333 35.8896 20.0148 34.6888 20.7084C33.6214 21.2824 32.2508 20.8997 31.6322 19.8832C31.4381 19.5484 31.329 19.1896 31.3532 18.8309C31.3896 18.3645 31.2441 17.922 31.0257 17.5633C30.577 16.8218 29.7643 16.3196 28.8667 16.3196H27.1565C26.2711 16.3435 25.4584 16.8218 25.0096 17.5633C24.7792 17.922 24.6457 18.3645 24.67 18.8309C24.6943 19.1896 24.5851 19.5484 24.391 19.8832C23.7724 20.8997 22.4018 21.2824 21.3466 20.7084C20.1336 20.0148 18.6296 20.4333 17.9261 21.6172L17.1135 23.0283C16.4221 24.2122 16.8102 25.731 18.011 26.4126C19.042 27.0225 19.4059 28.3738 18.7994 29.4023C18.5932 29.7252 18.3749 30.0002 18.0353 30.1676C17.6229 30.3948 17.259 30.7536 17.0649 31.1123C16.6162 31.8538 16.6404 32.7866 17.0892 33.5639L17.9261 34.9989C18.3749 35.7642 19.2118 36.2426 20.0851 36.2426C20.4975 36.2426 20.9827 36.123 21.3708 35.8838C21.6741 35.6805 22.0379 35.6088 22.4382 35.6088C23.639 35.6088 24.6457 36.6013 24.67 37.7852C24.67 39.1605 25.7859 40.2367 27.1929 40.2367H28.8425C30.2373 40.2367 31.3532 39.1605 31.3532 37.7852C31.3896 36.6013 32.3963 35.6088 33.5971 35.6088C33.9853 35.6088 34.3492 35.6805 34.6645 35.8838C35.0527 36.123 35.5257 36.2426 35.9502 36.2426C36.8114 36.2426 37.6483 35.7642 38.0971 34.9989L38.9462 33.5639C39.3828 32.7626 39.4192 31.8538 38.9704 31.1123Z" fill="#E31352"/>
</g>
<g filter="url(#filter2_b_203_10975)">
<mask id="path-3-outside-1_203_10975" maskUnits="userSpaceOnUse" x="17.9844" y="10.0637" width="56" height="58" fill="black">
<rect fill="white" x="17.9844" y="10.0637" width="56" height="58"/>
<path d="M71.2477 45.5802C70.7059 44.7431 69.936 43.906 68.9379 43.3758C68.1395 42.9852 67.6262 42.3434 67.1699 41.59C65.7156 39.1903 66.5711 36.0372 68.995 34.6142C71.8466 33.0237 72.7591 29.4799 71.1052 26.7175L69.1946 23.4249C67.5692 20.6625 64.0047 19.6859 61.1816 21.3043C58.6722 22.6436 55.4499 21.7507 53.9955 19.3789C53.5393 18.5976 53.2826 17.7605 53.3397 16.9234C53.4252 15.8352 53.083 14.8028 52.5697 13.9657C51.5146 12.2357 49.6041 11.0637 47.4939 11.0637H43.4731C41.3914 11.1195 39.4809 12.2357 38.4258 13.9657C37.884 14.8028 37.5703 15.8352 37.6273 16.9234C37.6844 17.7605 37.4277 18.5976 36.9715 19.3789C35.5171 21.7507 32.2948 22.6436 29.8139 21.3043C26.9623 19.6859 23.4263 20.6625 21.7724 23.4249L19.8618 26.7175C18.2364 29.4799 19.1489 33.0237 21.972 34.6142C24.3959 36.0372 25.2514 39.1903 23.8256 41.59C23.3408 42.3434 22.8275 42.9852 22.029 43.3758C21.0595 43.906 20.204 44.7431 19.7478 45.5802C18.6927 47.3102 18.7497 49.4867 19.8048 51.3004L21.7724 54.6488C22.8275 56.4346 24.7951 57.5507 26.8483 57.5507C27.8178 57.5507 28.9584 57.2717 29.871 56.7136C30.5839 56.2393 31.4393 56.0718 32.3804 56.0718C35.2035 56.0718 37.5703 58.3878 37.6273 61.1503C37.6273 64.3592 40.2508 66.8705 43.5587 66.8705H47.4368C50.7162 66.8705 53.3397 64.3592 53.3397 61.1503C53.4252 58.3878 55.792 56.0718 58.6151 56.0718C59.5276 56.0718 60.3831 56.2393 61.1245 56.7136C62.0371 57.2717 63.1492 57.5507 64.1472 57.5507C66.1719 57.5507 68.1395 56.4346 69.1946 54.6488L71.1907 51.3004C72.2173 49.4309 72.3028 47.3102 71.2477 45.5802Z"/>
</mask>
<path d="M71.2477 45.5802C70.7059 44.7431 69.936 43.906 68.9379 43.3758C68.1395 42.9852 67.6262 42.3434 67.1699 41.59C65.7156 39.1903 66.5711 36.0372 68.995 34.6142C71.8466 33.0237 72.7591 29.4799 71.1052 26.7175L69.1946 23.4249C67.5692 20.6625 64.0047 19.6859 61.1816 21.3043C58.6722 22.6436 55.4499 21.7507 53.9955 19.3789C53.5393 18.5976 53.2826 17.7605 53.3397 16.9234C53.4252 15.8352 53.083 14.8028 52.5697 13.9657C51.5146 12.2357 49.6041 11.0637 47.4939 11.0637H43.4731C41.3914 11.1195 39.4809 12.2357 38.4258 13.9657C37.884 14.8028 37.5703 15.8352 37.6273 16.9234C37.6844 17.7605 37.4277 18.5976 36.9715 19.3789C35.5171 21.7507 32.2948 22.6436 29.8139 21.3043C26.9623 19.6859 23.4263 20.6625 21.7724 23.4249L19.8618 26.7175C18.2364 29.4799 19.1489 33.0237 21.972 34.6142C24.3959 36.0372 25.2514 39.1903 23.8256 41.59C23.3408 42.3434 22.8275 42.9852 22.029 43.3758C21.0595 43.906 20.204 44.7431 19.7478 45.5802C18.6927 47.3102 18.7497 49.4867 19.8048 51.3004L21.7724 54.6488C22.8275 56.4346 24.7951 57.5507 26.8483 57.5507C27.8178 57.5507 28.9584 57.2717 29.871 56.7136C30.5839 56.2393 31.4393 56.0718 32.3804 56.0718C35.2035 56.0718 37.5703 58.3878 37.6273 61.1503C37.6273 64.3592 40.2508 66.8705 43.5587 66.8705H47.4368C50.7162 66.8705 53.3397 64.3592 53.3397 61.1503C53.4252 58.3878 55.792 56.0718 58.6151 56.0718C59.5276 56.0718 60.3831 56.2393 61.1245 56.7136C62.0371 57.2717 63.1492 57.5507 64.1472 57.5507C66.1719 57.5507 68.1395 56.4346 69.1946 54.6488L71.1907 51.3004C72.2173 49.4309 72.3028 47.3102 71.2477 45.5802Z" fill="#FF749F" fill-opacity="0.35"/>
<path d="M70.4082 46.1235C70.7083 46.5872 71.3275 46.7198 71.7911 46.4197C72.2547 46.1196 72.3873 45.5005 72.0872 45.0368L70.4082 46.1235ZM68.9379 43.3758L69.4071 42.4927C69.3973 42.4875 69.3874 42.4824 69.3774 42.4776L68.9379 43.3758ZM67.1699 41.59L68.0253 41.072L68.0252 41.0717L67.1699 41.59ZM68.995 34.6142L68.5079 33.7408C68.5014 33.7444 68.495 33.7481 68.4887 33.7518L68.995 34.6142ZM71.1052 26.7175L70.2402 27.2194L70.2472 27.2312L71.1052 26.7175ZM69.1946 23.4249L70.0595 22.923L70.0565 22.9178L69.1946 23.4249ZM61.1816 21.3043L61.6524 22.1865C61.6613 22.1817 61.6702 22.1768 61.6789 22.1718L61.1816 21.3043ZM53.9955 19.3789L53.132 19.8832C53.1356 19.8894 53.1393 19.8955 53.143 19.9017L53.9955 19.3789ZM53.3397 16.9234L52.3427 16.8451L52.342 16.8555L53.3397 16.9234ZM52.5697 13.9657L51.716 14.4864L51.7172 14.4884L52.5697 13.9657ZM43.4731 11.0637V10.0637C43.4642 10.0637 43.4552 10.0638 43.4463 10.0641L43.4731 11.0637ZM38.4258 13.9657L39.2653 14.509C39.2701 14.5015 39.2749 14.494 39.2795 14.4864L38.4258 13.9657ZM37.6273 16.9234L36.6287 16.9758C36.629 16.981 36.6293 16.9862 36.6296 16.9914L37.6273 16.9234ZM36.9715 19.3789L37.8239 19.9017C37.8277 19.8955 37.8314 19.8894 37.835 19.8832L36.9715 19.3789ZM29.8139 21.3043L29.3203 22.174C29.3265 22.1774 29.3327 22.1809 29.3389 22.1842L29.8139 21.3043ZM21.7724 23.4249L20.9143 22.9112L20.9075 22.923L21.7724 23.4249ZM19.8618 26.7175L20.7237 27.2246L20.7268 27.2194L19.8618 26.7175ZM21.972 34.6142L22.4783 33.7518C22.4732 33.7488 22.468 33.7458 22.4629 33.7429L21.972 34.6142ZM23.8256 41.59L24.6665 42.1311C24.6729 42.1211 24.6792 42.111 24.6853 42.1008L23.8256 41.59ZM22.029 43.3758L21.5896 42.4776C21.576 42.4842 21.5625 42.4912 21.5493 42.4984L22.029 43.3758ZM19.7478 45.5802L20.6015 46.1009C20.6099 46.087 20.618 46.073 20.6258 46.0588L19.7478 45.5802ZM19.8048 51.3004L18.9404 51.8032L18.9426 51.807L19.8048 51.3004ZM21.7724 54.6488L20.9102 55.1554L20.9114 55.1575L21.7724 54.6488ZM29.871 56.7136L30.3927 57.5667C30.4036 57.5601 30.4143 57.5532 30.4249 57.5462L29.871 56.7136ZM37.6273 61.1503H38.6273C38.6273 61.1434 38.6273 61.1365 38.6271 61.1296L37.6273 61.1503ZM53.3397 61.1503L52.3401 61.1193C52.3398 61.1296 52.3397 61.1399 52.3397 61.1503H53.3397ZM61.1245 56.7136L60.5856 57.556C60.5913 57.5596 60.597 57.5632 60.6028 57.5667L61.1245 56.7136ZM69.1946 54.6488L68.3356 54.1367L68.3336 54.1401L69.1946 54.6488ZM71.1907 51.3004L72.0497 51.8124C72.0557 51.8023 72.0616 51.792 72.0673 51.7817L71.1907 51.3004ZM72.1015 45.0595C71.8139 44.588 71.1986 44.4389 70.7271 44.7264C70.2556 45.014 70.1064 45.6294 70.394 46.1009L72.1015 45.0595ZM72.0872 45.0368C71.4824 44.1024 70.5971 43.1248 69.4071 42.4927L68.4688 44.259C69.2749 44.6871 69.9295 45.3838 70.4082 46.1235L72.0872 45.0368ZM69.3774 42.4776C68.8335 42.2115 68.4438 41.763 68.0253 41.072L66.3146 42.108C66.8086 42.9237 67.4455 43.7589 68.4985 44.2741L69.3774 42.4776ZM68.0252 41.0717C66.8709 39.1671 67.54 36.628 69.5013 35.4765L68.4887 33.7518C65.6022 35.4465 64.5604 39.2136 66.3147 42.1083L68.0252 41.0717ZM69.4821 35.4875C72.8315 33.6194 73.904 29.4456 71.9631 26.2038L70.2472 27.2312C71.6142 29.5143 70.8617 32.428 68.5079 33.7408L69.4821 35.4875ZM71.9701 26.2156L70.0595 22.923L68.3297 23.9268L70.2402 27.2194L71.9701 26.2156ZM70.0565 22.9178C68.1553 19.6867 63.9862 18.5438 60.6842 20.4367L61.6789 22.1718C64.0231 20.8279 66.9831 21.6382 68.3327 23.932L70.0565 22.9178ZM60.7107 20.4221C58.6667 21.513 56.025 20.7757 54.848 18.8562L53.143 19.9017C54.8747 22.7257 58.6776 23.7742 61.6524 22.1865L60.7107 20.4221ZM54.8591 18.8746C54.4738 18.2149 54.2975 17.5765 54.3374 16.9914L52.342 16.8555C52.2678 17.9446 52.6047 18.9803 53.132 19.8832L54.8591 18.8746ZM54.3366 17.0018C54.4424 15.6554 54.0181 14.4147 53.4222 13.4429L51.7172 14.4884C52.148 15.1908 52.408 16.015 52.3427 16.8451L54.3366 17.0018ZM53.4235 13.445C52.2 11.4389 49.9774 10.0637 47.4939 10.0637V12.0637C49.2308 12.0637 50.8292 13.0324 51.716 14.4864L53.4235 13.445ZM47.4939 10.0637H43.4731V12.0637H47.4939V10.0637ZM43.4463 10.0641C41.0275 10.1289 38.8047 11.4238 37.572 13.445L39.2795 14.4864C40.157 13.0476 41.7553 12.1101 43.4999 12.0634L43.4463 10.0641ZM37.5863 13.4223C36.9383 14.4234 36.5599 15.6623 36.6287 16.9758L38.6259 16.8711C38.5807 16.0081 38.8296 15.1822 39.2653 14.509L37.5863 13.4223ZM36.6296 16.9914C36.6695 17.5765 36.4932 18.2149 36.1079 18.8746L37.835 19.8832C38.3622 18.9803 38.6992 17.9446 38.625 16.8555L36.6296 16.9914ZM36.119 18.8562C34.94 20.7789 32.299 21.5095 30.289 20.4243L29.3389 22.1842C32.2906 23.7778 36.0943 22.7225 37.8239 19.9017L36.119 18.8562ZM30.3075 20.4346C26.9772 18.5445 22.8437 19.6889 20.9144 22.9112L22.6304 23.9386C24.009 21.6361 26.9474 20.8272 29.3203 22.174L30.3075 20.4346ZM20.9075 22.923L18.9969 26.2156L20.7268 27.2194L22.6373 23.9268L20.9075 22.923ZM18.9999 26.2104C17.0952 29.4475 18.1628 33.6159 21.4812 35.4854L22.4629 33.7429C20.135 32.4314 19.3776 29.5124 20.7237 27.2246L18.9999 26.2104ZM21.4657 35.4765C23.427 36.628 24.0994 39.1713 22.9659 41.0792L24.6853 42.1008C26.4033 39.2093 25.3647 35.4464 22.4783 33.7518L21.4657 35.4765ZM22.9846 41.0489C22.527 41.7601 22.1362 42.2101 21.5896 42.4776L22.4685 44.2741C23.5188 43.7602 24.1546 42.9267 24.6665 42.1311L22.9846 41.0489ZM21.5493 42.4984C20.4316 43.1096 19.4282 44.077 18.8697 45.1016L20.6258 46.0588C20.9799 45.4091 21.6873 44.7024 22.5088 44.2532L21.5493 42.4984ZM18.894 45.0595C17.6282 47.1351 17.7205 49.7062 18.9404 51.8032L20.6692 50.7975C19.7789 49.2671 19.7572 47.4853 20.6015 46.1009L18.894 45.0595ZM18.9426 51.807L20.9102 55.1554L22.6346 54.1421L20.667 50.7937L18.9426 51.807ZM20.9114 55.1575C22.1466 57.248 24.4417 58.5507 26.8483 58.5507V56.5507C25.1485 56.5507 23.5084 55.6212 22.6334 54.1401L20.9114 55.1575ZM26.8483 58.5507C27.9842 58.5507 29.3086 58.2297 30.3927 57.5667L29.3492 55.8605C28.6082 56.3137 27.6514 56.5507 26.8483 56.5507V58.5507ZM30.4249 57.5462C30.9134 57.2212 31.5487 57.0718 32.3804 57.0718V55.0718C31.33 55.0718 30.2544 55.2574 29.317 55.8811L30.4249 57.5462ZM32.3804 57.0718C34.6673 57.0718 36.5819 58.9606 36.6275 61.1709L38.6271 61.1296C38.5587 57.8151 35.7397 55.0718 32.3804 55.0718V57.0718ZM36.6273 61.1503C36.6273 64.9474 39.7352 67.8705 43.5587 67.8705V65.8705C40.7664 65.8705 38.6273 63.7709 38.6273 61.1503H36.6273ZM43.5587 67.8705H47.4368V65.8705H43.5587V67.8705ZM47.4368 67.8705C51.235 67.8705 54.3397 64.9443 54.3397 61.1503H52.3397C52.3397 63.774 50.1974 65.8705 47.4368 65.8705V67.8705ZM54.3392 61.1812C54.408 58.9606 56.3304 57.0718 58.6151 57.0718V55.0718C55.2537 55.0718 52.4425 57.815 52.3401 61.1193L54.3392 61.1812ZM58.6151 57.0718C59.4097 57.0718 60.0572 57.2179 60.5856 57.556L61.6635 55.8713C60.7091 55.2606 59.6456 55.0718 58.6151 55.0718V57.0718ZM60.6028 57.5667C61.6849 58.2285 62.9803 58.5507 64.1472 58.5507V56.5507C63.3181 56.5507 62.3892 56.3149 61.6463 55.8605L60.6028 57.5667ZM64.1472 58.5507C66.528 58.5507 68.8218 57.2457 70.0555 55.1575L68.3336 54.1401C67.4572 55.6235 65.8158 56.5507 64.1472 56.5507V58.5507ZM70.0535 55.1608L72.0497 51.8124L70.3318 50.7883L68.3356 54.1367L70.0535 55.1608ZM72.0673 51.7817C73.2348 49.6554 73.3748 47.1472 72.1015 45.0595L70.394 46.1009C71.2309 47.4731 71.1998 49.2063 70.3142 50.8191L72.0673 51.7817Z" fill="url(#paint1_linear_203_10975)" mask="url(#path-3-outside-1_203_10975)"/>
</g>
<g filter="url(#filter3_bd_203_10975)">
<path d="M45.5341 46.6463C41.0571 46.6463 37.4355 43.1583 37.4355 38.7775C37.4355 34.3967 41.0571 30.8809 45.5341 30.8809C50.0111 30.8809 53.5471 34.3967 53.5471 38.7775C53.5471 43.1583 50.0111 46.6463 45.5341 46.6463Z" fill="url(#paint2_linear_203_10975)"/>
<path d="M45.5341 46.4463C41.1616 46.4463 37.6355 43.042 37.6355 38.7775C37.6355 34.5121 41.1625 31.0809 45.5341 31.0809C49.9029 31.0809 53.3471 34.5094 53.3471 38.7775C53.3471 43.0447 49.9038 46.4463 45.5341 46.4463Z" stroke="url(#paint3_linear_203_10975)" stroke-width="0.4"/>
</g>
<defs>
<filter id="filter0_b_203_10975" x="-7" y="-8.08643" width="69.7344" height="72.4675" filterUnits="userSpaceOnUse" color-interpolation-filters="sRGB">
<feFlood flood-opacity="0" result="BackgroundImageFix"/>
<feGaussianBlur in="BackgroundImageFix" stdDeviation="6.5"/>
<feComposite in2="SourceAlpha" operator="in" result="effect1_backgroundBlur_203_10975"/>
<feBlend mode="normal" in="SourceGraphic" in2="effect1_backgroundBlur_203_10975" result="shape"/>
</filter>
<filter id="filter1_f_203_10975" x="0.740234" y="0.31958" width="54.5508" height="55.9172" filterUnits="userSpaceOnUse" color-interpolation-filters="sRGB">
<feFlood flood-opacity="0" result="BackgroundImageFix"/>
<feBlend mode="normal" in="SourceGraphic" in2="BackgroundImageFix" result="shape"/>
<feGaussianBlur stdDeviation="8" result="effect1_foregroundBlur_203_10975"/>
</filter>
<filter id="filter2_b_203_10975" x="-6.01562" y="-13.9363" width="103.016" height="105.807" filterUnits="userSpaceOnUse" color-interpolation-filters="sRGB">
<feFlood flood-opacity="0" result="BackgroundImageFix"/>
<feGaussianBlur in="BackgroundImageFix" stdDeviation="12"/>
<feComposite in2="SourceAlpha" operator="in" result="effect1_backgroundBlur_203_10975"/>
<feBlend mode="normal" in="SourceGraphic" in2="effect1_backgroundBlur_203_10975" result="shape"/>
</filter>
<filter id="filter3_bd_203_10975" x="22.4355" y="15.8809" width="46.1113" height="45.7654" filterUnits="userSpaceOnUse" color-interpolation-filters="sRGB">
<feFlood flood-opacity="0" result="BackgroundImageFix"/>
<feGaussianBlur in="BackgroundImageFix" stdDeviation="7.5"/>
<feComposite in2="SourceAlpha" operator="in" result="effect1_backgroundBlur_203_10975"/>
<feColorMatrix in="SourceAlpha" type="matrix" values="0 0 0 0 0 0 0 0 0 0 0 0 0 0 0 0 0 0 127 0" result="hardAlpha"/>
<feOffset dx="5" dy="5"/>
<feGaussianBlur stdDeviation="5"/>
<feColorMatrix type="matrix" values="0 0 0 0 1 0 0 0 0 0.321569 0 0 0 0 0.54902 0 0 0 0.5 0"/>
<feBlend mode="normal" in2="effect1_backgroundBlur_203_10975" result="effect2_dropShadow_203_10975"/>
<feBlend mode="normal" in="SourceGraphic" in2="effect2_dropShadow_203_10975" result="shape"/>
</filter>
<linearGradient id="paint0_linear_203_10975" x1="31.0868" y1="31.2591" x2="-8.19977" y2="49.2374" gradientUnits="userSpaceOnUse">
<stop stop-color="#FF759F"/>
<stop offset="1" stop-color="#FF196E"/>
</linearGradient>
<linearGradient id="paint1_linear_203_10975" x1="27.4237" y1="17.5653" x2="63.3638" y2="59.8523" gradientUnits="userSpaceOnUse">
<stop stop-color="white" stop-opacity="0.25"/>
<stop offset="1" stop-color="white" stop-opacity="0"/>
</linearGradient>
<linearGradient id="paint2_linear_203_10975" x1="52.4048" y1="33.7278" x2="34.4589" y2="34.3257" gradientUnits="userSpaceOnUse">
<stop stop-color="white"/>
<stop offset="1" stop-color="white" stop-opacity="0.2"/>
</linearGradient>
<linearGradient id="paint3_linear_203_10975" x1="40.0002" y1="32.7175" x2="50.0087" y2="45.3855" gradientUnits="userSpaceOnUse">
<stop stop-color="white" stop-opacity="0.25"/>
<stop offset="1" stop-color="white" stop-opacity="0"/>
</linearGradient>
</defs>
</svg>
