<svg width="77" height="72" viewBox="0 0 77 72" fill="none" xmlns="http://www.w3.org/2000/svg">
<path d="M45.1833 18.2646C57.8335 18.2646 67 28.5851 67 40.0379C67 43.6958 65.9331 47.4625 64.0606 50.9027C63.7122 51.4688 63.6687 52.1873 63.9082 52.8623L65.367 57.7395C65.6936 58.9152 64.692 59.7861 63.5816 59.4378L59.1834 58.1314C57.9859 57.7395 57.0496 58.2403 55.937 58.9152C52.7581 60.7877 48.7976 61.7457 45.2268 61.7457C34.4273 61.7457 23.4536 53.4066 23.4536 39.9725C23.4536 28.3892 32.8161 18.2646 45.1833 18.2646Z" fill="url(#paint0_linear_203_10931)"/>
<g opacity="0.5" filter="url(#filter0_f_203_10931)">
<path d="M59.0866 40.255C59.0866 48.0227 52.7911 54.3168 45.0247 54.3168C37.2584 54.3168 30.9629 48.0227 30.9629 40.255C30.9629 32.49 37.2584 26.1931 45.0247 26.1931C52.7911 26.1931 59.0866 32.49 59.0866 40.255Z" fill="#004FFF"/>
</g>
<g filter="url(#filter1_b_203_10931)">
<mask id="path-3-outside-1_203_10931" maskUnits="userSpaceOnUse" x="0" y="0.254395" width="58" height="58" fill="black">
<rect fill="white" y="0.254395" width="58" height="58"/>
<path d="M28.8391 1.25439C12.6968 1.25439 1 14.4238 1 29.0379C1 33.7055 2.36139 38.5121 4.75077 42.9018C5.19531 43.6242 5.25087 44.5411 4.94526 45.4024L3.08376 51.6259C2.66701 53.1262 3.94505 54.2375 5.36201 53.793L10.9743 52.126C12.5024 51.6259 13.6971 52.2649 15.1168 53.1262C19.1732 55.5155 24.227 56.738 28.7835 56.738C42.5641 56.738 56.567 46.0969 56.567 28.9545C56.567 14.1737 44.6201 1.25439 28.8391 1.25439Z"/>
</mask>
<path d="M28.8391 1.25439C12.6968 1.25439 1 14.4238 1 29.0379C1 33.7055 2.36139 38.5121 4.75077 42.9018C5.19531 43.6242 5.25087 44.5411 4.94526 45.4024L3.08376 51.6259C2.66701 53.1262 3.94505 54.2375 5.36201 53.793L10.9743 52.126C12.5024 51.6259 13.6971 52.2649 15.1168 53.1262C19.1732 55.5155 24.227 56.738 28.7835 56.738C42.5641 56.738 56.567 46.0969 56.567 28.9545C56.567 14.1737 44.6201 1.25439 28.8391 1.25439Z" fill="#3EA0FE" fill-opacity="0.35"/>
<path d="M28.8391 2.25439C29.3913 2.25439 29.8391 1.80668 29.8391 1.25439C29.8391 0.70211 29.3913 0.254395 28.8391 0.254395V2.25439ZM4.75077 42.9018L3.87245 43.3799C3.88093 43.3955 3.88982 43.4108 3.89911 43.4259L4.75077 42.9018ZM4.94526 45.4024L4.00283 45.0679C3.99722 45.0838 3.992 45.0997 3.98719 45.1158L4.94526 45.4024ZM3.08376 51.6259L2.1257 51.3393C2.12382 51.3456 2.122 51.3519 2.12024 51.3582L3.08376 51.6259ZM5.36201 53.793L5.07727 52.8344C5.07239 52.8358 5.06752 52.8373 5.06267 52.8388L5.36201 53.793ZM10.9743 52.126L11.259 53.0846C11.2678 53.0819 11.2766 53.0792 11.2853 53.0764L10.9743 52.126ZM15.1168 53.1262L14.5981 53.9812L14.6093 53.9878L15.1168 53.1262ZM28.8391 0.254395C28.2868 0.254395 27.8391 0.70211 27.8391 1.25439C27.8391 1.80668 28.2868 2.25439 28.8391 2.25439V0.254395ZM28.8391 0.254395C12.1117 0.254395 0 13.905 0 29.0379H2C2 14.9426 13.282 2.25439 28.8391 2.25439V0.254395ZM0 29.0379C0 33.8965 1.4155 38.866 3.87245 43.3799L5.62909 42.4238C3.30728 38.1581 2 33.5146 2 29.0379H0ZM3.89911 43.4259C4.16089 43.8513 4.22376 44.4453 4.00283 45.0679L5.88768 45.7368C6.27799 44.6368 6.22972 43.3971 5.60243 42.3777L3.89911 43.4259ZM3.98719 45.1158L2.1257 51.3393L4.04182 51.9124L5.90332 45.6889L3.98719 45.1158ZM2.12024 51.3582C1.81715 52.4493 2.12184 53.4958 2.85744 54.174C3.58182 54.8418 4.63376 55.0695 5.66135 54.7471L5.06267 52.8388C4.6733 52.961 4.37774 52.8553 4.21305 52.7035C4.05957 52.562 3.93362 52.3027 4.04728 51.8935L2.12024 51.3582ZM5.64674 54.7516L11.259 53.0846L10.6895 51.1674L5.07727 52.8344L5.64674 54.7516ZM11.2853 53.0764C12.3326 52.7336 13.1531 53.1045 14.5981 53.9811L15.6355 52.2712C14.241 51.4253 12.6721 50.5181 10.6632 51.1756L11.2853 53.0764ZM14.6093 53.9878C18.8351 56.477 24.0675 57.738 28.7835 57.738V55.738C24.3865 55.738 19.5113 54.5541 15.6243 52.2645L14.6093 53.9878ZM28.7835 57.738C43.0358 57.738 57.567 46.7265 57.567 28.9545H55.567C55.567 45.4674 42.0924 55.738 28.7835 55.738V57.738ZM57.567 28.9545C57.567 13.6437 45.1944 0.254395 28.8391 0.254395V2.25439C44.0457 2.25439 55.567 14.7037 55.567 28.9545H57.567Z" fill="url(#paint1_linear_203_10931)" mask="url(#path-3-outside-1_203_10931)"/>
</g>
<g filter="url(#filter2_bd_203_10931)">
<mask id="path-5-inside-2_203_10931" fill="white">
<path fill-rule="evenodd" clip-rule="evenodd" d="M28.7282 32.6217C26.7555 32.5939 25.1719 31.0103 25.1719 29.0376C25.1719 27.0928 26.7833 25.4814 28.7282 25.5091C30.7008 25.5091 32.2844 27.0928 32.2844 29.0654C32.2844 31.0103 30.7008 32.6217 28.7282 32.6217ZM15.9196 32.622C13.9747 32.622 12.3633 31.0105 12.3633 29.0657C12.3633 27.0931 13.9469 25.5094 15.9196 25.5094C17.8922 25.5094 19.4759 27.0931 19.4759 29.0657C19.4759 31.0105 17.8922 32.5942 15.9196 32.622ZM37.9802 29.0654C37.9802 31.0103 39.5639 32.6217 41.5365 32.6217C43.5092 32.6217 45.0928 31.0103 45.0928 29.0654C45.0928 27.0928 43.5092 25.5091 41.5365 25.5091C39.5639 25.5091 37.9802 27.0928 37.9802 29.0654Z"/>
</mask>
<path fill-rule="evenodd" clip-rule="evenodd" d="M28.7282 32.6217C26.7555 32.5939 25.1719 31.0103 25.1719 29.0376C25.1719 27.0928 26.7833 25.4814 28.7282 25.5091C30.7008 25.5091 32.2844 27.0928 32.2844 29.0654C32.2844 31.0103 30.7008 32.6217 28.7282 32.6217ZM15.9196 32.622C13.9747 32.622 12.3633 31.0105 12.3633 29.0657C12.3633 27.0931 13.9469 25.5094 15.9196 25.5094C17.8922 25.5094 19.4759 27.0931 19.4759 29.0657C19.4759 31.0105 17.8922 32.5942 15.9196 32.622ZM37.9802 29.0654C37.9802 31.0103 39.5639 32.6217 41.5365 32.6217C43.5092 32.6217 45.0928 31.0103 45.0928 29.0654C45.0928 27.0928 43.5092 25.5091 41.5365 25.5091C39.5639 25.5091 37.9802 27.0928 37.9802 29.0654Z" fill="url(#paint2_linear_203_10931)"/>
<path d="M28.7282 32.6217L28.7225 33.0217H28.7282V32.6217ZM28.7282 25.5091L28.7224 25.9091H28.7282V25.5091ZM15.9196 32.622V33.022L15.9252 33.0219L15.9196 32.622ZM24.7719 29.0376C24.7719 31.2322 26.5345 32.9909 28.7225 33.0217L28.7338 32.2218C26.9766 32.197 25.5719 30.7883 25.5719 29.0376H24.7719ZM28.7339 25.1092C26.5625 25.0782 24.7719 26.873 24.7719 29.0376H25.5719C25.5719 27.3126 27.0041 25.8846 28.7224 25.9091L28.7339 25.1092ZM32.6844 29.0654C32.6844 26.8719 30.9217 25.1091 28.7282 25.1091V25.9091C30.4799 25.9091 31.8844 27.3137 31.8844 29.0654H32.6844ZM28.7282 33.0217C30.9237 33.0217 32.6844 31.2291 32.6844 29.0654H31.8844C31.8844 30.7914 30.4778 32.2217 28.7282 32.2217V33.0217ZM11.9633 29.0657C11.9633 31.2314 13.7538 33.022 15.9196 33.022V32.222C14.1956 32.222 12.7633 30.7896 12.7633 29.0657H11.9633ZM15.9196 25.1094C13.726 25.1094 11.9633 26.8721 11.9633 29.0657H12.7633C12.7633 27.314 14.1679 25.9094 15.9196 25.9094V25.1094ZM19.8759 29.0657C19.8759 26.8721 18.1131 25.1094 15.9196 25.1094V25.9094C17.6713 25.9094 19.0759 27.314 19.0759 29.0657H19.8759ZM15.9252 33.0219C18.1112 32.9911 19.8759 31.2345 19.8759 29.0657H19.0759C19.0759 30.7866 17.6732 32.1972 15.9139 32.222L15.9252 33.0219ZM41.5365 32.2217C39.7868 32.2217 38.3802 30.7914 38.3802 29.0654H37.5802C37.5802 31.2292 39.341 33.0217 41.5365 33.0217V32.2217ZM44.6928 29.0654C44.6928 30.7914 43.2862 32.2217 41.5365 32.2217V33.0217C43.7321 33.0217 45.4928 31.2292 45.4928 29.0654H44.6928ZM41.5365 25.9091C43.2882 25.9091 44.6928 27.3137 44.6928 29.0654H45.4928C45.4928 26.8719 43.7301 25.1091 41.5365 25.1091V25.9091ZM38.3802 29.0654C38.3802 27.3137 39.7848 25.9091 41.5365 25.9091V25.1091C39.343 25.1091 37.5802 26.8719 37.5802 29.0654H38.3802Z" fill="url(#paint3_linear_203_10931)" mask="url(#path-5-inside-2_203_10931)"/>
</g>
<defs>
<filter id="filter0_f_203_10931" x="13.9629" y="9.19312" width="62.123" height="62.1238" filterUnits="userSpaceOnUse" color-interpolation-filters="sRGB">
<feFlood flood-opacity="0" result="BackgroundImageFix"/>
<feBlend mode="normal" in="SourceGraphic" in2="BackgroundImageFix" result="shape"/>
<feGaussianBlur stdDeviation="8.5" result="effect1_foregroundBlur_203_10931"/>
</filter>
<filter id="filter1_b_203_10931" x="-24" y="-23.7456" width="105.566" height="105.484" filterUnits="userSpaceOnUse" color-interpolation-filters="sRGB">
<feFlood flood-opacity="0" result="BackgroundImageFix"/>
<feGaussianBlur in="BackgroundImageFix" stdDeviation="12"/>
<feComposite in2="SourceAlpha" operator="in" result="effect1_backgroundBlur_203_10931"/>
<feBlend mode="normal" in="SourceGraphic" in2="effect1_backgroundBlur_203_10931" result="shape"/>
</filter>
<filter id="filter2_bd_203_10931" x="-2.63672" y="10.5088" width="62.7305" height="37.1133" filterUnits="userSpaceOnUse" color-interpolation-filters="sRGB">
<feFlood flood-opacity="0" result="BackgroundImageFix"/>
<feGaussianBlur in="BackgroundImageFix" stdDeviation="7.5"/>
<feComposite in2="SourceAlpha" operator="in" result="effect1_backgroundBlur_203_10931"/>
<feColorMatrix in="SourceAlpha" type="matrix" values="0 0 0 0 0 0 0 0 0 0 0 0 0 0 0 0 0 0 127 0" result="hardAlpha"/>
<feOffset dx="5" dy="5"/>
<feGaussianBlur stdDeviation="5"/>
<feColorMatrix type="matrix" values="0 0 0 0 0.577356 0 0 0 0 0.359375 0 0 0 0 0.9375 0 0 0 0.5 0"/>
<feBlend mode="normal" in2="effect1_backgroundBlur_203_10931" result="effect2_dropShadow_203_10931"/>
<feBlend mode="normal" in="SourceGraphic" in2="effect2_dropShadow_203_10931" result="shape"/>
</filter>
<linearGradient id="paint0_linear_203_10931" x1="45.2268" y1="18.2646" x2="45.2268" y2="61.7457" gradientUnits="userSpaceOnUse">
<stop stop-color="#004FFF"/>
<stop offset="1" stop-color="#004FFF"/>
</linearGradient>
<linearGradient id="paint1_linear_203_10931" x1="9.84536" y1="7.71831" x2="45.2268" y2="51.6049" gradientUnits="userSpaceOnUse">
<stop stop-color="white" stop-opacity="0.25"/>
<stop offset="1" stop-color="white" stop-opacity="0"/>
</linearGradient>
<linearGradient id="paint2_linear_203_10931" x1="42.7723" y1="26.7933" x2="7.07929" y2="32.148" gradientUnits="userSpaceOnUse">
<stop stop-color="white"/>
<stop offset="1" stop-color="white" stop-opacity="0.2"/>
</linearGradient>
<linearGradient id="paint3_linear_203_10931" x1="17.5733" y1="26.3375" x2="19.1536" y2="35.3435" gradientUnits="userSpaceOnUse">
<stop stop-color="white" stop-opacity="0.25"/>
<stop offset="1" stop-color="white" stop-opacity="0"/>
</linearGradient>
</defs>
</svg>
