<svg width="78" height="80" viewBox="0 0 78 80" fill="none" xmlns="http://www.w3.org/2000/svg">
<path fill-rule="evenodd" clip-rule="evenodd" d="M22.6977 16.7767C22.0837 17.6015 20.763 20.4099 20.1271 21.8374L64.2882 40.362C64.862 38.9056 65.9495 35.9734 66.0997 34.9829C67.0876 29.3652 64.4757 24.376 59.0816 21.5332L37.2108 12.3589C31.3647 10.4578 26.0328 12.0887 22.6977 16.7767ZM12.2813 40.5192L20.1191 21.8344L64.2971 40.3661L56.3964 59.2007C53.1647 66.9048 46.3283 69.6075 38.5693 66.3527L19.5839 58.3888C11.8976 55.1645 9.0279 48.2749 12.2813 40.5192Z" fill="url(#paint0_linear_203_10983)"/>
<g opacity="0.5" filter="url(#filter0_f_203_10983)">
<path d="M49.331 25.5984L37.0824 20.6545C32.6395 18.8612 28.9119 20.6437 26.957 25.4869L20.336 41.8904C18.3491 46.813 19.8207 50.6202 24.2635 52.4135L36.5121 57.3574C41.0265 59.1795 44.6555 57.4311 46.6424 52.5085L53.2634 36.105C55.2183 31.2618 53.8454 27.4206 49.331 25.5984Z" fill="#EB6F0A"/>
</g>
<g filter="url(#filter1_b_203_10983)">
<mask id="path-3-outside-1_203_10983" maskUnits="userSpaceOnUse" x="24.0918" y="24.4568" width="50" height="52" fill="black">
<rect fill="white" x="24.0918" y="24.4568" width="50" height="52"/>
<path fill-rule="evenodd" clip-rule="evenodd" d="M25.5144 35.1447C25.2672 36.1428 25.1357 39.2435 25.1016 40.8058H72.9906C72.9564 39.2408 72.8249 36.1162 72.5804 35.1447C71.3183 29.5821 66.9798 25.9918 60.9059 25.4568H37.1888C31.0624 25.9651 26.7765 29.5316 25.5144 35.1447ZM25.0918 40.8063V61.0684C25.0918 69.4789 30.4032 74.7221 38.7383 74.7221H59.3264C67.7404 74.7221 72.9992 69.5853 72.9992 61.2308V40.8063H25.0918ZM36.0293 52.3947C36.0819 53.6164 37.0811 54.5772 38.2906 54.5213C39.4738 54.4707 40.4204 53.4593 40.3678 52.2324C40.3415 51.0373 39.3686 50.1031 38.1854 50.1031C36.9759 50.159 36.0293 51.1704 36.0293 52.3947ZM46.8359 52.3947C46.8885 53.6164 47.8877 54.5772 49.0972 54.5213C50.2804 54.4707 51.227 53.4593 51.1744 52.2324C51.1481 51.0373 50.1753 50.1031 48.992 50.1031C47.7825 50.159 46.8359 51.1704 46.8359 52.3947ZM57.6431 62.0532C57.6431 63.2775 58.616 64.2889 59.8255 64.3155C61.0613 64.3155 62.0605 63.3041 62.0605 62.0532C62.0605 60.805 61.0613 59.7936 59.8255 59.7936H59.7992C58.5897 59.8202 57.6168 60.8289 57.6431 62.0532ZM49.0972 64.1827C47.8877 64.2385 46.8885 63.2777 46.8359 62.0534C46.8359 60.8291 47.7825 59.8204 48.992 59.7645C50.1753 59.7645 51.1481 60.6987 51.1744 61.8964C51.227 63.1207 50.2804 64.1321 49.0972 64.1827ZM38.2649 64.1825C37.0554 64.2384 36.0563 63.2776 36.0037 62.0533C36.0037 60.829 36.9503 59.8203 38.1598 59.7644C39.343 59.7644 40.3159 60.6986 40.3422 61.8963C40.3947 63.1206 39.4482 64.132 38.2649 64.1825ZM59.8259 50.1323C58.6164 50.1589 57.6698 51.1437 57.6698 52.368V52.3946C57.6961 53.6163 58.6953 54.5478 59.9048 54.5212C61.088 54.4972 62.0346 53.4858 62.0083 52.2615C61.9557 51.0878 61.0091 50.1323 59.8259 50.1323Z"/>
</mask>
<path fill-rule="evenodd" clip-rule="evenodd" d="M25.5144 35.1447C25.2672 36.1428 25.1357 39.2435 25.1016 40.8058H72.9906C72.9564 39.2408 72.8249 36.1162 72.5804 35.1447C71.3183 29.5821 66.9798 25.9918 60.9059 25.4568H37.1888C31.0624 25.9651 26.7765 29.5316 25.5144 35.1447ZM25.0918 40.8063V61.0684C25.0918 69.4789 30.4032 74.7221 38.7383 74.7221H59.3264C67.7404 74.7221 72.9992 69.5853 72.9992 61.2308V40.8063H25.0918ZM36.0293 52.3947C36.0819 53.6164 37.0811 54.5772 38.2906 54.5213C39.4738 54.4707 40.4204 53.4593 40.3678 52.2324C40.3415 51.0373 39.3686 50.1031 38.1854 50.1031C36.9759 50.159 36.0293 51.1704 36.0293 52.3947ZM46.8359 52.3947C46.8885 53.6164 47.8877 54.5772 49.0972 54.5213C50.2804 54.4707 51.227 53.4593 51.1744 52.2324C51.1481 51.0373 50.1753 50.1031 48.992 50.1031C47.7825 50.159 46.8359 51.1704 46.8359 52.3947ZM57.6431 62.0532C57.6431 63.2775 58.616 64.2889 59.8255 64.3155C61.0613 64.3155 62.0605 63.3041 62.0605 62.0532C62.0605 60.805 61.0613 59.7936 59.8255 59.7936H59.7992C58.5897 59.8202 57.6168 60.8289 57.6431 62.0532ZM49.0972 64.1827C47.8877 64.2385 46.8885 63.2777 46.8359 62.0534C46.8359 60.8291 47.7825 59.8204 48.992 59.7645C50.1753 59.7645 51.1481 60.6987 51.1744 61.8964C51.227 63.1207 50.2804 64.1321 49.0972 64.1827ZM38.2649 64.1825C37.0554 64.2384 36.0563 63.2776 36.0037 62.0533C36.0037 60.829 36.9503 59.8203 38.1598 59.7644C39.343 59.7644 40.3159 60.6986 40.3422 61.8963C40.3947 63.1206 39.4482 64.132 38.2649 64.1825ZM59.8259 50.1323C58.6164 50.1589 57.6698 51.1437 57.6698 52.368V52.3946C57.6961 53.6163 58.6953 54.5478 59.9048 54.5212C61.088 54.4972 62.0346 53.4858 62.0083 52.2615C61.9557 51.0878 61.0091 50.1323 59.8259 50.1323Z" fill="#FFCBB9" fill-opacity="0.35"/>
<path d="M25.1016 40.8058L24.1018 40.7839C24.0959 41.0529 24.1986 41.3128 24.3868 41.5051C24.5749 41.6974 24.8326 41.8058 25.1016 41.8058V40.8058ZM25.5144 35.1447L26.4851 35.3851C26.4868 35.3781 26.4884 35.3711 26.49 35.3641L25.5144 35.1447ZM72.9906 40.8058V41.8058C73.2596 41.8058 73.5172 41.6974 73.7054 41.5051C73.8935 41.3129 73.9962 41.0529 73.9903 40.784L72.9906 40.8058ZM72.5804 35.1447L71.6052 35.366C71.6069 35.3736 71.6087 35.3812 71.6106 35.3888L72.5804 35.1447ZM60.9059 25.4568L60.9936 24.4606C60.9645 24.4581 60.9352 24.4568 60.9059 24.4568V25.4568ZM37.1888 25.4568V24.4568C37.1613 24.4568 37.1337 24.4579 37.1062 24.4602L37.1888 25.4568ZM25.0918 40.8063V39.8063C24.5395 39.8063 24.0918 40.254 24.0918 40.8063H25.0918ZM72.9992 40.8063H73.9992C73.9992 40.254 73.5515 39.8063 72.9992 39.8063V40.8063ZM38.2906 54.5213L38.2479 53.5222L38.2444 53.5223L38.2906 54.5213ZM36.0293 52.3947H35.0293C35.0293 52.4091 35.0296 52.4234 35.0302 52.4377L36.0293 52.3947ZM40.3678 52.2324L39.368 52.2544C39.3682 52.2613 39.3684 52.2682 39.3687 52.2752L40.3678 52.2324ZM38.1854 50.1031V49.1031C38.17 49.1031 38.1546 49.1035 38.1392 49.1042L38.1854 50.1031ZM49.0972 54.5213L49.0545 53.5222L49.0511 53.5223L49.0972 54.5213ZM46.8359 52.3947H45.8359C45.8359 52.4091 45.8362 52.4234 45.8369 52.4377L46.8359 52.3947ZM51.1744 52.2324L50.1747 52.2544C50.1748 52.2613 50.175 52.2682 50.1753 52.2752L51.1744 52.2324ZM48.992 50.1031V49.1031C48.9766 49.1031 48.9613 49.1035 48.9459 49.1042L48.992 50.1031ZM59.8255 64.3155L59.8035 65.3153C59.8108 65.3154 59.8182 65.3155 59.8255 65.3155V64.3155ZM57.6431 62.0532H58.6431C58.6431 62.046 58.643 62.0389 58.6429 62.0317L57.6431 62.0532ZM59.7992 59.7936V58.7936C59.7919 58.7936 59.7845 58.7937 59.7772 58.7938L59.7992 59.7936ZM46.8359 62.0534H45.8359C45.8359 62.0677 45.8362 62.0821 45.8369 62.0963L46.8359 62.0534ZM49.0972 64.1827L49.0545 63.1836L49.051 63.1837L49.0972 64.1827ZM48.992 59.7645V58.7645C48.9766 58.7645 48.9613 58.7649 48.9459 58.7656L48.992 59.7645ZM51.1744 61.8964L50.1747 61.9183C50.1748 61.9253 50.175 61.9323 50.1753 61.9393L51.1744 61.8964ZM36.0037 62.0533H35.0037C35.0037 62.0676 35.004 62.0819 35.0046 62.0962L36.0037 62.0533ZM38.2649 64.1825L38.2222 63.1834L38.2188 63.1836L38.2649 64.1825ZM38.1598 59.7644V58.7644C38.1444 58.7644 38.129 58.7648 38.1136 58.7655L38.1598 59.7644ZM40.3422 61.8963L39.3424 61.9182C39.3426 61.9252 39.3428 61.9322 39.3431 61.9392L40.3422 61.8963ZM59.8259 50.1323V49.1323C59.8186 49.1323 59.8112 49.1324 59.8039 49.1326L59.8259 50.1323ZM57.6698 52.3946H56.6698C56.6698 52.4018 56.6699 52.409 56.67 52.4161L57.6698 52.3946ZM59.9048 54.5212L59.8845 53.5214L59.8828 53.5214L59.9048 54.5212ZM62.0083 52.2615L63.0081 52.2401C63.0079 52.2323 63.0076 52.2245 63.0073 52.2168L62.0083 52.2615ZM26.1013 40.8277C26.1182 40.057 26.1591 38.9049 26.2262 37.8257C26.2955 36.709 26.3873 35.7797 26.4851 35.3851L24.5437 34.9044C24.3942 35.5079 24.2967 36.6279 24.23 37.7017C24.161 38.8129 24.1191 39.9923 24.1018 40.7839L26.1013 40.8277ZM72.9906 39.8058H25.1016V41.8058H72.9906V39.8058ZM71.6106 35.3888C71.7058 35.7671 71.7971 36.692 71.8663 37.8142C71.933 38.8966 71.9739 40.0555 71.9908 40.8276L73.9903 40.784C73.973 39.9911 73.9311 38.8052 73.8625 37.6912C73.7962 36.6169 73.6995 35.4938 73.5501 34.9006L71.6106 35.3888ZM60.8182 26.4529C66.5019 26.9535 70.4483 30.2673 71.6052 35.366L73.5556 34.9235C72.1882 28.897 67.4577 25.03 60.9936 24.4606L60.8182 26.4529ZM37.1888 26.4568H60.9059V24.4568H37.1888V26.4568ZM26.49 35.3641C27.648 30.2141 31.5418 26.9288 37.2715 26.4534L37.1062 24.4602C30.583 25.0015 25.905 28.8491 24.5387 34.9254L26.49 35.3641ZM26.0918 61.0684V40.8063H24.0918V61.0684H26.0918ZM38.7383 73.7221C34.783 73.7221 31.6435 72.4822 29.4953 70.3409C27.3477 68.2002 26.0918 65.0598 26.0918 61.0684H24.0918C24.0918 65.4875 25.4916 69.1739 28.0834 71.7574C30.6747 74.3403 34.3585 75.7221 38.7383 75.7221V73.7221ZM59.3264 73.7221H38.7383V75.7221H59.3264V73.7221ZM71.9992 61.2308C71.9992 65.1946 70.7564 68.2912 68.6167 70.3966C66.475 72.5039 63.3291 73.7221 59.3264 73.7221V75.7221C63.7377 75.7221 67.4282 74.3718 70.0194 71.8222C72.6126 69.2706 73.9992 65.6215 73.9992 61.2308H71.9992ZM71.9992 40.8063V61.2308H73.9992V40.8063H71.9992ZM25.0918 41.8063H72.9992V39.8063H25.0918V41.8063ZM38.2444 53.5223C37.6202 53.5512 37.0586 53.0533 37.0284 52.3517L35.0302 52.4377C35.1052 54.1794 36.5419 55.6031 38.3367 55.5202L38.2444 53.5223ZM39.3687 52.2752C39.3977 52.9521 38.8775 53.4953 38.2479 53.5222L38.3333 55.5204C40.07 55.4461 41.443 53.9666 41.3669 52.1895L39.3687 52.2752ZM38.1854 51.1031C38.8319 51.1031 39.3538 51.6099 39.368 52.2544L41.3675 52.2104C41.3291 50.4647 39.9053 49.1031 38.1854 49.1031V51.1031ZM37.0293 52.3947C37.0293 51.6896 37.5708 51.1326 38.2316 51.1021L38.1392 49.1042C36.381 49.1855 35.0293 50.6512 35.0293 52.3947H37.0293ZM49.0511 53.5223C48.4269 53.5512 47.8652 53.0533 47.835 52.3517L45.8369 52.4377C45.9118 54.1794 47.3485 55.6031 49.1434 55.5202L49.0511 53.5223ZM50.1753 52.2752C50.2044 52.952 49.6842 53.4953 49.0545 53.5222L49.1399 55.5204C50.8767 55.4461 52.2497 53.9666 52.1735 52.1895L50.1753 52.2752ZM48.992 51.1031C49.6386 51.1031 50.1605 51.6099 50.1747 52.2544L52.1742 52.2104C52.1358 50.4647 50.7119 49.1031 48.992 49.1031V51.1031ZM47.8359 52.3947C47.8359 51.6896 48.3774 51.1326 49.0382 51.1021L48.9459 49.1042C47.1876 49.1855 45.8359 50.6512 45.8359 52.3947H47.8359ZM59.8475 63.3157C59.1953 63.3014 58.6431 62.7477 58.6431 62.0532H56.6431C56.6431 63.8073 58.0366 65.2764 59.8035 65.3153L59.8475 63.3157ZM61.0605 62.0532C61.0605 62.7633 60.4976 63.3155 59.8255 63.3155V65.3155C61.625 65.3155 63.0605 63.8449 63.0605 62.0532H61.0605ZM59.8255 60.7936C60.4984 60.7936 61.0605 61.3465 61.0605 62.0532H63.0605C63.0605 60.2634 61.6242 58.7936 59.8255 58.7936V60.7936ZM59.7992 60.7936H59.8255V58.7936H59.7992V60.7936ZM58.6429 62.0317C58.6284 61.3593 59.1637 60.8078 59.8212 60.7933L59.7772 58.7938C58.0156 58.8326 56.6052 60.2985 56.6433 62.0747L58.6429 62.0317ZM45.8369 62.0963C45.9118 63.84 47.3477 65.2646 49.1434 65.1816L49.051 63.1837C48.4276 63.2125 47.8653 62.7155 47.835 62.0105L45.8369 62.0963ZM48.9459 58.7656C47.1891 58.8468 45.8359 60.3084 45.8359 62.0534H47.8359C47.8359 61.3498 48.3759 60.7941 49.0382 60.7635L48.9459 58.7656ZM52.1742 61.8745C52.1358 60.1269 50.7127 58.7645 48.992 58.7645V60.7645C49.6378 60.7645 50.1604 61.2705 50.1747 61.9183L52.1742 61.8745ZM49.1399 65.1817C50.8759 65.1075 52.2498 63.6288 52.1735 61.8535L50.1753 61.9393C50.2043 62.6126 49.685 63.1566 49.0545 63.1836L49.1399 65.1817ZM35.0046 62.0962C35.0795 63.8398 36.5155 65.2645 38.3111 65.1815L38.2188 63.1836C37.5954 63.2124 37.033 62.7154 37.0028 62.0104L35.0046 62.0962ZM38.1136 58.7655C36.3568 58.8467 35.0037 60.3083 35.0037 62.0533H37.0037C37.0037 61.3497 37.5437 60.7939 38.2059 60.7633L38.1136 58.7655ZM41.3419 61.8743C41.3036 60.1268 39.8804 58.7644 38.1598 58.7644V60.7644C38.8055 60.7644 39.3282 61.2704 39.3424 61.9182L41.3419 61.8743ZM38.3076 65.1816C40.0436 65.1074 41.4175 63.6286 41.3412 61.8534L39.3431 61.9392C39.372 62.6125 38.8527 63.1565 38.2222 63.1834L38.3076 65.1816ZM58.6698 52.368C58.6698 51.6731 59.1961 51.1464 59.8479 51.1321L59.8039 49.1326C58.0366 49.1714 56.6698 50.6143 56.6698 52.368H58.6698ZM58.6698 52.3946V52.368H56.6698V52.3946H58.6698ZM59.8828 53.5214C59.2139 53.5361 58.6837 53.0307 58.6696 52.3731L56.67 52.4161C56.7085 54.2018 58.1767 55.5594 59.9268 55.5209L59.8828 53.5214ZM61.0085 52.283C61.0235 52.9814 60.4887 53.5091 59.8845 53.5214L59.925 55.521C61.6873 55.4853 63.0457 53.9903 63.0081 52.2401L61.0085 52.283ZM59.8259 51.1323C60.4463 51.1323 60.9794 51.6386 61.0093 52.3063L63.0073 52.2168C62.932 50.5371 61.5719 49.1323 59.8259 49.1323V51.1323Z" fill="url(#paint1_linear_203_10983)" mask="url(#path-3-outside-1_203_10983)"/>
</g>
<g filter="url(#filter2_bd_203_10983)">
<mask id="path-5-inside-2_203_10983" fill="white">
<path fill-rule="evenodd" clip-rule="evenodd" d="M41.2348 31.6582C41.2348 32.832 40.3671 33.7076 39.2102 33.7076C38.0532 33.7076 37.1855 32.832 37.1855 31.6582V23.5432C37.1855 22.3695 38.0532 21.4912 39.2102 21.4912C40.3671 21.4912 41.2348 22.3695 41.2348 23.5432V31.6582ZM60.9028 31.6582C60.9028 32.832 60.0088 33.7076 58.8781 33.7076C57.7212 33.7076 56.8535 32.832 56.8535 31.6582V23.5432C56.8535 22.3695 57.7212 21.4912 58.8781 21.4912C60.0088 21.4912 60.9028 22.3695 60.9028 23.5432V31.6582Z"/>
</mask>
<path fill-rule="evenodd" clip-rule="evenodd" d="M41.2348 31.6582C41.2348 32.832 40.3671 33.7076 39.2102 33.7076C38.0532 33.7076 37.1855 32.832 37.1855 31.6582V23.5432C37.1855 22.3695 38.0532 21.4912 39.2102 21.4912C40.3671 21.4912 41.2348 22.3695 41.2348 23.5432V31.6582ZM60.9028 31.6582C60.9028 32.832 60.0088 33.7076 58.8781 33.7076C57.7212 33.7076 56.8535 32.832 56.8535 31.6582V23.5432C56.8535 22.3695 57.7212 21.4912 58.8781 21.4912C60.0088 21.4912 60.9028 22.3695 60.9028 23.5432V31.6582Z" fill="url(#paint2_linear_203_10983)"/>
<path d="M39.2102 34.1076C40.5922 34.1076 41.6348 33.0486 41.6348 31.6582H40.8348C40.8348 32.6153 40.142 33.3076 39.2102 33.3076V34.1076ZM36.7855 31.6582C36.7855 33.0486 37.8281 34.1076 39.2102 34.1076V33.3076C38.2784 33.3076 37.5855 32.6153 37.5855 31.6582H36.7855ZM36.7855 23.5432V31.6582H37.5855V23.5432H36.7855ZM39.2102 21.0912C37.8274 21.0912 36.7855 22.1535 36.7855 23.5432H37.5855C37.5855 22.5855 38.2791 21.8912 39.2102 21.8912V21.0912ZM41.6348 23.5432C41.6348 22.1535 40.5929 21.0912 39.2102 21.0912V21.8912C40.1413 21.8912 40.8348 22.5855 40.8348 23.5432H41.6348ZM41.6348 31.6582V23.5432H40.8348V31.6582H41.6348ZM58.8781 34.1076C60.2305 34.1076 61.3028 33.052 61.3028 31.6582H60.5028C60.5028 32.6119 59.787 33.3076 58.8781 33.3076V34.1076ZM56.4535 31.6582C56.4535 33.0486 57.4961 34.1076 58.8781 34.1076V33.3076C57.9464 33.3076 57.2535 32.6153 57.2535 31.6582H56.4535ZM56.4535 23.5432V31.6582H57.2535V23.5432H56.4535ZM58.8781 21.0912C57.4954 21.0912 56.4535 22.1535 56.4535 23.5432H57.2535C57.2535 22.5855 57.947 21.8912 58.8781 21.8912V21.0912ZM61.3028 23.5432C61.3028 22.1501 60.2312 21.0912 58.8781 21.0912V21.8912C59.7864 21.8912 60.5028 22.5889 60.5028 23.5432H61.3028ZM61.3028 31.6582V23.5432H60.5028V31.6582H61.3028Z" fill="url(#paint3_linear_203_10983)" mask="url(#path-5-inside-2_203_10983)"/>
</g>
<g filter="url(#filter3_bd_203_10983)">
<mask id="path-7-inside-3_203_10983" fill="white">
<path fill-rule="evenodd" clip-rule="evenodd" d="M36.0547 52.4188C36.1073 53.6404 37.1064 54.6012 38.316 54.5453C39.4992 54.4948 40.4458 53.4834 40.3932 52.2564C40.3669 51.0614 39.394 50.1272 38.2108 50.1272C37.0013 50.1831 36.0547 51.1945 36.0547 52.4188ZM46.8613 52.4188C46.9139 53.6404 47.9131 54.6012 49.1226 54.5453C50.3058 54.4948 51.2524 53.4834 51.1998 52.2564C51.1735 51.0614 50.2006 50.1272 49.0174 50.1272C47.8079 50.1831 46.8613 51.1945 46.8613 52.4188ZM57.6665 62.0773C57.6665 63.3016 58.6394 64.3129 59.8489 64.3396C61.0847 64.3396 62.0839 63.3282 62.0839 62.0773C62.0839 60.829 61.0847 59.8176 59.8489 59.8176H59.8226C58.6131 59.8442 57.6402 60.853 57.6665 62.0773ZM49.1226 64.2067C47.9131 64.2626 46.9139 63.3018 46.8613 62.0775C46.8613 60.8532 47.8079 59.8445 49.0174 59.7886C50.2006 59.7886 51.1735 60.7228 51.1998 61.9205C51.2524 63.1448 50.3058 64.1561 49.1226 64.2067ZM38.2886 64.2067C37.0791 64.2626 36.0799 63.3018 36.0273 62.0775C36.0273 60.8532 36.9739 59.8445 38.1834 59.7886C39.3667 59.7886 40.3395 60.7228 40.3658 61.9205C40.4184 63.1448 39.4718 64.1562 38.2886 64.2067ZM59.8496 50.1565C58.6401 50.1832 57.6935 51.1679 57.6935 52.3922V52.4188C57.7198 53.6405 58.719 54.572 59.9285 54.5454C61.1117 54.5214 62.0583 53.5101 62.032 52.2858C61.9794 51.112 61.0328 50.1565 59.8496 50.1565Z"/>
</mask>
<path fill-rule="evenodd" clip-rule="evenodd" d="M36.0547 52.4188C36.1073 53.6404 37.1064 54.6012 38.316 54.5453C39.4992 54.4948 40.4458 53.4834 40.3932 52.2564C40.3669 51.0614 39.394 50.1272 38.2108 50.1272C37.0013 50.1831 36.0547 51.1945 36.0547 52.4188ZM46.8613 52.4188C46.9139 53.6404 47.9131 54.6012 49.1226 54.5453C50.3058 54.4948 51.2524 53.4834 51.1998 52.2564C51.1735 51.0614 50.2006 50.1272 49.0174 50.1272C47.8079 50.1831 46.8613 51.1945 46.8613 52.4188ZM57.6665 62.0773C57.6665 63.3016 58.6394 64.3129 59.8489 64.3396C61.0847 64.3396 62.0839 63.3282 62.0839 62.0773C62.0839 60.829 61.0847 59.8176 59.8489 59.8176H59.8226C58.6131 59.8442 57.6402 60.853 57.6665 62.0773ZM49.1226 64.2067C47.9131 64.2626 46.9139 63.3018 46.8613 62.0775C46.8613 60.8532 47.8079 59.8445 49.0174 59.7886C50.2006 59.7886 51.1735 60.7228 51.1998 61.9205C51.2524 63.1448 50.3058 64.1561 49.1226 64.2067ZM38.2886 64.2067C37.0791 64.2626 36.0799 63.3018 36.0273 62.0775C36.0273 60.8532 36.9739 59.8445 38.1834 59.7886C39.3667 59.7886 40.3395 60.7228 40.3658 61.9205C40.4184 63.1448 39.4718 64.1562 38.2886 64.2067ZM59.8496 50.1565C58.6401 50.1832 57.6935 51.1679 57.6935 52.3922V52.4188C57.7198 53.6405 58.719 54.572 59.9285 54.5454C61.1117 54.5214 62.0583 53.5101 62.032 52.2858C61.9794 51.112 61.0328 50.1565 59.8496 50.1565Z" fill="url(#paint4_linear_203_10983)"/>
<path d="M38.316 54.5453L38.2989 54.1457L38.2975 54.1458L38.316 54.5453ZM36.0547 52.4188H35.6547V52.4274L35.6551 52.436L36.0547 52.4188ZM40.3932 52.2564L39.9932 52.2652L39.9935 52.2735L40.3932 52.2564ZM38.2108 50.1272V49.7272H38.2015L38.1923 49.7276L38.2108 50.1272ZM49.1226 54.5453L49.1055 54.1457L49.1041 54.1458L49.1226 54.5453ZM46.8613 52.4188H46.4613V52.4274L46.4617 52.436L46.8613 52.4188ZM51.1998 52.2564L50.7998 52.2652L50.8002 52.2735L51.1998 52.2564ZM49.0174 50.1272V49.7272H49.0082L48.999 49.7276L49.0174 50.1272ZM59.8489 64.3396L59.8401 64.7396H59.8489V64.3396ZM57.6665 62.0773H58.0666L58.0664 62.0687L57.6665 62.0773ZM59.8226 59.8176V59.4175L59.8138 59.4177L59.8226 59.8176ZM46.8613 62.0775H46.4613V62.0861L46.4617 62.0947L46.8613 62.0775ZM49.1226 64.2067L49.1055 63.8071L49.1041 63.8071L49.1226 64.2067ZM49.0174 59.7886V59.3886H49.0082L48.999 59.389L49.0174 59.7886ZM51.1998 61.9205L50.7998 61.9292L50.8002 61.9376L51.1998 61.9205ZM36.0273 62.0775H35.6273V62.0861L35.6277 62.0947L36.0273 62.0775ZM38.2886 64.2067L38.2715 63.8071L38.2702 63.8072L38.2886 64.2067ZM38.1834 59.7886V59.3886H38.1742L38.165 59.389L38.1834 59.7886ZM40.3658 61.9205L39.9658 61.9293L39.9662 61.9377L40.3658 61.9205ZM59.8496 50.1565V49.7564L59.8408 49.7566L59.8496 50.1565ZM57.6935 52.4188H57.2934L57.2936 52.4274L57.6935 52.4188ZM59.9285 54.5454L59.9204 54.1455L59.9197 54.1455L59.9285 54.5454ZM62.032 52.2858L62.432 52.2772L62.4316 52.2679L62.032 52.2858ZM38.2975 54.1458C37.3221 54.1908 36.498 53.4152 36.4543 52.4016L35.6551 52.436C35.7166 53.8656 36.8908 55.0116 38.3344 54.9449L38.2975 54.1458ZM39.9935 52.2735C40.0367 53.2805 39.2607 54.1046 38.2989 54.1457L38.333 54.945C39.7377 54.8849 40.8548 53.6863 40.7928 52.2393L39.9935 52.2735ZM38.2108 50.5272C39.1793 50.5272 39.9718 51.2904 39.9933 52.2652L40.7931 52.2476C40.7619 50.8324 39.6087 49.7272 38.2108 49.7272V50.5272ZM36.4547 52.4188C36.4547 51.4022 37.2392 50.5725 38.2292 50.5268L38.1923 49.7276C36.7633 49.7937 35.6547 50.9868 35.6547 52.4188H36.4547ZM49.1041 54.1458C48.1288 54.1908 47.3046 53.4152 47.261 52.4016L46.4617 52.436C46.5232 53.8656 47.6974 55.0116 49.1411 54.9449L49.1041 54.1458ZM50.8002 52.2735C50.8433 53.2805 50.0673 54.1046 49.1055 54.1457L49.1397 54.945C50.5443 54.8849 51.6615 53.6863 51.5994 52.2393L50.8002 52.2735ZM49.0174 50.5272C49.986 50.5272 50.7785 51.2904 50.7999 52.2652L51.5997 52.2476C51.5686 50.8324 50.4153 49.7272 49.0174 49.7272V50.5272ZM47.2613 52.4188C47.2613 51.4022 48.0459 50.5725 49.0359 50.5268L48.999 49.7276C47.5699 49.7937 46.4613 50.9868 46.4613 52.4188H47.2613ZM59.8577 63.9397C58.8712 63.9179 58.0665 63.0896 58.0665 62.0773H57.2665C57.2665 63.5135 58.4077 64.7079 59.8401 64.7395L59.8577 63.9397ZM61.6839 62.0773C61.6839 63.1119 60.8593 63.9396 59.8489 63.9396V64.7396C61.3102 64.7396 62.4839 63.5445 62.4839 62.0773H61.6839ZM59.8489 60.2176C60.8596 60.2176 61.6839 61.0456 61.6839 62.0773H62.4839C62.4839 60.6124 61.3099 59.4176 59.8489 59.4176V60.2176ZM59.8226 60.2176H59.8489V59.4176H59.8226V60.2176ZM58.0664 62.0687C58.0449 61.0651 58.8427 60.2393 59.8314 60.2175L59.8138 59.4177C58.3835 59.4492 57.2356 60.6408 57.2666 62.0858L58.0664 62.0687ZM46.4617 62.0947C46.5232 63.5267 47.6971 64.673 49.1411 64.6063L49.1041 63.8071C48.1291 63.8522 47.3046 63.0769 47.261 62.0603L46.4617 62.0947ZM48.999 59.389C47.5705 59.455 46.4613 60.6449 46.4613 62.0775H47.2613C47.2613 61.0615 48.0453 60.2339 49.0359 60.1881L48.999 59.389ZM51.5997 61.9117C51.5686 60.494 50.4156 59.3886 49.0174 59.3886V60.1886C49.9857 60.1886 50.7784 60.9515 50.7999 61.9292L51.5997 61.9117ZM49.1397 64.6063C50.544 64.5463 51.6615 63.348 51.5994 61.9033L50.8002 61.9376C50.8433 62.9415 50.0676 63.766 49.1055 63.8071L49.1397 64.6063ZM35.6277 62.0947C35.6892 63.5267 36.8631 64.673 38.3071 64.6063L38.2702 63.8072C37.2951 63.8522 36.4706 63.0769 36.427 62.0604L35.6277 62.0947ZM38.165 59.389C36.7365 59.455 35.6273 60.6449 35.6273 62.0775H36.4273C36.4273 61.0615 37.2113 60.234 38.2019 60.1882L38.165 59.389ZM40.7657 61.9117C40.7346 60.4941 39.5816 59.3886 38.1834 59.3886V60.1886C39.1517 60.1886 39.9445 60.9515 39.9659 61.9293L40.7657 61.9117ZM38.3057 64.6064C39.71 64.5464 40.8275 63.348 40.7655 61.9033L39.9662 61.9377C40.0093 62.9416 39.2337 63.766 38.2715 63.8071L38.3057 64.6064ZM58.0935 52.3922C58.0935 51.3797 58.872 50.5781 59.8584 50.5564L59.8408 49.7566C58.4082 49.7882 57.2935 50.9561 57.2935 52.3922H58.0935ZM58.0935 52.4188V52.3922H57.2935V52.4188H58.0935ZM59.9197 54.1455C58.9264 54.1673 58.1148 53.4063 58.0934 52.4102L57.2936 52.4274C57.3247 53.8747 58.5115 54.9767 59.9373 54.9453L59.9197 54.1455ZM61.6321 52.2943C61.6539 53.3083 60.872 54.1262 59.9204 54.1455L59.9366 54.9453C61.3514 54.9167 62.4627 53.7118 62.4319 52.2772L61.6321 52.2943ZM59.8496 50.5565C60.8077 50.5565 61.5889 51.3323 61.6324 52.3037L62.4316 52.2679C62.3699 50.8917 61.2579 49.7565 59.8496 49.7565V50.5565Z" fill="url(#paint5_linear_203_10983)" mask="url(#path-7-inside-3_203_10983)"/>
</g>
<g opacity="0.5" filter="url(#filter4_b_203_10983)">
<path d="M27.5368 41.0063C27.5368 42.137 28.4125 43.0309 29.5862 43.0309L67.5261 43.0309C68.6998 43.0309 69.5781 42.137 69.5781 41.0063C69.5781 39.8494 68.6998 38.9817 67.5261 38.9817L29.5862 38.9817C28.4125 38.9817 27.5368 39.8494 27.5368 41.0063Z" fill="url(#paint6_linear_203_10983)" fill-opacity="0.5"/>
</g>
<defs>
<filter id="filter0_f_203_10983" x="0.46875" y="0.97168" width="72.6602" height="76.0898" filterUnits="userSpaceOnUse" color-interpolation-filters="sRGB">
<feFlood flood-opacity="0" result="BackgroundImageFix"/>
<feBlend mode="normal" in="SourceGraphic" in2="BackgroundImageFix" result="shape"/>
<feGaussianBlur stdDeviation="9.5" result="effect1_foregroundBlur_203_10983"/>
</filter>
<filter id="filter1_b_203_10983" x="0.0917969" y="0.456787" width="97.9082" height="99.2654" filterUnits="userSpaceOnUse" color-interpolation-filters="sRGB">
<feFlood flood-opacity="0" result="BackgroundImageFix"/>
<feGaussianBlur in="BackgroundImageFix" stdDeviation="12"/>
<feComposite in2="SourceAlpha" operator="in" result="effect1_backgroundBlur_203_10983"/>
<feBlend mode="normal" in="SourceGraphic" in2="effect1_backgroundBlur_203_10983" result="shape"/>
</filter>
<filter id="filter2_bd_203_10983" x="22.1855" y="6.49121" width="53.7168" height="42.2163" filterUnits="userSpaceOnUse" color-interpolation-filters="sRGB">
<feFlood flood-opacity="0" result="BackgroundImageFix"/>
<feGaussianBlur in="BackgroundImageFix" stdDeviation="7.5"/>
<feComposite in2="SourceAlpha" operator="in" result="effect1_backgroundBlur_203_10983"/>
<feColorMatrix in="SourceAlpha" type="matrix" values="0 0 0 0 0 0 0 0 0 0 0 0 0 0 0 0 0 0 127 0" result="hardAlpha"/>
<feOffset dx="5" dy="5"/>
<feGaussianBlur stdDeviation="5"/>
<feColorMatrix type="matrix" values="0 0 0 0 1 0 0 0 0 0.537255 0 0 0 0 0.160784 0 0 0 0.2 0"/>
<feBlend mode="normal" in2="effect1_backgroundBlur_203_10983" result="effect2_dropShadow_203_10983"/>
<feBlend mode="normal" in="SourceGraphic" in2="effect2_dropShadow_203_10983" result="shape"/>
</filter>
<filter id="filter3_bd_203_10983" x="21.0273" y="35.1272" width="56.0566" height="44.2124" filterUnits="userSpaceOnUse" color-interpolation-filters="sRGB">
<feFlood flood-opacity="0" result="BackgroundImageFix"/>
<feGaussianBlur in="BackgroundImageFix" stdDeviation="7.5"/>
<feComposite in2="SourceAlpha" operator="in" result="effect1_backgroundBlur_203_10983"/>
<feColorMatrix in="SourceAlpha" type="matrix" values="0 0 0 0 0 0 0 0 0 0 0 0 0 0 0 0 0 0 127 0" result="hardAlpha"/>
<feOffset dx="5" dy="5"/>
<feGaussianBlur stdDeviation="5"/>
<feColorMatrix type="matrix" values="0 0 0 0 1 0 0 0 0 0.52549 0 0 0 0 0.137255 0 0 0 0.5 0"/>
<feBlend mode="normal" in2="effect1_backgroundBlur_203_10983" result="effect2_dropShadow_203_10983"/>
<feBlend mode="normal" in="SourceGraphic" in2="effect2_dropShadow_203_10983" result="shape"/>
</filter>
<filter id="filter4_b_203_10983" x="12.5371" y="23.9817" width="72.041" height="34.0493" filterUnits="userSpaceOnUse" color-interpolation-filters="sRGB">
<feFlood flood-opacity="0" result="BackgroundImageFix"/>
<feGaussianBlur in="BackgroundImageFix" stdDeviation="7.5"/>
<feComposite in2="SourceAlpha" operator="in" result="effect1_backgroundBlur_203_10983"/>
<feBlend mode="normal" in="SourceGraphic" in2="effect1_backgroundBlur_203_10983" result="shape"/>
</filter>
<linearGradient id="paint0_linear_203_10983" x1="48.1456" y1="16.9458" x2="29.0887" y2="62.3759" gradientUnits="userSpaceOnUse">
<stop stop-color="#FFB37F"/>
<stop offset="1" stop-color="#FF7B0D"/>
</linearGradient>
<linearGradient id="paint1_linear_203_10983" x1="32.7179" y1="31.1963" x2="64.3177" y2="69.2546" gradientUnits="userSpaceOnUse">
<stop stop-color="white" stop-opacity="0.25"/>
<stop offset="1" stop-color="white" stop-opacity="0"/>
</linearGradient>
<linearGradient id="paint2_linear_203_10983" x1="59.4728" y1="31.8118" x2="60.1851" y2="22.6361" gradientUnits="userSpaceOnUse">
<stop stop-color="white"/>
<stop offset="1" stop-color="white" stop-opacity="0.2"/>
</linearGradient>
<linearGradient id="paint3_linear_203_10983" x1="58.8211" y1="23.3384" x2="68.4646" y2="26.9553" gradientUnits="userSpaceOnUse">
<stop stop-color="white" stop-opacity="0.25"/>
<stop offset="1" stop-color="white" stop-opacity="0"/>
</linearGradient>
<linearGradient id="paint4_linear_203_10983" x1="60.2365" y1="52.6937" x2="16.3034" y2="49.7991" gradientUnits="userSpaceOnUse">
<stop stop-color="white"/>
<stop offset="1" stop-color="white" stop-opacity="0.2"/>
</linearGradient>
<linearGradient id="paint5_linear_203_10983" x1="40.1751" y1="51.783" x2="47.0168" y2="67.3183" gradientUnits="userSpaceOnUse">
<stop stop-color="white" stop-opacity="0.25"/>
<stop offset="1" stop-color="white" stop-opacity="0"/>
</linearGradient>
<linearGradient id="paint6_linear_203_10983" x1="38.8839" y1="40.9492" x2="37.3766" y2="36.2279" gradientUnits="userSpaceOnUse">
<stop stop-color="white"/>
<stop offset="1" stop-color="white" stop-opacity="0.2"/>
</linearGradient>
</defs>
</svg>
