<svg width="77" height="72" viewBox="0 0 77 72" fill="none" xmlns="http://www.w3.org/2000/svg">
<path d="M37.3687 40.8258C37.0593 41.4667 37.0838 42.2206 37.4326 42.8412L42.3879 51.368C42.8073 52.0909 42.7663 52.9928 42.2838 53.676C41.8203 54.371 40.9999 54.7344 40.1762 54.6156L30.4383 53.3248C30.0985 53.2768 29.753 53.3108 29.4263 53.4199L28.9257 53.6032C28.7614 53.6927 28.6117 53.8106 28.4875 53.9527L21.8661 61.2545C21.5356 61.6066 21.1037 61.8467 20.6285 61.9386C19.4594 62.1312 18.3498 61.3519 18.1284 60.1824L16.4596 50.4526C16.3269 49.7467 15.8613 49.15 15.2111 48.852L6.18309 44.8004C5.42786 44.461 4.93759 43.7157 4.92521 42.8859C4.90612 42.0606 5.34335 41.2931 6.06258 40.8932L14.759 36.1948C15.431 35.8668 15.8895 35.2156 15.9746 34.4699L16.9971 24.6588C17.0259 24.4381 17.0877 24.2221 17.1848 24.0226L17.304 23.8319C17.3558 23.7036 17.4266 23.5873 17.5139 23.4818L17.6883 23.3339L17.9552 23.0891L18.733 22.8044C19.4539 22.6225 20.2169 22.8161 20.7628 23.3225L27.8723 30.115C28.3881 30.6135 29.1155 30.8243 29.8158 30.6836L39.4831 28.6605C40.2995 28.4878 41.1432 28.7884 41.6694 29.4366C42.1814 30.0919 42.2689 30.9847 41.8945 31.7291L37.3687 40.8258Z" fill="url(#paint0_linear_203_10942)"/>
<g opacity="0.5" filter="url(#filter0_f_203_10942)">
<path d="M28.853 35.8916C24.6249 35.8916 21.1934 39.3384 21.1934 43.5836C21.1934 47.8304 24.6249 51.2756 28.853 51.2756C33.0888 51.2756 36.5126 47.8304 36.5126 43.5836C36.5126 39.3384 33.0888 35.8916 28.853 35.8916Z" fill="#FF3D22"/>
</g>
<g filter="url(#filter1_b_203_10942)">
<path d="M59.9152 39.3925C59.1351 39.8447 58.626 40.6549 58.5522 41.5568L57.7111 54.067C57.639 55.1271 56.9558 56.0459 55.9639 56.4188C54.9834 56.8179 53.8631 56.6128 53.0814 55.8983L43.7601 47.5728C43.437 47.2793 43.0496 47.0677 42.6288 46.9486L41.9724 46.783C41.7362 46.7596 41.4951 46.7763 41.2637 46.8369L29.1214 49.7747C28.5241 49.9084 27.8997 49.8517 27.3348 49.6083C25.9692 48.9741 25.3557 47.3609 25.9528 45.9729L31.1027 34.55C31.4641 33.7129 31.398 32.7524 30.9259 31.9739L24.31 21.2539C23.7569 20.3567 23.7704 19.2223 24.3462 18.341C24.9118 17.4597 25.916 16.9658 26.9559 17.0601L39.4322 18.344C40.3715 18.4802 41.3156 18.1237 41.9343 17.4006L49.9712 7.81811C50.158 7.60666 50.3763 7.42384 50.6199 7.28363L50.8805 7.16837C51.026 7.07062 51.1829 6.99904 51.3496 6.95058L51.6379 6.9199L52.0923 6.85354L53.1119 7.11085C53.9989 7.43551 54.6636 8.18508 54.8782 9.10806L57.5322 21.3366C57.7207 22.2297 58.3358 22.9719 59.1719 23.3251L70.7706 28.1164C71.7514 28.519 72.425 29.4389 72.5182 30.4967C72.5915 31.5521 72.05 32.5533 71.1281 33.068L59.9152 39.3925Z" fill="#FFAC95" fill-opacity="0.4"/>
<path d="M58.2097 54.1019L58.2097 54.1014L59.0503 41.5985C59.0504 41.5974 59.0505 41.5963 59.0506 41.5952C59.112 40.8575 59.5285 40.1961 60.164 39.8268C60.1647 39.8263 60.1655 39.8259 60.1662 39.8254L71.3721 33.505C71.3724 33.5048 71.3726 33.5047 71.3729 33.5045C72.4631 32.8955 73.1034 31.7112 73.0168 30.463L73.0169 30.4629L73.0161 30.4537C72.9065 29.2105 72.1149 28.1281 70.9601 27.6538C70.9599 27.6537 70.9597 27.6537 70.9596 27.6536L59.3655 22.8643C59.3649 22.864 59.3643 22.8638 59.3637 22.8635C58.6791 22.5737 58.1756 21.9654 58.0212 21.234L58.0206 21.2312L55.3665 9.00268L55.3666 9.00267L55.3649 8.99552C55.112 7.90741 54.3282 7.02371 53.2829 6.64108C53.2666 6.63513 53.2501 6.63004 53.2333 6.6258L52.2136 6.3685C52.1501 6.35247 52.084 6.34908 52.0192 6.35855L51.5745 6.4235L51.2959 6.45314C51.2666 6.45626 51.2376 6.46196 51.2093 6.47019C51.0107 6.52796 50.8198 6.61242 50.6405 6.72729L50.4172 6.82601C50.4012 6.83312 50.3855 6.84108 50.3702 6.84984C50.076 7.01919 49.8162 7.23768 49.5965 7.48636L49.5964 7.48625L49.5882 7.49608L41.5544 17.0748C41.5539 17.0754 41.5534 17.076 41.5529 17.0766C41.0448 17.6693 40.2711 17.9603 39.503 17.8489C39.4962 17.848 39.4893 17.8471 39.4825 17.8464L27.0061 16.5625L27.0061 16.5625L27.0001 16.5619C25.7743 16.4508 24.5922 17.0328 23.9267 18.0684C23.2458 19.1119 23.2304 20.4545 23.8849 21.516L23.885 21.5163L30.4988 32.2329C30.4991 32.2334 30.4994 32.2339 30.4997 32.2344C30.886 32.8725 30.9408 33.66 30.6454 34.3474L25.4972 45.7665L25.4971 45.7665L25.4937 45.7744C24.7903 47.4095 25.512 49.3129 27.1252 50.062L27.1251 50.0622L27.1379 50.0677C27.8003 50.3531 28.5321 50.4194 29.2313 50.2629L29.2313 50.263L29.2397 50.2609L41.3819 47.3231L41.3819 47.3232L41.3908 47.3209C41.5514 47.2789 41.7207 47.2647 41.8895 47.2778L42.5001 47.4318C42.8464 47.5309 43.1623 47.7047 43.4245 47.943L43.4277 47.9458L52.7448 56.2675C52.7455 56.2682 52.7463 56.2688 52.747 56.2695C53.6684 57.1101 54.9887 57.3533 56.1466 56.8848C57.3183 56.4415 58.1244 55.3549 58.2097 54.1019Z" stroke="url(#paint1_linear_203_10942)" stroke-linecap="round" stroke-linejoin="round"/>
</g>
<defs>
<filter id="filter0_f_203_10942" x="1.19336" y="15.8916" width="55.3184" height="55.384" filterUnits="userSpaceOnUse" color-interpolation-filters="sRGB">
<feFlood flood-opacity="0" result="BackgroundImageFix"/>
<feBlend mode="normal" in="SourceGraphic" in2="BackgroundImageFix" result="shape"/>
<feGaussianBlur stdDeviation="10" result="effect1_foregroundBlur_203_10942"/>
</filter>
<filter id="filter1_b_203_10942" x="-1.0957" y="-18.147" width="98.6191" height="99.7676" filterUnits="userSpaceOnUse" color-interpolation-filters="sRGB">
<feFlood flood-opacity="0" result="BackgroundImageFix"/>
<feGaussianBlur in="BackgroundImageFix" stdDeviation="12"/>
<feComposite in2="SourceAlpha" operator="in" result="effect1_backgroundBlur_203_10942"/>
<feBlend mode="normal" in="SourceGraphic" in2="effect1_backgroundBlur_203_10942" result="shape"/>
</filter>
<linearGradient id="paint0_linear_203_10942" x1="7.4692" y1="37.8391" x2="48.2048" y2="75.8453" gradientUnits="userSpaceOnUse">
<stop stop-color="#FFA78F"/>
<stop offset="1" stop-color="#F23E2C"/>
</linearGradient>
<linearGradient id="paint1_linear_203_10942" x1="34.9175" y1="8.2439" x2="54.559" y2="53.4787" gradientUnits="userSpaceOnUse">
<stop stop-color="white" stop-opacity="0.25"/>
<stop offset="1" stop-color="white" stop-opacity="0"/>
</linearGradient>
</defs>
</svg>
