<svg xmlns="http://www.w3.org/2000/svg" xmlns:xlink="http://www.w3.org/1999/xlink"><defs><style>
    .sprite-symbol-usage {display: none;}
    .sprite-symbol-usage:target {display: inline;}
  </style><symbol viewBox="0 0 14 16" fill="none" id="arrow-up">
<path d="M7 15V1M7 1L13 7.3M7 1L1 7.3" stroke="#11D7FF" stroke-width="1.4" stroke-linecap="round" stroke-linejoin="round" />
</symbol><symbol viewBox="0 0 8 6" id="chevrone-city">
<path fill-rule="evenodd" clip-rule="evenodd" d="M0 1.74021L0.650791 0.980957L3.8254 3.70205L7 0.980957L7.65079 1.74021L3.8254 5.01912L0 1.74021Z" />
</symbol><symbol viewBox="0 0 21 22" fill="none" id="chevrone-news">
<path d="M7.875 16.25L13.125 11L7.875 5.75" stroke="#11D7FF" stroke-width="2" stroke-linecap="round" stroke-linejoin="round" />
</symbol><symbol viewBox="0 0 24 24" fill="none" id="icon-calendar">
<path d="M21 10H3M16 2V6M8 2V6M10.5 14L12 13V18M10.75 18H13.25M7.8 22H16.2C17.8802 22 18.7202 22 19.362 21.673C19.9265 21.3854 20.3854 20.9265 20.673 20.362C21 19.7202 21 18.8802 21 17.2V8.8C21 7.11984 21 6.27976 20.673 5.63803C20.3854 5.07354 19.9265 4.6146 19.362 4.32698C18.7202 4 17.8802 4 16.2 4H7.8C6.11984 4 5.27976 4 4.63803 4.32698C4.07354 4.6146 3.6146 5.07354 3.32698 5.63803C3 6.27976 3 7.11984 3 8.8V17.2C3 18.8802 3 19.7202 3.32698 20.362C3.6146 20.9265 4.07354 21.3854 4.63803 21.673C5.27976 22 6.11984 22 7.8 22Z" stroke="white" stroke-width="2" stroke-linecap="round" stroke-linejoin="round" />
</symbol><symbol viewBox="0 0 7 12" id="icon-chevron-right">
<path fill-rule="evenodd" clip-rule="evenodd" d="M0.292893 0.542893C0.683417 0.152369 1.31658 0.152369 1.70711 0.542893L6.45711 5.29289C6.84763 5.68342 6.84763 6.31658 6.45711 6.70711L1.70711 11.4571C1.31658 11.8476 0.683417 11.8476 0.292893 11.4571C-0.0976311 11.0666 -0.0976311 10.4334 0.292893 10.0429L4.33579 6L0.292893 1.95711C-0.0976311 1.56658 -0.0976311 0.933417 0.292893 0.542893Z" />
</symbol><symbol viewBox="0 0 15 15" fill="none" id="icon-clock">
<g clip-path="url(#icon-clock_clip0_60_96)">
<path d="M7.5 3.75V7.5L10 8.75M13.75 7.5C13.75 10.9518 10.9518 13.75 7.5 13.75C4.04822 13.75 1.25 10.9518 1.25 7.5C1.25 4.04822 4.04822 1.25 7.5 1.25C10.9518 1.25 13.75 4.04822 13.75 7.5Z" stroke="white" stroke-width="2" stroke-linecap="round" stroke-linejoin="round" />
</g>
<defs>

</defs>
</symbol><clipPath id="icon-clock_clip0_60_96">
<rect width="15" height="15" fill="white" />
</clipPath><symbol viewBox="0 0 25 25" fill="none" id="icon-clock-slim">
<path d="M12.5 6.5V12.5L16.5 14.5M22.5 12.5C22.5 18.0228 18.0228 22.5 12.5 22.5C6.97715 22.5 2.5 18.0228 2.5 12.5C2.5 6.97715 6.97715 2.5 12.5 2.5C18.0228 2.5 22.5 6.97715 22.5 12.5Z" stroke="#002D40" stroke-width="2" stroke-linecap="round" stroke-linejoin="round" />
</symbol><symbol viewBox="0 0 34 34" fill="none" id="icon-cross">
<path fill-rule="evenodd" clip-rule="evenodd" d="M8.10283 8.10283C8.51776 7.68789 9.19049 7.68789 9.60543 8.10283L17 15.4974L24.3945 8.10283C24.8094 7.68789 25.4822 7.68789 25.8971 8.10283C26.312 8.51776 26.312 9.19049 25.8971 9.60543L18.5026 17L25.8971 24.3945C26.312 24.8094 26.312 25.4822 25.8971 25.8971C25.4822 26.312 24.8094 26.312 24.3945 25.8971L17 18.5026L9.60543 25.8971C9.19049 26.312 8.51776 26.312 8.10283 25.8971C7.68789 25.4822 7.68789 24.8094 8.10283 24.3945L15.4974 17L8.10283 9.60543C7.68789 9.19049 7.68789 8.51776 8.10283 8.10283Z" fill="#002D40" />
</symbol><symbol viewBox="0 0 24 24" fill="none" id="icon-folder">
<path d="M21.0169 7.99175C21.4148 8.55833 20.9405 9.25 20.2482 9.25H3C2.44772 9.25 2 8.80228 2 8.25V6.42C2 3.98 3.98 2 6.42 2H8.74C10.37 2 10.88 2.53 11.53 3.4L12.93 5.26C13.24 5.67 13.28 5.72 13.86 5.72H16.65C18.4546 5.72 20.0516 6.61709 21.0169 7.99175Z" fill="#002D40" />
<path d="M21.9834 11.7466C21.9815 11.1957 21.5343 10.75 20.9834 10.75L3 10.75C2.44772 10.75 2 11.1977 2 11.75V16.65C2 19.6 4.4 22 7.35 22H16.65C19.6 22 22 19.6 22 16.65L21.9834 11.7466ZM14.54 16.97L12.39 18.85C12.28 18.95 12.14 19 12 19C11.86 19 11.72 18.95 11.61 18.85L9.46 16.97C8.78 16.37 8.69 15.35 9.26 14.64C9.83 13.92 10.86 13.79 11.6 14.34L12 14.64L12.4 14.34C13.14 13.79 14.17 13.92 14.74 14.64C15.31 15.35 15.22 16.37 14.54 16.97Z" fill="#002D40" />
</symbol><symbol viewBox="0 0 24 25" fill="none" id="icon-like">
<path d="M8.38965 18.99V8.82998C8.38965 8.42998 8.50965 8.03998 8.72965 7.70998L11.4596 3.64998C11.8896 2.99998 12.9596 2.53998 13.8696 2.87998C14.8496 3.20998 15.4996 4.30997 15.2896 5.28997L14.7696 8.55998C14.7296 8.85998 14.8096 9.12998 14.9796 9.33998C15.1496 9.52998 15.3996 9.64997 15.6696 9.64997H19.7796C20.5696 9.64997 21.2496 9.96997 21.6496 10.53C22.0296 11.07 22.0996 11.77 21.8496 12.48L19.3896 19.97C19.0796 21.21 17.7296 22.22 16.3896 22.22H12.4896C11.8196 22.22 10.8796 21.99 10.4496 21.56L9.16965 20.57C8.67965 20.2 8.38965 19.61 8.38965 18.99Z" fill="#002D40" />
<path d="M5.21 6.88H4.18C2.63 6.88 2 7.48 2 8.96V19.02C2 20.5 2.63 21.1 4.18 21.1H5.21C6.76 21.1 7.39 20.5 7.39 19.02V8.96C7.39 7.48 6.76 6.88 5.21 6.88Z" fill="#002D40" />
</symbol><symbol viewBox="0 0 25 25" id="icon-money">
<path d="M15.3892 18.7197H6.59921C6.07921 18.7197 5.5892 18.6698 5.1492 18.5698C4.9192 18.5398 4.63921 18.4597 4.34921 18.3497C3.01921 17.8497 1.44922 16.6198 1.44922 13.5598V8.40973C1.44922 5.13973 3.32921 3.25977 6.59921 3.25977H15.3892C18.1492 3.25977 19.9292 4.57974 20.4092 6.97974C20.4992 7.41974 20.5392 7.88973 20.5392 8.40973V13.5598C20.5392 16.8498 18.6692 18.7197 15.3892 18.7197ZM6.60919 4.77979C4.14919 4.77979 2.9592 5.96975 2.9592 8.42975V13.5798C2.9592 15.3698 3.58921 16.4698 4.87921 16.9598C5.07921 17.0298 5.26922 17.0797 5.44922 17.1097C5.82922 17.1897 6.19919 17.2297 6.60919 17.2297H15.3992C17.8592 17.2297 19.0492 16.0398 19.0492 13.5798V8.42975C19.0492 8.00975 19.0192 7.63974 18.9492 7.29974C18.6092 5.59974 17.4492 4.77979 15.3992 4.77979H6.60919Z" />
<path d="M18.3911 21.7198H9.60107C8.75107 21.7198 7.99106 21.5998 7.34106 21.3498C5.87106 20.7998 4.91105 19.6398 4.58105 17.9798C4.53105 17.7298 4.61107 17.4698 4.79107 17.2998C4.97107 17.1198 5.23107 17.0498 5.48107 17.1098C5.81107 17.1798 6.18107 17.2198 6.60107 17.2198H15.3911C17.8511 17.2198 19.0411 16.0299 19.0411 13.5699V8.41984C19.0411 7.99984 19.0111 7.62984 18.9411 7.28984C18.8911 7.03984 18.9711 6.78985 19.1411 6.60985C19.3211 6.42985 19.5711 6.34983 19.8211 6.40983C22.2211 6.89983 23.5411 8.67984 23.5411 11.4198V16.5699C23.5411 19.8499 21.6711 21.7198 18.3911 21.7198ZM6.42107 18.7198C6.74107 19.2998 7.22107 19.7099 7.88107 19.9499C8.36107 20.1299 8.94105 20.2198 9.61105 20.2198H18.4011C20.8611 20.2198 22.051 19.0299 22.051 16.5699V11.4198C22.051 9.83984 21.561 8.78985 20.551 8.23985C20.551 8.29985 20.551 8.35984 20.551 8.41984V13.5699C20.551 16.8399 18.6711 18.7198 15.4011 18.7198H6.61105C6.54105 18.7198 6.48107 18.7198 6.42107 18.7198Z" />
<path d="M10.9994 14.3899C9.12939 14.3899 7.60938 12.8699 7.60938 10.9999C7.60938 9.12988 9.12939 7.60986 10.9994 7.60986C12.8694 7.60986 14.3894 9.12988 14.3894 10.9999C14.3894 12.8699 12.8694 14.3899 10.9994 14.3899ZM10.9994 9.10986C9.95939 9.10986 9.10938 9.95988 9.10938 10.9999C9.10938 12.0399 9.95939 12.8899 10.9994 12.8899C12.0394 12.8899 12.8894 12.0399 12.8894 10.9999C12.8894 9.95988 12.0394 9.10986 10.9994 9.10986Z" />
<path d="M5.28125 13.9498C4.87125 13.9498 4.53125 13.6098 4.53125 13.1998V8.7998C4.53125 8.3898 4.87125 8.0498 5.28125 8.0498C5.69125 8.0498 6.03125 8.3898 6.03125 8.7998V13.1998C6.03125 13.6098 5.70125 13.9498 5.28125 13.9498Z" />
<path d="M16.7109 13.9498C16.3009 13.9498 15.9609 13.6098 15.9609 13.1998V8.7998C15.9609 8.3898 16.3009 8.0498 16.7109 8.0498C17.1209 8.0498 17.4609 8.3898 17.4609 8.7998V13.1998C17.4609 13.6098 17.1309 13.9498 16.7109 13.9498Z" />
</symbol><symbol viewBox="0 0 48 47" id="icon-people">
<path opacity="0.4" fill-rule="evenodd" clip-rule="evenodd" d="M35.5691 4.9165C33.321 4.9165 31.5166 6.72088 31.5166 8.96901C31.5166 11.1454 33.2029 12.9009 35.3313 13.0186C35.4813 13.0029 35.6373 13.0029 35.7873 13.0186C37.9135 12.9009 39.6042 11.1469 39.6216 8.96547C39.6197 6.736 37.8135 4.9165 35.5691 4.9165ZM29.5166 8.96901C29.5166 5.61631 32.2164 2.9165 35.5691 2.9165C38.9243 2.9165 41.6216 5.63841 41.6216 8.96901V8.97616H41.6216C41.5982 12.2498 39.0226 14.9034 35.7815 15.0208C35.7143 15.0233 35.6471 15.0189 35.5808 15.0079C35.5821 15.0081 35.5804 15.0078 35.5759 15.0074C35.5714 15.0071 35.5657 15.0068 35.5593 15.0068C35.5529 15.0068 35.5472 15.0071 35.5427 15.0074C35.5382 15.0078 35.5365 15.0081 35.5378 15.0079C35.4715 15.0189 35.4043 15.0233 35.3371 15.0208C32.0973 14.9035 29.5166 12.2494 29.5166 8.96901Z" />
<path opacity="0.4" fill-rule="evenodd" clip-rule="evenodd" d="M33.4968 17.7958C36.3801 17.2907 39.6478 17.7793 41.9969 19.338L41.9986 19.3392C43.5878 20.3986 44.5149 21.8956 44.5149 23.52C44.5149 25.1441 43.5882 26.6408 41.9996 27.7002C39.6691 29.2607 36.4412 29.7482 33.5626 29.2649C33.0179 29.1735 32.6505 28.6578 32.742 28.1132C32.8334 27.5685 33.3491 27.2011 33.8937 27.2925C36.3806 27.71 39.0663 27.2577 40.8874 26.0379L40.8893 26.0367C42.0614 25.2553 42.5149 24.3239 42.5149 23.52C42.5149 22.7163 42.0617 21.7852 40.8903 21.0039C39.0485 19.7823 36.324 19.331 33.8419 19.7658C33.2979 19.8611 32.7797 19.4974 32.6844 18.9534C32.5891 18.4094 32.9528 17.8911 33.4968 17.7958Z" />
<path opacity="0.4" fill-rule="evenodd" clip-rule="evenodd" d="M6.31008 8.96901C6.31008 5.63841 9.00737 2.9165 12.3626 2.9165C15.7153 2.9165 18.4151 5.61631 18.4151 8.96901C18.4151 12.2494 15.8345 14.9035 12.5946 15.0208C12.5274 15.0233 12.4602 15.0189 12.3939 15.0079L12.3944 15.008C12.3944 15.008 12.3925 15.0077 12.389 15.0074C12.3845 15.0071 12.3788 15.0068 12.3724 15.0068C12.366 15.0068 12.3603 15.0071 12.3558 15.0074C12.3512 15.0078 12.3495 15.0081 12.3509 15.0079C12.2846 15.0189 12.2173 15.0233 12.1501 15.0208C8.90905 14.9034 6.33349 12.2497 6.31011 8.97616L6.31006 8.96901H6.31008ZM8.31009 8.96545C8.3275 11.1469 10.0182 12.901 12.1443 13.0186C12.2944 13.0029 12.4504 13.0029 12.6005 13.0186C14.7289 12.9009 16.4151 11.1454 16.4151 8.96901C16.4151 6.72088 14.6107 4.9165 12.3626 4.9165C10.1182 4.9165 8.31201 6.736 8.31009 8.96545Z" />
<path opacity="0.4" fill-rule="evenodd" clip-rule="evenodd" d="M14.0894 19.7658C11.6073 19.331 8.88296 19.7822 7.04121 21.0039C5.8698 21.7852 5.4165 22.7162 5.4165 23.52C5.4165 24.3239 5.87003 25.2553 7.04213 26.0367L7.04394 26.0379C8.86509 27.2577 11.5509 27.71 14.0377 27.2925C14.5824 27.2011 15.098 27.5685 15.1895 28.1132C15.2809 28.6578 14.9135 29.1735 14.3688 29.2649C11.4902 29.7482 8.26221 29.2607 5.93174 27.7001C4.34321 26.6407 3.4165 25.144 3.4165 23.52C3.4165 21.8956 4.3436 20.3986 5.93275 19.3392L5.93454 19.338L5.93454 19.338C8.28362 17.7793 11.5512 17.2907 14.4345 17.7958C14.9785 17.8911 15.3423 18.4094 15.247 18.9534C15.1517 19.4974 14.6334 19.8611 14.0894 19.7658Z" />
<path fill-rule="evenodd" clip-rule="evenodd" d="M23.8237 19.5454C21.5756 19.5454 19.7712 21.3498 19.7712 23.5979C19.7712 25.7743 21.4575 27.5298 23.5859 27.6475C23.7374 27.6316 23.895 27.6318 24.0464 27.6479C26.1621 27.5468 27.8588 25.783 27.8762 23.5944C27.8744 21.365 26.0682 19.5454 23.8237 19.5454ZM17.7712 23.5979C17.7712 20.2452 20.4711 17.5454 23.8237 17.5454C27.1791 17.5454 29.8762 20.2674 29.8762 23.5979V23.605L29.8762 23.605C29.853 26.8722 27.2822 29.5557 24.029 29.65C23.9642 29.6519 23.8994 29.6474 23.8355 29.6368C23.8363 29.6369 23.8361 29.6369 23.8351 29.6367C23.8342 29.6366 23.8327 29.6365 23.8306 29.6363C23.8261 29.636 23.8204 29.6357 23.814 29.6357C23.8076 29.6357 23.8019 29.636 23.7974 29.6363C23.7928 29.6367 23.7911 29.637 23.7925 29.6368C23.7262 29.6478 23.6589 29.6522 23.5917 29.6498C20.3519 29.5324 17.7712 26.8783 17.7712 23.5979Z" />
<path fill-rule="evenodd" clip-rule="evenodd" d="M24.0073 32.2622C26.2254 32.2622 28.4966 32.8158 30.2534 33.9871C31.8425 35.0465 32.7696 36.5435 32.7696 38.1678C32.7696 39.792 31.8428 41.2888 30.254 42.3483C28.4887 43.5286 26.2181 44.0882 23.9999 44.0882C21.7816 44.0882 19.5107 43.5285 17.7453 42.3479C16.1569 41.2885 15.2302 39.7918 15.2302 38.1678C15.2302 36.5434 16.1573 35.0465 17.7465 33.9871L17.7489 33.9855L17.7489 33.9855C19.5142 32.8159 21.7888 32.2622 24.0073 32.2622ZM18.8547 35.652C17.6834 36.4332 17.2302 37.3642 17.2302 38.1678C17.2302 38.9718 17.6838 39.9031 18.8559 40.6846L18.8571 40.6854C20.225 41.6002 22.0862 42.0882 23.9999 42.0882C25.9137 42.0882 27.7749 41.6002 29.1428 40.6854L29.144 40.6846C30.3161 39.9032 30.7696 38.9718 30.7696 38.1678C30.7696 37.3639 30.3161 36.4326 29.144 35.6512L29.144 35.6512C27.787 34.7465 25.9261 34.2622 24.0073 34.2622C22.0893 34.2622 20.2226 34.7461 18.8547 35.652Z" />
</symbol><symbol viewBox="0 0 21 21" id="icon-pin">
<path fill-rule="evenodd" clip-rule="evenodd" d="M10.5 3.375C7.28984 3.375 4.6875 5.97734 4.6875 9.1875C4.6875 12.0371 6.1838 14.3199 7.75529 15.9288C8.53631 16.7285 9.31946 17.3441 9.90735 17.7594C10.1411 17.9245 10.3429 18.0572 10.5 18.1565C10.6571 18.0572 10.8589 17.9245 11.0927 17.7594C11.6805 17.3441 12.4637 16.7285 13.2447 15.9288C14.8162 14.3199 16.3125 12.0371 16.3125 9.1875C16.3125 5.97734 13.7102 3.375 10.5 3.375ZM10.5 19.0312C10.1397 19.689 10.1395 19.6889 10.1392 19.6887L10.1385 19.6884L10.1366 19.6873L10.1312 19.6843L10.1132 19.6743C10.0982 19.6658 10.077 19.6538 10.0503 19.6383C9.99674 19.6073 9.92049 19.5622 9.82478 19.5032C9.63345 19.3854 9.36379 19.212 9.04187 18.9846C8.39929 18.5306 7.54182 17.857 6.68221 16.9769C4.97245 15.2264 3.1875 12.5873 3.1875 9.1875C3.1875 5.14892 6.46142 1.875 10.5 1.875C14.5386 1.875 17.8125 5.14892 17.8125 9.1875C17.8125 12.5873 16.0276 15.2264 14.3178 16.9769C13.4582 17.857 12.6007 18.5306 11.9581 18.9846C11.6362 19.212 11.3665 19.3854 11.1752 19.5032C11.0795 19.5622 11.0033 19.6073 10.9497 19.6383C10.923 19.6538 10.9018 19.6658 10.8868 19.6743L10.8688 19.6843L10.8634 19.6873L10.8615 19.6884L10.8608 19.6887C10.8605 19.6889 10.8603 19.689 10.5 19.0312ZM10.5 19.0312L10.8603 19.689C10.6358 19.812 10.3642 19.812 10.1397 19.689L10.5 19.0312ZM10.5 7.3125C9.46447 7.3125 8.625 8.15197 8.625 9.1875C8.625 10.223 9.46447 11.0625 10.5 11.0625C11.5355 11.0625 12.375 10.223 12.375 9.1875C12.375 8.15197 11.5355 7.3125 10.5 7.3125ZM7.125 9.1875C7.125 7.32354 8.63604 5.8125 10.5 5.8125C12.364 5.8125 13.875 7.32354 13.875 9.1875C13.875 11.0515 12.364 12.5625 10.5 12.5625C8.63604 12.5625 7.125 11.0515 7.125 9.1875Z" />
</symbol><symbol viewBox="0 0 28 33" fill="none" id="icon-play">
<path d="M27.6685 16.5825L0.437012 32.3223L0.437012 0.842669L27.6685 16.5825Z" fill="#002D40" />
</symbol><symbol viewBox="0 0 24 25" fill="none" id="icon-ranking">
<path d="M13.3 8.60995L14.62 11.2499C14.8 11.6099 15.28 11.9699 15.68 12.0299L18.07 12.43C19.6 12.6899 19.96 13.79 18.86 14.89L17 16.7599C16.69 17.07 16.51 17.68 16.61 18.12L17.14 20.4299C17.56 22.2499 16.59 22.9599 14.98 22.0099L12.74 20.6799C12.33 20.4399 11.67 20.4399 11.26 20.6799L9.00997 21.9999C7.39997 22.9499 6.42997 22.2399 6.84997 20.4199L7.37997 18.11C7.47997 17.6799 7.29997 17.0699 6.98997 16.7499L5.13997 14.8999C4.03997 13.7999 4.39997 12.6899 5.92997 12.4399L8.31997 12.0399C8.71997 11.9699 9.19997 11.6199 9.37997 11.2599L10.7 8.61995C11.41 7.17995 12.59 7.17995 13.3 8.60995Z" fill="#002D40" />
<path d="M6 10.25C5.59 10.25 5.25 9.91 5.25 9.5V2.5C5.25 2.09 5.59 1.75 6 1.75C6.41 1.75 6.75 2.09 6.75 2.5V9.5C6.75 9.91 6.41 10.25 6 10.25Z" fill="#002D40" />
<path d="M18 10.25C17.59 10.25 17.25 9.91 17.25 9.5V2.5C17.25 2.09 17.59 1.75 18 1.75C18.41 1.75 18.75 2.09 18.75 2.5V9.5C18.75 9.91 18.41 10.25 18 10.25Z" fill="#002D40" />
<path d="M12 5.25C11.59 5.25 11.25 4.91 11.25 4.5V2.5C11.25 2.09 11.59 1.75 12 1.75C12.41 1.75 12.75 2.09 12.75 2.5V4.5C12.75 4.91 12.41 5.25 12 5.25Z" fill="#002D40" />
</symbol><symbol viewBox="0 0 37 37" fill="none" id="icon-skew-star">
<path d="M10.2588 0.105434L21.1066 11.2435L36.6231 10.2587L25.485 21.1065L26.4698 36.623L15.622 25.485L0.105504 26.4697L11.2435 15.6219L10.2588 0.105434Z" fill="white" />
</symbol><symbol viewBox="0 0 17 16" id="icon-star">
<path d="M7.46596 0.557434C7.83277 -0.185811 8.89262 -0.185811 9.25943 0.557434L11.069 4.22392C11.2146 4.51906 11.4962 4.72363 11.8219 4.77096L15.8681 5.35891C16.6883 5.4781 17.0158 6.48607 16.4223 7.0646L13.4944 9.91857C13.2588 10.1483 13.1512 10.4793 13.2069 10.8037L13.898 14.8336C14.0381 15.6505 13.1807 16.2734 12.4471 15.8877L8.82804 13.9851C8.53671 13.8319 8.18868 13.8319 7.89736 13.9851L4.27832 15.8877C3.54469 16.2734 2.68726 15.6505 2.82737 14.8336L3.51854 10.8037C3.57418 10.4793 3.46663 10.1483 3.23095 9.91857L0.303081 7.0646C-0.290436 6.48607 0.0370742 5.4781 0.857294 5.35891L4.9035 4.77096C5.22921 4.72363 5.51078 4.51906 5.65644 4.22392L7.46596 0.557434Z" />
</symbol><symbol viewBox="0 0 18 15" fill="none" id="icon-tg">
<path d="M7.31126 9.66761L7.02137 13.7449C7.43612 13.7449 7.61575 13.5667 7.83115 13.3528L9.77565 11.4945L13.8048 14.4451C14.5438 14.8569 15.0644 14.64 15.2637 13.7653L16.5861 7.5691L17.9085 1.3729L17.9092 1.37217C18.1436 0.279839 17.5142 -0.147309 16.7942 0.120663L1.2485 6.07226C0.187532 6.48407 0.203596 7.07551 1.06814 7.34348L5.04256 8.57966L14.2743 2.8033C14.7088 2.51561 15.1038 2.67479 14.7789 2.96248L7.31126 9.66761Z" fill="white" />
</symbol><symbol viewBox="0 0 24 24" fill="none" id="icon-time">
<path d="M12 6V12L16 14M22 12C22 17.5228 17.5228 22 12 22C6.47715 22 2 17.5228 2 12C2 6.47715 6.47715 2 12 2C17.5228 2 22 6.47715 22 12Z" stroke="white" stroke-width="2" stroke-linecap="round" stroke-linejoin="round" />
</symbol><symbol viewBox="0 0 18 12" fill="none" id="icon-vk">
<path fill-rule="evenodd" clip-rule="evenodd" d="M0.304199 0.791922C0.443691 7.59215 3.84381 11.6723 9.80709 11.6723H9.81581H10.1558V7.78396C12.3441 8.00191 14.0006 9.60607 14.6632 11.6723H17.7581C17.4407 10.4982 16.878 9.40471 16.107 8.46397C15.3361 7.52324 14.3745 6.75662 13.2857 6.21467C14.2614 5.62049 15.1041 4.83149 15.7611 3.89695C16.4181 2.96241 16.8754 1.90242 17.1043 0.783203H14.297C13.6867 2.94533 11.8733 4.90693 10.1558 5.09002V0.791922H7.33982V8.32449C5.59618 7.88858 3.39918 5.77876 3.30328 0.791922H0.304199Z" fill="white" />
</symbol><symbol viewBox="0 0 19 19" fill="none" id="icon-wa">
<path d="M9.43704 0.43457H9.43247C4.39818 0.43457 0.304321 4.52957 0.304321 9.56501C0.304321 11.5623 0.948017 13.4135 2.04253 14.9166L0.904647 18.3085L4.41416 17.1866C5.85791 18.143 7.58014 18.6954 9.43704 18.6954C14.4713 18.6954 18.5652 14.5993 18.5652 9.56501C18.5652 4.53071 14.4713 0.43457 9.43704 0.43457ZM14.7498 13.3279C14.5295 13.9499 13.6553 14.4658 12.958 14.6164C12.4809 14.718 11.8577 14.799 9.76003 13.9294C7.07682 12.8177 5.34889 10.0911 5.21421 9.91424C5.08525 9.73734 4.12997 8.47049 4.12997 7.16028C4.12997 5.85006 4.79535 5.21207 5.06356 4.93816C5.28383 4.71332 5.64791 4.6106 5.99715 4.6106C6.11014 4.6106 6.21171 4.61631 6.30302 4.62087C6.57122 4.63229 6.7059 4.64827 6.8828 5.07169C7.10307 5.6024 7.63948 6.91261 7.7034 7.04729C7.76845 7.18196 7.83351 7.36457 7.7422 7.54147C7.6566 7.72408 7.58128 7.80511 7.4466 7.96033C7.31193 8.11555 7.1841 8.23424 7.04943 8.40087C6.92617 8.54582 6.78693 8.70104 6.94215 8.96924C7.09736 9.23174 7.63378 10.1071 8.42356 10.8102C9.44275 11.7175 10.269 12.0074 10.5646 12.1307C10.7849 12.222 11.0474 12.2003 11.2083 12.0291C11.4126 11.8088 11.6649 11.4436 11.9217 11.0841C12.1043 10.8261 12.3348 10.7942 12.5768 10.8855C12.8233 10.9711 14.1278 11.6159 14.396 11.7495C14.6642 11.8841 14.8411 11.948 14.9062 12.061C14.9701 12.174 14.9701 12.7047 14.7498 13.3279Z" fill="white" />
</symbol><symbol viewBox="0 0 32 32" fill="none" id="location-icon">
<g clip-path="url(#location-icon_clip0_84_365)">
<path d="M27.4933 11.2666C26.0933 5.10659 20.72 2.33325 16 2.33325C16 2.33325 16 2.33325 15.9867 2.33325C11.28 2.33325 5.89334 5.09325 4.49334 11.2533C2.93334 18.1333 7.14667 23.9599 10.96 27.6266C12.3733 28.9866 14.1867 29.6666 16 29.6666C17.8133 29.6666 19.6267 28.9866 21.0267 27.6266C24.84 23.9599 29.0533 18.1466 27.4933 11.2666ZM16 17.9466C13.68 17.9466 11.8 16.0666 11.8 13.7466C11.8 11.4266 13.68 9.54658 16 9.54658C18.32 9.54658 20.2 11.4266 20.2 13.7466C20.2 16.0666 18.32 17.9466 16 17.9466Z" fill="#002D40" />
</g>
<defs>

</defs>
</symbol><clipPath id="location-icon_clip0_84_365">
<rect width="32" height="32" fill="white" />
</clipPath></defs><use id="arrow-up-usage" xlink:href="#arrow-up" class="sprite-symbol-usage" /><use id="chevrone-city-usage" xlink:href="#chevrone-city" class="sprite-symbol-usage" /><use id="chevrone-news-usage" xlink:href="#chevrone-news" class="sprite-symbol-usage" /><use id="icon-calendar-usage" xlink:href="#icon-calendar" class="sprite-symbol-usage" /><use id="icon-chevron-right-usage" xlink:href="#icon-chevron-right" class="sprite-symbol-usage" /><use id="icon-clock-usage" xlink:href="#icon-clock" class="sprite-symbol-usage" /><use id="icon-clock-slim-usage" xlink:href="#icon-clock-slim" class="sprite-symbol-usage" /><use id="icon-cross-usage" xlink:href="#icon-cross" class="sprite-symbol-usage" /><use id="icon-folder-usage" xlink:href="#icon-folder" class="sprite-symbol-usage" /><use id="icon-like-usage" xlink:href="#icon-like" class="sprite-symbol-usage" /><use id="icon-money-usage" xlink:href="#icon-money" class="sprite-symbol-usage" /><use id="icon-people-usage" xlink:href="#icon-people" class="sprite-symbol-usage" /><use id="icon-pin-usage" xlink:href="#icon-pin" class="sprite-symbol-usage" /><use id="icon-play-usage" xlink:href="#icon-play" class="sprite-symbol-usage" /><use id="icon-ranking-usage" xlink:href="#icon-ranking" class="sprite-symbol-usage" /><use id="icon-skew-star-usage" xlink:href="#icon-skew-star" class="sprite-symbol-usage" /><use id="icon-star-usage" xlink:href="#icon-star" class="sprite-symbol-usage" /><use id="icon-tg-usage" xlink:href="#icon-tg" class="sprite-symbol-usage" /><use id="icon-time-usage" xlink:href="#icon-time" class="sprite-symbol-usage" /><use id="icon-vk-usage" xlink:href="#icon-vk" class="sprite-symbol-usage" /><use id="icon-wa-usage" xlink:href="#icon-wa" class="sprite-symbol-usage" /><use id="location-icon-usage" xlink:href="#location-icon" class="sprite-symbol-usage" /></svg>